<svg width="459" height="367" viewBox="0 0 459 367" fill="none" xmlns="http://www.w3.org/2000/svg">
<path d="M458.315 156.638C458.818 156.919 458.803 156.912 459 157.454C457.726 158.928 453.415 159.608 451.499 159.983L451.206 159.95L451.021 159.562C452.37 158.121 456.37 157.278 458.315 156.638Z" fill="#6A6A6A"/>
<path d="M449.822 163.491L449.969 162.839C451.267 162.665 457.967 163.461 458.901 164.141C458.589 164.613 458.552 164.703 457.953 164.799C455.797 165.146 452.317 163.416 450.442 164.202L449.822 163.491Z" fill="#6A6A6A"/>
<path d="M449.822 163.491L450.442 164.202C450.999 172.288 450.974 179.975 449.93 188.013L448.938 188.246C449.387 183.692 449.955 179.172 450.016 174.588C450.065 170.885 449.67 167.195 449.822 163.491Z" fill="#6A6A6A"/>
<path d="M434.181 131.135C438.695 142.016 440.991 153.233 442.347 164.896C442.736 170.306 443.413 176.038 442.784 181.435C442.472 181.692 442.327 181.819 441.932 181.939C442.163 176.307 441.855 170.848 441.334 165.244C440.005 153.834 438.023 142.717 433.731 132.002L434.181 131.135Z" fill="#6A6A6A"/>
<path d="M0 222.103C0.634127 222.295 0.930407 222.274 1.23563 222.917C1.41929 223.303 1.49665 223.836 1.59558 224.256C3.99369 237.574 8.07841 249.774 13.4945 262.153C15.2233 266.104 17.8176 269.942 19.2638 273.941C19.6143 274.3 19.8637 274.598 20.0984 275.042C21.8197 278.891 24.5647 282.282 25.8692 286.315C23.3932 283.744 21.4377 280.259 19.7363 277.115L18.978 275.55C16.9957 272.982 15.4974 269.384 14.0866 266.438C7.27588 252.218 2.43126 237.684 0 222.103Z" fill="#6A6A6A"/>
<path d="M407.258 79.0861C408.2 78.8588 408.442 79.1014 409.313 79.475C420.04 88.6511 430.425 102.855 436.541 115.541L438.828 120.09C443.037 129.374 446.198 138.554 448.317 148.525C448.928 151.396 449.732 154.596 449.458 157.533C448.152 153.159 447.352 148.655 446.261 144.226C444.963 138.953 443.26 133.741 441.295 128.68C440.317 126.161 439.319 123.518 437.939 121.195C437.085 119.667 436.409 117.994 435.678 116.401C434.455 114.873 433.613 112.499 432.624 110.743C431.099 108.039 429.39 105.422 427.661 102.845C421.737 94.0078 414.593 86.7182 407.258 79.0861Z" fill="#6A6A6A"/>
<path d="M407.465 66.7412L408.89 66.9001C407.9 68.15 407.653 68.9941 406.207 69.8324L405.895 69.6487C406.123 68.5604 406.859 67.6564 407.465 66.7412Z" fill="#6A6A6A"/>
<path d="M407.465 66.7412C408.476 65.2767 410.326 61.7161 411.966 61.1035C411.981 62.7843 409.96 65.6708 408.89 66.9001L407.465 66.7412Z" fill="#6A6A6A"/>
<path d="M416.548 69.8806C416.777 69.8422 417.023 69.9022 417.253 69.9301L417.58 70.3522C416.512 71.6446 412.157 72.2214 410.453 72.6471C409.95 72.6982 409.941 72.6134 409.519 72.3803L409.315 72.5734L409.705 72.6255L409.427 72.2498L409.986 71.8588L409.773 71.8872C411.467 70.6511 414.494 70.179 416.548 69.8806Z" fill="#6A6A6A"/>
<path d="M319.552 0.259823C322.325 0.0098558 325.497 -0.514816 327.833 1.3923C328.774 2.16062 329.349 3.25627 329.863 4.33665C329.139 4.39769 328.511 4.27561 328.021 4.90394C327.888 5.07497 327.702 5.45124 327.598 5.65227C327.216 4.60398 326.777 3.66569 325.832 3.00893C324.602 2.15431 323.247 2.29324 321.855 2.57583C321.667 2.06064 321.721 2.2585 321.618 1.83224C321.509 1.37862 321.463 0.976564 321.142 0.613981C320.872 0.30981 319.961 0.316657 319.552 0.259823Z" fill="#6A6A6A"/>
<path d="M104.387 34.6143C104.297 28.6824 104.451 13.8733 107.663 9.01132C108.772 7.33313 110.222 6.67479 112.156 6.34378C116.312 5.6323 131.931 4.75504 135.23 7.29629C141.077 11.7999 141.154 27.5941 142.05 34.5453C146.062 35.6473 149.624 36.9687 153.192 39.1352C153.478 38.8169 153.761 38.5143 154.07 38.2169C158.373 34.0738 172.454 24.0304 178.244 24.3425C180.934 24.4872 183.542 27.0053 185.229 28.9429C185.086 29.0213 184.907 28.9961 184.744 29.0108C184.44 28.6971 184.132 28.394 183.821 28.0883C182.462 26.7553 180.902 25.8391 179.287 24.8487L179.101 25.1671C179.428 25.9344 180.178 26.1296 180.835 26.5585C181.468 26.9716 181.697 27.1431 181.864 27.883C180.159 26.69 179.023 25.9065 176.848 26.3359C170.663 27.5562 158.203 36.775 153.493 41.2192C149.063 38.7842 144.649 37.2565 139.894 35.5757C139.933 30.7816 138.57 13.6854 135.43 10.6395C133.553 8.8182 112.756 9.94068 108.643 10.0675C107.064 15.8383 105.246 30.3506 106.816 36.0788C101.409 37.8954 95.8986 39.5615 91.2392 42.9789C88.8011 39.3368 75.776 27.8552 71.7949 27.0763C69.3158 26.5916 66.4214 28.8208 64.5554 30.2506C61.0721 32.9197 54.5688 37.7307 54.0952 42.3338C53.9841 43.4094 54.1888 44.5508 54.3646 45.6112C56.6443 52.1356 63.5097 63.1905 69.7289 66.6232C67.616 70.8779 65.1784 75.3799 64.1828 80.0551C59.0692 79.903 40.5459 83.6252 37.2647 86.8642C34.7603 89.336 35.1913 98.1585 35.2492 101.625C35.2976 104.514 35.7497 107.669 37.9047 109.789C38.7467 110.617 39.7707 111.195 40.8564 111.641C43.6313 112.784 57.8605 116.446 60.5711 116.404C61.7484 116.386 62.9566 116.21 64.128 116.086C66.0299 119.197 67.4023 122.701 69.2026 125.902C64.4333 130.629 53.8141 141.331 53.8373 148.262C53.8515 152.55 60.5433 159.087 63.4981 161.74C65.2716 163.332 68.4343 166.356 70.9645 166.303C75.3518 166.213 86.8819 154.716 89.9204 151.21L90.1683 150.922C95.3134 153.96 100.668 155.906 106.419 157.464C106.967 166.225 106.87 174.86 109.288 183.356C117.251 187.304 129.192 185.527 137.57 183.589C140.727 175.791 140.375 166.77 141.066 158.514C144.907 157.446 148.352 155.889 151.884 154.061C151.335 155.333 147.853 156.632 146.488 157.183C144.956 157.801 143.389 158.346 141.835 158.906L141.774 159.296C142.266 159.655 142.255 159.645 142.83 159.533C144.088 159.289 145.95 157.935 147.148 158.215L147.279 158.328C145.847 159.012 144.305 159.494 142.779 159.915C142.762 165.171 142.182 180.773 138.831 184.661C136.82 186.995 130.325 187.405 127.453 187.621C123.449 187.923 111.512 187.98 108.555 185.128C104.664 181.376 104.986 164.645 104.895 158.968C99.8675 157.751 95.1439 155.77 90.5456 153.441C86.593 157.888 77.6915 166.81 71.9381 168.142C68.9048 168.844 66.0162 168.037 63.456 166.373C58.7719 163.328 53.1942 157.37 52.128 151.698C50.4851 142.957 58.8424 132.948 63.6155 126.1C62.6719 125.374 61.0411 123.858 59.8939 123.88C57.4068 125.559 57.7826 129.275 56.6317 131.737L56.3349 131.458C56.2307 130.532 56.4875 129.426 56.5964 128.493C57.6063 126.733 58.5809 124.806 59.476 122.983L59.0471 122.696C59.9049 121.693 61.4463 121.434 62.0667 120.247L61.7331 119.815C61.38 119.528 61.1747 119.266 60.9022 118.906L61.1484 118.586C53.7263 116.88 46.4551 114.691 39.0724 112.892C36.6843 111.614 35.0771 109.596 34.2788 107.01C32.9032 102.554 32.7653 91.0136 35.0914 86.8658C35.9118 85.4039 37.3805 84.2888 38.8609 83.5599C44.96 80.5571 55.8607 79.5115 62.6677 77.8717C64.0428 74.2706 65.4147 70.7963 67.3592 67.4489C61.9241 63.8299 54.0957 53.0723 52.788 46.6837C52.4964 45.8575 52.3428 45.0792 52.2838 44.2019C52.0686 41.0087 54.0636 37.8922 56.097 35.582C58.7293 32.5914 66.4077 25.2823 70.5888 25.2081C76.5843 25.1018 87.1187 35.8383 91.6049 40.0672C95.6544 37.6944 99.9875 36.1788 104.387 34.6143Z" fill="#6A6A6A"/>
<path d="M119.644 7.83998C125.105 7.66421 130.641 7.12007 135.764 9.33925C131.929 9.29557 128.278 8.50989 124.4 8.83353C123.967 9.06192 111.95 9.13402 110.92 8.9451C113.033 7.76104 117.194 8.11468 119.644 7.83998Z" fill="#F8F6EE"/>
<path d="M61.1483 118.586C61.9608 118.684 62.5255 118.639 63.1028 119.305C64.6147 121.049 65.5277 123.498 66.6555 125.51C64.51 127.982 62.4986 130.757 59.9516 132.824C61.4951 130.711 63.1533 128.62 64.5084 126.382C63.1486 125.098 61.4367 123.155 59.4759 122.983L59.047 122.696C59.9048 121.693 61.4461 121.434 62.0666 120.247L61.733 119.815C61.3798 119.528 61.1746 119.266 60.902 118.906L61.1483 118.586Z" fill="#B7D5DC"/>
<path d="M131.53 145.507C126.927 146.218 122.279 146.442 117.642 145.911C104.77 144.435 92.107 137.494 84.1086 127.281C76.0055 116.935 72.4922 103.342 74.1357 90.3389C75.8481 76.7928 82.8135 65.1896 93.6258 56.9402C103.978 49.0407 117.218 46.0564 130.034 47.7883C143.362 49.5896 155.275 56.3087 163.357 67.1046C170.385 76.4918 174.551 89.8101 172.866 101.56C171.728 114.571 165.852 125.885 155.805 134.254C151.435 137.893 146.859 140.651 141.567 142.728C138.242 143.951 134.951 144.655 131.53 145.507Z" fill="#6A6A6A"/>
<path d="M130.636 143.982C128.543 144.255 126.453 144.466 124.343 144.526C111.198 144.894 98.7234 139.521 89.311 130.502C80.339 121.905 75.4865 109.705 75.2855 97.3416C75.0813 84.8027 80.0569 72.1844 88.7979 63.1856C97.4894 54.2373 109.726 49.019 122.193 48.9017C135.924 48.7727 148.661 54.1736 158.373 63.8492C168.464 73.901 171.535 86.5846 171.517 100.389C171.477 100.561 171.435 100.733 171.397 100.905C170.732 103.925 170.568 107.014 169.779 110.046C166.993 120.741 159.855 130.083 150.689 136.125C147.597 138.163 144.375 139.709 140.983 141.17C137.578 142.405 134.192 143.307 130.636 143.982Z" fill="#F8F6EE"/>
<path d="M119.909 54.9175C120.002 54.897 120.094 54.8675 120.188 54.8559C130.721 53.5645 143.011 58.1545 150.905 64.9872C159.24 72.2005 164.823 82.7159 165.576 93.7529C166.362 105.294 162.647 116.426 154.963 125.091C147.837 133.127 137.188 138.16 126.485 138.8C126.16 138.88 125.87 138.95 125.534 138.975C115.242 139.768 103.144 135.185 95.4453 128.463C87.2922 121.344 81.9629 110.594 81.2467 99.8021C80.5025 88.5909 84.11 77.5135 91.5132 69.0462C98.6959 60.8315 109.025 55.6848 119.909 54.9175Z" fill="#6A6A6A"/>
<path d="M121.157 56.0439C130.95 55.5871 140.796 58.7114 148.482 64.7843C156.919 71.4502 162.741 81.3189 163.937 92.0691C165.104 102.551 162.2 113.173 155.574 121.406C148.273 130.476 138.25 135.49 126.765 136.712C116.029 137.167 106.102 134.138 97.7188 127.287C89.5157 120.582 84.1848 110.533 83.1776 100.014C82.1503 89.2879 85.6236 78.573 92.4679 70.2925C99.7149 61.5247 110.013 57.0964 121.157 56.0439Z" fill="#2298FF"/>
<path d="M52.222 118.654C53.2408 119.937 53.7955 121.42 54.4233 122.917C57.0261 122.217 59.7221 121.742 61.7329 119.815L62.0665 120.247C61.4461 121.434 59.9047 121.693 59.0469 122.696L59.4758 122.983C58.5807 124.806 57.6061 126.733 56.5962 128.494C55.7642 127.097 55.0896 125.614 54.3854 124.15C47.7942 126.762 41.2561 129.623 34.888 132.743C31.369 134.467 27.7358 136.735 24.0973 138.136C22.7296 139.008 17.1572 142.459 16.0126 142.576L15.6779 142.208C16.1521 140.64 21.2061 138.416 22.7186 137.573C32.6736 131.974 42.9412 127.502 53.5156 123.228C53.0004 121.73 52.6257 120.186 52.222 118.654Z" fill="#6A6A6A"/>
<path d="M59.047 122.696L59.4759 122.983C58.5808 124.806 57.6062 126.733 56.5963 128.493L56.5579 128.322C56.2211 126.75 55.4686 125.395 54.7471 123.973C56.1685 123.469 57.5883 123.073 59.047 122.696Z" fill="#2CD997"/>
<path d="M333.103 159.736L333.332 160.449C332.539 160.651 331.79 160.849 330.967 160.889L330.963 159.975C331.667 159.854 332.392 159.809 333.103 159.736Z" fill="#6A6A6A"/>
<path d="M288.488 225.619C289.896 226.82 290.386 228.778 291.419 230.295C292.409 231.75 294.773 233.843 295.237 235.387C293.731 234.517 289.539 229.542 287.979 227.98C287.834 227.073 288.185 226.476 288.488 225.619Z" fill="#2CD997"/>
<path d="M270.122 134.616L269.745 135.701C269.839 135.695 269.932 135.685 270.025 135.682C270.142 135.679 270.259 135.691 270.376 135.684C271.106 135.64 271.806 135.382 272.501 135.167C272.16 136.072 269.835 138.417 268.879 138.713C268.223 138.916 268.129 138.835 267.593 138.499C267.509 138.014 267.445 137.532 267.389 137.043C268.13 135.93 269.04 135.352 270.122 134.616Z" fill="#6A6A6A"/>
<path d="M170.177 216.898L170.578 217.011C170.641 216.353 170.644 216.255 171.045 215.737C171.756 215.799 171.973 216.043 172.398 216.588C173.105 217.496 173.805 218.695 174.272 219.745C172.919 219.554 171.274 219.679 170.004 219.342C169.585 219.231 169.729 219.254 169.451 218.801C169.722 218.166 169.791 218.174 170.401 217.831C170.024 217.547 170.23 217.714 169.795 217.317L170.177 216.898Z" fill="#6A6A6A"/>
<path d="M251.718 128.585L253.061 129.001C253.779 129.146 254.398 129.314 255.08 129.581C257.912 131.208 260.723 132.591 263.424 134.474L263.715 135.616L263.423 135.678C259.93 133.155 255.693 131.232 251.803 129.384L251.718 128.585Z" fill="#6A6A6A"/>
<path d="M144.835 199.367C145.444 199.716 145.591 199.717 145.86 200.353C142.89 205.516 140.161 210.687 137.472 216.008L137.195 216.456C136.833 215.049 143.627 201.517 144.835 199.367Z" fill="#F8F6EE"/>
<path d="M276.754 257.944L276.098 257.525L276.017 257.123C277.879 255.574 286.073 247.687 287.358 247.299C287.65 247.211 288.162 247.255 288.481 247.238C287.999 247.876 287.569 248.321 286.961 248.835C286.695 249.06 286.789 248.959 286.624 249.294C283.644 252.544 280.297 255.329 276.754 257.944Z" fill="#6A6A6A"/>
<path d="M92.8482 222.147C91.9199 217.875 88.3177 208.525 88.6003 204.766C88.6419 204.211 88.6398 204.155 89.0661 203.773L89.3424 203.97C90.3575 209.185 92.2509 214.246 93.0892 219.526C93.1903 220.458 93.346 221.392 93.1955 222.326L92.8482 222.147Z" fill="#F8F6EE"/>
<path d="M291.508 167.972C290.689 166.435 289.929 164.835 289.333 163.198C289.003 162.29 290.003 162.355 290.374 161.555C291.053 162.782 291.81 164.005 292.311 165.316C293.363 167.545 294.69 169.9 295.354 172.272L294.468 172.561C294.123 173.688 295.118 175.363 295.121 176.645L294.977 176.739C294.08 175.697 294.214 173.975 293.495 172.778C292.67 171.407 292.583 169.656 291.732 168.312C291.659 168.197 291.583 168.085 291.508 167.972Z" fill="#6A6A6A"/>
<path d="M166.833 238.952L167.404 238.849C169.159 240.55 170.459 243.021 171.884 245.02C174.573 248.79 178.299 251.589 182.022 254.258C182.421 254.544 182.662 255.511 183.015 255.486C185.867 255.283 191.293 249.705 193.896 249.142C192.411 251.513 188.351 253.089 186.149 254.868C185.189 255.416 184.552 256.141 183.389 256.261C181.626 255.819 180.152 254.583 178.782 253.437C175.824 250.962 167.162 242.595 166.833 238.952Z" fill="#B7D5DC"/>
<path d="M286.874 248.843C287.051 249.274 287.202 249.328 287.003 249.778C286.805 250.226 286.508 250.572 286.212 250.958C283.321 254.718 281.745 259.233 280.014 263.594C278.491 261.97 276.885 260.529 275.177 259.101C275.83 258.599 276.414 258.065 277.005 257.493C280.547 254.878 283.894 252.093 286.874 248.843Z" fill="#2CD997"/>
<path d="M283.847 131.058C285.633 130.978 286.618 131.905 287.953 132.949C290.709 135.105 300.66 143.67 300.656 147.025C300.655 147.729 299.318 148.503 298.783 148.959L298.785 149.221L298.61 149.327C296.931 147.139 283.21 131.831 283.162 131.643L283.847 131.058Z" fill="#B7D5DC"/>
<path d="M158.56 204.284C161.024 204.355 163.665 205.048 166.094 205.492C166.966 211.984 166.592 213.881 164.875 220.178C163.045 221.841 160.885 223.228 158.879 224.675C158.132 225.208 157.211 226.022 156.32 226.26C155.841 226.388 156.041 226.403 155.617 226.149C155.587 223.093 161.192 210.374 162.408 206.137C161.13 205.485 159.818 204.998 158.56 204.284Z" fill="#2CD997"/>
<path d="M288.488 225.619L289.458 224.704C290.611 225.542 291.277 227.812 292.074 229.117C293.218 230.994 297.965 236.09 298.206 237.593C298.223 237.7 298.229 237.809 298.24 237.917C297.678 237.694 297.511 237.491 297.104 237.07C296.82 236.777 296.502 236.776 296.115 236.672C295.553 236.275 295.514 236.029 295.237 235.387C294.773 233.843 292.409 231.751 291.419 230.295C290.386 228.778 289.896 226.82 288.488 225.619Z" fill="#6A6A6A"/>
<path d="M333.54 164.753C333.705 165.625 333.865 166.487 333.966 167.368L332.404 167.23L332.021 165.532C332.489 165.226 333.037 165.002 333.54 164.753Z" fill="#6A6A6A"/>
<path d="M335.78 200.496L337.15 199.924C337.194 202.042 337.134 204.084 336.851 206.187C336.721 205.139 336.652 204.982 335.862 204.293C335.936 204.217 336.02 204.148 336.072 204.056L335.948 203.971C335.564 202.903 335.814 201.628 335.78 200.496Z" fill="#6A6A6A"/>
<path d="M335.863 204.293C336.652 204.982 336.721 205.139 336.851 206.187L337.02 206.607C336.897 209.725 336.459 212.84 335.904 215.908C335.141 219.615 334.445 223.391 333.442 227.04C332.813 226.907 332.351 226.949 331.925 226.443C333.425 222.681 333.677 218.624 334.688 214.744C334.681 212.273 335.194 209.403 335.456 206.92C335.414 205.947 335.407 205.166 335.863 204.293Z" fill="#6A6A6A"/>
<path d="M333.966 167.368C335.21 175.106 337.006 183.595 336.913 191.434C336.907 191.962 336.973 192.476 337.033 193C337.119 193.684 336.941 194.323 336.803 194.989C337.195 196.666 337.112 198.222 337.15 199.925L335.781 200.496C335.706 200.171 335.686 199.924 335.727 199.591C335.933 197.961 335.572 196.419 335.896 194.801C335.66 193.914 335.657 193.277 335.75 192.367C334.781 183.932 333.94 175.599 332.404 167.23L333.966 167.368Z" fill="#6A6A6A"/>
<path d="M352.992 159.229C353.069 158.419 353.439 158.006 353.919 157.391C354.186 159.187 354.657 161.174 354.398 162.98L354.776 163.22C354.828 164.495 355.088 166.087 354.917 167.321C354.88 168.223 354.85 168.912 355.167 169.766C355.074 172.087 355.587 174.826 355.023 177.032C355.482 180.191 355.025 183.47 354.681 186.625C353.207 200.172 349.677 214.511 342.904 226.435C342.436 227.294 341.98 228.141 341.426 228.949L341.027 228.935L340.588 228.093C340.907 227.127 341.58 226.203 342.103 225.332C343.217 222.645 344.575 220.059 345.661 217.357C348.171 211.117 350.196 204.17 351.489 197.567C352.527 192.267 353.18 186.861 353.675 181.482C353.833 179.762 353.439 177.761 353.774 176.104C353.863 175.665 354.05 175.43 354.304 175.073C353.908 172.429 354.239 169.742 353.768 167.105C353.852 165.66 353.696 164.128 353.463 162.699C353.177 161.547 353.314 160.363 352.992 159.229Z" fill="#6A6A6A"/>
<path d="M218.82 119.095C225.768 117.994 237.805 118.16 244.723 118.872C244.976 122.964 244.955 127.395 245.72 131.419C253.389 133.623 262.936 137.604 268.642 143.274C272.066 140.697 275.408 137.836 278.447 134.814C283.412 139.128 289.89 146.066 294.134 151.168C291.239 154.556 288.118 157.897 285.541 161.533C286.485 164.306 287.984 166.923 289.214 169.581C291.247 173.973 292.294 178.305 292.972 183.065C294.973 183.434 297.009 183.792 299.038 183.957C299.946 184.031 301.268 183.832 302.104 184.024C302.225 184.052 302.647 184.46 302.683 184.504C304.381 186.573 303.528 200.274 303.555 203.734C301.66 203.764 294.449 203.353 293.191 204.687C292.462 205.461 291.14 213.185 290.493 215.045C288.919 219.566 286.536 223.461 284.286 227.647C286.933 230.711 290.191 233.141 292.881 236.161C287.925 243.703 280.319 251.243 272.42 255.716C269.931 252.884 267.467 249.629 264.576 247.217L264.256 247.366C257.378 250.608 252.413 254.068 244.489 255.46C243.302 260.236 243.812 265.372 243.237 270.244C233.995 272.042 224.455 272.638 215.312 269.887C215.027 264.873 215.155 260.473 216.475 255.597C213.224 253.779 209.423 253.001 206.024 251.466C202.11 249.698 198.557 247.223 194.624 245.501C191.247 248.457 187.796 251.299 183.824 253.436C178.566 250.052 171.776 242.103 168.874 236.508C171.624 233.429 178.605 228.869 180.13 226.222C179.813 225.634 179.807 225.38 179.111 225.239C178.777 225.172 178.29 225.21 177.961 225.21C176.452 223.852 175.963 221.188 174.272 219.744C173.805 218.694 173.105 217.496 172.398 216.588C171.972 216.042 171.756 215.799 171.045 215.736C170.644 216.255 170.641 216.353 170.578 217.011L170.177 216.898C168.972 212.944 167.967 208.112 167.937 203.976C163.655 202.757 159.405 201.721 155.037 200.853C154.407 198.343 154.223 195.961 154.319 193.376C154.399 191.21 155.856 183.17 155.419 181.926C155.002 182.072 154.939 181.986 154.768 182.306C154.467 182.871 154.524 183.665 154.496 184.295L154.274 184.381C153.795 182.655 153.923 179.115 154.838 177.486C155.053 177.103 155.088 177.093 155.351 176.816L155.611 176.801C155.823 177.854 155.307 178.823 155.727 179.777L156.105 179.734C156.441 178.881 156.715 177.837 157.461 177.267C160.833 176.548 165.154 176.833 168.623 176.915C170.189 170.424 172.043 164.492 175.244 158.581C172.744 154.974 169.788 151.444 166.873 148.16C172.018 142.056 178.392 137.11 183.954 131.425C184.846 132.258 192.859 139.191 192.901 139.378C193.06 140.09 193.16 140.461 193.71 140.985C194.502 141.133 194.975 140.864 195.636 140.417C200.503 137.119 205.53 134.502 211.245 133C213.54 132.396 215.985 132.048 218.223 131.304C218.518 127.234 218.626 123.169 218.82 119.095Z" fill="#2298FF"/>
<path d="M226.084 154.104C226.184 154.082 226.282 154.052 226.383 154.038C236.636 152.639 248.013 156.577 255.923 162.996C264.131 169.658 269.416 179.621 270.485 190.132C271.551 200.628 268.006 211.054 261.381 219.162C254.579 227.487 244.159 232.869 233.502 233.899C222.607 234.914 211.756 232.042 203.243 224.961C195.329 218.378 189.495 208.111 188.556 197.807C187.552 186.794 190.676 176.32 197.858 167.858C204.929 159.526 215.319 154.994 226.084 154.104Z" fill="#6A6A6A"/>
<path d="M229.128 156.754C229.368 156.677 229.432 156.645 229.717 156.623C237.771 156.003 248.462 160.648 254.461 165.855C262.376 172.725 267.031 181.659 267.752 192.152C268.389 201.421 264.822 211.411 258.682 218.344C251.427 226.534 241.556 230.906 230.726 231.6C221.312 231.817 212.41 228.718 205.389 222.392C197.061 214.888 192.817 205.253 192.333 194.124C191.933 184.898 195.665 175.34 201.932 168.598C209.17 160.812 218.643 157.191 229.128 156.754Z" fill="#2298FF"/>
<path d="M253.024 105.099C254.014 105.191 255.005 105.301 255.998 105.343L256.065 107.475L253.128 107.41L253.024 105.099Z" fill="#6A6A6A"/>
<path d="M312.578 129.614C314.624 130.703 321.021 130.82 321.462 131.326C321.081 132.072 321.094 132.006 321.351 132.804C321.185 132.851 321.024 132.921 320.853 132.942C319.216 133.142 311.417 132.012 310.279 130.933L311.105 130.268C311.531 130.375 311.797 130.439 312.242 130.415L312.578 129.614Z" fill="#6A6A6A"/>
<path d="M316.206 10.3325C316.478 10.3788 316.612 10.5151 316.831 10.6746C317.061 13.0016 319.159 28.0812 318.848 28.978C318.751 29.259 318.532 29.481 318.373 29.7326C317.947 29.8073 317.615 29.8347 317.19 29.8384C316.369 28.8022 314.832 13.9715 314.478 11.4703C314.825 10.8046 315.541 10.6514 316.206 10.3325Z" fill="#6A6A6A"/>
<path d="M255.998 105.343C258.303 104.504 264.832 103.975 267.119 104.801C268.347 105.857 268.452 107.623 269.249 108.949C270.36 110.794 271.7 112.294 272.65 114.282C268.613 118.36 257.16 124.857 255.08 129.581C254.398 129.314 253.779 129.146 253.061 129.001C253.078 128.908 253.091 128.815 253.112 128.723C254.01 124.837 265.876 116.311 269.542 113.945C268.708 112.007 267.542 108.835 265.934 107.436C264.242 105.964 258.393 107.278 256.065 107.475L255.998 105.343Z" fill="#6A6A6A"/>
<path d="M308.25 34.0293C308.528 34.6834 308.78 35.347 309.164 35.9475C305.517 35.5159 295.394 41.7646 292.506 44.0553C282.7 51.8322 275.83 65.0868 274.504 77.5067C273.171 89.9972 277.066 102.655 284.989 112.399C291.033 119.833 302.843 128.407 312.578 129.614L312.241 130.416C311.797 130.44 311.53 130.376 311.105 130.269L310.279 130.933C310.019 131.025 309.754 131.1 309.49 131.18C301.666 128.478 294.799 124.893 288.655 119.255C278.505 109.938 272.631 97.3115 272.146 83.538C271.674 70.1572 277.215 56.5011 286.342 46.8097C291.46 41.3746 296.972 37.8877 303.941 35.3249C305.264 34.8392 306.85 34.0719 308.25 34.0293Z" fill="#6A6A6A"/>
<path d="M313.429 32.6869C317.15 31.0403 325.812 31.8207 329.775 32.2522C340.988 33.3405 353.883 41.1111 360.994 49.7062C370.382 61.0542 374.423 75.1797 372.931 89.7983C371.628 102.575 365.581 112.185 356.616 120.984C356.157 120.401 355.876 119.723 355.561 119.056C361.367 114.071 365.999 106.863 368.46 99.6433C372.763 87.0276 371.445 72.4474 365.566 60.5927C360.175 49.7231 350.442 41.0563 339.077 36.8653C336.125 35.7765 333.006 35.4108 330.1 34.3819L329.781 34.2657C329.438 34.2183 329.198 34.2083 328.854 34.2478C327.642 34.3877 326.216 33.992 324.981 33.9252C321.813 33.7541 317.977 33.8299 314.876 34.4925C314.442 33.8236 313.972 33.2695 313.429 32.6869Z" fill="#6A6A6A"/>
<path d="M329.863 4.33643C331.211 8.85899 332.366 15.9433 332.85 20.7137C338.733 21.6747 344.567 23.3676 350.131 25.5147C353.764 21.0868 361.114 13.1137 365.955 10.2709C369.524 11.6449 384.592 26.0899 387.765 29.5257C384.957 35.5512 378.073 41.3473 373.631 46.4872C374.906 48.9858 376.275 51.4513 377.474 53.9862C378.486 56.1243 379.331 58.6114 380.669 60.5558C385.233 61.6362 394.057 58.5529 399.042 59.0455C398.923 59.8128 398.854 60.4648 398.931 61.2394C398.757 61.2463 398.582 61.2552 398.408 61.2594C392.119 61.4136 385.731 63.407 379.463 63.0987C378.895 62.7392 378.643 62.2361 378.33 61.6589C377.346 59.8475 376.745 57.8257 375.808 55.9828C374.312 53.041 372.063 49.9046 371.096 46.7745C371.752 44.0764 382.798 33.1353 385.252 30.4919C381.222 25.6278 376.072 21.5957 371.295 17.4789C369.665 16.0749 367.451 14.6598 366.202 12.9384C362.681 16.0059 359.325 19.0697 356.081 22.4303C354.155 24.4269 352.419 26.6403 350.39 28.5269C345.72 26.0341 340.262 24.6064 335.12 23.3955C333.827 23.0908 332.508 23.4265 331.292 22.9461C329.785 21.5957 328.248 8.63744 327.598 5.65204C327.702 5.45102 327.888 5.07475 328.021 4.90372C328.511 4.27538 329.139 4.39747 329.863 4.33643Z" fill="#6A6A6A"/>
<path d="M399.416 58.9837C400.254 58.7595 401.074 58.6621 401.935 58.5669C403.862 61.8212 404.542 65.5833 404.863 69.3176C404.913 69.4728 404.965 69.627 405.013 69.7823C405.426 71.1263 406.045 74.0606 405.829 75.4673L405.342 75.8562L405.478 76.0546C406.645 76.1856 408.469 78.5643 409.313 79.4747C408.442 79.101 408.2 78.8584 407.258 79.0858L405.653 77.778C406.402 81.6281 407.776 89.7891 406.536 93.4039C405.501 94.7311 402.699 94.8269 401.122 95.0221C395.159 95.7609 389.197 96.4487 383.208 96.9424C381.324 101.902 379.633 106.909 378.028 111.966C380.625 113.873 391.71 123.573 392.845 125.758C392.313 128.279 379.47 143.956 376.994 146.635C376.256 147.434 375.429 148.169 374.515 148.761C374.113 149.022 373.755 149.161 373.299 149.291C365.706 145.304 357.455 142.673 349.983 138.405C348.961 138.888 347.848 139.263 347.418 140.408C346.959 141.633 347.383 143.585 347.513 144.879C347.383 150.223 348.684 155.652 348.032 160.991C345.835 161.419 338.978 162.98 337.104 162.478L335.98 161.558L335.225 162.184L334.997 161.994L335.378 161.256L335.224 160.825L334.758 161.028L334.614 160.664C334.644 160.658 334.673 160.648 334.703 160.645C338.423 160.326 342.283 159.577 345.952 158.859C345.999 152.252 345.352 145.689 344.381 139.174C344.677 138.886 344.966 138.595 345.251 138.296C346.162 137.813 347.179 137.912 348.004 137.273C348.142 137.167 348.267 137.043 348.406 136.938C348.977 136.507 349.337 136.202 349.808 135.658C352.682 137.252 355.821 138.494 358.832 139.822C363.841 142.032 368.851 144.224 373.826 146.512C379.152 139.674 384.676 132.993 389.921 126.087C384.887 121.564 379.866 117.06 374.987 112.37C375.618 109.984 376.823 107.67 377.649 105.33C378.879 101.849 379.783 98.2606 381.188 94.841C387.136 94.4269 393.01 93.5096 398.931 92.9524C400.233 92.8297 402.277 93.0955 403.459 92.6913C403.844 92.5603 403.874 92.5071 404.15 92.2898C405.452 89.9906 403.942 81.2807 403.635 78.108C398.684 77.3786 381.235 81.5775 378.294 80.403C377.88 80.2372 377.902 80.0378 377.734 79.6636C377.893 79.0042 377.892 78.8563 378.518 78.489C379.499 77.9138 381.337 78.1133 382.46 78.0101C386.666 77.6244 390.887 76.9845 395.097 76.5508C397.181 76.3361 399.444 76.4209 401.478 76.0309C402.044 75.9225 402.386 75.7294 402.841 75.3836C403.796 73.6465 402.805 70.5806 402.584 68.6461C402.305 66.9458 402.034 65.2408 401.714 63.5473C401.522 62.5316 401.402 61.5402 400.517 60.9408L398.931 61.2397C398.854 60.4651 398.923 59.813 399.042 59.0458L399.416 58.9837Z" fill="#6A6A6A"/>
<path d="M399.416 58.9839L400.07 59.1954C400.309 59.789 400.412 60.3143 400.517 60.941L398.931 61.2399C398.854 60.4653 398.923 59.8133 399.042 59.046L399.416 58.9839Z" fill="#6A6A6A"/>
<path d="M345.577 129.348C347.201 130.984 347.839 132.956 348.658 135.062C349.022 135.236 349.504 135.397 349.808 135.658C349.337 136.202 348.977 136.507 348.406 136.938C348.267 137.043 348.142 137.167 348.004 137.273C347.179 137.912 346.162 137.813 345.251 138.296C345.638 137.289 346.125 136.518 346.747 135.638C346.118 133.697 345.248 131.929 344.184 130.193C344.8 130.049 345.105 129.745 345.577 129.348Z" fill="#6A6A6A"/>
<path d="M321.462 131.326C323.017 130.721 326.128 130.936 327.916 130.771C330.946 130.493 334.209 130.045 337.14 129.198C339.646 128.474 347.776 124.134 349.252 124.133C349.707 124.568 350.12 125.033 350.709 125.279C348.97 126.298 346.927 127.168 345.325 128.358C345.303 128.938 345.326 128.883 345.577 129.348C345.105 129.745 344.8 130.049 344.184 130.193C343.811 129.815 343.49 129.249 342.92 129.305C341.855 129.41 340.352 130.235 339.278 130.561C336.476 131.413 333.475 132.165 330.578 132.613C331.04 141.65 332.335 150.711 333.104 159.736C332.392 159.809 331.667 159.854 330.963 159.975C329.921 154.21 329.54 148.025 329.087 142.18C328.854 139.171 328.89 135.84 328.078 132.93L327.663 132.724C326.995 132.963 326.387 133.183 325.665 133.173C324.467 133.157 322.85 133.335 321.723 132.945C321.598 132.901 321.475 132.851 321.351 132.804C321.094 132.006 321.081 132.072 321.462 131.326Z" fill="#6A6A6A"/>
<path d="M298.193 4.49759C303.235 0.702828 313.325 1.35011 319.553 0.260254C319.961 0.317089 320.872 0.310241 321.142 0.614412C321.463 0.976996 321.509 1.37905 321.618 1.83267C321.721 2.25893 321.667 2.06107 321.855 2.57626C315.044 2.94253 307.667 3.76347 301.056 5.4622C300.453 6.01581 299.534 6.59941 299.414 7.44456C298.896 11.0646 301.236 22.5962 301.472 26.9578C298.956 27.6435 296.833 28.5091 294.554 29.769C293.395 30.4094 286.526 35.2183 285.932 35.172C285.639 35.1493 285.057 34.873 284.795 34.7299C281.145 32.7286 270.204 22.9999 266.704 24.0297C265.962 24.2481 265.173 24.7444 264.618 25.2812C263.143 26.7057 253.471 38.932 252.71 40.556C252.201 41.6427 252.083 42.7762 252.544 43.9019C253.326 45.8064 255.19 46.601 256.626 47.8929C257.653 48.8175 258.521 49.9421 259.52 50.9067C261.845 53.1485 264.273 55.2725 266.715 57.3848C266.831 57.3806 266.947 57.3727 267.064 57.3722C267.609 57.369 267.405 57.3569 267.986 57.5511C268.369 58.2779 268.161 58.9099 267.918 59.6761C267.426 61.2269 266.744 62.7394 266.316 64.3039C265.74 66.4094 265.475 69.1406 264.544 71.0751C264.28 71.6224 264.078 71.7477 263.563 72.0087C259.958 73.8363 250.629 76.0024 246.179 77.2664C244.98 77.6069 243.582 77.7963 242.442 78.26C241.761 78.5378 241.356 78.8799 240.882 79.4319C240.304 81.2401 241.942 89.3701 242.613 91.4414L242.947 91.7703C247.672 91.6734 265.002 88.8522 267.511 89.4758C267.519 90.221 267.636 90.6089 267.215 91.2388C261.832 92.5991 253.971 92.9891 248.284 93.5148C247.578 93.58 243.496 93.6995 243.194 93.8726C243.072 93.9426 242.996 94.0731 242.897 94.1731C243 96.4397 244.166 103.326 245.855 104.801C247.327 106.086 249.727 105.541 251.482 105.422C252.044 105.384 252.487 105.257 253.024 105.099L253.128 107.41L252.786 107.473C250.43 107.89 246.662 108.468 244.616 106.946C241.787 104.842 240.757 97.7784 240.338 94.4141C239.084 93.3195 237.751 92.5328 236.666 91.2303C236.601 91.1525 236.538 91.0725 236.474 90.9935L235.762 91.1267C235.186 90.7041 235.181 90.3494 234.95 89.7L234.336 90.0137C232.915 89.5432 231.85 88.2849 230.489 87.6361C229.87 87.3409 229.703 87.1556 229.455 86.4731C229.403 86.3305 229.357 86.1847 229.309 86.0405C229.01 86.0358 228.711 86.0326 228.414 86.0437L228.112 86.0563L227.392 84.8833L227.606 84.4049L227.973 84.275C232.315 86.8736 236.747 89.8232 240.295 93.4416C239.982 90.2221 237.521 80.6349 238.755 78.1063C240.068 75.4156 258.05 71.3277 261.795 70.1363C263.265 66.7541 264.201 62.9388 265.195 59.3851C261.648 57.0659 252.955 48.8191 250.764 45.2859C250.154 44.3018 249.92 43.0735 249.647 41.959C250.38 39.5614 251.832 38.0021 252.849 35.8166C253.155 35.1604 253.33 34.8088 253.072 34.1042C251.213 34.4552 250.045 33.3659 248.336 33.0312C246.184 32.6091 244.028 32.2644 241.877 31.8061C241.59 31.3272 241.695 31.3304 241.794 30.811C242.949 29.9048 243.864 31.5824 245.158 31.4688C246.037 31.3914 248.695 31.122 249.215 32.1255C249.405 32.4923 249.269 32.7854 249.615 33.0738C249.725 32.7781 249.842 32.4928 249.966 32.2034C251.485 32.1618 253.474 32.9538 254.955 33.3601C258.271 29.7185 261.686 22.7673 266.671 21.5764C267.392 21.4043 268.107 21.3869 268.829 21.569C272.456 22.4826 281.654 29.9316 285.623 32.2234L286.016 32.4481C290.022 29.5464 294.275 27.3146 298.736 25.207C298.261 21.3501 297.838 12.1045 296.761 8.94174C297.139 7.41089 297.644 5.97318 298.193 4.49759Z" fill="#6A6A6A"/>
<path d="M348.902 142.733C348.792 142.388 348.679 142.041 348.581 141.69C348.35 140.862 348.436 140.635 348.84 139.926L349.276 139.972C349.845 140.644 349.824 141.252 349.882 142.087L348.902 142.733Z" fill="#6A6A6A"/>
<path d="M349.882 142.087C352.056 146.458 353.159 152.566 353.919 157.391C353.439 158.006 353.069 158.419 352.992 159.229C352.567 158.13 352.491 156.707 352.246 155.533C351.478 151.853 350.773 148.123 349.472 144.588L348.902 142.733L349.882 142.087Z" fill="#6A6A6A"/>
<path d="M431.879 128.037C431.133 126.709 430.629 125.268 429.948 123.907C428.206 120.427 426.08 116.945 423.963 113.675C422.205 110.959 415.436 102.494 414.937 100.41L415.298 100.331C419.418 103.101 431.298 121.945 432.494 126.913L434.181 131.135L433.731 132.002C433.06 130.716 432.488 129.355 431.879 128.037Z" fill="#6A6A6A"/>
<path d="M181.864 27.883C181.697 27.1431 181.468 26.9715 180.835 26.5584C180.178 26.1295 179.428 25.9343 179.101 25.167L179.287 24.8486C180.901 25.839 182.462 26.7552 183.821 28.0882C184.132 28.394 184.44 28.6971 184.744 29.0107C184.907 28.996 185.086 29.0212 185.229 28.9428C185.94 29.6659 186.674 30.3753 187.356 31.1252C187.648 31.3262 187.897 31.6162 188.234 31.7277C188.929 31.9582 193.592 30.9147 194.545 30.7379C196.175 30.4363 201.744 28.9165 203.023 29.5022L203.101 29.9348C201.328 31.2625 192.025 32.3371 189.189 33.0391C191.607 35.6404 196.543 39.5304 196.51 43.273C196.466 48.4224 189.788 57.106 186.43 60.8244C185.162 62.229 182.389 64.475 181.686 66.1574C181.507 66.5831 182.045 67.3236 182.315 67.5819C184.147 69.3328 187.339 67.9087 188.813 70.2605C187.901 70.5652 187.244 70.2595 186.335 69.9558C185.633 69.7216 185.014 69.2686 184.399 68.866C183.968 69.3307 184.347 69.3433 184.149 69.7396C183.931 70.1763 183.482 70.1179 183.497 70.711C183.54 72.2771 185.291 74.3958 185.748 76.2103C186.259 76.6818 186.696 76.6739 187.381 76.7502C194.74 77.5748 202.129 77.5075 209.447 78.9325C211.852 79.4014 214.047 80.1361 216.223 81.2649C217.491 89.6553 217.807 97.7495 217.709 106.215C216.004 108.766 214.782 110.724 211.824 111.905C211.826 111.745 211.849 111.583 211.831 111.424C211.745 110.651 211.457 110.423 210.939 109.901L211.527 109.706C211.324 109.159 211.214 108.828 211.213 108.233C211.194 100.209 210.371 92.2934 209.548 84.3234C209.347 83.2799 209.356 82.1795 209.306 81.1196C204.602 79.6167 189.448 78.4442 184.298 78.4526C183.084 74.2453 181.088 69.1896 178.743 65.4938C185.229 60.3145 193.154 50.2621 194.752 42.0806C190.064 37.9527 186.069 32.5166 181.864 27.883Z" fill="#6A6A6A"/>
<path d="M209.548 84.3235L210.576 84.403L210.894 84.012L210.656 82.1638L210.931 82.0522C212.259 83.2268 212.67 93.626 212.807 95.8615C213.013 99.2126 213.939 106.155 212.338 109.116L211.528 109.706C211.324 109.159 211.214 108.828 211.213 108.234C211.194 100.209 210.371 92.2935 209.548 84.3235Z" fill="#6A6A6A"/>
<path d="M308.25 34.0291C308.858 33.6297 309.289 33.4613 310.006 33.3197C310.998 33.1239 312.485 32.5077 313.429 32.6872C313.972 33.2697 314.442 33.8238 314.876 34.4927C317.977 33.8302 321.813 33.7544 324.981 33.9254C326.216 33.9922 327.641 34.388 328.854 34.248C329.198 34.2085 329.437 34.2185 329.781 34.2659L330.1 34.3822C333.005 35.411 336.125 35.7767 339.077 36.8656C350.442 41.0566 360.174 49.7233 365.565 60.5929C371.445 72.4477 372.763 87.0279 368.46 99.6436C365.998 106.863 361.366 114.072 355.56 119.056C355.876 119.723 356.157 120.401 356.616 120.984C354.796 122.669 352.8 123.96 350.709 125.28C350.12 125.033 349.707 124.568 349.252 124.133C347.776 124.135 339.646 128.474 337.14 129.198C334.208 130.045 330.946 130.493 327.916 130.772C326.128 130.936 323.017 130.722 321.462 131.326C321.021 130.82 314.624 130.703 312.578 129.614C302.843 128.407 291.033 119.832 284.989 112.399C277.067 102.655 273.171 89.997 274.504 77.5065C275.83 65.0866 282.701 51.832 292.506 44.0551C295.394 41.7644 305.517 35.5157 309.164 35.9472C308.78 35.3468 308.528 34.6832 308.25 34.0291Z" fill="#FFCD1E"/>
<path d="M308.25 34.0291C308.858 33.6297 309.289 33.4613 310.006 33.3197C310.998 33.1239 312.485 32.5077 313.429 32.6872C313.972 33.2697 314.442 33.8238 314.876 34.4927L314.392 34.608C312.62 35.0184 310.696 34.7895 309.164 35.9472C308.78 35.3468 308.528 34.6832 308.25 34.0291Z" fill="#6A6A6A"/>
<path d="M355.56 119.056C355.876 119.723 356.157 120.401 356.616 120.984C354.796 122.669 352.8 123.96 350.709 125.28C350.12 125.033 349.707 124.568 349.252 124.133C349.334 123.948 349.364 123.73 349.498 123.578C350.155 122.823 352.162 121.944 353.059 121.276C353.949 120.614 354.759 119.822 355.56 119.056Z" fill="#6A6A6A"/>
<path d="M281.615 71.0669C282.583 71.5458 282.841 71.6789 283.333 72.7109C282.618 75.5432 281.6 79.4879 282.15 82.3944C282.599 82.7759 282.922 82.7538 283.491 82.6896C284.282 82.6001 284.947 82.3749 285.761 82.4038L286.294 82.4207C286.787 83.1506 287.253 83.5479 287.972 84.0505C287.672 84.1262 287.38 84.1994 287.074 84.2478C285.763 84.4557 281.036 85.3292 280.162 84.7051C279.001 81.6523 280.822 74.2628 281.615 71.0669Z" fill="#6A6A6A"/>
<path d="M286.294 82.4207C288.228 81.6308 302.431 80.0705 305.486 79.7632C305.626 80.2984 305.685 80.5683 305.551 81.103L305.44 81.5603L305.341 81.946C303.191 82.2802 289.01 84.3336 287.972 84.0505C287.253 83.5479 286.788 83.1506 286.294 82.4207Z" fill="#6A6A6A"/>
<path d="M287.688 88.5869C291.088 88.3159 294.475 87.7355 297.857 87.2939C301.141 86.8645 304.456 86.5824 307.724 86.042C308.006 86.8724 308.199 87.4771 308.128 88.3585C302.275 88.9405 293.736 89.4584 288.162 90.7556C287.949 90.0651 287.839 89.2958 287.688 88.5869Z" fill="#6A6A6A"/>
<path d="M281.615 71.0668C283.778 63.6631 287.31 56.713 292.978 51.3637C298.065 46.5622 303.233 43.3495 309.967 41.4587C311.298 41.085 312.406 40.3346 313.833 40.3693C314.415 40.6746 314.441 40.6788 314.718 41.2708L314.467 42.2517C313.667 45.2624 317.427 65.6855 317.679 70.8269C316.821 70.81 316.237 70.5627 315.468 70.2312C314.564 68.1725 314.666 64.9924 314.411 62.739C314.039 59.4389 313.529 56.1551 313.137 52.8572C312.77 49.7712 312.63 46.629 311.885 43.6057L311.783 43.1811C311.762 43.0963 311.739 43.0116 311.717 42.9274C300.078 46.7716 291.983 53.1661 286.382 64.1783C285.067 66.7637 283.802 69.8554 283.333 72.7109C282.841 71.6789 282.583 71.5457 281.615 71.0668Z" fill="#6A6A6A"/>
<path d="M319.851 96.5911C320.995 100.387 321.215 107.334 321.688 111.54C322.177 115.889 323.238 120.713 323.134 125.067C322.485 125.415 322.067 125.394 321.338 125.37C310.011 124.996 299.645 119.503 291.999 111.343C287.428 106.465 284.044 100.817 281.859 94.5051C281.343 93.0132 280.683 91.3439 280.738 89.7452C282.334 88.9116 285.817 88.9316 287.688 88.5869C287.839 89.2958 287.949 90.0651 288.162 90.7556C286.345 90.8108 284.527 91.065 282.721 91.2665C286.284 102.318 294.04 113.141 304.556 118.502C309.73 121.14 315.277 122.475 320.927 123.624C320.057 117.375 319.515 111.079 318.875 104.803C318.605 102.145 318.079 99.4644 317.907 96.8053L318.131 96.3685C318.723 96.3885 319.27 96.4869 319.851 96.5911Z" fill="#6A6A6A"/>
<path d="M335.188 83.7056L364.808 80.4424C366.035 82.1401 364.906 87.8998 364.566 90.1195C362.851 101.31 356.539 111.315 347.44 117.915C341.702 122.078 335.06 124.033 328.105 124.938C327.455 119.79 326.929 114.624 326.371 109.465C326.042 106.426 325.379 103.074 325.617 100.032C325.621 99.9803 325.615 99.9277 325.613 99.8751C325.341 99.3378 325.355 98.8142 325.306 98.2216C325.435 97.3912 325.328 96.8229 326.001 96.2866L326.945 96.4492C327.234 97.6485 327.453 98.8494 327.664 100.063C328.028 101.241 328.454 102.333 328.976 103.45C330.094 104.893 331.206 106.628 331.968 108.286C334.617 111.299 336.699 116.637 338.658 120.257C342.268 118.554 345.674 116.601 348.812 114.111C355.783 108.578 361.56 98.2374 362.51 89.3744C362.69 87.6988 363.387 84.3677 362.351 83.0626C360.735 82.8373 337.226 85.4117 335.162 85.8233C335.074 85.1376 335.163 84.3977 335.188 83.7056Z" fill="#6A6A6A"/>
<path d="M328.975 103.451C330.094 104.894 331.206 106.629 331.968 108.286C331.621 108.838 331.459 109.11 331.469 109.769L331.787 110.121C332.068 110.436 332.271 110.723 332.461 111.104C332.323 111.726 332.45 111.472 332.145 111.895C332.15 111.914 332.151 111.935 332.16 111.952C332.382 112.382 332.619 112.77 332.784 113.228C333.717 115.823 335.531 118.3 336.709 120.853C335.366 121.148 331.648 122.921 330.566 122.453C329.373 120.206 328.347 109.183 328.43 106.483C328.447 105.938 328.137 105.58 327.876 105.108L328.131 104.696L328.099 104.623L327.76 105.048L327.994 104.563L327.61 104.362C327.906 104.028 328.314 103.915 328.686 103.658C328.783 103.591 328.879 103.52 328.975 103.451Z" fill="#FFCD1E"/>
<path d="M328.975 103.451C330.094 104.894 331.206 106.629 331.968 108.286C331.621 108.838 331.459 109.11 331.469 109.769L331.787 110.121C332.068 110.436 332.271 110.723 332.461 111.104C332.323 111.726 332.45 111.472 332.145 111.895C332.06 111.773 331.977 111.649 331.89 111.527C330.689 109.851 330.091 108.053 329.151 106.253C328.784 105.551 328.634 105.333 327.876 105.108L328.131 104.696L328.099 104.623L327.76 105.048L327.994 104.563L327.61 104.362C327.906 104.028 328.314 103.915 328.686 103.658C328.783 103.591 328.879 103.52 328.975 103.451Z" fill="#6A6A6A"/>
<path d="M319.395 43.3278C319.932 43.2704 320.475 43.191 321.014 43.1631C322.502 48.9797 322.71 66.2095 324.418 69.8969C324.754 71.0273 324.832 72.2545 324.976 73.4238C326.272 73.9322 330.677 76.8155 330.788 76.8381C331.178 76.917 331.752 76.8586 332.153 76.8223C332.109 77.5675 331.963 77.9459 332.378 78.5821C333.12 78.7337 333.841 78.7931 334.593 78.8442L331.832 79.102C331.615 79.6977 331.717 79.6777 331.978 80.2203C332.521 81.3465 332.755 81.5722 332.847 82.9484C332.875 83.362 332.907 83.5246 333.13 83.8661C333.274 83.8204 333.413 83.7461 333.563 83.7293C333.679 83.7162 333.791 83.7714 333.907 83.7783C334.318 83.8019 334.775 83.733 335.188 83.7056C335.163 84.3977 335.074 85.1375 335.162 85.8232C334.387 85.9306 333.735 85.9338 333.07 86.3727L332.198 89.1749C331.161 92.5539 326.594 93.297 326.945 96.4492L326.001 96.2866C325.328 96.8228 325.435 97.3912 325.306 98.2216C325.178 97.2459 325.199 96.2529 325.18 95.2694C323.668 95.1415 321.234 95.2236 319.837 95.8088L319.851 96.5908C319.269 96.4866 318.723 96.3882 318.131 96.3682L317.907 96.805C317.895 96.776 317.873 96.7497 317.87 96.7181C317.833 96.3734 317.925 95.7735 317.762 95.473C317.582 95.1404 313.805 92.8855 313.123 92.1898C311.905 90.9447 311.178 89.4559 310.401 87.9214L308.128 88.3582C308.199 87.4767 308.006 86.8721 307.724 86.0416C308.465 86.0206 308.728 86.0753 309.364 85.6664C309.859 84.4071 309.687 82.8194 309.869 81.4596L305.341 81.9459L305.44 81.5601L305.551 81.1028C305.684 80.5681 305.625 80.2982 305.485 79.763L310.701 78.9042C312.221 76.184 313.287 75.0541 316.156 73.7827C315.82 72.596 315.633 71.4494 315.468 70.2311C316.237 70.5626 316.821 70.81 317.679 70.8268C317.776 71.6251 317.751 72.4418 318.346 73.0428C318.918 73.2602 319.24 73.318 319.852 73.2375C320.807 73.1118 321.754 73.0581 322.715 73.0023C322.374 65.9785 321.222 58.9068 320.346 51.9251C319.989 49.0881 319.475 46.1879 319.395 43.3278Z" fill="#6A6A6A"/>
<path d="M314.878 84.0546C315.114 83.2384 315.338 82.4069 315.626 81.608C316.167 80.1067 317.317 78.8273 318.776 78.1622C320.29 77.4717 322.164 77.4654 323.697 78.0922C325.383 78.781 326.73 80.2082 327.334 81.9227C328.066 83.9977 327.771 85.587 326.867 87.5394C325.233 89.3165 324.044 90.3237 321.523 90.4558C321.105 90.4774 320.656 90.4485 320.243 90.4895C320.176 90.4963 320.113 90.5248 320.048 90.5421C319.593 90.3574 319.135 90.1695 318.701 89.9401C316.311 88.6803 315.644 86.4479 314.878 84.0546Z" fill="#FFCD1E"/>
<path d="M320.654 79.4844C321.052 79.5444 321.448 79.6059 321.844 79.6764C323.303 79.9375 324.607 80.9131 325.409 82.1582C326.002 83.0797 326.297 84.2006 325.987 85.2747C325.579 86.6924 324.431 87.6496 323.208 88.369C321.33 88.8579 320.335 88.5826 318.558 87.9764C318.153 87.4349 317.703 86.8823 317.392 86.2793C316.86 85.2489 316.679 83.8191 317.068 82.7129C317.685 80.9579 319.058 80.2195 320.654 79.4844Z" fill="#6A6A6A"/>
<path d="M308.128 88.3582L310.401 87.9214C311.178 89.4559 311.905 90.9447 313.124 92.1898C313.805 92.8855 317.582 95.1404 317.762 95.473C317.926 95.7735 317.833 96.3734 317.87 96.7181C317.873 96.7497 317.895 96.776 317.907 96.805C318.079 99.4641 318.605 102.144 318.875 104.803C319.515 111.078 320.057 117.375 320.927 123.624C315.277 122.474 309.73 121.14 304.556 118.502C294.04 113.141 286.284 102.317 282.721 91.2662C284.527 91.0646 286.345 90.8105 288.162 90.7552C293.736 89.458 302.275 88.9402 308.128 88.3582Z" fill="#FFCD1E"/>
<path d="M335.162 85.8234C337.226 85.4119 360.735 82.8375 362.351 83.0628C363.387 84.3679 362.69 87.699 362.51 89.3746C361.56 98.2376 355.783 108.578 348.812 114.111C345.674 116.601 342.268 118.554 338.658 120.257C336.699 116.637 334.617 111.3 331.968 108.286C331.206 106.629 330.094 104.894 328.976 103.451C328.454 102.333 328.028 101.241 327.664 100.064C327.453 98.8496 327.234 97.6487 326.945 96.4494C326.594 93.2972 331.161 92.5541 332.198 89.1751L333.07 86.3729C333.735 85.934 334.387 85.9308 335.162 85.8234Z" fill="#FFCD1E"/>
<path d="M283.333 72.7107C283.801 69.8553 285.067 66.7636 286.382 64.1781C291.983 53.1659 300.078 46.7715 311.717 42.9272C311.739 43.0114 311.762 43.0962 311.783 43.1809L311.885 43.6056C312.63 46.6289 312.77 49.7711 313.137 52.857C313.529 56.155 314.039 59.4388 314.411 62.7388C314.666 64.9922 314.564 68.1723 315.468 70.231C315.633 71.4493 315.82 72.596 316.156 73.7826C313.287 75.0541 312.221 76.1839 310.701 78.9041L305.485 79.7629C302.431 80.0702 288.228 81.6306 286.294 82.4205L285.761 82.4036C284.947 82.3747 284.281 82.5999 283.49 82.6894C282.922 82.7536 282.599 82.7757 282.15 82.3941C281.6 79.4877 282.617 75.5429 283.333 72.7107Z" fill="#FFCD1E"/>
<path d="M318.775 39.6073C330.281 38.8174 341.548 43.209 350.158 50.7675C356.302 56.1615 360.308 62.5759 363.04 70.2128C363.529 71.5789 364.231 72.8187 364.393 74.2791L364.166 74.9001C356.959 76.7509 348.786 76.8629 341.382 77.9517C340.975 78.0117 341.108 77.9891 340.595 77.9554C339.948 78.1196 339.483 78.1712 338.813 78.1854C337.53 78.2128 335.77 78.3428 334.593 78.8443C333.841 78.7932 333.12 78.7337 332.378 78.5822C331.963 77.946 332.109 77.5676 332.152 76.8224C331.751 76.8587 331.178 76.9171 330.788 76.8382C330.677 76.8156 326.272 73.9323 324.976 73.4239C324.832 72.2546 324.754 71.0274 324.418 69.897C322.71 66.2096 322.502 48.9798 321.014 43.1632C320.475 43.1911 319.932 43.2705 319.395 43.3279L318.775 39.6073Z" fill="#FFCD1E"/>
<path d="M332.153 76.8223C334.991 76.4813 337.875 76.3387 340.682 75.7925L340.596 77.9554C339.948 78.1195 339.483 78.1711 338.813 78.1853C337.53 78.2127 335.77 78.3427 334.593 78.8442C333.841 78.7931 333.12 78.7337 332.378 78.5821C331.963 77.9459 332.109 77.5675 332.153 76.8223Z" fill="#6A6A6A"/>
<path d="M318.775 39.6073C330.281 38.8174 341.548 43.209 350.158 50.7675C356.302 56.1615 360.308 62.5759 363.04 70.2128C363.529 71.5789 364.231 72.8187 364.393 74.2791L364.166 74.9001C356.959 76.7509 348.786 76.8629 341.382 77.9517C340.975 78.0117 341.108 77.9891 340.595 77.9554L340.682 75.7926C342.428 76.0331 358.578 73.7023 361.47 73.3208C359.782 66.7806 356.86 60.9045 352.233 55.9383C344.331 47.4574 333.329 41.8397 321.644 41.3913C321.47 47.4463 323.101 56.6614 323.828 62.9969C324.088 65.2603 324.522 67.6205 324.418 69.897C322.71 66.2096 322.502 48.9798 321.014 43.1632C320.475 43.1911 319.932 43.2705 319.395 43.3279L318.775 39.6073Z" fill="#6A6A6A"/>
<path d="M135.474 328.422L135.595 328.476L136.015 328.955C136.68 328.876 137.178 328.677 137.792 328.428L137.376 330.338L135.421 330.3L135.474 328.422Z" fill="#6A6A6A"/>
<path d="M29.6299 285.408C31.4128 286.485 32.1164 290.055 33.5336 291.725C34.2445 292.564 35.5033 292.967 36.0527 293.901L35.6323 294.306C34.8524 293.468 33.8899 292.782 33.0568 291.99C31.7354 290.733 30.8434 289.473 29.7515 288.057C29.4768 287.701 29.2731 287.42 29.0494 287.023C29.1084 286.363 29.3247 285.982 29.6299 285.408Z" fill="#6A6A6A"/>
<path d="M135.421 330.3L137.376 330.338C137.356 330.439 137.334 330.54 137.315 330.642C136.804 333.377 137.467 338.059 136.145 340.361C135.711 340.513 135.495 340.539 135.042 340.454C135.079 337.052 135.165 333.694 135.421 330.3Z" fill="#6A6A6A"/>
<path d="M120.536 353.167C123.463 353.871 126.414 355.373 129.281 356.374C131.109 357.013 133.048 357.28 134.832 358.014C135.605 358.333 136.305 358.588 136.646 359.362L136.361 359.747L135.865 359.558C133.716 359.038 122.585 355.42 120.913 354.229C120.546 353.968 120.61 353.584 120.536 353.167Z" fill="#6A6A6A"/>
<path d="M108.788 320.006C108.993 320.898 108.746 321.418 108.465 322.271C108.295 322.787 108.216 323.247 108.147 323.782C108.564 324.268 108.988 324.566 109.057 325.215C107.891 327.186 106.794 330.04 105.25 331.646L104.577 331.702L103.793 331.192C104.015 330.457 103.939 330.102 103.777 329.377C104.064 328.948 104.818 328.686 105.281 328.445C105.431 327.737 104.455 327.53 104.151 326.801L104.426 326.584C105.029 326.809 105.433 326.908 106.079 326.891C107.057 326.3 107.474 325.064 107.96 324.067C107.221 323.504 105.879 323.814 104.945 323.855C105.973 322.341 107.286 321.048 108.788 320.006Z" fill="#6A6A6A"/>
<path d="M104.945 323.856C105.879 323.815 107.221 323.505 107.96 324.068C107.474 325.064 107.057 326.301 106.079 326.892C105.434 326.908 105.029 326.809 104.426 326.584L104.151 326.802C104.455 327.53 105.432 327.737 105.281 328.445C104.818 328.687 104.064 328.948 103.778 329.378C102.359 330.28 101.023 331.373 99.2265 331.085C99.0955 331.064 98.9687 331.022 98.8392 330.99C100.072 328.692 103.099 327.154 104.945 323.856Z" fill="#6A6A6A"/>
<path d="M98.8392 330.99C98.9686 331.021 99.0955 331.064 99.2265 331.085C101.023 331.373 102.359 330.279 103.777 329.377C103.939 330.103 104.015 330.457 103.793 331.192L104.577 331.702L104.854 332.124C104.026 333.707 103.362 335.485 102.317 336.928C102.256 336.992 102.204 337.065 102.135 337.12C101.619 337.524 101.112 337.462 100.498 337.428C99.8622 337.072 99.5928 336.962 99.2886 336.255C98.6924 334.871 99.6286 333.113 100.18 331.868L98.8202 331.778L98.5766 331.496L98.8392 330.99Z" fill="#6A6A6A"/>
<path d="M101.059 332.435L101.361 332.024C101.513 332.023 101.666 332.01 101.817 332.019C102.053 332.033 102.377 332.124 102.615 332.104C103.192 332.058 103.447 331.588 103.793 331.192L104.577 331.702L104.854 332.124C104.026 333.707 103.362 335.484 102.317 336.928C101.768 336.862 101.309 336.853 100.827 336.559C100.465 336.339 100.528 336.091 100.446 335.706C100.895 334.646 101.384 333.57 101.059 332.435Z" fill="#6A6A6A"/>
<path d="M108.981 319.268C109.312 319.34 109.684 319.313 109.888 319.614C110.503 320.517 111.207 326.591 111.523 328.194C111.892 330.4 111.959 335.105 113.38 336.768L114.393 337.076L114.718 339.424L122.447 339.843L122.104 340.927C121.997 340.982 121.89 341.034 121.785 341.09C121.359 341.318 121.019 341.546 120.699 341.906L120.483 342.057C117.631 341.876 114.437 341.888 111.675 341.159C110.837 335.922 109.151 330.517 109.057 325.215C108.988 324.566 108.564 324.268 108.147 323.782C108.216 323.247 108.295 322.787 108.465 322.271C108.746 321.418 108.993 320.898 108.788 320.006L108.981 319.268Z" fill="url(#paint0_linear_38_45320)"/>
<path d="M173.336 366.295C167.2 366.156 160.922 365.403 154.986 363.863L154.504 364.257C153.58 364.37 153.938 364.013 153.29 363.528C152.757 363.128 149.298 363.296 148.298 363.015C148.002 362.609 147.803 362.338 147.401 362.028C147.051 362.457 147.118 362.545 146.541 362.642L145.906 361.615L145.561 362.201C143.423 362.551 140.526 359.922 138.412 360.263C138.027 360.325 137.727 360.365 137.33 360.366C137.094 359.854 137.111 359.836 137.237 359.282C139.082 358.638 144.444 360.889 146.718 361.155C149.344 361.463 151.77 362.429 154.346 362.939C157.24 363.512 160.383 363.791 163.326 364.227C165.672 364.575 169.537 364.334 171.543 364.979C172.053 365.143 172.273 364.951 172.782 364.784L172.996 365.236L173.37 364.643L173.733 364.71C178.86 365.615 184.77 365.089 189.966 364.911C191.259 364.866 192.897 364.496 194.13 364.733C196.987 365.283 203.109 362.61 205.624 364.182L205.74 364.623C202.079 366.207 178.231 366.663 173.336 366.295Z" fill="#6A6A6A"/>
<path d="M214.932 363.131C213.028 363.945 208.97 364.658 206.918 364.48C206.398 364.435 206.243 364.472 205.889 364.065C207.481 362.248 211.551 363.097 213.577 362.165C213.911 362.011 214.212 361.906 214.567 361.803L214.932 363.131Z" fill="#6A6A6A"/>
<path d="M221.411 360.426C225.904 359.919 230.372 358.093 234.707 356.882L234.57 358.352C230.978 359.554 225.269 361.662 221.562 361.671C219.667 362.45 217.066 363.057 215.015 363.11C214.986 363.112 214.96 363.124 214.932 363.131L214.566 361.803C215.934 361.591 217.324 361.56 218.653 361.143C219.57 360.856 220.473 360.638 221.411 360.426Z" fill="#6A6A6A"/>
<path d="M112.19 218.893C113.87 218.549 115.881 218.399 117.278 217.358C118.556 214.464 119.179 199.96 121.153 199.015C122.859 198.198 128.207 198.896 130.392 198.758C131.249 203.981 133.091 212.956 132.595 218.079C133.023 218.71 133.7 218.825 134.426 218.963C135.424 219.152 136.431 219.31 137.435 219.471C141.176 213.566 144.408 207.094 147.602 200.875C152.063 202.686 156.301 204.881 160.808 206.621C158.483 213.398 155.574 220.148 152.765 226.738C154.162 227.733 155.549 228.72 156.869 229.818C160.916 228.02 164.852 224.959 168.57 222.536C169.845 223.876 172.418 226.023 172.534 227.924C172.577 228.629 172.164 229.241 171.67 229.704C170.043 231.23 167.931 232.119 166.352 233.73L166.353 234.224L167.041 234.841C166.339 236.329 164.455 236.508 165.147 238.53C165.171 238.602 165.2 238.672 165.227 238.743L166.409 237.812L166.78 237.913C166.803 238.259 166.838 238.605 166.833 238.952C167.162 242.595 175.824 250.962 178.782 253.437C180.152 254.583 181.626 255.818 183.389 256.261C184.552 256.141 185.189 255.416 186.149 254.868L186.272 255.294C185.618 255.955 184.746 256.626 183.8 256.786C182.989 256.924 182.69 256.586 182.061 256.175L181.793 256.424L181.959 256.194L181.803 256.845C182.008 257.09 182.16 257.403 182.496 257.472C184.731 257.927 187.591 255.32 189.5 254.285L189.657 254.629C187.545 256.151 185.199 257.524 182.755 258.433C181.554 257.072 179.715 255.743 177.849 255.517C177.506 255.475 177.321 255.622 177.019 255.757C176.715 256.378 176.764 256.907 176.958 257.551C177.408 259.05 178.016 260.021 178.086 261.649C180.454 264.049 196.527 264.647 198.124 267.09C198.414 267.534 198.421 268.449 198.426 268.954C198.461 272.853 197.412 276.799 197.003 280.665C196.846 282.146 197.013 283.677 196.666 285.126C196.346 285.414 196.033 285.702 195.696 285.97C196.199 286.802 196.226 287.219 196.176 288.16C195.522 288.3 195.962 288.301 195.566 288.151C194.981 287.928 194.141 288.087 193.536 288.169L192.895 289.105C192.498 288.937 192.674 289.065 192.384 288.7C191.294 289 189.866 289.649 188.753 289.648C188.911 290.424 189.125 290.741 188.734 291.45C188.048 291.55 187.881 291.297 187.312 290.955L186.825 292.099L186.44 292.224L185.661 291.594C185.387 291.983 185.304 292.228 185.168 292.675C184.105 292.928 183.736 292.054 182.542 294.038C182.497 294.113 182.466 294.195 182.428 294.274C182.923 294.926 183.991 295.044 184.779 295.262C185.662 295.505 186.036 295.958 186.686 296.572C187.69 297.518 188.916 298.027 189.849 299.082C188.915 303.54 179.513 315.337 175.995 318.752C174.969 318.409 174.063 318.11 173.164 317.491C170.007 315.569 166.58 313.736 163.683 311.451C162.589 312.905 161.469 314.331 160.325 315.745C160.63 316.954 161.267 318.008 161.704 319.171C163.018 322.665 164.445 326.329 165.332 329.958C164.598 330.747 163.828 331.663 162.942 332.281C160.195 334.197 156.873 335.551 153.881 337.044C151.804 338.081 149.786 339.284 147.673 340.239C145.165 337.373 141.878 333.993 140.245 330.576C139.575 329.777 139.161 328.531 138.196 328.054L137.792 328.428C137.178 328.677 136.68 328.876 136.015 328.956L135.595 328.476C135.603 327.416 136.02 326.408 136.256 325.378C135.982 324.512 135.739 324.477 135.011 323.975C134.841 325.026 134.626 326.069 134.66 327.137C134.322 330.473 133.204 337.101 134.001 340.13L134.637 340.531C133.948 340.812 133.96 340.835 133.258 340.605C131.404 338.013 133.758 327.888 133.721 324.235C131.138 330.462 130.062 337.049 126.992 343.164C125.009 343.176 122.269 343.512 120.411 342.921C118.359 343.089 113.613 343.55 111.996 342.191C111.676 341.921 111.732 341.546 111.675 341.16C114.437 341.888 117.631 341.877 120.483 342.058L120.699 341.906C121.019 341.547 121.359 341.319 121.785 341.091C121.89 341.035 121.997 340.982 122.104 340.928L122.447 339.843L114.718 339.424L114.393 337.077L113.38 336.768C111.958 335.105 111.892 330.4 111.523 328.195C111.207 326.591 110.503 320.517 109.888 319.614C109.684 319.314 109.311 319.34 108.98 319.268C108.337 319.532 107.771 319.819 107.257 320.298C105.035 322.368 98.1282 330.702 96.6326 333.175C95.9459 334.349 95.3228 335.532 94.365 336.51C93.7688 336.641 93.7551 336.638 93.2015 336.379L93.3599 335.867C92.0374 334.144 83.5128 328.959 81.2726 328.063C81.9867 328.94 82.9818 329.511 83.9096 330.14C82.0746 329.612 80.2532 328.466 78.6155 327.491C79.7543 325.526 81.0147 323.519 81.9072 321.431C82.1908 320.768 82.7118 319.674 82.4398 318.987C81.1284 318.689 79.8543 318.253 78.7055 317.538C78.0172 317.108 77.322 316.474 77.2152 315.622C77.0863 314.589 77.8456 313.952 78.4987 313.29C79.6117 312.258 80.7395 311.247 81.8809 310.247C77.6988 311.362 73.4931 312.919 69.3668 314.26C68.3706 314.689 67.0013 314.678 65.9188 314.82C64.4237 313.465 58.4224 302.194 57.3499 299.822C61.5462 295.565 69.8051 291.905 72.9621 287.327C70.4171 286.61 67.4696 286.935 64.8284 286.602C61.3483 285.974 55.2697 285.246 52.2217 284.116C52.1801 282.791 51.8317 281.352 51.6344 280.034C50.9544 275.496 50.0409 270.962 50.4003 266.359C55.2386 264.762 60.3501 263.907 65.292 262.681C66.2793 262.437 66.8908 262.334 67.9122 262.494C68.6011 262.602 69.0284 262.68 69.7172 262.485C69.4925 262.479 68.7242 261.77 68.2085 261.657C66.4792 261.275 65.191 260.265 63.5012 259.839C60.9142 258.221 51.7591 255.324 50.5966 253.141C50.0225 252.062 50.5056 250.184 50.7929 249.068C51.8075 245.127 54.1214 237.11 57.7857 234.939C54.6308 229.473 45.4136 209.497 45.8893 204.027L46.4919 203.677C47.3197 204.63 49.4289 212.584 50.0825 214.443C52.6311 221.689 55.738 228.5 59.6291 235.119C64.8884 237.016 70.5792 238.373 75.9659 239.934C74.8818 238.199 73.4036 236.665 72.0832 235.101C68.801 231.215 65.4425 227.436 62.9718 222.959C65.7962 219.043 73.0631 212.995 77.1962 210.401C80.6095 210.414 88.3053 220.86 91.7754 222.902L91.1765 220.723L91.5044 221.128C91.8664 221.584 92.0711 221.997 92.2937 222.53L92.6011 222.651L92.8484 222.147L93.1957 222.326C93.3462 221.392 93.1905 220.458 93.0894 219.526C93.6193 219.438 94.1677 219.435 94.7045 219.405C93.563 214.673 92.4521 209.93 91.1918 205.228C95.0165 203.658 98.8486 201.906 102.751 200.553C105.669 206.793 109.045 212.771 112.19 218.893Z" fill="#F8F6EE"/>
<path d="M78.9345 255.814C79.296 256.151 79.5586 256.361 79.7833 256.808C78.7945 260.856 78.0836 265.564 78.4077 269.738L77.511 270.342C77.1316 265.59 77.6415 260.402 78.9345 255.814Z" fill="#6A6A6A"/>
<path d="M97.0399 230.179C106.549 223.285 119.141 221.218 130.559 223.036C139.375 224.441 147.258 228.315 154.236 233.829C157.464 236.388 160.924 239.682 162.922 243.327C169.359 251.711 171.362 263.813 169.994 274.077C169.588 277.124 169.018 280.829 167.702 283.633C164.064 295.175 155.615 304.577 144.984 310.151C141.301 312.082 137.294 313.794 133.206 314.64C127.987 315.414 122.606 315.785 117.389 314.804C114.659 314.719 111.468 313.895 108.958 312.809C106.142 311.94 103.354 310.387 100.82 308.9C89.041 301.989 81.8909 291.219 78.524 278.175C78.0756 275.651 77.372 272.912 77.511 270.342L78.4077 269.738C78.6524 272.42 78.9608 275.084 79.5123 277.723C80.279 280.844 81.0657 283.934 82.3593 286.889C85.7825 294.709 92.7821 302.779 100.072 307.231C102.852 308.929 105.859 310.253 108.818 311.606C111.651 312.474 114.483 313.124 117.344 313.87C122.605 314.58 127.375 314.666 132.601 313.609C136.038 312.846 139.233 311.666 142.419 310.163C154.154 304.628 161.908 295.739 166.248 283.553C166.45 283.052 166.635 282.545 166.797 282.029C169.949 271.973 169.729 260.687 165.664 250.908C164.704 248.601 163.256 246.469 162.115 244.245C159.781 240.448 156.678 237.626 153.437 234.629C147.627 230.482 141.391 226.745 134.389 225.049C121.827 222.005 109.338 223.948 98.3298 230.701C94.3408 233.42 91.0092 236.555 87.8317 240.178C83.8627 245.24 81.4378 250.591 79.7833 256.808C79.5586 256.362 79.296 256.151 78.9345 255.814C80.338 249.559 83.0234 244.097 87.1428 239.215C89.4052 235.954 93.502 231.973 97.0399 230.179Z" fill="#6A6A6A"/>
<path d="M57.7857 234.938C54.6308 229.473 45.4136 209.497 45.8893 204.027L46.4919 203.677C47.3197 204.63 49.4289 212.583 50.0825 214.443C52.6311 221.689 55.738 228.5 59.6291 235.119C64.8884 237.016 70.5792 238.373 75.9659 239.934C74.8818 238.199 73.4036 236.664 72.0832 235.101C68.801 231.215 65.4425 227.436 62.9718 222.959C65.7962 219.043 73.0631 212.995 77.1962 210.401C80.6095 210.414 88.3053 220.86 91.7754 222.902L91.1765 220.722L91.5044 221.128C91.8664 221.584 92.0711 221.996 92.2937 222.53L92.6011 222.651L92.8484 222.147L93.1957 222.326C93.3462 221.392 93.1905 220.458 93.0894 219.526C93.6193 219.438 94.1677 219.435 94.7045 219.405C95.1639 221.076 95.7722 222.582 96.5605 224.127C95.0134 225.248 93.5057 226.349 91.8096 227.236C86.575 223.202 81.3704 218.664 76.9426 213.764C73.3041 216.524 69.6957 219.796 66.6013 223.152C71.1597 228.615 75.5744 234.738 80.9742 239.385C79.8817 241.221 78.8281 243.086 77.4988 244.764C70.9634 242.776 64.5174 240.237 57.9414 238.451C56.188 242.229 54.7119 246.313 53.6173 250.331C53.5078 250.733 53.5636 250.563 53.3773 250.98C58.8939 254.661 66.9371 257.129 73.0484 259.861C72.9957 261.726 73.2068 263.919 72.0696 265.499C71.5533 265.763 71.4707 265.79 70.8945 265.749C64.4685 266.094 58.2687 268.018 51.8991 268.62C52.5132 273.233 53.0968 277.866 53.9388 282.444L58.3729 282.356C62.4703 281.726 69.8851 281.765 74.1324 281.961C74.4766 283.985 75.0071 286.798 76.6521 288.155C76.71 289.067 76.6958 289.313 76.0806 290.007C73.7704 292.609 64.2558 298.473 60.88 300.457C62.7897 304.296 65.4115 307.761 67.2434 311.633C69.8356 310.692 85.3262 303.759 86.5708 304.322C87.117 304.569 87.386 305.055 87.7138 305.532L87.8443 305.675C88.3532 306.057 88.7779 306.335 89.1147 306.886C89.6051 307.455 90.064 307.854 90.6682 308.302C88.3748 314.511 85.6935 320.569 83.508 326.818C86.8581 329.336 90.294 331.729 93.7577 334.088L95.4023 331.438C99.1434 326.614 103.353 322.248 106.638 317.068C108.164 317.705 109.801 318.065 111.398 318.486C111.41 320.927 112.068 323.378 112.498 325.776C113.33 329.364 114.175 333.395 114.393 337.076L113.38 336.768C111.958 335.105 111.892 330.4 111.523 328.194C111.207 326.591 110.503 320.517 109.888 319.614C109.684 319.314 109.311 319.34 108.98 319.268C108.337 319.531 107.771 319.819 107.257 320.298C105.035 322.368 98.1282 330.702 96.6326 333.174C95.9459 334.348 95.3228 335.531 94.365 336.51C93.7688 336.641 93.7551 336.638 93.2015 336.379L93.3599 335.867C92.0374 334.144 83.5128 328.959 81.2726 328.063C81.9867 328.94 82.9818 329.511 83.9096 330.14C82.0746 329.612 80.2532 328.466 78.6155 327.491C79.7543 325.525 81.0147 323.519 81.9072 321.431C82.1908 320.768 82.7118 319.673 82.4398 318.987C81.1284 318.689 79.8543 318.253 78.7055 317.537C78.0172 317.108 77.322 316.473 77.2152 315.621C77.0863 314.588 77.8456 313.952 78.4987 313.29C79.6117 312.258 80.7395 311.247 81.8809 310.247C77.6988 311.362 73.4931 312.919 69.3668 314.259C68.3706 314.688 67.0013 314.678 65.9188 314.82C64.4237 313.464 58.4224 302.194 57.3499 299.822C61.5462 295.565 69.8051 291.905 72.9621 287.327C70.4171 286.609 67.4696 286.935 64.8284 286.602C61.3483 285.974 55.2697 285.246 52.2217 284.116C52.1801 282.791 51.8317 281.352 51.6344 280.034C50.9544 275.496 50.0409 270.962 50.4003 266.358C55.2386 264.762 60.3501 263.907 65.292 262.681C66.2793 262.436 66.8908 262.334 67.9122 262.494C68.6011 262.602 69.0284 262.68 69.7172 262.485C69.4925 262.479 68.7242 261.77 68.2085 261.656C66.4792 261.275 65.191 260.265 63.5012 259.839C60.9142 258.221 51.7591 255.324 50.5966 253.141C50.0225 252.061 50.5056 250.184 50.7929 249.068C51.8075 245.127 54.1214 237.11 57.7857 234.938Z" fill="#6A6A6A"/>
<path d="M83.4244 310.342C83.4144 310.436 83.4176 310.532 83.3939 310.623C82.8782 312.589 79.7944 313.437 79.4639 315.724L79.6512 316.1L80.3385 316.235L80.0391 315.804L80.6206 316.199C82.3667 315.592 82.2162 314.401 83.5349 313.153C84.0543 313.782 84.3306 314.116 84.3832 314.973C83.9349 316.014 82.4472 316.216 81.7347 317.159L81.3626 317.459C80.8374 317.466 80.4964 317.36 80.0786 317.024C79.1971 316.315 78.9071 315.447 78.7545 314.368C80.1017 312.869 81.9773 311.817 83.4244 310.342Z" fill="#FFCD1E"/>
<path d="M75.8375 309.792C78.7161 308.462 82.764 306.256 85.9378 306.013C86.5987 305.963 87.1034 305.782 87.7139 305.532L87.8444 305.675C87.3486 306.243 87.0755 306.501 86.9792 307.278L87.2808 307.512L87.9901 307.266L88.8737 307.75C87.8291 307.949 86.7687 308.573 86.1335 309.445C86.0825 309.514 86.0457 309.593 86.002 309.668L86.2888 309.808L86.6745 309.634L86.8113 310.449C85.9499 311.499 85.0205 312.052 83.7496 312.514L83.5349 313.153C82.2162 314.401 82.3667 315.591 80.6206 316.199L80.0391 315.804L80.3385 316.235L79.6512 316.1L79.4639 315.724C79.7944 313.436 82.8782 312.589 83.3939 310.623C83.4176 310.532 83.4144 310.436 83.4244 310.342C84.0991 309.773 84.9637 309.219 85.2973 308.397C84.71 308.057 84.4969 308.203 83.8412 308.272C81.4194 308.218 77.7173 310.698 76.0443 310.277L75.8375 309.792Z" fill="#6A6A6A"/>
<path d="M165.227 238.742L166.409 237.812L166.78 237.913C166.803 238.259 166.838 238.605 166.833 238.951C167.162 242.595 175.824 250.961 178.782 253.437C180.151 254.583 181.626 255.818 183.388 256.26C184.551 256.141 185.189 255.416 186.149 254.868L186.272 255.294C185.618 255.955 184.746 256.625 183.8 256.786C182.988 256.924 182.69 256.585 182.061 256.174L181.793 256.423L181.959 256.194L181.803 256.844C182.008 257.09 182.16 257.403 182.496 257.472C184.731 257.927 187.59 255.32 189.5 254.285L189.656 254.629C187.545 256.15 185.199 257.524 182.755 258.433C181.554 257.072 179.715 255.742 177.849 255.517C177.506 255.475 177.321 255.622 177.019 255.757C176.715 256.377 176.764 256.906 176.958 257.551C177.408 259.05 178.016 260.02 178.086 261.649C180.454 264.049 196.527 264.647 198.124 267.09C198.414 267.533 198.421 268.449 198.425 268.954C198.461 272.852 197.412 276.799 197.002 280.664C196.846 282.146 197.013 283.677 196.666 285.126C196.346 285.414 196.033 285.702 195.696 285.97C196.199 286.802 196.226 287.218 196.176 288.16C195.522 288.3 195.962 288.301 195.566 288.15C194.981 287.928 194.141 288.086 193.536 288.169L192.894 289.105C192.498 288.936 192.673 289.065 192.384 288.7C191.294 289 189.865 289.649 188.753 289.647C188.911 290.424 189.125 290.74 188.734 291.449C188.048 291.549 187.881 291.297 187.312 290.954L186.825 292.099L186.44 292.223L185.661 291.593C185.387 291.983 185.304 292.227 185.168 292.674C184.105 292.927 183.736 292.054 182.542 294.037C182.496 294.113 182.466 294.195 182.428 294.274C182.923 294.926 183.991 295.044 184.779 295.261C185.662 295.505 186.036 295.958 186.686 296.571C187.689 297.517 188.916 298.027 189.849 299.082C188.914 303.539 179.513 315.337 175.995 318.752C174.969 318.408 174.063 318.109 173.163 317.49C170.007 315.569 166.58 313.736 163.683 311.45C162.589 312.905 161.469 314.33 160.325 315.745C160.63 316.954 161.267 318.008 161.704 319.17C163.017 322.665 164.445 326.329 165.332 329.957C164.598 330.747 163.828 331.663 162.942 332.281C160.195 334.196 156.872 335.55 153.881 337.044C151.804 338.08 149.785 339.283 147.673 340.238C145.164 337.373 141.878 333.993 140.245 330.576C139.575 329.776 139.161 328.531 138.196 328.054L137.792 328.427C137.178 328.676 136.68 328.876 136.015 328.955L135.595 328.476C135.603 327.416 136.02 326.407 136.256 325.377C135.982 324.512 135.738 324.476 135.011 323.974C134.841 325.026 134.626 326.068 134.66 327.137C134.322 330.473 133.203 337.101 134.001 340.13L134.636 340.531C133.948 340.812 133.96 340.835 133.258 340.604C131.404 338.013 133.758 327.888 133.721 324.234C131.138 330.461 130.062 337.049 126.992 343.163C125.009 343.175 122.269 343.512 120.41 342.92C118.359 343.089 113.613 343.55 111.996 342.19C111.676 341.921 111.732 341.546 111.675 341.159C114.436 341.888 117.631 341.876 120.482 342.057L120.699 341.906C121.019 341.546 121.359 341.318 121.784 341.09C121.89 341.034 121.997 340.982 122.104 340.927L122.447 339.843C123.26 339.88 124.073 339.925 124.887 339.931C126.67 332.839 129.07 325.833 131.371 318.894C132.721 318.709 134.062 318.457 135.404 318.219C137.301 321.283 139.719 324.035 141.912 326.894C144.119 329.77 146.205 332.753 148.537 335.528C151.597 333.736 154.819 332.342 157.963 330.716C155.72 323.7 153.471 316.606 151.904 309.407C154.939 308.375 157.76 306.655 160.724 305.411C165.258 307.519 168.88 311.32 173.557 313.306C174.842 311.799 176.084 310.267 177.309 308.71C179.498 305.679 181.677 302.711 183.356 299.356C178.979 296.02 174.254 293.386 170.143 289.664C171.309 286.631 172.38 283.638 173.161 280.479C178.274 280.93 183.841 282.224 188.955 281.851C189.742 281.794 190.341 281.712 190.862 281.103C190.468 281.112 190.149 281.103 189.754 281.047C190.122 280.662 190.075 280.752 190.354 280.298C191.299 278.76 192.006 270.727 191.615 268.848C189.317 267.025 179.585 266.096 176.027 264.485C175.944 264.447 175.861 264.407 175.778 264.367C175.099 261.871 173.67 257.09 173.967 254.626C174.714 253.903 175.294 254.023 176.2 253.62C172.534 249.67 168.43 245.667 165.666 241.003C165.223 240.255 164.983 239.612 165.227 238.742Z" fill="#6A6A6A"/>
<path d="M124.887 339.931L124.803 340.675C125.232 341.1 125.558 341.246 126.125 341.446L126.158 341.859C125.429 342.004 124.789 342.016 124.053 341.996C122.937 342.007 121.816 341.945 120.7 341.906C121.019 341.547 121.359 341.319 121.785 341.091C121.89 341.035 121.997 340.982 122.104 340.928L122.447 339.843C123.26 339.88 124.073 339.925 124.887 339.931Z" fill="#6A6A6A"/>
<path d="M157.708 311.257C158.409 310.804 159.213 310.187 160.04 310.017C160.591 309.904 160.361 309.889 160.868 310.212C160.848 311.512 160.02 312.631 159.407 313.744C159.401 314.253 159.437 314.796 159.348 315.296C158.576 314.385 158.122 312.415 157.708 311.257Z" fill="#FFCD1E"/>
<path d="M154.224 310.387L154.802 310.876C155.997 315.032 161.121 326.763 160.556 330.153C160.421 330.959 160.209 331.435 159.544 331.942L159.418 331.889C159.654 331.549 159.839 331.243 160.03 330.88C158.567 328.714 154 312.907 154.224 310.387Z" fill="#FFCD1E"/>
<path d="M176.064 284.88C182.608 284.426 189.127 285.973 195.696 285.97C196.199 286.802 196.226 287.218 196.176 288.16C195.522 288.3 195.962 288.301 195.566 288.15C194.981 287.928 194.141 288.087 193.536 288.169L192.895 289.105C192.498 288.937 192.673 289.065 192.384 288.7C191.294 289 189.865 289.649 188.753 289.648C187.587 290.028 186.381 290.432 185.27 290.953C184.087 291.506 182.763 292.648 181.481 292.867C179.728 293.166 175.858 290.323 174.319 289.416C175.003 287.913 175.609 286.47 176.064 284.88Z" fill="#F8F6EE"/>
<path d="M98.3296 230.701C109.338 223.948 121.827 222.005 134.389 225.049C141.391 226.745 147.627 230.482 153.437 234.629C156.678 237.626 159.781 240.448 162.114 244.245C163.256 246.469 164.704 248.601 165.663 250.908C169.729 260.687 169.949 271.973 166.797 282.029C166.635 282.545 166.45 283.052 166.248 283.553C161.908 295.739 154.154 304.628 142.419 310.163C139.233 311.666 136.038 312.846 132.601 313.609C127.375 314.666 122.605 314.58 117.343 313.87C114.483 313.124 111.651 312.474 108.818 311.606C105.859 310.253 102.852 308.929 100.072 307.231C92.7819 302.778 85.7823 294.709 82.3591 286.889C81.0656 283.934 80.2788 280.844 79.5121 277.723C78.9606 275.084 78.6522 272.42 78.4075 269.738C78.0833 265.564 78.7943 260.856 79.7831 256.808C81.4376 250.591 83.8626 245.24 87.8315 240.178C91.009 236.555 94.3407 233.42 98.3296 230.701Z" fill="#F8F6EE"/>
<path d="M141.856 250.973C145.785 254.017 152.466 261.592 155.951 265.49C154.077 267.66 152.198 269.859 150.089 271.805C148.853 270.626 147.628 269.433 146.342 268.308C143.806 271.574 140.834 274.522 137.957 277.486C131.782 283.85 125.318 289.949 119.037 296.21C115.985 294.014 99.3412 276.269 98.5618 276.201C98.1466 276.817 97.7698 277.55 97.1747 277.997C95.1139 281 92.4163 284.731 89.4909 286.868C88.6011 287.518 87.968 287.991 86.8476 287.826L86.5513 287.355C86.985 284.131 96.9931 274.233 99.8254 271.218C101.269 269.682 102.664 268.071 104.435 266.905L107.15 269.464C110.529 273.419 114.594 277.099 118.475 280.565C123.136 276.431 127.569 271.992 131.974 267.589C134.277 265.288 136.515 262.838 138.984 260.716C137.895 259.748 136.086 258.558 135.932 257.012C135.864 256.334 136.236 255.755 136.696 255.293C138.239 253.742 140.224 252.496 141.856 250.973Z" fill="#6B6B6B"/>
<path d="M141.245 253.639C145.606 257.286 149.54 261.604 153.486 265.69C152.431 267.039 151.315 268.372 150.337 269.777C148.884 268.386 147.515 267.141 145.726 266.183C136.764 274.995 128.203 284.108 118.955 292.638C112.234 286.931 106.021 280.64 100.046 274.16C100.587 273.627 101.315 273.044 101.772 272.45L104.515 269.751C105.478 270.639 106.42 271.582 107.44 272.402C108.583 273.919 110.562 275.355 111.993 276.659C114.102 278.584 116.123 280.574 118.119 282.617C123.095 279.214 132.338 269.628 136.566 264.993C137.922 263.856 139.145 262.516 140.391 261.258C142.723 262.576 145.172 263.553 147.496 264.819C148.233 265.221 149.044 265.631 149.885 265.372L150.032 265.011C147.854 262.784 140.217 261.237 137.708 257.518C137.365 257.01 137.435 256.982 137.54 256.377C138.878 255.609 140.048 254.605 141.245 253.639Z" fill="#F8F6EE"/>
<path d="M353.983 204.215C355.624 204.291 357.637 205.064 358.952 206.057C359.856 206.74 359.883 207.198 360.04 208.255C358.432 207.271 356.571 206.666 354.993 205.657C354.295 205.212 354.171 205.012 353.983 204.215Z" fill="#6A6A6A"/>
<path d="M359.591 195.015C360.871 196.612 358.152 196.768 358.034 198.294C359.686 199.766 362.047 198.534 364.058 199.017C364.22 199.709 364.011 199.757 363.671 200.35C361.663 200.511 358.682 200.643 356.964 199.49C356.757 199.092 356.569 198.912 356.625 198.444C356.8 196.948 358.508 195.907 359.591 195.015Z" fill="#6A6A6A"/>
<path d="M447.54 194.278C448.181 192.284 448.422 190.264 448.938 188.247L449.929 188.014C449.616 190.673 448.972 193.228 448.564 195.863L447.723 199.026C444.073 212.531 437.262 228.897 428.067 239.581L428.163 239.888L427.743 239.407L427.369 240.206L427.283 240.084C427.19 238.464 431.988 232.098 433.073 230.204C437.718 222.101 441.626 213.912 444.585 205.046C445.215 203.159 446.011 201.16 446.409 199.214L446.494 198.78C446.923 197.282 447.348 195.828 447.54 194.278Z" fill="#6A6A6A"/>
<path d="M442.784 181.435C442.856 182.755 443.007 185.858 442.463 187.025C442.245 188.232 442.036 189.435 441.865 190.649C439.244 212.643 427.95 234.006 413.439 250.407C410.566 253.654 407.519 257.149 404.115 259.839C407.083 254.066 412.704 249.333 416.785 244.275C429.626 228.356 437.589 210.09 440.775 189.913L441.464 185.68C441.685 184.446 441.712 183.184 441.932 181.939C442.327 181.819 442.472 181.692 442.784 181.435Z" fill="#6A6A6A"/>
<path d="M352.252 232.584C357.425 227.864 362.718 223.276 367.828 218.487C370.996 220.111 374.893 221.96 377.435 224.501C376.568 228.401 375.222 232.186 374.146 236.033C373.269 239.171 372.628 242.651 371.449 245.673L370.466 246.101C369.842 245.715 369.846 245.373 369.59 244.715C370.193 239.119 373.376 231.047 374.955 225.366L368.001 220.85C366.894 223.028 356.337 232.006 353.957 233.537C353.379 233.233 352.815 232.915 352.252 232.584Z" fill="#6A6A6A"/>
<path d="M353.957 233.537C356.337 232.006 366.894 223.028 368.002 220.85L374.955 225.366C373.376 231.047 370.193 239.119 369.59 244.715L369.21 245.13C368.087 244.873 366.234 242.347 365.234 241.442C361.837 238.368 358.041 235.621 353.957 233.537Z" fill="#2CD997"/>
<path d="M269.361 298.271C268.499 298.041 267.635 297.922 266.761 297.754C263.144 297.055 256.63 295.607 254.53 292.274C253.856 291.205 253.606 289.961 253.935 288.731C254.603 286.23 257.858 283.949 260.007 282.743C259.986 282.823 259.976 282.907 259.944 282.984C258.997 285.222 252.917 287.424 254.028 290.984C254.676 293.063 258.033 294.546 259.91 295.337C260.212 295.464 260.509 295.569 260.819 295.674C260.844 295.238 260.996 294.99 260.651 294.661C259.164 293.243 255.681 293.414 255.389 291.121C255.216 289.762 255.835 288.473 256.698 287.46C257.477 286.546 259.206 285.534 260.389 285.361C260.776 285.304 260.852 285.342 261.187 285.407C259.424 286.253 256.46 287.319 255.815 289.4C255.602 290.087 255.801 290.766 256.206 291.332C258.252 294.192 265.851 296.01 269.203 296.372C269.31 296.383 269.416 296.387 269.522 296.395L269.361 298.271Z" fill="#6A6A6A"/>
<path d="M380.419 294.456C384.502 299.142 388.894 303.384 393.143 307.901C391.965 309.734 390.663 311.504 389.419 313.294C388.5 313.091 387.266 312.63 386.353 312.906C382.119 312.107 377.514 312.724 373.348 311.71L373.286 311.409L373.48 311.653C373.203 310.756 374.526 309.011 374.982 308.197C377.451 303.793 379.173 299.35 380.419 294.456Z" fill="#2CD997"/>
<path d="M309.562 331.528C312.691 332.863 315.626 333.999 319.015 334.484C321.028 334.773 323.038 334.829 325.041 335.218L325.408 335.292C324.316 339.181 322.75 342.585 320.578 345.986C320.096 346.571 319.605 347.139 319.026 347.633C317.77 348.704 316.499 349.072 314.863 348.905C314.81 348.899 314.166 348.822 314.091 348.82C312.422 348.784 311.551 347.978 310.213 347.076C308.022 342.236 309.042 336.657 309.562 331.528Z" fill="#2CD997"/>
<path d="M321.149 210.044C324.819 214.152 327.257 219.517 329.465 224.533C329.732 225.245 330.155 226.006 329.965 226.773C329.609 226.88 329.3 226.942 328.927 226.943C323.988 226.964 318.626 227.887 313.99 229.607C313.879 226.844 313.633 223.712 314.324 221.017C314.343 220.941 314.365 220.866 314.386 220.79L314.079 220.355L314.122 220.037C314.443 217.468 313.59 212.8 315.824 211.055C317.279 209.919 319.398 210.079 321.149 210.044Z" fill="#2CD997"/>
<path d="M284.945 309.22C286.854 312.738 289.058 315.793 291.783 318.731C292.863 319.896 295.386 321.77 296.018 322.965C296.269 323.439 295.037 324.366 294.851 325.142C294.223 325.202 293.966 325.285 293.513 325.694C290.955 328.002 285.638 329.95 282.24 330.211C282.052 330.21 281.864 330.206 281.675 330.212C280.716 330.239 279.46 330.365 278.572 329.94C277.903 329.62 277.56 329.252 277.372 328.537C276.294 324.428 282.788 313.157 284.945 309.22Z" fill="#2CD997"/>
<path d="M359.036 326.559L359.272 326.658C361.245 328.884 363.723 341.286 364.659 344.77C362.12 346.32 359.184 347.441 356.488 348.721C355.689 347.892 354.995 346.945 354.276 346.045C351.205 341.748 348.636 337.294 346.047 332.697C350.611 330.996 354.791 328.925 359.036 326.559Z" fill="#2CD997"/>
<path d="M377.731 259.585C381.94 261.042 398.203 262.689 399.275 263.263C399.963 264.683 400.019 266.421 400.224 267.974C397.39 269.996 394.587 272.049 391.809 274.146C388.254 276.624 384.638 279.113 381.788 282.409C381.989 274.428 380.51 267.059 377.731 259.585Z" fill="#2CD997"/>
<path d="M261.438 284.956C266.741 282.9 271.614 280.138 277.038 278.257C277.478 285.271 277.821 290.604 279.576 297.45C278.356 297.243 276.949 296.852 275.717 296.957L275.594 296.829C273.725 296.88 271.605 296.304 269.773 295.943C269.667 295.936 269.56 295.932 269.454 295.921C266.102 295.559 258.502 293.741 256.457 290.881C256.052 290.315 255.852 289.636 256.065 288.949C256.71 286.868 259.674 285.802 261.438 284.956Z" fill="#2CD997"/>
<path d="M233.343 276.416C234.56 275.98 234.893 276.061 235.996 276.572C234.424 277.282 232.729 277.908 231.22 278.734L230.672 277.57L233.343 276.416Z" fill="#6A6A6A"/>
<path d="M230.672 277.57L231.22 278.734C228.015 279.801 224.841 280.967 221.66 282.104C221.854 281.54 222.021 280.979 222.18 280.405C225.026 279.501 227.85 278.544 230.672 277.57Z" fill="#6A6A6A"/>
<path d="M198.764 287.881C198.738 287.497 198.773 287.288 198.856 286.92C199.369 286.652 200.003 286.225 200.586 286.2C205.786 285.986 216.655 282.027 222.18 280.404C222.021 280.978 221.854 281.54 221.66 282.104C220.147 282.35 218.711 282.922 217.238 283.338C213.184 284.482 209.05 285.798 204.923 286.631C203.452 286.928 202.132 286.579 201.049 287.722L200.569 287.644L200.005 286.826C199.978 286.96 199.956 287.094 199.925 287.228C199.796 287.79 199.886 287.584 199.519 288.016L198.764 287.881Z" fill="#6A6A6A"/>
<path d="M234.707 356.882C237.86 356.022 240.834 354.232 244.151 354.077C244.238 354.073 244.326 354.071 244.414 354.068C244.455 353.955 244.486 353.837 244.538 353.729C244.865 353.049 254.254 349.515 255.879 348.82C255.682 349.789 254.907 350.453 254.242 351.141C247.863 353.783 241.259 356.603 234.57 358.352L234.707 356.882Z" fill="#6A6A6A"/>
<path d="M240.713 288.343C241.786 287.817 247.975 285.958 249.395 285.603C249.854 285.487 250.368 285.534 250.807 285.698C250.878 285.724 250.942 285.765 251.01 285.799L251.128 286.257C250.332 287.426 242.869 289.322 241.126 289.714C241.034 289.734 240.94 289.748 240.847 289.765C239.389 290.203 237.795 290.344 236.484 291.142C234.608 290.939 229.953 292.484 227.934 292.933C222.205 294.208 207.33 296.913 201.697 296.025C200.181 295.786 198.886 295.868 197.349 295.959L196.916 295.328C196.525 295.696 196.152 295.937 195.684 296.199C195.072 296.09 195.331 296.237 194.922 295.73C194.878 295.028 194.862 294.987 195.239 294.399C196.021 294.233 196.473 294.522 197.216 294.786L197.426 294.445C197.898 294.412 198.032 294.459 198.471 294.692C199.321 295.143 200.589 294.398 201.603 294.549L201.821 295.353C202.653 294.998 203.68 294.456 204.582 294.365L223.331 292.643C226.005 292.393 228.48 291.117 231.176 290.925C232.566 290.826 234 290.03 235.343 289.611L235.685 290.033L236.135 290.056C236.415 289.502 236.231 289.738 236.675 289.34C238.087 289.581 239.264 288.123 240.713 288.343Z" fill="#6A6A6A"/>
<path d="M338.041 233.073C336.426 233.042 334.669 233.118 333.076 232.878C332.805 232.838 332.186 232.794 331.941 232.668C331.826 232.608 331.418 232.213 331.374 232.214C331.166 232.22 330.669 232.727 330.172 232.762C328.537 232.88 326.75 232.457 325.109 232.328L324.33 233.054L323.783 233.017L323.165 232.296L322.781 233.02L322.593 232.918C322.575 232.93 322.557 232.941 322.54 232.954C322.178 233.246 321.989 233.403 321.508 233.454C320.525 233.559 319.668 233.745 318.891 233.1C318.516 233.383 318.134 233.643 317.743 233.902L317.486 233.696L317.453 233.087C317.697 232.867 317.699 232.841 318.044 232.671C320.504 231.458 330.055 231.334 333.021 231.553C335.07 231.705 337.413 232.237 339.381 232.799C341.748 233.052 342.203 234.355 344.067 235.398C346.028 236.494 348.166 237.308 350.152 238.369C355.22 241.075 359.877 244.949 363.479 249.419C365.377 251.772 367.365 254.306 368.863 256.933C373.715 265.44 376.017 276.984 374.911 286.715C373.607 298.186 367.269 310.213 358.159 317.384C347.162 326.039 336.252 329.041 322.456 327.278C310.141 325.704 299.658 318.292 292.208 308.645C287.096 302.026 284.007 293.786 282.654 285.578C282.472 284.475 282.141 278.819 281.876 278.367C281.75 278.153 281.458 278.098 281.249 277.963L281.322 277.758L281.921 277.799C282.086 276.748 282.22 275.692 282.361 274.638C283.227 268.806 285.163 263.725 287.116 258.223C288.504 255.648 290.774 253.146 292.742 250.998C301.724 241.194 313.025 235.825 326.152 234.041C329.329 233.609 334.919 234.268 337.618 233.248C337.761 233.194 337.9 233.131 338.041 233.073Z" fill="#2CD997"/>
<path d="M345.817 298.599C346.129 298.05 346.336 297.866 346.889 297.564L347.613 297.444C347.939 298.265 348.091 298.366 347.814 299.237L346.276 300.644L345.817 298.599Z" fill="#6A6A6A"/>
<path d="M354.644 275.618C354.656 275.741 354.665 275.864 354.682 275.985C354.769 276.595 354.727 276.375 354.945 276.933C355.97 279.551 355.554 284.783 354.522 287.372C353.801 290.22 351.106 296.585 348.608 298.149C348.257 297.923 347.941 297.697 347.613 297.444L346.889 297.564C350.055 294.101 351.266 290.334 353.053 286.143C353.069 284.948 353.313 283.752 353.391 282.557C353.544 280.224 353.139 278.001 352.718 275.718L354.644 275.618Z" fill="#6A6A6A"/>
<path d="M305.373 291.951L307.037 292.073C307.675 292.476 308.048 292.799 308.523 293.385C308.744 294.386 309.533 295.264 310.123 296.086C310.807 296.464 310.453 296.534 310.832 297.051C312.138 298.833 316.37 301.641 318.461 302.439C318.786 302.563 319.046 302.74 319.327 302.941C319.476 302.942 319.625 302.941 319.774 302.944C320.374 302.96 320.137 302.923 320.658 303.087C321.126 303.582 321.252 303.711 321.936 303.872C328.014 305.299 335.323 305.143 340.813 301.967C342.441 301.658 344.304 299.462 345.817 298.599L346.276 300.644C340.347 305.102 333.194 307.713 325.681 306.641C317.733 305.506 311.643 301.25 306.927 294.917C306.195 293.998 305.817 293.024 305.373 291.951Z" fill="#6A6A6A"/>
<path d="M320.388 256.753C327.74 254.972 335.665 255.066 342.277 259.122C347.434 262.286 353.073 268.273 354.425 274.32C354.521 274.748 354.603 275.182 354.644 275.618L352.718 275.718C353.139 278.001 353.545 280.224 353.391 282.557C353.313 283.752 353.069 284.948 353.053 286.143C351.266 290.334 350.055 294.101 346.889 297.564C346.336 297.866 346.129 298.05 345.817 298.599C344.304 299.462 342.441 301.658 340.813 301.967C335.323 305.143 328.014 305.3 321.936 303.872C321.252 303.711 321.126 303.582 320.658 303.087C320.137 302.923 320.374 302.96 319.774 302.945C319.625 302.941 319.476 302.942 319.327 302.941C319.046 302.74 318.786 302.563 318.461 302.439C316.37 301.641 312.138 298.834 310.832 297.051C310.453 296.534 310.808 296.464 310.123 296.086C309.533 295.264 308.744 294.386 308.523 293.385C308.048 292.799 307.675 292.476 307.037 292.073L305.373 291.951C304.539 291.292 304.687 290.059 304.244 289.192C303.898 288.518 303.784 288.143 303.652 287.396C303.628 287.339 303.6 287.285 303.58 287.226C301.845 282.256 302.816 275.353 304.892 270.61C307.828 263.902 313.731 259.388 320.388 256.753Z" fill="#2CD997"/>
<path d="M350.3 279.595C350.925 279.377 351.539 279.067 352.147 278.803C352.139 278.89 352.129 278.977 352.122 279.065C352.039 280.084 352.171 280.901 352.407 281.89C352.092 282.305 351.769 282.687 351.412 283.066L351.503 283.377C352.059 285.339 351.579 288.178 350.435 289.913C349.933 290.674 349.52 290.028 349.406 291.02C349.152 293.2 346.762 296.159 345.132 297.584L344.16 296.33L344.169 295.964C344.905 294.892 345.597 294.108 346.575 293.264L346.873 293.011C346.982 292.472 347.055 291.712 347.292 291.223C347.616 290.555 348.258 290.547 348.896 290.38C348.775 290.204 348.436 289.737 348.426 289.493C348.368 288.046 350.002 285.145 350.288 283.478C350.483 282.339 350.115 281.037 350.264 279.826C350.273 279.748 350.288 279.672 350.3 279.595Z" fill="#6A6A6A"/>
<path d="M308.582 290.697C309.285 290.963 309.932 291.255 310.696 291.266L310.654 291.62C310.789 291.712 310.927 291.8 311.06 291.897C312.319 292.808 313.364 294.652 314.554 295.782C319.475 300.458 326.027 302.605 332.76 301.8C335.252 301.502 339.773 300.244 341.419 298.304C341.496 298.214 341.536 298.091 341.629 298.017C341.766 297.908 341.938 297.852 342.092 297.769C342.384 297.593 342.264 297.697 342.489 297.431C343.051 296.765 343.322 296.572 344.16 296.33L345.132 297.584C344.549 298.073 344.031 298.566 343.507 299.118C342.461 299.793 341.134 300.441 340.603 301.612C340.521 301.618 340.439 301.623 340.358 301.631C338.697 301.789 337.033 302.59 335.402 303.013C330.391 304.312 325.636 303.788 320.815 302.003C319.095 301.112 316.143 300.092 315.144 298.404C315.209 298.285 315.267 298.163 315.337 298.048C315.423 297.909 315.52 297.778 315.611 297.643L315.286 297.69C312.4 298.085 311.498 294.668 309.488 293.145L308.582 290.697Z" fill="#6A6A6A"/>
<path d="M303.652 287.396C303.628 287.339 303.6 287.285 303.58 287.226C301.845 282.256 302.816 275.353 304.892 270.61C307.828 263.903 313.731 259.388 320.388 256.753C320.971 257.362 321.264 257.416 322.034 257.598C322.376 257.679 322.524 257.785 322.756 258.044C319.299 259.29 312.182 262.473 310.36 265.605C310.096 266.059 309.79 266.243 309.358 266.523C308.947 267.236 308.544 267.943 308.085 268.626C307.268 269.844 304.814 274.988 304.898 276.337C304.916 276.614 305.059 276.916 305.17 277.165C304.404 278.474 304.715 278.591 304.84 280.048C304.882 280.543 304.67 280.956 304.49 281.403C304.771 283.35 305.151 285.369 305.3 287.327L306.039 287.981C306.106 289.46 306.16 289.972 307.204 291.075L307.037 292.073L305.373 291.951C304.539 291.293 304.687 290.059 304.244 289.192C303.898 288.518 303.784 288.143 303.652 287.396Z" fill="#6A6A6A"/>
<path d="M310.595 267.301C311.014 266.676 311.524 266.211 312.084 265.716C316.817 261.532 322.392 258.34 328.88 258.734C331.366 258.643 333.893 259.82 335.661 259.73C336.423 259.835 336.771 259.955 337.427 260.405L337.77 261.855L337.079 262.115C335.236 261.675 333.494 261.246 331.872 260.223C331.735 260.137 331.603 260.04 331.468 259.949L331.2 260.683C330.234 260.873 329.087 260.577 328.118 260.438C326.49 260.589 324.564 260.621 323.001 261.068C319.037 262.203 314.744 265.537 312.124 268.672C309.031 272.37 307.48 278.546 308.006 283.331C308.312 286.107 309.809 288.672 310.696 291.266C309.932 291.255 309.285 290.963 308.582 290.697L308.259 290.566C307.551 289.607 307.503 288.943 307.412 287.768C307.398 287.649 307.42 287.521 307.371 287.412C307.213 287.057 306.896 286.825 306.751 286.425C306.111 284.661 306.479 282.702 305.828 280.978C305.751 280.608 305.741 280.742 305.802 280.399C305.958 279.529 306.058 278.705 306.113 277.823C306.136 277.184 306.153 276.731 306.446 276.147C306.586 275.867 306.706 275.666 306.793 275.359C307.5 272.842 308.764 269.157 310.595 267.301Z" fill="#6A6A6A"/>
<path d="M320.388 256.753C327.74 254.972 335.665 255.066 342.277 259.122C347.434 262.286 353.073 268.273 354.425 274.32C354.521 274.748 354.603 275.182 354.644 275.618L352.718 275.718C352.166 274.243 351.621 272.76 350.989 271.317C350.677 270.605 350.284 269.522 349.547 269.237L349.189 269.46C349.175 270.504 350.197 271.721 350.759 272.578L350.543 273.146C350.593 273.304 350.64 273.462 350.691 273.618C350.93 274.345 351.664 275.053 351.773 275.745C351.96 276.946 351.627 277.394 352.147 278.803C351.54 279.067 350.925 279.377 350.3 279.595C350.02 279.07 349.813 278.749 349.789 278.143C349.758 277.391 349.749 276.643 349.47 275.93C349.116 275.028 349.126 274.581 349.31 273.625C347.246 272.651 346.963 269.135 345.599 267.832C343.721 266.036 340.764 263.997 338.485 262.801C338.074 262.585 337.995 262.252 337.77 261.855L337.427 260.405C341.709 261.879 344.83 265.032 347.89 268.222C348.387 268.741 348.618 268.884 349.305 268.905C349.354 268.515 349.379 268.712 349.116 268.26C346.458 263.688 340.608 259.884 335.6 258.547C335.081 258.246 334.544 258.211 333.962 258.085C330.048 257.232 326.675 257.674 322.757 258.044C322.524 257.785 322.376 257.678 322.034 257.597C321.264 257.416 320.972 257.362 320.388 256.753Z" fill="#6A6A6A"/>
<path d="M328.118 260.438C329.087 260.577 330.234 260.873 331.2 260.683L331.468 259.949C331.603 260.04 331.735 260.137 331.872 260.223C333.494 261.246 335.236 261.675 337.079 262.115L337.77 261.855C337.994 262.252 338.074 262.585 338.485 262.801C340.763 263.997 343.72 266.036 345.599 267.832C346.963 269.135 347.246 272.651 349.31 273.625C349.125 274.581 349.116 275.028 349.47 275.93C349.749 276.643 349.757 277.391 349.789 278.143C349.813 278.749 350.02 279.07 350.3 279.595C350.288 279.672 350.273 279.748 350.264 279.826C350.115 281.037 350.483 282.338 350.287 283.478C350.002 285.144 348.368 288.046 348.426 289.493C348.436 289.736 348.774 290.204 348.895 290.379C348.258 290.547 347.616 290.555 347.292 291.223C347.055 291.711 346.982 292.472 346.873 293.011L346.575 293.264C345.597 294.108 344.905 294.891 344.169 295.964L344.16 296.33C343.321 296.572 343.05 296.765 342.488 297.431C342.264 297.697 342.384 297.593 342.092 297.769C341.937 297.852 341.766 297.908 341.629 298.017C341.536 298.091 341.495 298.214 341.419 298.304C339.773 300.244 335.251 301.502 332.76 301.799C326.027 302.605 319.475 300.458 314.554 295.782C313.364 294.651 312.319 292.807 311.059 291.897C310.927 291.8 310.789 291.712 310.654 291.62L310.696 291.266C309.809 288.672 308.311 286.107 308.006 283.331C307.479 278.546 309.031 272.37 312.123 268.672C314.744 265.537 319.037 262.203 323.001 261.068C324.564 260.621 326.49 260.589 328.118 260.438Z" fill="#2CD997"/>
<path d="M321.104 265.397C324.431 263.427 330.309 263.395 333.97 264.314C336.397 264.924 340.472 266.377 341.859 268.542C341.886 268.584 341.914 268.625 341.942 268.667C342.058 268.795 342.17 268.928 342.291 269.053C345.629 272.483 347.14 276.124 347.414 280.945C347.668 285.448 346.11 289.533 343.067 292.839C339.782 296.407 334.903 298.819 330.031 299.013C328.026 299.093 324.874 298.943 323.097 298.05C321.849 297.424 320.762 296.455 319.549 295.752C318.505 295.147 316.797 294.371 316.048 293.433C315.489 292.734 316.245 292.615 315.534 292.093L314.865 292.157C314.09 291.342 313.932 289.72 313.74 288.631C312.229 287.669 312.142 286.526 311.764 284.844C310.914 281.072 311.202 275.733 313.124 272.323C315.088 269.207 317.587 266.695 321.104 265.397Z" fill="#6A6A6A"/>
<path d="M321.589 267.773C322.136 267.861 322.36 267.751 322.861 267.546C323.637 267.227 324.368 267.239 325.076 266.723L324.967 265.772L325.194 265.715C325.298 265.838 325.4 265.961 325.506 266.081C325.826 266.446 326.033 266.584 326.512 266.709C327.272 266.637 327.595 266.437 328.195 266.018C328.519 265.791 328.362 265.887 328.77 265.701L329.174 265.938C330.188 266.528 330.821 266.911 332.017 266.911C332.813 266.912 333.498 267.031 334.266 267.217C334.661 267.314 334.539 267.276 335.066 267.264L335.41 267.534C335.93 267.768 336.25 267.776 336.533 268.279C336.787 268.731 337.182 268.914 337.609 269.177C339.312 270.23 343.045 273.688 343.505 275.633C343.606 276.062 343.583 276.515 343.586 276.952C343.595 277.847 345.211 282.334 345.05 282.659C344.431 283.911 343.872 283.352 344.881 284.908L344.785 285.507C344.266 285.875 343.811 286.083 343.224 286.314C343.063 286.815 343.106 287.121 343.174 287.628C343.259 288.266 343.221 288.587 342.951 289.189C342.501 289.58 342.202 289.587 341.621 289.638C341.009 290.615 340.338 292.099 339.33 292.673L338.254 292.492C337.672 292.945 337.467 293.616 337.182 294.274L336.702 294.612C336.582 294.573 336.463 294.529 336.341 294.495C334.871 294.089 333.272 295.587 331.807 295.792C326.022 296.601 319.531 293.549 316.497 288.596C314.614 285.522 313.534 281.397 314.409 277.843C314.883 275.913 315.986 274.124 315.807 272.151L316.918 271.964C317.503 270.987 318.6 269.859 319.587 269.284C320.366 268.831 320.96 268.409 321.589 267.773Z" fill="#2CD997"/>
<path d="M327.121 269.819C327.155 269.812 327.188 269.799 327.222 269.799C328.521 269.814 329.861 269.814 331.146 270.02C334.215 270.511 336.979 272.275 338.791 274.788C340.566 277.25 341.461 280.465 340.896 283.475C340.331 286.483 338.47 289.087 335.88 290.701C334.716 291.425 332.611 292.555 331.222 292.229C330.934 292.357 330.754 292.454 330.462 292.532C328.393 293.085 324.612 291.705 322.856 290.631C320.373 289.112 318.549 286.751 317.873 283.904C317.145 280.833 317.413 277.055 319.2 274.379C321.162 271.441 323.842 270.532 327.121 269.819Z" fill="#6A6A6A"/>
<defs>
<linearGradient id="paint0_linear_38_45320" x1="114.435" y1="340.558" x2="116.234" y2="322.309" gradientUnits="userSpaceOnUse">
<stop stop-color="#343232"/>
<stop offset="1" stop-color="#4A3A38"/>
</linearGradient>
</defs>
</svg>
