<svg width="448" height="447" viewBox="0 0 448 447" fill="none" xmlns="http://www.w3.org/2000/svg">
<path d="M429.504 301.724C386.693 402.528 272.653 458.999 173.758 443.766C157.665 441.287 113.548 433.904 74.4881 399.07C-0.704818 332.014 -16.7854 199.232 43.8705 105.658C88.0173 37.5529 167.155 -1.0538 242.351 0.877246C258.549 1.29324 320.623 3.85678 375.176 48.8399C383.189 55.4471 400.862 71.1475 416.79 96.0551C454.19 154.543 457.405 236.029 429.504 301.724Z" fill="#FBF0CB"/>
<path d="M5.23122 3.01685C4.84084 1.35496 7.17849 0.250323 8.61004 1.41127C23.1463 13.1986 58.0724 48.4965 49.3681 110.182C38.4472 187.576 57.1177 215.816 80.3578 233.042C80.3578 233.042 48.4415 224.942 28.3612 196.286C-20.9405 125.929 12.1724 32.5648 5.23122 3.01685Z" fill="#91B3FA"/>
<path d="M16.2931 27.1903C18.1115 35.8061 19.7324 44.4484 20.9848 53.1294C22.2899 61.8031 23.2898 70.5073 23.9742 79.2257C24.6197 87.9457 25.0758 96.6748 25.1017 105.408C25.1732 114.14 24.81 122.865 24.4101 131.624C24.0669 140.38 23.6637 149.199 24.3046 158.081C24.9349 166.945 26.8007 175.886 30.5031 184.267C31.4286 186.356 32.4018 188.438 33.5074 190.451C34.5704 192.481 35.7375 194.472 36.9457 196.444C39.3852 200.378 42.1312 204.179 45.1914 207.786C51.3339 214.99 58.742 221.379 66.9028 226.787C67.7617 227.356 68.9923 227.216 69.6517 226.475C70.299 225.746 70.1544 224.709 69.3356 224.132L69.3299 224.128C67.388 222.764 65.4667 221.383 63.6233 219.933C62.6879 219.22 61.7912 218.473 60.8786 217.741C59.9992 216.98 59.0851 216.248 58.2339 215.464C54.7685 212.38 51.5582 209.089 48.6456 205.61C42.7871 198.683 38.097 190.965 34.5438 182.963C32.8191 178.944 31.4402 174.822 30.4334 170.622C29.4302 166.422 28.7993 162.148 28.4505 157.84C27.7517 149.22 28.0673 140.488 28.3375 131.73C28.5946 122.97 28.7833 114.166 28.5521 105.369C28.4503 100.97 28.257 96.5741 27.9726 92.1831C27.845 89.987 27.6683 87.7933 27.4962 85.5998C27.2995 83.4077 27.0889 81.2167 26.8578 79.0278C25.9141 70.2731 24.6617 61.5475 23.0918 52.8682C21.4736 44.1956 19.5895 35.5629 17.3234 27.0074C17.2585 26.7627 16.9767 26.61 16.6935 26.6658C16.4183 26.7205 16.2436 26.9531 16.2931 27.1903Z" fill="white"/>
<path d="M42.8867 188.266C41.1044 190.157 37.9701 189.613 36.8979 187.246C30.9818 174.185 17.5942 135.745 39.7044 91.4596C58.3754 54.0625 64.9456 32.01 67.2346 21.7924C67.7187 19.6318 70.6796 19.345 71.5733 21.3707C81.4337 43.7209 107.47 119.744 42.8867 188.266Z" fill="#BDD0FB"/>
<path d="M39.6498 186.888C39.5863 186.899 39.5211 186.905 39.4543 186.904C38.8942 186.895 38.4469 186.434 38.4554 185.874C38.4653 185.239 39.7012 121.754 63.313 68.5833C63.5403 68.0717 64.1397 67.8408 64.6521 68.0678C65.1642 68.2954 65.3948 68.8947 65.1677 69.4071C41.7277 122.191 40.4939 185.274 40.4842 185.905C40.4767 186.398 40.1181 186.804 39.6498 186.888Z" fill="white"/>
<path d="M294.032 114.656L153.546 102.15L13.0585 116.292V417.127L153.546 409.681L294.032 417.936L434.344 405.335V107.663L294.032 114.656Z" fill="white"/>
<path d="M156.561 405.821L23.08 412.885V127.5L156.561 114.085V405.821Z" fill="#2CD997"/>
<path d="M290.043 410.654L156.561 405.821V114.085L290.043 122.95V410.654Z" fill="#FFCD1E"/>
<path d="M423.357 398.7L290.042 410.654V122.95L423.357 116.316V398.7Z" fill="#2CD997"/>
<path opacity="0.47" d="M153.539 405.827H156.561V114.236L153.539 114.388V405.827Z" fill="white"/>
<path d="M23.0797 232.774C34.5134 255.682 59.0388 275.582 80.7648 289.127C90.6531 295.292 100.985 301.142 112.355 303.694C123.724 306.246 136.406 305.115 145.821 298.249C159.49 288.281 164.712 267.873 180.7 262.343C187.266 260.072 194.515 260.861 201.254 259.171C209.158 257.187 215.787 251.968 222.222 246.969C241.352 232.108 260.105 212.711 283.663 206.27C291.826 204.038 300.357 202.436 307.546 197.973C318.684 191.059 324.816 178.432 329.316 166.118C334.817 151.068 338.638 136.276 340.938 120.418C358.279 119.472 365.188 119.358 376.567 118.645C358.849 143.145 345.812 170.347 340.158 200.049C339.064 205.795 338.217 211.743 339.462 217.458C343.15 234.4 372.243 245.95 384.822 256.198C398.901 267.668 411.9 280.724 423.357 294.834V315.921C387.518 277.719 351.024 261.858 312.795 247.171C287.915 229.899 266.047 263.892 262.945 286.12C261.547 296.142 262.689 306.53 259.938 316.267C254.032 337.166 231.95 349.314 210.725 353.913C195.855 357.135 181.332 358.797 167.885 366.38C155.782 373.206 145.493 375.389 132.558 366.432C104.552 347.038 77.8331 325.224 55.3913 299.485C43.8601 286.259 22.2546 269.724 22.7792 252.03C23.1779 238.576 22.207 233.366 23.0797 232.774Z" fill="#2298FF"/>
<path d="M326.542 287.53H319.312L322.927 279.566L326.542 287.53Z" fill="white"/>
<path d="M328.696 297.424H317.158L322.927 284.711L328.696 297.424Z" fill="white"/>
<path d="M332.768 314.61H313.086L322.927 292.926L332.768 314.61Z" fill="white"/>
<path d="M376.567 298.42H369.338L372.953 290.455L376.567 298.42Z" fill="white"/>
<path d="M378.722 308.314H367.183L372.952 295.602L378.722 308.314Z" fill="white"/>
<path d="M382.794 325.499H363.112L372.953 303.815L382.794 325.499Z" fill="white"/>
<path d="M347.69 316.812H341.957L344.824 310.495L347.69 316.812Z" fill="white"/>
<path d="M349.399 324.659H340.247L344.823 314.577L349.399 324.659Z" fill="white"/>
<path d="M352.628 338.29H337.018L344.823 321.092L352.628 338.29Z" fill="white"/>
<path d="M202.822 196.358H197.088L199.955 190.041L202.822 196.358Z" fill="white"/>
<path d="M204.531 204.204H195.38L199.956 194.122L204.531 204.204Z" fill="white"/>
<path d="M207.76 217.836H192.15L199.955 200.638L207.76 217.836Z" fill="white"/>
<path d="M53.8564 148.704H48.1226L50.9895 142.387L53.8564 148.704Z" fill="white"/>
<path d="M55.565 156.55H46.4134L50.9893 146.468L55.565 156.55Z" fill="white"/>
<path d="M58.7944 170.181H43.184L50.9892 152.983L58.7944 170.181Z" fill="white"/>
<path d="M57.0378 184.655H51.304L54.1709 178.338L57.0378 184.655Z" fill="white"/>
<path d="M58.7464 192.501H49.5948L54.1707 182.419L58.7464 192.501Z" fill="white"/>
<path d="M61.9758 206.133H46.3654L54.1706 188.935L61.9758 206.133Z" fill="white"/>
<path d="M219.372 207.942H213.638L216.505 201.625L219.372 207.942Z" fill="white"/>
<path d="M221.081 215.79H211.93L216.505 205.708L221.081 215.79Z" fill="white"/>
<path d="M224.311 229.42H208.7L216.505 212.222L224.311 229.42Z" fill="white"/>
<path d="M70.406 160.287H64.6722L67.5391 153.97L70.406 160.287Z" fill="white"/>
<path d="M72.1144 168.134H62.963L67.5387 158.052L72.1144 168.134Z" fill="white"/>
<path d="M75.3439 181.764H59.7336L67.5388 164.566L75.3439 181.764Z" fill="white"/>
<path d="M73.5868 196.238H67.853L70.7199 189.921L73.5868 196.238Z" fill="white"/>
<path d="M75.2952 204.086H66.1438L70.7195 194.003L75.2952 204.086Z" fill="white"/>
<path d="M78.5248 217.716H62.9144L70.7196 200.518L78.5248 217.716Z" fill="white"/>
<path d="M242.889 162.741C242.889 162.393 242.608 162.112 242.26 162.112H227.031C226.684 162.112 226.402 162.393 226.402 162.741V192.329C226.402 192.676 226.684 192.958 227.031 192.958H242.26C242.608 192.958 242.889 192.676 242.889 192.329V162.741ZM230.657 190.647C230.657 190.748 230.575 190.831 230.474 190.831H228.182C228.08 190.831 227.998 190.748 227.998 190.647V187.823C227.998 187.722 228.08 187.64 228.182 187.64H230.474C230.575 187.64 230.657 187.722 230.657 187.823V190.647ZM230.657 185.861C230.657 185.962 230.575 186.044 230.474 186.044H228.182C228.08 186.044 227.998 185.962 227.998 185.861V183.037C227.998 182.935 228.08 182.853 228.182 182.853H230.474C230.575 182.853 230.657 182.935 230.657 183.037V185.861ZM230.657 181.074C230.657 181.176 230.575 181.258 230.474 181.258H228.182C228.08 181.258 227.998 181.176 227.998 181.074V178.25C227.998 178.149 228.08 178.067 228.182 178.067H230.474C230.575 178.067 230.657 178.149 230.657 178.25V181.074ZM230.657 176.288C230.657 176.389 230.575 176.471 230.474 176.471H228.182C228.08 176.471 227.998 176.389 227.998 176.288V173.464C227.998 173.362 228.08 173.28 228.182 173.28H230.474C230.575 173.28 230.657 173.362 230.657 173.464V176.288ZM230.657 171.501C230.657 171.603 230.575 171.685 230.474 171.685H228.182C228.08 171.685 227.998 171.603 227.998 171.501V168.677C227.998 168.576 228.08 168.494 228.182 168.494H230.474C230.575 168.494 230.657 168.576 230.657 168.677V171.501ZM230.657 166.715C230.657 166.816 230.575 166.898 230.474 166.898H228.182C228.08 166.898 227.998 166.816 227.998 166.715V163.891C227.998 163.789 228.08 163.707 228.182 163.707H230.474C230.575 163.707 230.657 163.789 230.657 163.891V166.715ZM234.38 190.647C234.38 190.748 234.298 190.831 234.196 190.831H231.904C231.803 190.831 231.721 190.748 231.721 190.647V187.823C231.721 187.722 231.803 187.64 231.904 187.64H234.196C234.298 187.64 234.38 187.722 234.38 187.823V190.647ZM234.38 185.861C234.38 185.962 234.298 186.044 234.196 186.044H231.904C231.803 186.044 231.721 185.962 231.721 185.861V183.037C231.721 182.935 231.803 182.853 231.904 182.853H234.196C234.298 182.853 234.38 182.935 234.38 183.037V185.861ZM234.38 181.074C234.38 181.176 234.298 181.258 234.196 181.258H231.904C231.803 181.258 231.721 181.176 231.721 181.074V178.25C231.721 178.149 231.803 178.067 231.904 178.067H234.196C234.298 178.067 234.38 178.149 234.38 178.25V181.074ZM234.38 176.288C234.38 176.389 234.298 176.471 234.196 176.471H231.904C231.803 176.471 231.721 176.389 231.721 176.288V173.464C231.721 173.362 231.803 173.28 231.904 173.28H234.196C234.298 173.28 234.38 173.362 234.38 173.464V176.288ZM234.38 171.501C234.38 171.603 234.298 171.685 234.196 171.685H231.904C231.803 171.685 231.721 171.603 231.721 171.501V168.677C231.721 168.576 231.803 168.494 231.904 168.494H234.196C234.298 168.494 234.38 168.576 234.38 168.677V171.501ZM234.38 166.715C234.38 166.816 234.298 166.898 234.196 166.898H231.904C231.803 166.898 231.721 166.816 231.721 166.715V163.891C231.721 163.789 231.803 163.707 231.904 163.707H234.196C234.298 163.707 234.38 163.789 234.38 163.891V166.715ZM237.571 190.647C237.571 190.748 237.489 190.831 237.387 190.831H235.095C234.994 190.831 234.912 190.748 234.912 190.647V187.823C234.912 187.722 234.994 187.64 235.095 187.64H237.387C237.489 187.64 237.571 187.722 237.571 187.823V190.647ZM237.571 185.861C237.571 185.962 237.489 186.044 237.387 186.044H235.095C234.994 186.044 234.912 185.962 234.912 185.861V183.037C234.912 182.935 234.994 182.853 235.095 182.853H237.387C237.489 182.853 237.571 182.935 237.571 183.037V185.861ZM237.571 181.074C237.571 181.176 237.489 181.258 237.387 181.258H235.095C234.994 181.258 234.912 181.176 234.912 181.074V178.25C234.912 178.149 234.994 178.067 235.095 178.067H237.387C237.489 178.067 237.571 178.149 237.571 178.25V181.074ZM237.571 176.288C237.571 176.389 237.489 176.471 237.387 176.471H235.095C234.994 176.471 234.912 176.389 234.912 176.288V173.464C234.912 173.362 234.994 173.28 235.095 173.28H237.387C237.489 173.28 237.571 173.362 237.571 173.464V176.288ZM237.571 171.501C237.571 171.603 237.489 171.685 237.387 171.685H235.095C234.994 171.685 234.912 171.603 234.912 171.501V168.677C234.912 168.576 234.994 168.494 235.095 168.494H237.387C237.489 168.494 237.571 168.576 237.571 168.677V171.501ZM237.571 166.715C237.571 166.816 237.489 166.898 237.387 166.898H235.095C234.994 166.898 234.912 166.816 234.912 166.715V163.891C234.912 163.789 234.994 163.707 235.095 163.707H237.387C237.489 163.707 237.571 163.789 237.571 163.891V166.715ZM241.826 190.647C241.826 190.748 241.743 190.831 241.642 190.831H239.35C239.248 190.831 239.166 190.748 239.166 190.647V187.823C239.166 187.722 239.248 187.64 239.35 187.64H241.642C241.743 187.64 241.826 187.722 241.826 187.823V190.647ZM241.826 185.861C241.826 185.962 241.743 186.044 241.642 186.044H239.35C239.248 186.044 239.166 185.962 239.166 185.861V183.037C239.166 182.935 239.248 182.853 239.35 182.853H241.642C241.743 182.853 241.826 182.935 241.826 183.037V185.861ZM241.826 181.074C241.826 181.176 241.743 181.258 241.642 181.258H239.35C239.248 181.258 239.166 181.176 239.166 181.074V178.25C239.166 178.149 239.248 178.067 239.35 178.067H241.642C241.743 178.067 241.826 178.149 241.826 178.25V181.074ZM241.826 176.288C241.826 176.389 241.743 176.471 241.642 176.471H239.35C239.248 176.471 239.166 176.389 239.166 176.288V173.464C239.166 173.362 239.248 173.28 239.35 173.28H241.642C241.743 173.28 241.826 173.362 241.826 173.464V176.288ZM241.826 171.501C241.826 171.603 241.743 171.685 241.642 171.685H239.35C239.248 171.685 239.166 171.603 239.166 171.501V168.677C239.166 168.576 239.248 168.494 239.35 168.494H241.642C241.743 168.494 241.826 168.576 241.826 168.677V171.501ZM241.826 166.715C241.826 166.816 241.743 166.898 241.642 166.898H239.35C239.249 166.898 239.167 166.816 239.167 166.715V163.891C239.167 163.789 239.249 163.707 239.35 163.707H241.642C241.743 163.707 241.826 163.789 241.826 163.891V166.715Z" fill="white"/>
<path d="M285.435 164.868C285.435 164.521 285.154 164.239 284.806 164.239H269.577C269.23 164.239 268.948 164.521 268.948 164.868V194.456C268.948 194.804 269.23 195.085 269.577 195.085H284.806C285.154 195.085 285.435 194.804 285.435 194.456V164.868ZM273.203 192.775C273.203 192.876 273.121 192.958 273.02 192.958H270.727C270.626 192.958 270.544 192.876 270.544 192.775V189.951C270.544 189.849 270.626 189.767 270.727 189.767H273.02C273.121 189.767 273.203 189.849 273.203 189.951V192.775ZM273.203 187.988C273.203 188.09 273.121 188.172 273.02 188.172H270.727C270.626 188.172 270.544 188.09 270.544 187.988V185.164C270.544 185.063 270.626 184.981 270.727 184.981H273.02C273.121 184.981 273.203 185.063 273.203 185.164V187.988ZM273.203 183.202C273.203 183.303 273.121 183.385 273.02 183.385H270.727C270.626 183.385 270.544 183.303 270.544 183.202V180.378C270.544 180.277 270.626 180.194 270.727 180.194H273.02C273.121 180.194 273.203 180.276 273.203 180.378V183.202ZM273.203 178.416C273.203 178.517 273.121 178.599 273.02 178.599H270.727C270.626 178.599 270.544 178.517 270.544 178.416V175.591C270.544 175.49 270.626 175.408 270.727 175.408H273.02C273.121 175.408 273.203 175.49 273.203 175.591V178.416ZM273.203 173.629C273.203 173.73 273.121 173.812 273.02 173.812H270.727C270.626 173.812 270.544 173.73 270.544 173.629V170.805C270.544 170.704 270.626 170.621 270.727 170.621H273.02C273.121 170.621 273.203 170.703 273.203 170.805V173.629ZM273.203 168.843C273.203 168.944 273.121 169.026 273.02 169.026H270.727C270.626 169.026 270.544 168.944 270.544 168.843V166.018C270.544 165.917 270.626 165.835 270.727 165.835H273.02C273.121 165.835 273.203 165.917 273.203 166.018V168.843ZM276.926 192.775C276.926 192.876 276.844 192.958 276.743 192.958H274.45C274.349 192.958 274.267 192.876 274.267 192.775V189.951C274.267 189.849 274.349 189.767 274.45 189.767H276.743C276.844 189.767 276.926 189.849 276.926 189.951V192.775ZM276.926 187.988C276.926 188.09 276.844 188.172 276.743 188.172H274.45C274.349 188.172 274.267 188.09 274.267 187.988V185.164C274.267 185.063 274.349 184.981 274.45 184.981H276.743C276.844 184.981 276.926 185.063 276.926 185.164V187.988ZM276.926 183.202C276.926 183.303 276.844 183.385 276.743 183.385H274.45C274.349 183.385 274.267 183.303 274.267 183.202V180.378C274.267 180.277 274.349 180.194 274.45 180.194H276.743C276.844 180.194 276.926 180.276 276.926 180.378V183.202ZM276.926 178.416C276.926 178.517 276.844 178.599 276.743 178.599H274.45C274.349 178.599 274.267 178.517 274.267 178.416V175.591C274.267 175.49 274.349 175.408 274.45 175.408H276.743C276.844 175.408 276.926 175.49 276.926 175.591V178.416ZM276.926 173.629C276.926 173.73 276.844 173.812 276.743 173.812H274.45C274.349 173.812 274.267 173.73 274.267 173.629V170.805C274.267 170.704 274.349 170.621 274.45 170.621H276.743C276.844 170.621 276.926 170.703 276.926 170.805V173.629ZM276.926 168.843C276.926 168.944 276.844 169.026 276.743 169.026H274.45C274.349 169.026 274.267 168.944 274.267 168.843V166.018C274.267 165.917 274.349 165.835 274.45 165.835H276.743C276.844 165.835 276.926 165.917 276.926 166.018V168.843ZM280.117 192.775C280.117 192.876 280.035 192.958 279.933 192.958H277.641C277.54 192.958 277.458 192.876 277.458 192.775V189.951C277.458 189.849 277.54 189.767 277.641 189.767H279.933C280.035 189.767 280.117 189.849 280.117 189.951V192.775ZM280.117 187.988C280.117 188.09 280.035 188.172 279.933 188.172H277.641C277.54 188.172 277.458 188.09 277.458 187.988V185.164C277.458 185.063 277.54 184.981 277.641 184.981H279.933C280.035 184.981 280.117 185.063 280.117 185.164V187.988ZM280.117 183.202C280.117 183.303 280.035 183.385 279.933 183.385H277.641C277.54 183.385 277.458 183.303 277.458 183.202V180.378C277.458 180.277 277.54 180.194 277.641 180.194H279.933C280.035 180.194 280.117 180.276 280.117 180.378V183.202ZM280.117 178.416C280.117 178.517 280.035 178.599 279.933 178.599H277.641C277.54 178.599 277.458 178.517 277.458 178.416V175.591C277.458 175.49 277.54 175.408 277.641 175.408H279.933C280.035 175.408 280.117 175.49 280.117 175.591V178.416ZM280.117 173.629C280.117 173.73 280.035 173.812 279.933 173.812H277.641C277.54 173.812 277.458 173.73 277.458 173.629V170.805C277.458 170.704 277.54 170.621 277.641 170.621H279.933C280.035 170.621 280.117 170.703 280.117 170.805V173.629ZM280.117 168.843C280.117 168.944 280.035 169.026 279.933 169.026H277.641C277.54 169.026 277.458 168.944 277.458 168.843V166.018C277.458 165.917 277.54 165.835 277.641 165.835H279.933C280.035 165.835 280.117 165.917 280.117 166.018V168.843ZM284.372 192.775C284.372 192.876 284.29 192.958 284.188 192.958H281.896C281.795 192.958 281.712 192.876 281.712 192.775V189.951C281.712 189.849 281.795 189.767 281.896 189.767H284.188C284.29 189.767 284.372 189.849 284.372 189.951V192.775ZM284.372 187.988C284.372 188.09 284.29 188.172 284.188 188.172H281.896C281.795 188.172 281.712 188.09 281.712 187.988V185.164C281.712 185.063 281.795 184.981 281.896 184.981H284.188C284.29 184.981 284.372 185.063 284.372 185.164V187.988ZM284.372 183.202C284.372 183.303 284.29 183.385 284.188 183.385H281.896C281.795 183.385 281.712 183.303 281.712 183.202V180.378C281.712 180.277 281.795 180.194 281.896 180.194H284.188C284.29 180.194 284.372 180.276 284.372 180.378V183.202ZM284.372 178.416C284.372 178.517 284.29 178.599 284.188 178.599H281.896C281.795 178.599 281.712 178.517 281.712 178.416V175.591C281.712 175.49 281.795 175.408 281.896 175.408H284.188C284.29 175.408 284.372 175.49 284.372 175.591V178.416ZM284.372 173.629C284.372 173.73 284.29 173.812 284.188 173.812H281.896C281.795 173.812 281.712 173.73 281.712 173.629V170.805C281.712 170.704 281.795 170.621 281.896 170.621H284.188C284.29 170.621 284.372 170.703 284.372 170.805V173.629ZM284.372 168.843C284.372 168.944 284.29 169.026 284.188 169.026H281.896C281.795 169.026 281.713 168.944 281.713 168.843V166.018C281.713 165.917 281.795 165.835 281.896 165.835H284.188C284.29 165.835 284.372 165.917 284.372 166.018V168.843Z" fill="white"/>
<path d="M264.694 172.902C264.694 172.524 264.387 172.217 264.008 172.217H247.297C246.918 172.217 246.612 172.524 246.612 172.902V205.036C246.612 205.415 246.919 205.722 247.297 205.722H264.008C264.387 205.722 264.694 205.415 264.694 205.036V172.902ZM250.866 203.395C250.866 203.505 250.777 203.595 250.666 203.595H248.407C248.297 203.595 248.207 203.505 248.207 203.395V200.072C248.207 199.961 248.297 199.872 248.407 199.872H250.666C250.777 199.872 250.866 199.961 250.866 200.072V203.395ZM250.866 198.077C250.866 198.187 250.777 198.277 250.666 198.277H248.407C248.297 198.277 248.207 198.187 248.207 198.077V194.754C248.207 194.643 248.297 194.554 248.407 194.554H250.666C250.777 194.554 250.866 194.643 250.866 194.754V198.077ZM250.866 193.29C250.866 193.4 250.777 193.49 250.666 193.49H248.407C248.297 193.49 248.207 193.4 248.207 193.29V189.967C248.207 189.857 248.297 189.767 248.407 189.767H250.666C250.777 189.767 250.866 189.857 250.866 189.967V193.29ZM250.866 187.972C250.866 188.082 250.777 188.172 250.666 188.172H248.407C248.297 188.172 248.207 188.082 248.207 187.972V184.649C248.207 184.538 248.297 184.449 248.407 184.449H250.666C250.777 184.449 250.866 184.538 250.866 184.649V187.972ZM250.866 182.653C250.866 182.764 250.777 182.853 250.666 182.853H248.407C248.297 182.853 248.207 182.764 248.207 182.653V179.331C248.207 179.22 248.297 179.13 248.407 179.13H250.666C250.777 179.13 250.866 179.22 250.866 179.331V182.653ZM250.866 177.335C250.866 177.446 250.777 177.535 250.666 177.535H248.407C248.297 177.535 248.207 177.445 248.207 177.335V174.012C248.207 173.902 248.297 173.812 248.407 173.812H250.666C250.777 173.812 250.866 173.902 250.866 174.012V177.335ZM255.121 203.395C255.121 203.505 255.031 203.595 254.921 203.595H252.662C252.551 203.595 252.462 203.505 252.462 203.395V200.072C252.462 199.961 252.551 199.872 252.662 199.872H254.921C255.031 199.872 255.121 199.961 255.121 200.072V203.395ZM255.121 198.077C255.121 198.187 255.031 198.277 254.921 198.277H252.662C252.551 198.277 252.462 198.187 252.462 198.077V194.754C252.462 194.643 252.551 194.554 252.662 194.554H254.921C255.031 194.554 255.121 194.643 255.121 194.754V198.077ZM255.121 193.29C255.121 193.4 255.031 193.49 254.921 193.49H252.662C252.551 193.49 252.462 193.4 252.462 193.29V189.967C252.462 189.857 252.551 189.767 252.662 189.767H254.921C255.031 189.767 255.121 189.857 255.121 189.967V193.29ZM255.121 187.972C255.121 188.082 255.031 188.172 254.921 188.172H252.662C252.551 188.172 252.462 188.082 252.462 187.972V184.649C252.462 184.538 252.551 184.449 252.662 184.449H254.921C255.031 184.449 255.121 184.538 255.121 184.649V187.972ZM255.121 182.653C255.121 182.764 255.031 182.853 254.921 182.853H252.662C252.551 182.853 252.462 182.764 252.462 182.653V179.331C252.462 179.22 252.551 179.13 252.662 179.13H254.921C255.031 179.13 255.121 179.22 255.121 179.331V182.653ZM255.121 177.335C255.121 177.446 255.031 177.535 254.921 177.535H252.662C252.551 177.535 252.462 177.445 252.462 177.335V174.012C252.462 173.902 252.551 173.812 252.662 173.812H254.921C255.031 173.812 255.121 173.902 255.121 174.012V177.335ZM258.844 203.395C258.844 203.505 258.754 203.595 258.644 203.595H256.384C256.274 203.595 256.185 203.505 256.185 203.395V200.072C256.185 199.961 256.274 199.872 256.384 199.872H258.644C258.754 199.872 258.844 199.961 258.844 200.072V203.395ZM258.844 198.077C258.844 198.187 258.754 198.277 258.644 198.277H256.384C256.274 198.277 256.185 198.187 256.185 198.077V194.754C256.185 194.643 256.274 194.554 256.384 194.554H258.644C258.754 194.554 258.844 194.643 258.844 194.754V198.077ZM258.844 193.29C258.844 193.4 258.754 193.49 258.644 193.49H256.384C256.274 193.49 256.185 193.4 256.185 193.29V189.967C256.185 189.857 256.274 189.767 256.384 189.767H258.644C258.754 189.767 258.844 189.857 258.844 189.967V193.29ZM258.844 187.972C258.844 188.082 258.754 188.172 258.644 188.172H256.384C256.274 188.172 256.185 188.082 256.185 187.972V184.649C256.185 184.538 256.274 184.449 256.384 184.449H258.644C258.754 184.449 258.844 184.538 258.844 184.649V187.972ZM258.844 182.653C258.844 182.764 258.754 182.853 258.644 182.853H256.384C256.274 182.853 256.185 182.764 256.185 182.653V179.331C256.185 179.22 256.274 179.13 256.384 179.13H258.644C258.754 179.13 258.844 179.22 258.844 179.331V182.653ZM258.844 177.335C258.844 177.446 258.754 177.535 258.644 177.535H256.384C256.274 177.535 256.185 177.445 256.185 177.335V174.012C256.185 173.902 256.274 173.812 256.384 173.812H258.644C258.754 173.812 258.844 173.902 258.844 174.012V177.335ZM263.098 203.395C263.098 203.505 263.009 203.595 262.898 203.595H260.639C260.529 203.595 260.439 203.505 260.439 203.395V200.072C260.439 199.961 260.529 199.872 260.639 199.872H262.898C263.009 199.872 263.098 199.961 263.098 200.072V203.395ZM263.098 198.077C263.098 198.187 263.009 198.277 262.898 198.277H260.639C260.529 198.277 260.439 198.187 260.439 198.077V194.754C260.439 194.643 260.529 194.554 260.639 194.554H262.898C263.009 194.554 263.098 194.643 263.098 194.754V198.077ZM263.098 193.29C263.098 193.4 263.009 193.49 262.898 193.49H260.639C260.529 193.49 260.439 193.4 260.439 193.29V189.967C260.439 189.857 260.529 189.767 260.639 189.767H262.898C263.009 189.767 263.098 189.857 263.098 189.967V193.29ZM263.098 187.972C263.098 188.082 263.009 188.172 262.898 188.172H260.639C260.529 188.172 260.439 188.082 260.439 187.972V184.649C260.439 184.538 260.529 184.449 260.639 184.449H262.898C263.009 184.449 263.098 184.538 263.098 184.649V187.972ZM263.098 182.653C263.098 182.764 263.009 182.853 262.898 182.853H260.639C260.529 182.853 260.439 182.764 260.439 182.653V179.331C260.439 179.22 260.529 179.13 260.639 179.13H262.898C263.009 179.13 263.098 179.22 263.098 179.331V182.653ZM263.098 177.335C263.098 177.446 263.009 177.535 262.898 177.535H260.639C260.529 177.535 260.439 177.445 260.439 177.335V174.012C260.439 173.902 260.529 173.812 260.639 173.812H262.898C263.009 173.812 263.098 173.902 263.098 174.012V177.335Z" fill="white"/>
</svg>
