<svg width="401" height="400" viewBox="0 0 401 400" fill="none" xmlns="http://www.w3.org/2000/svg">
<path d="M384.141 269.58C345.788 359.886 243.624 410.477 155.027 396.83C140.61 394.61 101.087 387.995 66.0946 356.789C-1.26801 296.715 -15.674 177.761 38.6654 93.9316C78.215 32.9183 149.111 -1.66802 216.477 0.0619403C230.988 0.43461 286.598 2.7312 335.47 43.03C342.649 48.9491 358.481 63.0145 372.75 85.3284C406.256 137.726 409.136 210.726 384.141 269.58Z" fill="#404040"/>
<path d="M4.04971 1.97885C3.69999 0.490025 5.79421 -0.499579 7.07668 0.540476C20.0992 11.1004 51.3882 42.7224 43.5903 97.9844C33.8067 167.319 50.533 192.618 71.3529 208.05C71.3529 208.05 42.7602 200.793 24.771 175.122C-19.3966 112.091 10.2681 28.4498 4.04971 1.97885Z" fill="#91B3FA"/>
<path d="M13.9597 23.635C15.5888 31.3536 17.0408 39.0958 18.1628 46.8729C19.332 54.6434 20.2278 62.4411 20.8409 70.2516C21.4192 78.0636 21.8278 85.8837 21.851 93.707C21.915 101.53 21.5897 109.347 21.2314 117.194C20.924 125.038 20.5627 132.939 21.1369 140.895C21.7015 148.836 23.3731 156.846 26.6899 164.354C27.519 166.226 28.3909 168.091 29.3814 169.894C30.3337 171.713 31.3793 173.497 32.4617 175.263C34.6471 178.787 37.1071 182.193 39.8486 185.425C45.3515 191.878 51.9881 197.602 59.2992 202.447C60.0686 202.956 61.1711 202.831 61.7618 202.167C62.3417 201.514 62.2121 200.584 61.4786 200.068L61.4735 200.065C59.7338 198.843 58.0126 197.605 56.3611 196.306C55.5232 195.667 54.7198 194.998 53.9022 194.342C53.1144 193.66 52.2955 193.005 51.5329 192.303C48.4285 189.54 45.5524 186.592 42.9432 183.475C37.6947 177.269 33.493 170.355 30.3099 163.186C28.7647 159.585 27.5295 155.893 26.6275 152.131C25.7288 148.367 25.1636 144.539 24.8511 140.68C24.225 132.957 24.5078 125.134 24.7499 117.289C24.9802 109.441 25.1492 101.553 24.9421 93.6722C24.8509 89.7319 24.6778 85.7934 24.423 81.8597C24.3087 79.8923 24.1503 77.927 23.9961 75.9619C23.82 73.9981 23.6313 72.0353 23.4242 70.0743C22.5788 62.2313 21.4569 54.4144 20.0504 46.6389C18.6008 38.8694 16.9128 31.1357 14.8828 23.4711C14.8246 23.2519 14.5721 23.1151 14.3184 23.1651C14.0719 23.2141 13.9154 23.4225 13.9597 23.635Z" fill="white"/>
<path d="M37.7841 167.937C36.1874 169.631 33.3795 169.144 32.4189 167.023C27.1189 155.322 15.1255 120.885 34.9332 81.2115C51.6598 47.7088 57.5459 27.9527 59.5965 18.7992C60.0302 16.8636 62.6827 16.6066 63.4834 18.4214C72.317 38.4441 95.6419 106.55 37.7841 167.937Z" fill="#BDD0FB"/>
<path d="M34.8841 166.702C34.8272 166.712 34.7688 166.717 34.7089 166.716C34.2071 166.708 33.8064 166.295 33.8141 165.794C33.8229 165.225 34.9301 108.351 56.0831 60.7173C56.2867 60.259 56.8237 60.0521 57.2827 60.2555C57.7415 60.4594 57.9481 60.9962 57.7446 61.4553C36.7456 108.742 35.6402 165.256 35.6315 165.821C35.6248 166.263 35.3036 166.627 34.8841 166.702Z" fill="white"/>
<path d="M262.776 101.992L136.919 90.7886L11.0619 103.458V372.966L136.919 366.294L262.776 373.69L388.477 362.401V95.7276L262.776 101.992Z" fill="white"/>
<path d="M139.621 362.837L20.0397 369.165V113.499L139.621 101.481V362.837Z" fill="#2CD997"/>
<path d="M259.202 367.166L139.621 362.837V101.481L259.202 109.423V367.166Z" fill="#FFCD1E"/>
<path d="M378.633 356.457L259.201 367.166V109.423L378.633 103.48V356.457Z" fill="#2CD997"/>
<path opacity="0.47" d="M136.913 362.842H139.621V101.616L136.913 101.752V362.842Z" fill="white"/>
<path d="M20.0394 207.81C30.2825 228.332 52.2539 246.16 71.7174 258.295C80.576 263.817 89.8319 269.058 100.018 271.344C110.203 273.631 121.565 272.618 129.999 266.467C142.244 257.537 146.923 239.253 161.246 234.3C167.128 232.265 173.623 232.972 179.66 231.458C186.741 229.681 192.679 225.005 198.444 220.527C215.582 207.213 232.382 189.836 253.487 184.066C260.799 182.067 268.442 180.632 274.882 176.633C284.861 170.439 290.354 159.127 294.386 148.096C299.314 134.612 302.737 121.361 304.798 107.154C320.332 106.307 326.522 106.205 336.716 105.566C320.843 127.515 309.164 151.884 304.098 178.493C303.119 183.64 302.36 188.969 303.475 194.089C306.779 209.267 332.842 219.614 344.112 228.795C356.724 239.07 368.37 250.766 378.634 263.408V282.299C346.526 248.074 313.833 233.865 279.585 220.708C257.296 205.235 237.705 235.688 234.927 255.601C233.674 264.579 234.697 273.885 232.232 282.608C226.941 301.331 207.159 312.214 188.144 316.334C174.823 319.22 161.812 320.71 149.766 327.503C138.923 333.618 129.705 335.573 118.117 327.549C93.0276 310.175 69.0911 290.633 48.9863 267.574C38.6558 255.726 19.3002 240.912 19.7702 225.061C20.1274 213.008 19.2576 208.34 20.0394 207.81Z" fill="#2298FF"/>
<path d="M291.9 256.865H285.424L288.662 249.729L291.9 256.865Z" fill="white"/>
<path d="M293.83 265.728H283.493L288.662 254.339L293.83 265.728Z" fill="white"/>
<path d="M297.478 281.124H279.845L288.662 261.699L297.478 281.124Z" fill="white"/>
<path d="M336.716 266.62H330.24L333.478 259.484L336.716 266.62Z" fill="white"/>
<path d="M338.646 275.484H328.309L333.478 264.095L338.646 275.484Z" fill="white"/>
<path d="M342.294 290.879H324.662L333.478 271.454L342.294 290.879Z" fill="white"/>
<path d="M310.846 283.097H305.71L308.278 277.438L310.846 283.097Z" fill="white"/>
<path d="M312.377 290.127H304.179L308.278 281.095L312.377 290.127Z" fill="white"/>
<path d="M315.27 302.338H301.286L308.278 286.931L315.27 302.338Z" fill="white"/>
<path d="M181.064 175.186H175.928L178.496 169.527L181.064 175.186Z" fill="white"/>
<path d="M182.596 182.216H174.397L178.496 173.183L182.596 182.216Z" fill="white"/>
<path d="M185.488 194.428H171.503L178.496 179.021L185.488 194.428Z" fill="white"/>
<path d="M47.6112 132.494H42.4744L45.0428 126.835L47.6112 132.494Z" fill="white"/>
<path d="M49.1418 139.524H40.9432L45.0426 130.492L49.1418 139.524Z" fill="white"/>
<path d="M52.0349 151.735H38.0502L45.0425 136.328L52.0349 151.735Z" fill="white"/>
<path d="M50.4614 164.702H45.3247L47.8931 159.043L50.4614 164.702Z" fill="white"/>
<path d="M51.9921 171.732H43.7935L47.8929 162.699L51.9921 171.732Z" fill="white"/>
<path d="M54.8853 183.943H40.9005L47.8929 168.536L54.8853 183.943Z" fill="white"/>
<path d="M195.89 185.563H190.754L193.322 179.904L195.89 185.563Z" fill="white"/>
<path d="M197.421 192.594H189.223L193.322 183.562L197.421 192.594Z" fill="white"/>
<path d="M200.315 204.804H186.33L193.322 189.397L200.315 204.804Z" fill="white"/>
<path d="M62.4374 142.871H57.3007L59.8691 137.212L62.4374 142.871Z" fill="white"/>
<path d="M63.9679 149.902H55.7695L59.8687 140.869L63.9679 149.902Z" fill="white"/>
<path d="M66.8612 162.112H52.8765L59.8688 146.705L66.8612 162.112Z" fill="white"/>
<path d="M65.2871 175.078H60.1503L62.7187 169.419L65.2871 175.078Z" fill="white"/>
<path d="M66.8176 182.109H58.6191L62.7184 173.077L66.8176 182.109Z" fill="white"/>
<path d="M69.7108 194.32H55.7261L62.7185 178.913L69.7108 194.32Z" fill="white"/>
<path d="M216.959 145.07C216.959 144.759 216.707 144.506 216.395 144.506H202.752C202.441 144.506 202.189 144.759 202.189 145.07V171.577C202.189 171.888 202.441 172.14 202.752 172.14H216.395C216.707 172.14 216.959 171.888 216.959 171.577V145.07ZM206.001 170.07C206.001 170.161 205.927 170.234 205.836 170.234H203.783C203.692 170.234 203.619 170.161 203.619 170.07V167.54C203.619 167.449 203.692 167.376 203.783 167.376H205.836C205.927 167.376 206.001 167.449 206.001 167.54V170.07ZM206.001 165.782C206.001 165.873 205.927 165.947 205.836 165.947H203.783C203.692 165.947 203.619 165.873 203.619 165.782V163.252C203.619 163.161 203.692 163.088 203.783 163.088H205.836C205.927 163.088 206.001 163.161 206.001 163.252V165.782ZM206.001 161.494C206.001 161.585 205.927 161.659 205.836 161.659H203.783C203.692 161.659 203.619 161.585 203.619 161.494V158.964C203.619 158.873 203.692 158.8 203.783 158.8H205.836C205.927 158.8 206.001 158.873 206.001 158.964V161.494ZM206.001 157.206C206.001 157.297 205.927 157.371 205.836 157.371H203.783C203.692 157.371 203.619 157.297 203.619 157.206V154.676C203.619 154.585 203.692 154.512 203.783 154.512H205.836C205.927 154.512 206.001 154.585 206.001 154.676V157.206ZM206.001 152.918C206.001 153.009 205.927 153.082 205.836 153.082H203.783C203.692 153.082 203.619 153.009 203.619 152.918V150.388C203.619 150.297 203.692 150.224 203.783 150.224H205.836C205.927 150.224 206.001 150.297 206.001 150.388V152.918ZM206.001 148.63C206.001 148.721 205.927 148.794 205.836 148.794H203.783C203.692 148.794 203.619 148.721 203.619 148.63V146.1C203.619 146.009 203.692 145.936 203.783 145.936H205.836C205.927 145.936 206.001 146.009 206.001 146.1V148.63ZM209.336 170.07C209.336 170.161 209.262 170.234 209.171 170.234H207.118C207.027 170.234 206.953 170.161 206.953 170.07V167.54C206.953 167.449 207.027 167.376 207.118 167.376H209.171C209.262 167.376 209.336 167.449 209.336 167.54V170.07ZM209.336 165.782C209.336 165.873 209.262 165.947 209.171 165.947H207.118C207.027 165.947 206.953 165.873 206.953 165.782V163.252C206.953 163.161 207.027 163.088 207.118 163.088H209.171C209.262 163.088 209.336 163.161 209.336 163.252V165.782ZM209.336 161.494C209.336 161.585 209.262 161.659 209.171 161.659H207.118C207.027 161.659 206.953 161.585 206.953 161.494V158.964C206.953 158.873 207.027 158.8 207.118 158.8H209.171C209.262 158.8 209.336 158.873 209.336 158.964V161.494ZM209.336 157.206C209.336 157.297 209.262 157.371 209.171 157.371H207.118C207.027 157.371 206.953 157.297 206.953 157.206V154.676C206.953 154.585 207.027 154.512 207.118 154.512H209.171C209.262 154.512 209.336 154.585 209.336 154.676V157.206ZM209.336 152.918C209.336 153.009 209.262 153.082 209.171 153.082H207.118C207.027 153.082 206.953 153.009 206.953 152.918V150.388C206.953 150.297 207.027 150.224 207.118 150.224H209.171C209.262 150.224 209.336 150.297 209.336 150.388V152.918ZM209.336 148.63C209.336 148.721 209.262 148.794 209.171 148.794H207.118C207.027 148.794 206.953 148.721 206.953 148.63V146.1C206.953 146.009 207.027 145.936 207.118 145.936H209.171C209.262 145.936 209.336 146.009 209.336 146.1V148.63ZM212.194 170.07C212.194 170.161 212.121 170.234 212.03 170.234H209.977C209.886 170.234 209.812 170.161 209.812 170.07V167.54C209.812 167.449 209.886 167.376 209.977 167.376H212.03C212.121 167.376 212.194 167.449 212.194 167.54V170.07ZM212.194 165.782C212.194 165.873 212.121 165.947 212.03 165.947H209.977C209.886 165.947 209.812 165.873 209.812 165.782V163.252C209.812 163.161 209.886 163.088 209.977 163.088H212.03C212.121 163.088 212.194 163.161 212.194 163.252V165.782ZM212.194 161.494C212.194 161.585 212.121 161.659 212.03 161.659H209.977C209.886 161.659 209.812 161.585 209.812 161.494V158.964C209.812 158.873 209.886 158.8 209.977 158.8H212.03C212.121 158.8 212.194 158.873 212.194 158.964V161.494ZM212.194 157.206C212.194 157.297 212.121 157.371 212.03 157.371H209.977C209.886 157.371 209.812 157.297 209.812 157.206V154.676C209.812 154.585 209.886 154.512 209.977 154.512H212.03C212.121 154.512 212.194 154.585 212.194 154.676V157.206ZM212.194 152.918C212.194 153.009 212.121 153.082 212.03 153.082H209.977C209.886 153.082 209.812 153.009 209.812 152.918V150.388C209.812 150.297 209.886 150.224 209.977 150.224H212.03C212.121 150.224 212.194 150.297 212.194 150.388V152.918ZM212.194 148.63C212.194 148.721 212.121 148.794 212.03 148.794H209.977C209.886 148.794 209.812 148.721 209.812 148.63V146.1C209.812 146.009 209.886 145.936 209.977 145.936H212.03C212.121 145.936 212.194 146.009 212.194 146.1V148.63ZM216.006 170.07C216.006 170.161 215.932 170.234 215.842 170.234H213.788C213.697 170.234 213.624 170.161 213.624 170.07V167.54C213.624 167.449 213.697 167.376 213.788 167.376H215.842C215.932 167.376 216.006 167.449 216.006 167.54V170.07ZM216.006 165.782C216.006 165.873 215.932 165.947 215.842 165.947H213.788C213.697 165.947 213.624 165.873 213.624 165.782V163.252C213.624 163.161 213.697 163.088 213.788 163.088H215.842C215.932 163.088 216.006 163.161 216.006 163.252V165.782ZM216.006 161.494C216.006 161.585 215.932 161.659 215.842 161.659H213.788C213.697 161.659 213.624 161.585 213.624 161.494V158.964C213.624 158.873 213.697 158.8 213.788 158.8H215.842C215.932 158.8 216.006 158.873 216.006 158.964V161.494ZM216.006 157.206C216.006 157.297 215.932 157.371 215.842 157.371H213.788C213.697 157.371 213.624 157.297 213.624 157.206V154.676C213.624 154.585 213.697 154.512 213.788 154.512H215.842C215.932 154.512 216.006 154.585 216.006 154.676V157.206ZM216.006 152.918C216.006 153.009 215.932 153.082 215.842 153.082H213.788C213.697 153.082 213.624 153.009 213.624 152.918V150.388C213.624 150.297 213.697 150.224 213.788 150.224H215.842C215.932 150.224 216.006 150.297 216.006 150.388V152.918ZM216.006 148.63C216.006 148.721 215.932 148.794 215.842 148.794H213.788C213.697 148.794 213.624 148.721 213.624 148.63V146.1C213.624 146.009 213.697 145.936 213.788 145.936H215.842C215.932 145.936 216.006 146.009 216.006 146.1V148.63Z" fill="white"/>
<path d="M255.074 146.976C255.074 146.664 254.822 146.412 254.511 146.412H240.868C240.557 146.412 240.304 146.664 240.304 146.976V173.483C240.304 173.794 240.557 174.046 240.868 174.046H254.511C254.822 174.046 255.074 173.794 255.074 173.483V146.976ZM244.116 171.976C244.116 172.067 244.043 172.14 243.952 172.14H241.898C241.807 172.14 241.734 172.067 241.734 171.976V169.446C241.734 169.355 241.807 169.282 241.898 169.282H243.952C244.043 169.282 244.116 169.355 244.116 169.446V171.976ZM244.116 167.688C244.116 167.779 244.043 167.852 243.952 167.852H241.898C241.807 167.852 241.734 167.779 241.734 167.688V165.158C241.734 165.067 241.807 164.994 241.898 164.994H243.952C244.043 164.994 244.116 165.067 244.116 165.158V167.688ZM244.116 163.4C244.116 163.491 244.043 163.564 243.952 163.564H241.898C241.807 163.564 241.734 163.491 241.734 163.4V160.87C241.734 160.779 241.807 160.706 241.898 160.706H243.952C244.043 160.706 244.116 160.779 244.116 160.87V163.4ZM244.116 159.112C244.116 159.203 244.043 159.276 243.952 159.276H241.898C241.807 159.276 241.734 159.203 241.734 159.112V156.582C241.734 156.491 241.807 156.418 241.898 156.418H243.952C244.043 156.418 244.116 156.491 244.116 156.582V159.112ZM244.116 154.824C244.116 154.915 244.043 154.988 243.952 154.988H241.898C241.807 154.988 241.734 154.915 241.734 154.824V152.294C241.734 152.203 241.807 152.13 241.898 152.13H243.952C244.043 152.13 244.116 152.203 244.116 152.294V154.824ZM244.116 150.536C244.116 150.627 244.043 150.7 243.952 150.7H241.898C241.807 150.7 241.734 150.627 241.734 150.536V148.006C241.734 147.915 241.807 147.842 241.898 147.842H243.952C244.043 147.842 244.116 147.915 244.116 148.006V150.536ZM247.451 171.976C247.451 172.067 247.378 172.14 247.287 172.14H245.234C245.143 172.14 245.069 172.067 245.069 171.976V169.446C245.069 169.355 245.143 169.282 245.234 169.282H247.287C247.378 169.282 247.451 169.355 247.451 169.446V171.976ZM247.451 167.688C247.451 167.779 247.378 167.852 247.287 167.852H245.234C245.143 167.852 245.069 167.779 245.069 167.688V165.158C245.069 165.067 245.143 164.994 245.234 164.994H247.287C247.378 164.994 247.451 165.067 247.451 165.158V167.688ZM247.451 163.4C247.451 163.491 247.378 163.564 247.287 163.564H245.234C245.143 163.564 245.069 163.491 245.069 163.4V160.87C245.069 160.779 245.143 160.706 245.234 160.706H247.287C247.378 160.706 247.451 160.779 247.451 160.87V163.4ZM247.451 159.112C247.451 159.203 247.378 159.276 247.287 159.276H245.234C245.143 159.276 245.069 159.203 245.069 159.112V156.582C245.069 156.491 245.143 156.418 245.234 156.418H247.287C247.378 156.418 247.451 156.491 247.451 156.582V159.112ZM247.451 154.824C247.451 154.915 247.378 154.988 247.287 154.988H245.234C245.143 154.988 245.069 154.915 245.069 154.824V152.294C245.069 152.203 245.143 152.13 245.234 152.13H247.287C247.378 152.13 247.451 152.203 247.451 152.294V154.824ZM247.451 150.536C247.451 150.627 247.378 150.7 247.287 150.7H245.234C245.143 150.7 245.069 150.627 245.069 150.536V148.006C245.069 147.915 245.143 147.842 245.234 147.842H247.287C247.378 147.842 247.451 147.915 247.451 148.006V150.536ZM250.31 171.976C250.31 172.067 250.236 172.14 250.146 172.14H248.092C248.001 172.14 247.928 172.067 247.928 171.976V169.446C247.928 169.355 248.001 169.282 248.092 169.282H250.146C250.236 169.282 250.31 169.355 250.31 169.446V171.976ZM250.31 167.688C250.31 167.779 250.236 167.852 250.146 167.852H248.092C248.001 167.852 247.928 167.779 247.928 167.688V165.158C247.928 165.067 248.001 164.994 248.092 164.994H250.146C250.236 164.994 250.31 165.067 250.31 165.158V167.688ZM250.31 163.4C250.31 163.491 250.236 163.564 250.146 163.564H248.092C248.001 163.564 247.928 163.491 247.928 163.4V160.87C247.928 160.779 248.001 160.706 248.092 160.706H250.146C250.236 160.706 250.31 160.779 250.31 160.87V163.4ZM250.31 159.112C250.31 159.203 250.236 159.276 250.146 159.276H248.092C248.001 159.276 247.928 159.203 247.928 159.112V156.582C247.928 156.491 248.001 156.418 248.092 156.418H250.146C250.236 156.418 250.31 156.491 250.31 156.582V159.112ZM250.31 154.824C250.31 154.915 250.236 154.988 250.146 154.988H248.092C248.001 154.988 247.928 154.915 247.928 154.824V152.294C247.928 152.203 248.001 152.13 248.092 152.13H250.146C250.236 152.13 250.31 152.203 250.31 152.294V154.824ZM250.31 150.536C250.31 150.627 250.236 150.7 250.146 150.7H248.092C248.001 150.7 247.928 150.627 247.928 150.536V148.006C247.928 147.915 248.001 147.842 248.092 147.842H250.146C250.236 147.842 250.31 147.915 250.31 148.006V150.536ZM254.122 171.976C254.122 172.067 254.048 172.14 253.957 172.14H251.904C251.813 172.14 251.739 172.067 251.739 171.976V169.446C251.739 169.355 251.813 169.282 251.904 169.282H253.957C254.048 169.282 254.122 169.355 254.122 169.446V171.976ZM254.122 167.688C254.122 167.779 254.048 167.852 253.957 167.852H251.904C251.813 167.852 251.739 167.779 251.739 167.688V165.158C251.739 165.067 251.813 164.994 251.904 164.994H253.957C254.048 164.994 254.122 165.067 254.122 165.158V167.688ZM254.122 163.4C254.122 163.491 254.048 163.564 253.957 163.564H251.904C251.813 163.564 251.739 163.491 251.739 163.4V160.87C251.739 160.779 251.813 160.706 251.904 160.706H253.957C254.048 160.706 254.122 160.779 254.122 160.87V163.4ZM254.122 159.112C254.122 159.203 254.048 159.276 253.957 159.276H251.904C251.813 159.276 251.739 159.203 251.739 159.112V156.582C251.739 156.491 251.813 156.418 251.904 156.418H253.957C254.048 156.418 254.122 156.491 254.122 156.582V159.112ZM254.122 154.824C254.122 154.915 254.048 154.988 253.957 154.988H251.904C251.813 154.988 251.739 154.915 251.739 154.824V152.294C251.739 152.203 251.813 152.13 251.904 152.13H253.957C254.048 152.13 254.122 152.203 254.122 152.294V154.824ZM254.122 150.536C254.122 150.627 254.048 150.7 253.957 150.7H251.904C251.813 150.7 251.739 150.627 251.739 150.536V148.006C251.739 147.915 251.813 147.842 251.904 147.842H253.957C254.048 147.842 254.122 147.915 254.122 148.006V150.536Z" fill="white"/>
<path d="M236.493 154.173C236.493 153.834 236.218 153.559 235.878 153.559H220.908C220.568 153.559 220.293 153.834 220.293 154.173V182.961C220.293 183.3 220.568 183.575 220.908 183.575H235.878C236.218 183.575 236.493 183.3 236.493 182.961V154.173ZM224.105 181.49C224.105 181.589 224.025 181.669 223.926 181.669H221.902C221.803 181.669 221.723 181.589 221.723 181.49V178.514C221.723 178.415 221.803 178.334 221.902 178.334H223.926C224.025 178.334 224.105 178.415 224.105 178.514V181.49ZM224.105 176.726C224.105 176.825 224.025 176.905 223.926 176.905H221.902C221.803 176.905 221.723 176.825 221.723 176.726V173.749C221.723 173.65 221.803 173.57 221.902 173.57H223.926C224.025 173.57 224.105 173.65 224.105 173.749V176.726ZM224.105 172.438C224.105 172.537 224.025 172.617 223.926 172.617H221.902C221.803 172.617 221.723 172.537 221.723 172.438V169.461C221.723 169.362 221.803 169.282 221.902 169.282H223.926C224.025 169.282 224.105 169.362 224.105 169.461V172.438ZM224.105 167.673C224.105 167.772 224.025 167.853 223.926 167.853H221.902C221.803 167.853 221.723 167.772 221.723 167.673V164.696C221.723 164.598 221.803 164.517 221.902 164.517H223.926C224.025 164.517 224.105 164.598 224.105 164.696V167.673ZM224.105 162.909C224.105 163.008 224.025 163.088 223.926 163.088H221.902C221.803 163.088 221.723 163.008 221.723 162.909V159.932C221.723 159.833 221.803 159.753 221.902 159.753H223.926C224.025 159.753 224.105 159.833 224.105 159.932V162.909ZM224.105 158.144C224.105 158.243 224.025 158.323 223.926 158.323H221.902C221.803 158.323 221.723 158.243 221.723 158.144V155.167C221.723 155.069 221.803 154.988 221.902 154.988H223.926C224.025 154.988 224.105 155.069 224.105 155.167V158.144ZM227.917 181.49C227.917 181.589 227.836 181.669 227.737 181.669H225.713C225.615 181.669 225.534 181.589 225.534 181.49V178.514C225.534 178.415 225.615 178.334 225.713 178.334H227.737C227.836 178.334 227.917 178.415 227.917 178.514V181.49ZM227.917 176.726C227.917 176.825 227.836 176.905 227.737 176.905H225.713C225.615 176.905 225.534 176.825 225.534 176.726V173.749C225.534 173.65 225.615 173.57 225.713 173.57H227.737C227.836 173.57 227.917 173.65 227.917 173.749V176.726ZM227.917 172.438C227.917 172.537 227.836 172.617 227.737 172.617H225.713C225.615 172.617 225.534 172.537 225.534 172.438V169.461C225.534 169.362 225.615 169.282 225.713 169.282H227.737C227.836 169.282 227.917 169.362 227.917 169.461V172.438ZM227.917 167.673C227.917 167.772 227.836 167.853 227.737 167.853H225.713C225.615 167.853 225.534 167.772 225.534 167.673V164.696C225.534 164.598 225.615 164.517 225.713 164.517H227.737C227.836 164.517 227.917 164.598 227.917 164.696V167.673ZM227.917 162.909C227.917 163.008 227.836 163.088 227.737 163.088H225.713C225.615 163.088 225.534 163.008 225.534 162.909V159.932C225.534 159.833 225.615 159.753 225.713 159.753H227.737C227.836 159.753 227.917 159.833 227.917 159.932V162.909ZM227.917 158.144C227.917 158.243 227.836 158.323 227.737 158.323H225.713C225.615 158.323 225.534 158.243 225.534 158.144V155.167C225.534 155.069 225.615 154.988 225.713 154.988H227.737C227.836 154.988 227.917 155.069 227.917 155.167V158.144ZM231.252 181.49C231.252 181.589 231.171 181.669 231.073 181.669H229.049C228.95 181.669 228.87 181.589 228.87 181.49V178.514C228.87 178.415 228.95 178.334 229.049 178.334H231.073C231.171 178.334 231.252 178.415 231.252 178.514V181.49ZM231.252 176.726C231.252 176.825 231.171 176.905 231.073 176.905H229.049C228.95 176.905 228.87 176.825 228.87 176.726V173.749C228.87 173.65 228.95 173.57 229.049 173.57H231.073C231.171 173.57 231.252 173.65 231.252 173.749V176.726ZM231.252 172.438C231.252 172.537 231.171 172.617 231.073 172.617H229.049C228.95 172.617 228.87 172.537 228.87 172.438V169.461C228.87 169.362 228.95 169.282 229.049 169.282H231.073C231.171 169.282 231.252 169.362 231.252 169.461V172.438ZM231.252 167.673C231.252 167.772 231.171 167.853 231.073 167.853H229.049C228.95 167.853 228.87 167.772 228.87 167.673V164.696C228.87 164.598 228.95 164.517 229.049 164.517H231.073C231.171 164.517 231.252 164.598 231.252 164.696V167.673ZM231.252 162.909C231.252 163.008 231.171 163.088 231.073 163.088H229.049C228.95 163.088 228.87 163.008 228.87 162.909V159.932C228.87 159.833 228.95 159.753 229.049 159.753H231.073C231.171 159.753 231.252 159.833 231.252 159.932V162.909ZM231.252 158.144C231.252 158.243 231.171 158.323 231.073 158.323H229.049C228.95 158.323 228.87 158.243 228.87 158.144V155.167C228.87 155.069 228.95 154.988 229.049 154.988H231.073C231.171 154.988 231.252 155.069 231.252 155.167V158.144ZM235.063 181.49C235.063 181.589 234.983 181.669 234.884 181.669H232.86C232.761 181.669 232.681 181.589 232.681 181.49V178.514C232.681 178.415 232.761 178.334 232.86 178.334H234.884C234.983 178.334 235.063 178.415 235.063 178.514V181.49ZM235.063 176.726C235.063 176.825 234.983 176.905 234.884 176.905H232.86C232.761 176.905 232.681 176.825 232.681 176.726V173.749C232.681 173.65 232.761 173.57 232.86 173.57H234.884C234.983 173.57 235.063 173.65 235.063 173.749V176.726ZM235.063 172.438C235.063 172.537 234.983 172.617 234.884 172.617H232.86C232.761 172.617 232.681 172.537 232.681 172.438V169.461C232.681 169.362 232.761 169.282 232.86 169.282H234.884C234.983 169.282 235.063 169.362 235.063 169.461V172.438ZM235.063 167.673C235.063 167.772 234.983 167.853 234.884 167.853H232.86C232.761 167.853 232.681 167.772 232.681 167.673V164.696C232.681 164.598 232.761 164.517 232.86 164.517H234.884C234.983 164.517 235.063 164.598 235.063 164.696V167.673ZM235.063 162.909C235.063 163.008 234.983 163.088 234.884 163.088H232.86C232.761 163.088 232.681 163.008 232.681 162.909V159.932C232.681 159.833 232.761 159.753 232.86 159.753H234.884C234.983 159.753 235.063 159.833 235.063 159.932V162.909ZM235.063 158.144C235.063 158.243 234.983 158.323 234.884 158.323H232.86C232.761 158.323 232.681 158.243 232.681 158.144V155.167C232.681 155.069 232.761 154.988 232.86 154.988H234.884C234.983 154.988 235.063 155.069 235.063 155.167V158.144Z" fill="white"/>
</svg>
