<svg width="407" height="363" viewBox="0 0 407 363" fill="none" xmlns="http://www.w3.org/2000/svg">
<path d="M371.251 23.5828C364.749 23.5828 359.46 18.2931 359.46 11.7911C359.46 5.28941 364.749 0 371.251 0C377.753 0 383.042 5.28951 383.042 11.7911C383.042 18.2931 377.753 23.5828 371.251 23.5828ZM371.251 2.03314C365.87 2.03314 361.493 6.41048 361.493 11.7911C361.493 17.172 365.87 21.5496 371.251 21.5496C376.632 21.5496 381.009 17.172 381.009 11.7911C381.009 6.41048 376.632 2.03314 371.251 2.03314Z" fill="#2CD997"/>
<path d="M44.4743 61.5738C44.7216 64.5984 42.4705 67.2503 39.4464 67.4976C36.4218 67.745 33.77 65.494 33.5227 62.4695C33.2753 59.4452 35.5262 56.7933 38.5508 56.5459C41.5748 56.2986 44.2269 58.5495 44.4743 61.5738Z" fill="#FFCD1E"/>
<path d="M10.3061 108.614C8.02836 108.438 5.86978 107.554 4.09444 106.047C1.86714 104.157 0.509414 101.512 0.271232 98.5997C-0.220279 92.5889 4.27011 87.2988 10.2811 86.8073C16.2921 86.3157 21.5819 90.806 22.0735 96.8168C22.5651 102.828 18.0749 108.118 12.0641 108.61C11.4732 108.658 10.8857 108.659 10.3061 108.614ZM11.8638 88.8301C11.3991 88.7942 10.9258 88.7945 10.4467 88.8336C5.55302 89.2339 1.89733 93.5406 2.29756 98.434C2.49142 100.805 3.59683 102.958 5.40999 104.497C7.22314 106.036 9.5275 106.777 11.8982 106.583C16.7917 106.183 20.4472 101.876 20.047 96.9824C19.6861 92.568 16.1459 89.161 11.8638 88.8301Z" fill="#2CD997"/>
<path d="M83.2366 345.865C79.8145 345.865 77.0304 343.081 77.0304 339.658C77.0304 336.237 79.8145 333.453 83.2366 333.453C86.6585 333.453 89.4425 336.237 89.4425 339.658C89.4425 343.081 86.6585 345.865 83.2366 345.865ZM83.2366 335.079C80.7114 335.079 78.6569 337.134 78.6569 339.659C78.6569 342.184 80.7113 344.238 83.2366 344.238C85.7616 344.238 87.816 342.184 87.816 339.659C87.816 337.134 85.7616 335.079 83.2366 335.079Z" fill="#FFCD1E"/>
<path d="M80.4482 75.6705C51.909 97.1689 28.004 123.216 19.1811 154.818C8.06029 194.651 21.1534 237.919 46.9101 270.213C94.5125 329.9 186.177 352.6 259.452 322.848C333.406 292.822 375.968 212.68 385.563 139.6C389.52 109.464 385.209 77.5964 368.069 52.4594C347.318 22.0283 309.517 4.755 271.431 2.35173C233.345 -0.0517418 195.124 11.0512 160.926 28.0571C135.401 40.75 106.059 56.3789 80.4482 75.6705Z" fill="#D4EBEB"/>
<path d="M273.941 362.998C273.619 363.022 273.331 362.788 273.292 362.463C273.251 362.128 273.49 361.825 273.824 361.784C274.816 361.665 275.76 361.386 276.63 360.958C276.933 360.809 277.298 360.933 277.447 361.235C277.596 361.538 277.471 361.903 277.169 362.052C276.175 362.542 275.099 362.859 273.97 362.995C273.961 362.997 273.951 362.997 273.941 362.998ZM279.462 360.257C279.297 360.269 279.127 360.214 278.998 360.091C278.753 359.86 278.742 359.474 278.974 359.229C279.204 358.987 279.422 358.727 279.623 358.457C279.625 358.453 279.627 358.45 279.63 358.447C280.077 357.87 280.548 357.328 281.03 356.837C281.266 356.597 281.652 356.594 281.893 356.83C282.133 357.066 282.136 357.452 281.9 357.692C281.453 358.148 281.014 358.651 280.598 359.189C280.37 359.496 280.121 359.792 279.86 360.068C279.751 360.183 279.608 360.246 279.462 360.257ZM283.933 355.879C283.719 355.895 283.502 355.796 283.377 355.603C283.193 355.32 283.273 354.943 283.556 354.759C284.337 354.252 285.163 353.829 286.012 353.503C286.179 353.439 286.349 353.378 286.516 353.323C286.836 353.216 287.181 353.388 287.288 353.708C287.394 354.027 287.222 354.373 286.902 354.48C286.752 354.53 286.6 354.584 286.45 354.642C285.68 354.938 284.93 355.321 284.221 355.782C284.131 355.84 284.033 355.872 283.933 355.879ZM292.977 354.047C292.953 354.049 292.929 354.049 292.904 354.048C292.657 354.037 292.406 354.02 292.139 354.002C291.445 353.957 290.659 353.905 289.819 353.944C289.483 353.959 289.197 353.699 289.182 353.362C289.167 353.026 289.424 352.741 289.763 352.725C290.671 352.684 291.494 352.738 292.219 352.785C292.479 352.802 292.725 352.818 292.96 352.829C293.297 352.845 293.557 353.13 293.541 353.467C293.527 353.779 293.281 354.025 292.977 354.047ZM296.089 353.752C295.798 353.773 295.525 353.582 295.453 353.289C295.373 352.961 295.573 352.631 295.9 352.551C296.848 352.318 297.742 351.953 298.633 351.435C298.924 351.265 299.297 351.364 299.467 351.655C299.636 351.946 299.538 352.32 299.246 352.489C298.253 353.067 297.254 353.475 296.191 353.736C296.157 353.744 296.123 353.749 296.089 353.752ZM301.5 350.698C301.319 350.711 301.134 350.644 301.003 350.5C300.777 350.25 300.796 349.864 301.045 349.638C301.714 349.032 302.414 348.31 303.185 347.432C303.407 347.179 303.792 347.153 304.045 347.375C304.299 347.598 304.324 347.983 304.102 348.236C303.3 349.15 302.569 349.904 301.864 350.542C301.76 350.637 301.631 350.689 301.5 350.698ZM305.702 346.028C305.552 346.039 305.399 345.995 305.273 345.893C305.012 345.681 304.972 345.297 305.184 345.035L305.337 344.848C305.94 344.105 306.563 343.337 307.198 342.596C307.417 342.34 307.802 342.311 308.058 342.53C308.314 342.749 308.343 343.134 308.124 343.39C307.5 344.118 306.881 344.88 306.284 345.617L306.131 345.804C306.021 345.94 305.864 346.016 305.702 346.028ZM346.92 340.185C346.027 340.251 345.1 340.249 344.164 340.181C343.828 340.156 343.575 339.864 343.6 339.528C343.624 339.192 343.917 338.94 344.252 338.964C345.29 339.04 346.309 339.029 347.286 338.929C347.292 338.928 347.298 338.928 347.304 338.927C347.632 338.903 347.921 339.145 347.955 339.474C347.989 339.809 347.745 340.108 347.41 340.142C347.249 340.159 347.085 340.173 346.92 340.185ZM335.379 340.951C334.569 341.01 333.791 341.008 333.002 340.944C332.667 340.917 332.416 340.623 332.443 340.287C332.47 339.952 332.765 339.701 333.1 339.728C333.827 339.787 334.543 339.789 335.291 339.734C335.557 339.715 335.827 339.688 336.116 339.654C336.125 339.652 336.135 339.651 336.144 339.651C336.467 339.627 336.755 339.862 336.794 340.186C336.834 340.521 336.596 340.825 336.261 340.865C335.954 340.902 335.665 340.93 335.379 340.951ZM350.466 339.508C350.192 339.528 349.93 339.361 349.842 339.088C349.737 338.768 349.912 338.424 350.233 338.32C350.87 338.112 351.479 337.857 352.044 337.561C352.313 337.42 352.615 337.247 352.943 337.047C353.23 336.871 353.606 336.962 353.782 337.249C353.957 337.537 353.867 337.912 353.579 338.088C353.229 338.302 352.903 338.488 352.61 338.642C351.985 338.969 351.312 339.251 350.61 339.479C350.562 339.495 350.514 339.504 350.466 339.508ZM339.322 340.282C339.036 340.303 338.767 340.12 338.689 339.833C338.616 339.561 338.739 339.282 338.971 339.146C338.603 339.026 338.237 338.897 337.876 338.758C337.561 338.638 337.404 338.285 337.525 337.97C337.645 337.656 337.998 337.499 338.313 337.619C339.195 337.957 340.103 338.239 341.016 338.457C341.341 338.329 341.661 338.192 341.973 338.046C342.278 337.903 342.641 338.035 342.784 338.341C342.926 338.646 342.794 339.009 342.489 339.151C342.156 339.307 341.815 339.453 341.468 339.59C341.378 339.659 341.269 339.701 341.153 339.711C340.595 339.92 340.021 340.104 339.437 340.262C339.399 340.273 339.36 340.279 339.322 340.282ZM330.001 340.419C329.936 340.424 329.869 340.418 329.802 340.4C328.829 340.146 327.889 339.812 326.755 339.317C326.446 339.182 326.305 338.823 326.44 338.514C326.575 338.205 326.934 338.064 327.243 338.199C328.317 338.668 329.201 338.982 330.111 339.22C330.436 339.305 330.632 339.639 330.546 339.965C330.479 340.224 330.254 340.4 330.001 340.419ZM309.849 341.299C309.675 341.311 309.497 341.25 309.366 341.115C309.131 340.873 309.138 340.486 309.38 340.252C310.223 339.436 311.039 338.759 311.874 338.184C312.152 337.993 312.532 338.063 312.723 338.341C312.914 338.618 312.844 338.998 312.566 339.189C311.787 339.725 311.022 340.36 310.228 341.129C310.121 341.232 309.986 341.288 309.849 341.299ZM344.983 337.616C344.78 337.631 344.574 337.544 344.445 337.367C344.247 337.095 344.306 336.713 344.579 336.515C345.398 335.917 346.149 335.238 346.81 334.497C347.034 334.245 347.42 334.223 347.671 334.447C347.923 334.672 347.945 335.057 347.72 335.309C347.002 336.114 346.186 336.852 345.297 337.5C345.202 337.57 345.093 337.608 344.983 337.616ZM355.914 336.417C355.71 336.432 355.503 336.344 355.374 336.166C355.177 335.893 355.239 335.512 355.512 335.314C356.345 334.713 357.167 334.072 357.956 333.409C358.214 333.192 358.598 333.225 358.815 333.483C359.032 333.741 358.999 334.126 358.741 334.343C357.929 335.025 357.083 335.685 356.226 336.304C356.131 336.372 356.023 336.409 355.914 336.417ZM335.292 337.466C335.177 337.475 335.059 337.451 334.95 337.39C334.384 337.073 333.833 336.73 333.31 336.371C332.994 336.153 332.635 335.907 332.258 335.63C331.986 335.431 331.927 335.05 332.126 334.778C332.325 334.506 332.707 334.447 332.979 334.646C333.341 334.912 333.692 335.153 334.002 335.366C334.493 335.704 335.013 336.027 335.546 336.326C335.84 336.49 335.945 336.862 335.781 337.156C335.677 337.342 335.49 337.452 335.292 337.466ZM324.181 338.068C324.087 338.075 323.99 338.06 323.897 338.021C322.802 337.553 321.921 337.275 321.041 337.12C320.709 337.061 320.488 336.745 320.546 336.413C320.605 336.081 320.921 335.86 321.253 335.919C322.229 336.091 323.192 336.393 324.376 336.899C324.686 337.031 324.83 337.39 324.698 337.699C324.605 337.916 324.401 338.052 324.181 338.068ZM315.025 337.818C314.765 337.837 314.512 337.686 314.413 337.431C314.29 337.117 314.446 336.763 314.759 336.641C315.606 336.311 316.495 336.069 317.401 335.921C317.583 335.891 317.766 335.865 317.944 335.843C318.279 335.801 318.583 336.04 318.623 336.375C318.664 336.709 318.426 337.013 318.092 337.054C317.929 337.074 317.763 337.097 317.598 337.125C316.776 337.259 315.97 337.478 315.202 337.778C315.144 337.8 315.084 337.814 315.025 337.818ZM360.724 332.374C360.551 332.387 360.373 332.326 360.242 332.191C360.007 331.95 360.012 331.564 360.253 331.329C360.996 330.605 361.695 329.871 362.392 329.085C362.615 328.833 363.001 328.809 363.253 329.032C363.505 329.256 363.528 329.641 363.305 329.893C362.588 330.703 361.869 331.458 361.105 332.202C360.998 332.307 360.862 332.364 360.724 332.374ZM349.153 332.969C349.033 332.978 348.908 332.951 348.796 332.884C348.507 332.711 348.413 332.337 348.586 332.048C349.118 331.157 349.547 330.239 349.859 329.319C349.967 329 350.313 328.829 350.632 328.937C350.951 329.045 351.122 329.392 351.014 329.711C350.674 330.713 350.21 331.709 349.633 332.674C349.527 332.851 349.345 332.955 349.153 332.969ZM330.3 333.679C330.121 333.692 329.939 333.627 329.808 333.486C329.045 332.663 328.401 331.762 327.892 330.808C327.734 330.511 327.846 330.142 328.144 329.983C328.441 329.825 328.81 329.937 328.969 330.234C329.428 331.096 330.011 331.911 330.702 332.656C330.931 332.903 330.917 333.289 330.67 333.518C330.564 333.616 330.433 333.669 330.3 333.679ZM365.029 327.79C364.853 327.803 364.673 327.739 364.542 327.601C364.31 327.357 364.32 326.971 364.565 326.739C365.262 326.077 366.08 325.376 366.996 324.655C367.261 324.447 367.645 324.493 367.853 324.757C368.061 325.022 368.015 325.406 367.751 325.614C366.864 326.312 366.075 326.988 365.404 327.624C365.298 327.725 365.165 327.78 365.029 327.79ZM351.117 327.052C351.087 327.054 351.057 327.054 351.026 327.052C350.69 327.027 350.439 326.734 350.464 326.398C350.505 325.856 350.506 325.309 350.466 324.771C350.441 324.429 350.399 324.084 350.342 323.744C350.325 323.64 350.306 323.536 350.285 323.434C350.22 323.104 350.434 322.783 350.765 322.717C351.096 322.652 351.416 322.866 351.482 323.196C351.504 323.31 351.525 323.425 351.545 323.541C351.609 323.918 351.655 324.302 351.683 324.682C351.727 325.28 351.726 325.888 351.68 326.49C351.657 326.795 351.414 327.031 351.117 327.052ZM327.357 328.199C327.067 328.22 326.795 328.03 326.721 327.739C326.536 326.999 326.415 326.252 326.361 325.517C326.335 325.166 326.325 324.813 326.329 324.468C326.334 324.131 326.613 323.861 326.948 323.867C327.285 323.872 327.554 324.149 327.549 324.485C327.545 324.795 327.554 325.112 327.578 325.427C327.626 326.093 327.736 326.77 327.905 327.442C327.987 327.768 327.788 328.1 327.462 328.182C327.427 328.191 327.391 328.196 327.357 328.199ZM369.949 323.871C369.742 323.886 369.532 323.795 369.404 323.613C369.211 323.337 369.278 322.956 369.554 322.763C370.363 322.196 371.248 321.602 372.185 320.996C372.469 320.813 372.846 320.894 373.029 321.177C373.212 321.46 373.131 321.838 372.848 322.021C371.923 322.618 371.051 323.204 370.254 323.762C370.16 323.828 370.055 323.863 369.949 323.871ZM375.229 320.445C375.008 320.462 374.786 320.357 374.663 320.155C374.487 319.867 374.578 319.492 374.866 319.316C375.864 318.708 376.796 318.155 377.576 317.696C377.866 317.524 378.24 317.621 378.411 317.911C378.582 318.201 378.486 318.575 378.196 318.746C377.42 319.204 376.493 319.753 375.501 320.358C375.415 320.41 375.322 320.439 375.229 320.445ZM349.914 320.957C349.674 320.975 349.437 320.849 349.323 320.62C348.882 319.731 348.31 318.874 347.668 318.142C347.446 317.889 347.472 317.503 347.725 317.281C347.979 317.059 348.364 317.085 348.586 317.338C349.295 318.148 349.928 319.095 350.416 320.078C350.566 320.379 350.442 320.745 350.141 320.895C350.068 320.931 349.991 320.952 349.914 320.957ZM327.488 321.994C327.411 321.999 327.333 321.991 327.255 321.965C326.935 321.861 326.76 321.517 326.864 321.196C326.903 321.077 326.945 320.956 326.989 320.836C327.324 319.916 327.788 319.042 328.366 318.238C328.563 317.964 328.944 317.902 329.217 318.099C329.491 318.295 329.553 318.676 329.356 318.95C328.843 319.663 328.432 320.439 328.134 321.254C328.095 321.361 328.058 321.468 328.024 321.574C327.945 321.817 327.728 321.976 327.488 321.994ZM380.63 317.208C380.417 317.224 380.201 317.127 380.075 316.935C379.891 316.653 379.969 316.275 380.251 316.09C381.08 315.546 381.873 314.909 382.609 314.197C382.852 313.964 383.238 313.97 383.472 314.212C383.706 314.454 383.699 314.84 383.457 315.075C382.666 315.839 381.813 316.524 380.92 317.11C380.83 317.169 380.731 317.201 380.63 317.208ZM345.806 316.293C345.677 316.302 345.544 316.271 345.428 316.195C344.611 315.66 343.707 315.226 342.743 314.904C342.423 314.797 342.251 314.451 342.357 314.132C342.464 313.812 342.809 313.64 343.129 313.746C344.193 314.102 345.191 314.582 346.096 315.174C346.378 315.359 346.457 315.737 346.272 316.019C346.164 316.184 345.989 316.28 345.806 316.293ZM331.082 316.948C330.886 316.963 330.687 316.882 330.557 316.716C330.349 316.451 330.395 316.068 330.66 315.86C331.511 315.193 332.46 314.625 333.482 314.174C333.791 314.038 334.15 314.177 334.287 314.485C334.423 314.793 334.284 315.153 333.975 315.29C333.046 315.701 332.184 316.215 331.413 316.82C331.314 316.897 331.198 316.94 331.082 316.948ZM385.144 312.882C385.004 312.892 384.858 312.854 384.736 312.763C384.466 312.561 384.41 312.179 384.611 311.909C385.196 311.124 385.752 310.258 386.265 309.335C386.429 309.04 386.8 308.935 387.094 309.098C387.389 309.262 387.495 309.633 387.331 309.928C386.792 310.897 386.206 311.809 385.59 312.637C385.479 312.785 385.315 312.869 385.144 312.882ZM339.908 314.291C339.875 314.294 339.841 314.293 339.807 314.29C338.904 314.206 338.257 314.241 338.08 314.254L338.067 314.255C337.661 314.285 337.247 314.337 336.836 314.411C336.506 314.471 336.187 314.251 336.128 313.919C336.068 313.588 336.288 313.27 336.62 313.211C337.072 313.129 337.529 313.071 337.978 313.038L337.992 313.037C338.249 313.019 338.951 312.985 339.919 313.075C340.255 313.107 340.501 313.404 340.47 313.739C340.442 314.04 340.2 314.27 339.908 314.291ZM388.216 307.415C388.122 307.422 388.026 307.407 387.933 307.368C387.623 307.236 387.479 306.878 387.61 306.568C387.997 305.659 388.361 304.685 388.694 303.674C388.799 303.354 389.143 303.179 389.463 303.285C389.783 303.39 389.958 303.734 389.852 304.054C389.509 305.098 389.133 306.104 388.733 307.045C388.641 307.263 388.436 307.399 388.216 307.415ZM390.193 301.455C390.129 301.459 390.063 301.454 389.998 301.437C389.671 301.354 389.474 301.022 389.557 300.695C389.804 299.728 390.033 298.707 390.238 297.662C390.303 297.332 390.623 297.116 390.954 297.181C391.284 297.246 391.5 297.566 391.435 297.897C391.226 298.964 390.992 300.007 390.739 300.997C390.673 301.258 390.447 301.436 390.193 301.455ZM391.412 295.29C391.368 295.293 391.323 295.291 391.278 295.285C390.944 295.235 390.714 294.925 390.764 294.592C390.809 294.288 390.852 293.98 390.895 293.668C390.94 293.334 391.247 293.099 391.581 293.145C391.914 293.19 392.149 293.497 392.103 293.831C392.06 294.148 392.016 294.462 391.97 294.771C391.928 295.058 391.691 295.269 391.412 295.29Z" fill="#2298FF"/>
<path d="M390.548 292.793C399.505 292.793 406.766 285.531 406.766 276.574C406.766 267.617 399.505 260.356 390.548 260.356C381.591 260.356 374.33 267.617 374.33 276.574C374.33 285.531 381.591 292.793 390.548 292.793Z" fill="#2298FF"/>
<path d="M391.382 267.459H391.379H390.222H390.22C387.776 267.459 385.789 269.289 385.789 271.538H385.792V274.664H387.86V271.538C387.86 270.339 388.92 269.363 390.222 269.363H391.379C392.682 269.363 393.742 270.339 393.742 271.538V274.664H395.81V271.538H395.813C395.813 269.289 393.825 267.459 391.382 267.459Z" fill="white"/>
<path d="M397.889 284.389C397.889 285.103 397.264 285.682 396.494 285.682H385.105C384.335 285.682 383.71 285.103 383.71 284.389V275.543C383.71 274.829 384.335 274.25 385.105 274.25H396.494C397.264 274.25 397.889 274.829 397.889 275.543V284.389Z" fill="white"/>
<path d="M389.829 279.279C389.829 279.697 390.117 279.995 390.207 280.078C390.226 280.095 390.244 280.113 390.261 280.131C390.293 280.164 390.323 280.192 390.336 280.201C390.353 280.211 390.358 280.269 390.348 280.329L390.125 281.588C390.115 281.648 390.152 281.697 390.209 281.697H391.394C391.45 281.697 391.488 281.648 391.477 281.588L391.255 280.329C391.245 280.269 391.25 280.211 391.267 280.201C391.278 280.193 391.303 280.17 391.33 280.143C391.355 280.118 391.38 280.094 391.406 280.07C391.506 279.981 391.774 279.704 391.774 279.279C391.774 278.7 391.337 278.229 390.801 278.229C390.265 278.229 389.829 278.7 389.829 279.279Z" fill="#2298FF"/>
<path d="M391.394 281.943H390.208C390.11 281.943 390.018 281.9 389.955 281.826C389.891 281.749 389.864 281.647 389.882 281.545L390.099 280.318C390.094 280.313 390.089 280.307 390.083 280.302C390.069 280.287 390.055 280.273 390.04 280.259C389.933 280.16 389.582 279.797 389.582 279.279C389.582 278.564 390.129 277.982 390.801 277.982C391.473 277.982 392.02 278.564 392.02 279.279C392.02 279.798 391.705 280.134 391.57 280.254C391.546 280.275 391.525 280.295 391.506 280.315C391.505 280.316 391.504 280.317 391.503 280.318L391.72 281.545C391.738 281.647 391.711 281.749 391.647 281.826C391.585 281.9 391.492 281.943 391.394 281.943ZM390.4 281.449H391.202L391.012 280.371C390.982 280.203 391.021 280.072 391.122 280C391.127 279.996 391.138 279.986 391.154 279.97C391.181 279.942 391.21 279.914 391.242 279.886C391.309 279.826 391.527 279.607 391.527 279.279C391.527 278.836 391.201 278.476 390.801 278.476C390.401 278.476 390.076 278.836 390.076 279.279C390.076 279.597 390.304 279.832 390.374 279.896C390.397 279.917 390.419 279.938 390.439 279.96C390.459 279.981 390.474 279.994 390.48 280C390.616 280.095 390.608 280.273 390.59 280.371L390.4 281.449ZM390.201 280.406C390.201 280.407 390.202 280.407 390.203 280.408C390.202 280.407 390.201 280.407 390.201 280.406ZM391.406 280.404C391.404 280.405 391.402 280.406 391.401 280.407C391.403 280.406 391.404 280.405 391.406 280.404ZM390.472 279.995C390.472 279.995 390.473 279.995 390.473 279.995C390.473 279.995 390.473 279.995 390.472 279.995Z" fill="#2298FF"/>
<path d="M210.367 33.3311H210.334H196.87H196.836C168.405 33.3311 145.276 54.6202 145.276 80.7889H145.309V117.17H169.38V80.7889C169.38 66.8368 181.712 55.4865 196.87 55.4865H210.334C225.492 55.4865 237.823 66.8367 237.823 80.7889V117.17H261.894V80.7889H261.928C261.928 54.6202 238.798 33.3311 210.367 33.3311Z" fill="#2298FF"/>
<path d="M261.894 117.882H237.823C237.43 117.882 237.112 117.563 237.112 117.17V80.7895C237.112 67.2301 225.099 56.1987 210.333 56.1987H196.87C182.104 56.1987 170.091 67.2301 170.091 80.7895V117.17C170.091 117.563 169.773 117.882 169.38 117.882H145.309C144.916 117.882 144.597 117.563 144.597 117.17V81.0063C144.575 80.9379 144.564 80.8652 144.564 80.7895C144.564 54.2288 168.013 32.6201 196.836 32.6201H210.367C239.19 32.6201 262.639 54.2288 262.639 80.7895C262.639 80.8653 262.627 80.9382 262.606 81.0067V117.17C262.605 117.563 262.287 117.882 261.894 117.882ZM238.535 116.459H261.182V80.7895C261.182 80.7144 261.194 80.642 261.215 80.574C261.088 54.8974 238.326 34.0432 210.367 34.0432H196.836C168.876 34.0432 146.115 54.8977 145.987 80.5743C146.009 80.6422 146.02 80.7145 146.02 80.7895V116.459H168.668V80.7895C168.668 66.4453 181.319 54.7755 196.87 54.7755H210.333C225.884 54.7755 238.535 66.4453 238.535 80.7895V116.459Z" fill="#101111"/>
<path d="M293.538 241.097C293.538 250.158 285.615 257.502 275.843 257.502H131.359C121.587 257.502 113.665 250.158 113.665 241.097V128.875C113.665 119.815 121.587 112.47 131.359 112.47H275.843C285.615 112.47 293.538 119.815 293.538 128.875L293.538 241.097Z" fill="#2298FF"/>
<path d="M275.843 258.214H131.359C121.21 258.214 112.954 250.535 112.954 241.097V128.875C112.954 119.437 121.21 111.759 131.359 111.759H275.843C285.992 111.759 294.249 119.437 294.249 128.875V241.097C294.249 250.535 285.992 258.214 275.843 258.214ZM131.359 113.182C121.995 113.182 114.377 120.222 114.377 128.875V241.097C114.377 249.751 121.995 256.791 131.359 256.791H275.843C285.207 256.791 292.826 249.751 292.826 241.097V128.875C292.826 120.222 285.207 113.182 275.843 113.182H131.359Z" fill="#101111"/>
<path d="M192.287 177.029C192.287 181.893 195.639 185.362 196.687 186.327C196.903 186.526 197.114 186.732 197.318 186.945C197.681 187.323 198.033 187.653 198.185 187.751C198.382 187.878 198.443 188.55 198.32 189.244L195.735 203.899C195.612 204.594 196.048 205.161 196.703 205.161H210.498C211.154 205.161 211.588 204.594 211.467 203.899L208.882 189.244C208.759 188.55 208.82 187.878 209.017 187.751C209.151 187.665 209.438 187.4 209.751 187.081C210.038 186.789 210.336 186.508 210.64 186.237C211.806 185.199 214.915 181.969 214.915 177.029C214.915 170.292 209.839 164.812 203.601 164.812C197.362 164.812 192.287 170.292 192.287 177.029Z" fill="white"/>
<path d="M210.498 205.872H196.703C196.189 205.872 195.729 205.662 195.408 205.28C195.073 204.88 194.936 204.331 195.034 203.775L197.619 189.12C197.69 188.722 197.678 188.394 197.65 188.24C197.362 188.009 196.977 187.616 196.805 187.437C196.616 187.241 196.414 187.043 196.205 186.85C195.119 185.849 191.576 182.184 191.576 177.029C191.576 169.9 196.97 164.1 203.601 164.1C210.232 164.1 215.627 169.9 215.627 177.029C215.627 182.194 212.47 185.56 211.114 186.768C210.809 187.039 210.522 187.312 210.259 187.58C210.045 187.797 209.769 188.067 209.552 188.24C209.524 188.394 209.513 188.722 209.583 189.12L212.168 203.775C212.265 204.332 212.128 204.88 211.792 205.28C211.472 205.662 211.012 205.872 210.498 205.872ZM203.601 165.523C197.755 165.523 192.999 170.685 192.999 177.029C192.999 181.605 196.191 184.902 197.169 185.803C197.4 186.016 197.623 186.234 197.832 186.452C198.248 186.886 198.511 187.113 198.573 187.155C199.272 187.604 199.092 188.962 199.02 189.368L196.436 204.022C196.411 204.163 196.434 204.288 196.499 204.365C196.546 204.421 196.613 204.449 196.703 204.449H210.498C210.588 204.449 210.655 204.421 210.703 204.365C210.768 204.288 210.791 204.162 210.766 204.021L208.181 189.367C208.109 188.961 207.93 187.602 208.634 187.152C208.689 187.115 208.908 186.924 209.243 186.582C209.528 186.292 209.839 185.996 210.167 185.705C211.381 184.625 214.203 181.618 214.203 177.029C214.203 170.685 209.447 165.523 203.601 165.523ZM209.414 188.342C209.411 188.344 209.408 188.346 209.405 188.348C209.408 188.346 209.411 188.344 209.414 188.342Z" fill="#101111"/>
<path d="M210.498 205.917H196.703C196.183 205.917 195.698 205.695 195.374 205.309C195.029 204.898 194.889 204.336 194.989 203.766L197.574 189.111C197.641 188.734 197.633 188.418 197.608 188.264C197.319 188.03 196.942 187.645 196.772 187.468C196.585 187.273 196.383 187.076 196.174 186.883C195.085 185.879 191.53 182.202 191.53 177.028C191.53 169.874 196.945 164.054 203.601 164.054C210.257 164.054 215.672 169.874 215.672 177.028C215.672 182.212 212.505 185.59 211.144 186.801C210.841 187.071 210.554 187.344 210.291 187.611C210.081 187.824 209.811 188.089 209.594 188.264C209.57 188.419 209.561 188.734 209.627 189.111L212.212 203.766C212.312 204.337 212.172 204.899 211.827 205.309C211.498 205.701 211.026 205.917 210.498 205.917Z" fill="white"/>
<path d="M210.498 206.629H196.703C195.972 206.629 195.289 206.314 194.829 205.766C194.349 205.194 194.152 204.42 194.289 203.643L196.874 188.988C196.9 188.839 196.911 188.708 196.914 188.604C196.664 188.378 196.41 188.119 196.259 187.961C196.082 187.777 195.891 187.59 195.692 187.406C194.549 186.353 190.819 182.492 190.819 177.029C190.819 169.482 196.553 163.343 203.601 163.343C210.65 163.343 216.384 169.482 216.384 177.029C216.384 182.5 213.05 186.058 211.617 187.333C211.325 187.593 211.05 187.854 210.799 188.11C210.609 188.303 210.439 188.468 210.288 188.605C210.291 188.708 210.302 188.839 210.328 188.988L212.913 203.643C213.05 204.422 212.852 205.195 212.372 205.767C211.905 206.323 211.24 206.629 210.498 206.629ZM203.601 164.766C197.338 164.766 192.242 170.267 192.242 177.029C192.242 181.913 195.621 185.406 196.656 186.36C196.877 186.563 197.088 186.77 197.286 186.976C197.43 187.126 197.794 187.499 198.056 187.711C198.193 187.821 198.284 187.979 198.311 188.153C198.357 188.444 198.344 188.849 198.275 189.236L195.69 203.89C195.627 204.252 195.71 204.602 195.919 204.851C196.108 205.076 196.394 205.205 196.703 205.205H210.498C210.817 205.205 211.088 205.083 211.282 204.852C211.492 204.603 211.575 204.252 211.512 203.889L208.927 189.235C208.859 188.849 208.845 188.445 208.891 188.154C208.918 187.98 209.009 187.822 209.147 187.711C209.302 187.585 209.522 187.379 209.783 187.113C210.057 186.834 210.355 186.551 210.671 186.27C211.961 185.122 214.961 181.924 214.961 177.029C214.961 170.267 209.865 164.766 203.601 164.766Z" fill="#101111"/>
<path d="M209.38 204.2H201.641C201.248 204.2 200.929 203.881 200.929 203.488C200.929 203.095 201.248 202.777 201.641 202.777H209.38C209.773 202.777 210.091 203.095 210.091 203.488C210.091 203.881 209.773 204.2 209.38 204.2Z" fill="#101111"/>
<path d="M204.821 166.585C199 166.585 194.264 171.727 194.264 178.046L204.821 166.585Z" fill="white"/>
<path d="M194.264 178.757C193.871 178.757 193.553 178.439 193.553 178.046C193.553 171.334 198.608 165.874 204.821 165.874C205.214 165.874 205.533 166.193 205.533 166.586C205.533 166.979 205.214 167.297 204.821 167.297C199.392 167.297 194.976 172.119 194.976 178.046C194.976 178.439 194.657 178.757 194.264 178.757Z" fill="#101111"/>
<path d="M287.236 229.464C286.843 229.464 286.524 229.146 286.524 228.753V148.044C286.524 147.651 286.843 147.333 287.236 147.333C287.629 147.333 287.947 147.651 287.947 148.044V228.753C287.947 229.146 287.629 229.464 287.236 229.464Z" fill="#101111"/>
<path d="M118.749 162.473C118.356 162.473 118.037 162.154 118.037 161.761V133.507C118.037 124.069 126.294 116.391 136.443 116.391H159.469C159.862 116.391 160.18 116.71 160.18 117.103C160.18 117.496 159.862 117.814 159.469 117.814H136.443C127.079 117.814 119.46 124.854 119.46 133.507V161.761C119.46 162.154 119.142 162.473 118.749 162.473Z" fill="#101111"/>
<path d="M197.769 188.383C197.771 188.385 197.774 188.386 197.776 188.388C197.774 188.386 197.771 188.385 197.769 188.383Z" fill="white"/>
<path d="M197.775 189.1C197.641 189.1 197.506 189.062 197.387 188.984C197.386 188.983 197.384 188.982 197.382 188.981C197.381 188.98 197.379 188.979 197.377 188.978C197.376 188.976 197.374 188.976 197.374 188.975C197.37 188.973 197.366 188.97 197.363 188.968C197.042 188.745 196.961 188.306 197.18 187.983C197.4 187.66 197.838 187.574 198.163 187.791C198.168 187.794 198.173 187.797 198.176 187.8C198.499 188.019 198.584 188.458 198.368 188.783C198.231 188.988 198.005 189.1 197.775 189.1Z" fill="#101111"/>
<path d="M209.43 189.098C209.198 189.098 208.971 188.985 208.835 188.777C208.62 188.45 208.71 188.011 209.035 187.795C209.037 187.793 209.044 187.788 209.046 187.787C209.05 187.785 209.056 187.781 209.057 187.78C209.386 187.57 209.823 187.665 210.036 187.992C210.249 188.319 210.159 188.756 209.834 188.972C209.832 188.974 209.825 188.978 209.823 188.98C209.82 188.981 209.817 188.983 209.816 188.984C209.697 189.061 209.563 189.098 209.43 189.098Z" fill="#101111"/>
<path d="M256.923 85.9788C256.902 85.9788 256.881 85.9779 256.86 85.9761C256.469 85.9421 256.179 85.597 256.213 85.2054C256.722 79.3601 255.918 73.5702 253.823 67.9969C251.794 62.5983 248.66 57.6645 244.508 53.3326C234.866 43.272 220.978 37.8722 206.409 38.5203C206.399 38.5207 206.388 38.521 206.378 38.521H206.344C205.951 38.521 205.632 38.2025 205.632 37.8095C205.632 37.4164 205.951 37.0979 206.344 37.0979H206.362C221.335 36.4367 235.613 41.9952 245.536 52.3479C249.822 56.8197 253.058 61.9164 255.155 67.4963C257.325 73.2703 258.158 79.2701 257.631 85.329C257.598 85.6994 257.288 85.9788 256.923 85.9788Z" fill="#101111"/>
<path d="M333.752 249.58L158.969 288.882C142.867 292.503 126.878 282.385 123.257 266.282C119.636 250.18 129.755 234.191 145.857 230.57L320.64 191.268C336.743 187.647 352.732 197.765 356.353 213.868C359.973 229.97 349.855 245.959 333.752 249.58Z" fill="#FFCD1E"/>
<path d="M152.353 290.333C146.628 290.333 141.008 288.716 136.052 285.58C129.146 281.21 124.355 274.412 122.563 266.438C120.77 258.465 122.189 250.271 126.559 243.365C130.929 236.459 137.727 231.668 145.701 229.876L320.484 190.574C328.457 188.781 336.651 190.2 343.557 194.57C350.463 198.94 355.253 205.738 357.046 213.712C358.839 221.685 357.42 229.879 353.05 236.785C348.679 243.691 341.882 248.482 333.908 250.274L159.125 289.576C156.874 290.083 154.605 290.333 152.353 290.333ZM327.253 191.241C325.105 191.241 322.943 191.479 320.796 191.962L146.013 231.264C138.411 232.974 131.929 237.541 127.762 244.126C123.595 250.71 122.242 258.523 123.951 266.126C125.661 273.728 130.228 280.21 136.813 284.377C143.397 288.544 151.21 289.897 158.813 288.188L333.596 248.886C341.198 247.176 347.68 242.609 351.847 236.024C356.014 229.44 357.367 221.626 355.658 214.024C353.948 206.422 349.38 199.94 342.796 195.773C338.071 192.783 332.712 191.241 327.253 191.241Z" fill="#101111"/>
<path d="M178.671 262.749C177.915 263.815 176.905 264.49 175.642 264.774C174.631 265.001 173.669 264.786 172.759 264.128C171.848 263.471 171.279 262.636 171.051 261.625C170.852 260.741 171.088 259.725 171.76 258.578C172.431 257.432 174.286 256.086 177.323 254.539C173.965 254.366 171.725 253.924 170.603 253.213C169.481 252.504 168.821 251.706 168.622 250.821C168.395 249.811 168.551 248.813 169.094 247.828C169.635 246.844 170.412 246.237 171.423 246.01C172.686 245.726 173.885 245.888 175.017 246.496C176.149 247.105 177.531 247.789 179.163 248.55C178.779 247.442 178.392 246.451 177.996 245.577C177.601 244.705 177.325 243.92 177.168 243.224C176.884 241.961 176.985 240.86 177.471 239.921C177.957 238.982 178.799 238.377 180 238.107C181.263 237.823 182.327 237.982 183.194 238.584C184.059 239.186 184.634 240.119 184.918 241.382C185.103 242.204 185.171 243.102 185.125 244.074C185.078 245.047 185.143 246.078 185.323 247.165C186.506 245.639 187.501 244.386 188.311 243.407C189.119 242.429 190.092 241.812 191.23 241.556C192.24 241.329 193.201 241.545 194.113 242.202C195.023 242.861 195.594 243.695 195.821 244.705C196.02 245.591 195.748 246.597 195.006 247.726C194.265 248.855 192.413 250.217 189.454 251.812C192.797 251.923 195.05 252.346 196.21 253.08C197.371 253.815 198.051 254.625 198.25 255.509C198.477 256.52 198.319 257.519 197.778 258.502C197.236 259.487 196.459 260.093 195.449 260.32C194.312 260.576 193.164 260.42 192.008 259.85C190.85 259.281 189.411 258.559 187.688 257.685C187.992 258.746 188.374 259.705 188.833 260.563C189.291 261.423 189.614 262.264 189.798 263.084C190.083 264.349 189.965 265.453 189.448 266.399C188.93 267.346 188.04 267.96 186.777 268.244C185.576 268.514 184.556 268.329 183.715 267.688C182.874 267.048 182.312 266.096 182.027 264.832C181.857 264.073 181.764 263.216 181.747 262.256C181.731 261.299 181.656 260.236 181.528 259.07C180.379 260.457 179.427 261.683 178.671 262.749Z" fill="white"/>
<path d="M185.752 269.076C184.828 269.076 184.001 268.801 183.283 268.254C182.31 267.513 181.653 266.414 181.333 264.988C181.152 264.186 181.052 263.272 181.035 262.269C181.028 261.834 181.008 261.37 180.975 260.88C180.314 261.712 179.737 262.476 179.252 263.16C179.252 263.16 179.252 263.16 179.252 263.161C178.394 264.369 177.232 265.146 175.798 265.468C174.583 265.742 173.42 265.485 172.342 264.704C171.291 263.947 170.623 262.963 170.357 261.781C170.118 260.718 170.383 259.519 171.146 258.218C171.71 257.254 172.941 256.213 174.885 255.061C172.688 254.815 171.152 254.404 170.222 253.814C168.941 253.005 168.169 252.05 167.927 250.977C167.662 249.797 167.844 248.621 168.47 247.485C169.112 246.318 170.053 245.589 171.266 245.316C172.695 244.994 174.07 245.181 175.353 245.869C176.089 246.264 176.938 246.696 177.891 247.158C177.709 246.699 177.528 246.269 177.348 245.871C176.934 244.958 176.64 244.12 176.474 243.381C176.154 241.956 176.276 240.682 176.838 239.594C177.424 238.464 178.435 237.73 179.844 237.413C181.303 237.085 182.566 237.282 183.599 238C184.612 238.705 185.289 239.79 185.612 241.226C185.809 242.103 185.885 243.073 185.836 244.107C185.816 244.508 185.817 244.922 185.839 245.347C186.578 244.407 187.213 243.617 187.762 242.953C188.669 241.856 189.783 241.152 191.073 240.862C192.285 240.589 193.448 240.846 194.528 241.625C195.582 242.387 196.249 243.37 196.515 244.549C196.757 245.626 196.449 246.826 195.601 248.117C194.987 249.051 193.757 250.084 191.865 251.249C194.071 251.463 195.627 251.869 196.591 252.479C197.911 253.315 198.703 254.282 198.944 255.353C199.209 256.533 199.026 257.708 198.401 258.845C197.759 260.012 196.818 260.742 195.605 261.015C194.308 261.306 192.992 261.129 191.693 260.488C190.905 260.101 189.995 259.647 188.935 259.113C189.097 259.504 189.272 259.876 189.46 260.228C189.948 261.145 190.295 262.053 190.492 262.928C190.814 264.36 190.673 265.642 190.072 266.74C189.455 267.869 188.398 268.609 186.933 268.938C186.523 269.03 186.129 269.076 185.752 269.076ZM181.528 258.358C181.596 258.358 181.664 258.368 181.732 258.388C182.005 258.47 182.204 258.708 182.235 258.992C182.366 260.187 182.441 261.281 182.458 262.244C182.473 263.15 182.562 263.969 182.721 264.676C182.97 265.781 183.436 266.581 184.145 267.122C184.816 267.633 185.626 267.773 186.62 267.55C187.685 267.31 188.405 266.822 188.824 266.057C189.259 265.261 189.351 264.34 189.104 263.24C188.935 262.489 188.632 261.701 188.205 260.898C187.724 259.999 187.319 258.983 187.004 257.881C186.926 257.609 187.016 257.316 187.235 257.136C187.453 256.956 187.757 256.922 188.01 257.05C189.764 257.94 191.174 258.647 192.321 259.211C193.336 259.712 194.308 259.847 195.293 259.626C196.102 259.444 196.711 258.964 197.154 258.159C197.614 257.324 197.745 256.508 197.555 255.665C197.4 254.975 196.82 254.308 195.829 253.681C195.11 253.226 193.416 252.656 189.429 252.523C189.108 252.512 188.834 252.287 188.76 251.974C188.687 251.661 188.833 251.338 189.116 251.185C192.655 249.279 193.949 248.04 194.411 247.335C195.04 246.379 195.28 245.547 195.126 244.861C194.937 244.019 194.469 243.338 193.695 242.778C192.95 242.242 192.194 242.069 191.385 242.25C190.397 242.473 189.57 242.999 188.859 243.86C188.068 244.815 187.096 246.039 185.885 247.601C185.711 247.825 185.422 247.925 185.148 247.855C184.873 247.786 184.666 247.56 184.62 247.281C184.434 246.152 184.365 245.061 184.414 244.039C184.457 243.133 184.393 242.291 184.224 241.538C183.978 240.445 183.508 239.67 182.787 239.168C182.086 238.681 181.225 238.561 180.156 238.802C179.163 239.025 178.491 239.498 178.103 240.248C177.693 241.041 177.614 241.964 177.863 243.068C178.008 243.714 178.271 244.459 178.644 245.284C179.042 246.164 179.443 247.185 179.835 248.318C179.928 248.588 179.851 248.888 179.639 249.079C179.427 249.271 179.12 249.316 178.862 249.196C177.229 248.435 175.822 247.737 174.68 247.123C173.694 246.594 172.679 246.457 171.579 246.704C170.769 246.887 170.16 247.366 169.717 248.171C169.257 249.006 169.126 249.822 169.316 250.665C169.471 251.356 170.032 252.011 170.983 252.612C171.679 253.053 173.35 253.622 177.36 253.829C177.682 253.846 177.952 254.076 178.019 254.392C178.086 254.707 177.933 255.028 177.646 255.174C174.033 257.013 172.784 258.236 172.374 258.938C171.799 259.918 171.588 260.769 171.745 261.469C171.935 262.313 172.403 262.994 173.175 263.551C173.919 264.089 174.674 264.262 175.486 264.08C176.582 263.833 177.434 263.263 178.091 262.337C178.85 261.267 179.822 260.015 180.979 258.616C181.117 258.45 181.319 258.358 181.528 258.358Z" fill="#101111"/>
<path d="M215.6 254.445C214.844 255.511 213.834 256.186 212.571 256.47C211.56 256.697 210.598 256.482 209.688 255.824C208.776 255.167 208.207 254.332 207.98 253.32C207.781 252.436 208.016 251.421 208.689 250.274C209.36 249.127 211.215 247.782 214.252 246.235C210.893 246.062 208.653 245.62 207.532 244.909C206.41 244.2 205.75 243.402 205.551 242.517C205.324 241.507 205.48 240.509 206.022 239.523C206.564 238.54 207.34 237.933 208.352 237.706C209.615 237.422 210.813 237.584 211.946 238.192C213.078 238.8 214.459 239.485 216.091 240.246C215.708 239.138 215.321 238.147 214.925 237.273C214.53 236.4 214.254 235.616 214.097 234.92C213.813 233.657 213.914 232.556 214.4 231.616C214.886 230.678 215.728 230.073 216.929 229.803C218.192 229.519 219.256 229.678 220.123 230.28C220.988 230.882 221.563 231.815 221.847 233.078C222.032 233.9 222.1 234.798 222.054 235.769C222.007 236.743 222.072 237.774 222.251 238.861C223.434 237.335 224.43 236.081 225.239 235.103C226.048 234.125 227.021 233.508 228.158 233.252C229.168 233.025 230.13 233.241 231.042 233.898C231.952 234.556 232.522 235.391 232.749 236.401C232.948 237.286 232.677 238.293 231.935 239.421C231.194 240.551 229.342 241.913 226.383 243.507C229.726 243.619 231.978 244.041 233.139 244.776C234.3 245.51 234.98 246.321 235.179 247.205C235.406 248.216 235.248 249.214 234.707 250.198C234.165 251.183 233.388 251.789 232.378 252.016C231.241 252.272 230.093 252.116 228.937 251.545C227.779 250.976 226.339 250.255 224.617 249.38C224.921 250.441 225.303 251.401 225.762 252.259C226.22 253.119 226.543 253.96 226.727 254.78C227.011 256.045 226.894 257.149 226.377 258.094C225.859 259.042 224.969 259.656 223.706 259.94C222.505 260.21 221.485 260.025 220.644 259.384C219.803 258.744 219.24 257.792 218.956 256.527C218.786 255.769 218.692 254.911 218.676 253.952C218.659 252.994 218.585 251.932 218.457 250.766C217.308 252.153 216.356 253.378 215.6 254.445Z" fill="white"/>
<path d="M222.681 260.772C221.757 260.772 220.93 260.497 220.212 259.95C219.239 259.209 218.583 258.11 218.262 256.684C218.082 255.883 217.981 254.968 217.964 253.965C217.957 253.53 217.937 253.066 217.904 252.576C217.243 253.408 216.666 254.172 216.181 254.857C215.323 256.066 214.162 256.842 212.727 257.165C211.512 257.438 210.349 257.181 209.271 256.401C208.22 255.644 207.552 254.66 207.286 253.477C207.047 252.414 207.312 251.215 208.075 249.914C208.64 248.95 209.87 247.909 211.814 246.757C209.617 246.512 208.081 246.1 207.151 245.51C205.87 244.701 205.098 243.746 204.857 242.673C204.591 241.493 204.774 240.318 205.399 239.181C206.041 238.014 206.982 237.285 208.196 237.012C209.624 236.691 210.999 236.877 212.282 237.565C213.018 237.961 213.867 238.392 214.82 238.854C214.639 238.396 214.457 237.965 214.277 237.567C213.863 236.654 213.569 235.816 213.403 235.077C213.083 233.652 213.205 232.379 213.768 231.29C214.353 230.16 215.364 229.426 216.773 229.109C218.232 228.781 219.496 228.979 220.529 229.696C221.541 230.401 222.218 231.486 222.541 232.922C222.738 233.8 222.814 234.769 222.765 235.804C222.745 236.205 222.746 236.619 222.768 237.043C223.506 236.104 224.141 235.314 224.691 234.65C225.598 233.552 226.712 232.848 228.002 232.558C229.214 232.285 230.377 232.542 231.457 233.321C232.511 234.083 233.179 235.067 233.443 236.246C233.686 237.322 233.378 238.522 232.53 239.813C231.916 240.748 230.686 241.78 228.795 242.945C231 243.159 232.556 243.565 233.519 244.175C234.84 245.011 235.632 245.978 235.873 247.049C236.138 248.23 235.956 249.405 235.33 250.541C234.688 251.708 233.747 252.438 232.534 252.711C231.237 253.002 229.921 252.825 228.622 252.184C227.833 251.797 226.923 251.343 225.864 250.809C226.026 251.2 226.201 251.572 226.389 251.924C226.877 252.841 227.224 253.749 227.421 254.625C227.743 256.056 227.602 257.339 227.001 258.436C226.384 259.565 225.327 260.305 223.862 260.634C223.453 260.726 223.059 260.772 222.681 260.772ZM218.457 250.054C218.525 250.054 218.594 250.064 218.661 250.084C218.935 250.166 219.133 250.404 219.164 250.688C219.296 251.883 219.371 252.977 219.387 253.94C219.403 254.847 219.491 255.665 219.65 256.372C219.899 257.477 220.365 258.278 221.075 258.818C221.746 259.329 222.555 259.469 223.55 259.246C224.614 259.007 225.334 258.518 225.753 257.753C226.188 256.957 226.28 256.036 226.033 254.937C225.864 254.185 225.561 253.397 225.134 252.594C224.653 251.694 224.248 250.679 223.933 249.577C223.855 249.305 223.946 249.012 224.164 248.832C224.382 248.652 224.687 248.618 224.939 248.746C226.691 249.636 228.102 250.342 229.25 250.907C230.266 251.408 231.237 251.544 232.222 251.322C233.032 251.14 233.64 250.66 234.083 249.855C234.543 249.02 234.674 248.204 234.484 247.361C234.329 246.671 233.749 246.004 232.759 245.378C232.04 244.923 230.346 244.352 226.359 244.219C226.037 244.208 225.763 243.983 225.69 243.67C225.616 243.357 225.762 243.034 226.045 242.881C229.584 240.975 230.878 239.736 231.34 239.031C231.969 238.075 232.209 237.243 232.055 236.558C231.866 235.716 231.398 235.034 230.624 234.475C229.879 233.938 229.123 233.765 228.315 233.947C227.326 234.169 226.499 234.696 225.788 235.557C224.996 236.513 224.024 237.737 222.814 239.298C222.64 239.521 222.351 239.621 222.077 239.551C221.802 239.482 221.595 239.257 221.549 238.977C221.363 237.848 221.294 236.758 221.343 235.736C221.386 234.829 221.322 233.987 221.153 233.234C220.907 232.141 220.437 231.366 219.716 230.864C219.015 230.378 218.154 230.258 217.085 230.498C216.092 230.721 215.42 231.195 215.032 231.944C214.622 232.738 214.543 233.66 214.792 234.765C214.937 235.41 215.2 236.155 215.573 236.98C215.972 237.86 216.372 238.881 216.764 240.014C216.857 240.284 216.78 240.584 216.568 240.775C216.356 240.967 216.05 241.013 215.791 240.892C214.158 240.131 212.751 239.433 211.609 238.819C210.623 238.29 209.608 238.153 208.508 238.4C207.698 238.583 207.089 239.062 206.646 239.867C206.187 240.702 206.055 241.518 206.245 242.361C206.4 243.052 206.961 243.707 207.912 244.308C208.609 244.749 210.279 245.318 214.289 245.525C214.611 245.542 214.881 245.773 214.948 246.088C215.015 246.403 214.862 246.724 214.575 246.87C210.962 248.71 209.714 249.932 209.303 250.634C208.728 251.614 208.517 252.465 208.674 253.165C208.864 254.01 209.332 254.691 210.104 255.247C210.848 255.785 211.604 255.958 212.415 255.776C213.511 255.529 214.363 254.959 215.02 254.033C215.779 252.963 216.751 251.711 217.909 250.312C218.046 250.146 218.248 250.054 218.457 250.054Z" fill="#101111"/>
<path d="M252.529 246.141C251.773 247.207 250.763 247.882 249.5 248.166C248.488 248.393 247.527 248.179 246.617 247.52C245.705 246.863 245.136 246.028 244.909 245.017C244.71 244.133 244.945 243.117 245.618 241.97C246.289 240.824 248.144 239.478 251.181 237.931C247.822 237.758 245.582 237.316 244.461 236.605C243.339 235.896 242.679 235.099 242.48 234.213C242.252 233.203 242.409 232.205 242.951 231.22C243.492 230.236 244.269 229.629 245.28 229.402C246.544 229.118 247.742 229.281 248.874 229.888C250.007 230.497 251.388 231.182 253.02 231.942C252.637 230.834 252.249 229.843 251.854 228.969C251.458 228.097 251.183 227.312 251.026 226.616C250.742 225.353 250.843 224.253 251.329 223.313C251.814 222.374 252.657 221.769 253.858 221.499C255.121 221.215 256.185 221.374 257.051 221.976C257.916 222.578 258.492 223.511 258.776 224.774C258.961 225.596 259.029 226.494 258.983 227.466C258.936 228.439 259.001 229.47 259.18 230.557C260.363 229.031 261.358 227.778 262.168 226.799C262.977 225.821 263.95 225.204 265.087 224.948C266.097 224.721 267.059 224.937 267.97 225.594C268.881 226.253 269.451 227.087 269.678 228.097C269.877 228.983 269.606 229.99 268.864 231.118C268.122 232.248 266.271 233.61 263.311 235.204C266.654 235.316 268.907 235.738 270.068 236.472C271.229 237.207 271.909 238.017 272.107 238.901C272.335 239.912 272.177 240.911 271.636 241.894C271.093 242.88 270.316 243.485 269.306 243.712C268.169 243.968 267.022 243.812 265.865 243.242C264.708 242.673 263.268 241.951 261.546 241.077C261.849 242.138 262.232 243.097 262.691 243.955C263.148 244.815 263.471 245.656 263.656 246.476C263.94 247.741 263.823 248.845 263.306 249.791C262.788 250.738 261.898 251.352 260.634 251.636C259.434 251.906 258.414 251.722 257.572 251.08C256.732 250.44 256.169 249.488 255.885 248.224C255.714 247.466 255.621 246.608 255.604 245.648C255.588 244.691 255.514 243.628 255.386 242.462C254.237 243.849 253.285 245.075 252.529 246.141Z" fill="white"/>
<path d="M259.61 252.468C258.686 252.468 257.859 252.193 257.141 251.646C256.168 250.905 255.511 249.806 255.19 248.38C255.01 247.579 254.91 246.664 254.893 245.661C254.885 245.226 254.865 244.762 254.833 244.272C254.172 245.104 253.595 245.868 253.11 246.552C252.252 247.761 251.09 248.538 249.656 248.86C248.441 249.133 247.278 248.876 246.2 248.097C245.149 247.339 244.481 246.355 244.215 245.173C243.975 244.11 244.241 242.911 245.004 241.61C245.568 240.646 246.799 239.605 248.743 238.453C246.546 238.207 245.01 237.796 244.08 237.206C242.799 236.396 242.027 235.442 241.785 234.369C241.52 233.188 241.703 232.013 242.328 230.877C242.97 229.71 243.911 228.98 245.125 228.708C246.553 228.386 247.927 228.573 249.211 229.261C249.946 229.656 250.796 230.088 251.749 230.55C251.568 230.092 251.386 229.662 251.206 229.263C250.792 228.35 250.498 227.512 250.332 226.773C250.012 225.348 250.134 224.074 250.696 222.986C251.282 221.856 252.293 221.122 253.702 220.805C255.161 220.477 256.424 220.674 257.457 221.392C258.47 222.096 259.147 223.182 259.47 224.618C259.667 225.495 259.742 226.464 259.693 227.499C259.674 227.9 259.675 228.315 259.696 228.739C260.436 227.799 261.071 227.009 261.62 226.345C262.527 225.248 263.641 224.544 264.931 224.254C266.143 223.981 267.306 224.238 268.386 225.017C269.439 225.779 270.107 226.762 270.372 227.941C270.614 229.018 270.307 230.218 269.458 231.509C268.845 232.444 267.615 233.476 265.723 234.641C267.928 234.855 269.485 235.261 270.448 235.871C271.769 236.707 272.561 237.674 272.802 238.745C273.067 239.925 272.884 241.101 272.259 242.237C271.617 243.404 270.676 244.134 269.462 244.407C268.166 244.698 266.85 244.521 265.55 243.88C264.763 243.493 263.852 243.039 262.793 242.505C262.954 242.896 263.13 243.268 263.318 243.62C263.806 244.536 264.153 245.445 264.35 246.32C264.672 247.752 264.53 249.034 263.93 250.132C263.313 251.261 262.256 252.001 260.79 252.33C260.381 252.422 259.987 252.468 259.61 252.468ZM255.386 241.75C255.454 241.75 255.522 241.76 255.59 241.78C255.863 241.862 256.062 242.1 256.093 242.384C256.224 243.579 256.299 244.673 256.316 245.636C256.331 246.543 256.42 247.361 256.579 248.068C256.828 249.173 257.294 249.973 258.003 250.514C258.674 251.025 259.484 251.165 260.478 250.942C261.542 250.702 262.263 250.214 262.682 249.449C263.117 248.653 263.209 247.731 262.962 246.632C262.793 245.881 262.49 245.093 262.063 244.29C261.582 243.39 261.177 242.375 260.861 241.273C260.784 241 260.874 240.708 261.093 240.528C261.311 240.348 261.615 240.314 261.868 240.442C263.622 241.332 265.032 242.039 266.179 242.603C267.195 243.104 268.166 243.239 269.15 243.018C269.96 242.836 270.569 242.356 271.012 241.551C271.472 240.716 271.603 239.9 271.413 239.057C271.258 238.367 270.677 237.7 269.687 237.073C268.968 236.618 267.274 236.048 263.288 235.915C262.966 235.904 262.692 235.679 262.618 235.366C262.545 235.053 262.691 234.73 262.974 234.577C266.513 232.671 267.807 231.432 268.269 230.727C268.898 229.771 269.138 228.939 268.984 228.253C268.794 227.412 268.326 226.73 267.553 226.17C266.808 225.634 266.052 225.461 265.243 225.642C264.255 225.865 263.428 226.391 262.717 227.252C261.927 228.207 260.954 229.431 259.742 230.994C259.569 231.217 259.28 231.317 259.005 231.247C258.731 231.178 258.524 230.952 258.478 230.673C258.292 229.543 258.222 228.453 258.272 227.431C258.315 226.525 258.251 225.683 258.082 224.93C257.836 223.837 257.366 223.062 256.645 222.56C255.944 222.073 255.083 221.953 254.014 222.194C253.02 222.417 252.349 222.89 251.961 223.64C251.551 224.433 251.472 225.356 251.72 226.461C251.865 227.106 252.128 227.851 252.502 228.676C252.901 229.557 253.301 230.578 253.693 231.71C253.786 231.98 253.709 232.28 253.497 232.471C253.284 232.663 252.979 232.709 252.719 232.588C251.087 231.826 249.68 231.129 248.537 230.515C247.551 229.986 246.536 229.849 245.437 230.096C244.627 230.279 244.018 230.758 243.575 231.563C243.115 232.398 242.984 233.214 243.174 234.057C243.329 234.748 243.89 235.403 244.841 236.004C245.537 236.445 247.208 237.014 251.218 237.221C251.539 237.238 251.81 237.469 251.877 237.784C251.944 238.099 251.791 238.42 251.504 238.566C247.89 240.406 246.642 241.628 246.232 242.33C245.657 243.31 245.446 244.161 245.603 244.861C245.793 245.706 246.261 246.387 247.033 246.943C247.777 247.481 248.533 247.654 249.344 247.472C250.44 247.225 251.292 246.655 251.949 245.729C252.708 244.659 253.679 243.407 254.837 242.008C254.975 241.842 255.177 241.75 255.386 241.75Z" fill="#101111"/>
<path d="M289.458 237.837C288.702 238.903 287.692 239.578 286.429 239.862C285.418 240.09 284.456 239.875 283.546 239.216C282.634 238.559 282.065 237.724 281.838 236.713C281.639 235.829 281.874 234.813 282.547 233.666C283.218 232.52 285.073 231.174 288.11 229.628C284.751 229.454 282.511 229.012 281.39 228.301C280.268 227.592 279.608 226.795 279.409 225.909C279.182 224.9 279.338 223.901 279.881 222.916C280.422 221.933 281.198 221.326 282.21 221.098C283.473 220.814 284.671 220.977 285.804 221.584C286.936 222.193 288.317 222.878 289.949 223.639C289.566 222.53 289.179 221.539 288.783 220.665C288.388 219.793 288.112 219.009 287.955 218.313C287.671 217.05 287.772 215.949 288.258 215.009C288.744 214.071 289.586 213.466 290.787 213.196C292.05 212.912 293.114 213.071 293.981 213.672C294.846 214.274 295.421 215.208 295.705 216.471C295.89 217.292 295.958 218.19 295.912 219.162C295.865 220.135 295.93 221.166 296.109 222.254C297.292 220.728 298.288 219.474 299.097 218.495C299.906 217.517 300.879 216.9 302.017 216.644C303.026 216.417 303.988 216.633 304.9 217.29C305.81 217.949 306.38 218.784 306.607 219.794C306.807 220.679 306.535 221.686 305.793 222.814C305.052 223.944 303.2 225.306 300.241 226.9C303.584 227.012 305.836 227.434 306.997 228.169C308.158 228.903 308.838 229.713 309.037 230.597C309.264 231.608 309.106 232.607 308.565 233.59C308.023 234.576 307.246 235.182 306.236 235.409C305.099 235.664 303.951 235.508 302.795 234.938C301.637 234.369 300.198 233.647 298.475 232.773C298.779 233.834 299.161 234.793 299.62 235.652C300.078 236.512 300.401 237.352 300.585 238.173C300.869 239.437 300.752 240.542 300.235 241.487C299.717 242.434 298.827 243.048 297.564 243.332C296.363 243.602 295.343 243.418 294.502 242.776C293.661 242.136 293.098 241.185 292.814 239.92C292.644 239.162 292.55 238.304 292.534 237.345C292.517 236.387 292.443 235.324 292.315 234.158C291.166 235.546 290.214 236.771 289.458 237.837Z" fill="white"/>
<path d="M296.538 244.164C295.614 244.164 294.787 243.889 294.07 243.342C293.096 242.601 292.44 241.502 292.119 240.076C291.939 239.275 291.839 238.36 291.822 237.357C291.814 236.922 291.794 236.458 291.762 235.968C291.101 236.8 290.524 237.563 290.038 238.249C289.181 239.458 288.019 240.234 286.585 240.556C285.369 240.83 284.206 240.573 283.128 239.793C282.077 239.036 281.409 238.052 281.143 236.869C280.904 235.806 281.17 234.607 281.933 233.306C282.497 232.342 283.728 231.301 285.672 230.149C283.475 229.904 281.939 229.492 281.009 228.902C279.728 228.093 278.955 227.138 278.714 226.065C278.449 224.885 278.631 223.71 279.257 222.573C279.899 221.406 280.839 220.677 282.053 220.404C283.482 220.083 284.856 220.269 286.14 220.957C286.876 221.353 287.725 221.784 288.677 222.246C288.496 221.788 288.315 221.358 288.134 220.959C287.721 220.046 287.427 219.209 287.261 218.469C286.94 217.044 287.063 215.77 287.625 214.682C288.21 213.552 289.222 212.818 290.63 212.501C292.09 212.173 293.353 212.371 294.386 213.088C295.399 213.793 296.076 214.878 296.399 216.314C296.596 217.192 296.671 218.161 296.622 219.196C296.603 219.597 296.604 220.011 296.625 220.435C297.365 219.495 298 218.705 298.548 218.042C299.456 216.944 300.57 216.24 301.86 215.95C303.072 215.677 304.234 215.934 305.315 216.713C306.368 217.475 307.036 218.459 307.301 219.637C307.543 220.714 307.236 221.915 306.387 223.205C305.774 224.14 304.544 225.173 302.652 226.338C304.857 226.551 306.413 226.957 307.377 227.567C308.698 228.403 309.49 229.37 309.73 230.441C309.996 231.622 309.813 232.797 309.188 233.934C308.546 235.1 307.605 235.83 306.391 236.103C305.095 236.394 303.779 236.217 302.479 235.576C301.69 235.188 300.779 234.734 299.722 234.201C299.883 234.592 300.059 234.964 300.247 235.316C300.735 236.233 301.082 237.141 301.278 238.016C301.6 239.448 301.459 240.731 300.859 241.829C300.241 242.957 299.185 243.697 297.719 244.027C297.31 244.118 296.916 244.164 296.538 244.164ZM292.314 233.446C292.382 233.446 292.451 233.456 292.518 233.476C292.792 233.558 292.991 233.796 293.022 234.08C293.153 235.275 293.228 236.369 293.245 237.333C293.26 238.239 293.349 239.057 293.508 239.764C293.756 240.869 294.222 241.67 294.932 242.21C295.603 242.722 296.413 242.861 297.407 242.638C298.471 242.399 299.192 241.91 299.61 241.145C300.046 240.349 300.138 239.428 299.89 238.329C299.722 237.577 299.419 236.789 298.991 235.986C298.51 235.087 298.106 234.071 297.79 232.969C297.712 232.697 297.803 232.404 298.021 232.224C298.24 232.044 298.544 232.01 298.796 232.138C300.522 233.014 301.973 233.741 303.108 234.299C304.123 234.8 305.095 234.936 306.079 234.714C306.889 234.532 307.498 234.052 307.941 233.247C308.4 232.412 308.532 231.596 308.342 230.753C308.187 230.064 307.606 229.396 306.616 228.77C305.897 228.315 304.203 227.744 300.216 227.611C299.895 227.6 299.621 227.376 299.547 227.063C299.474 226.749 299.62 226.426 299.903 226.273C303.442 224.367 304.736 223.128 305.198 222.424C305.827 221.468 306.067 220.635 305.913 219.95C305.723 219.108 305.255 218.426 304.482 217.867C303.737 217.33 302.981 217.157 302.172 217.339C301.183 217.561 300.357 218.088 299.645 218.949C298.855 219.903 297.883 221.127 296.671 222.69C296.498 222.913 296.209 223.013 295.934 222.944C295.66 222.874 295.453 222.649 295.407 222.369C295.221 221.24 295.151 220.149 295.201 219.128C295.244 218.221 295.18 217.379 295.01 216.627C294.765 215.533 294.295 214.758 293.574 214.257C292.873 213.77 292.012 213.649 290.943 213.89C289.949 214.113 289.277 214.587 288.889 215.336C288.48 216.129 288.401 217.052 288.649 218.157C288.794 218.802 289.057 219.548 289.431 220.372C289.829 221.252 290.23 222.273 290.622 223.407C290.715 223.677 290.638 223.976 290.425 224.167C290.213 224.359 289.907 224.405 289.648 224.284C288.016 223.523 286.609 222.826 285.466 222.211C284.48 221.682 283.465 221.545 282.365 221.793C281.555 221.975 280.946 222.454 280.504 223.259C280.044 224.094 279.913 224.91 280.103 225.753C280.258 226.444 280.819 227.099 281.77 227.7C282.466 228.141 284.137 228.71 288.146 228.917C288.468 228.934 288.739 229.165 288.806 229.48C288.873 229.795 288.72 230.116 288.433 230.262C284.819 232.102 283.571 233.324 283.161 234.026C282.586 235.006 282.375 235.857 282.532 236.557C282.722 237.402 283.189 238.083 283.961 238.639C284.706 239.177 285.462 239.35 286.273 239.168C287.369 238.922 288.221 238.352 288.877 237.425C289.637 236.354 290.609 235.102 291.766 233.704C291.904 233.538 292.106 233.446 292.314 233.446Z" fill="#101111"/>
<path d="M223.317 270.187C222.991 270.187 222.697 269.961 222.623 269.63C222.538 269.246 222.779 268.866 223.163 268.78L327.824 245.449C337.787 243.242 345.035 238.567 348.786 231.932C352.176 225.935 352.562 218.579 349.905 210.658C349.78 210.285 349.98 209.882 350.353 209.757C350.725 209.632 351.129 209.832 351.254 210.205C354.044 218.519 353.619 226.274 350.025 232.632C346.07 239.629 338.5 244.541 328.133 246.838L223.472 270.169C223.42 270.181 223.368 270.187 223.317 270.187Z" fill="#101111"/>
<path d="M99.3277 156.524C83.3638 170.701 67.1397 180.104 45.0361 187.425C45.1936 188.873 46.0706 196.937 50.0914 233.909C55.4552 283.23 107.214 301.743 115.245 304.575C122.252 300.488 169.166 270.792 163.803 221.471C159.782 184.499 158.905 176.435 158.747 174.987C135.59 172.617 116.094 166.248 99.3277 156.524Z" fill="#2CD997"/>
<path d="M115.245 305.287C115.166 305.287 115.086 305.273 115.009 305.246C99.382 299.737 88.0181 292.414 81.2367 287.241C72.8587 280.851 65.9865 273.621 60.8108 265.751C54.4728 256.114 50.6283 245.427 49.3841 233.987L44.3288 187.502C44.2926 187.169 44.4941 186.855 44.8125 186.75C66.5069 179.565 82.6692 170.366 98.8553 155.993C99.0849 155.789 99.4193 155.755 99.6849 155.909C108.13 160.807 117.271 164.819 126.855 167.835C136.772 170.955 147.526 173.124 158.82 174.279C159.154 174.314 159.419 174.577 159.455 174.91L164.51 221.395C170.004 271.907 121.188 301.932 115.604 305.19C115.494 305.254 115.37 305.287 115.245 305.287ZM45.8058 187.919L50.799 233.833C52.0186 245.047 55.7871 255.522 61.9998 264.969C67.0872 272.704 73.8499 279.817 82.0999 286.11C88.7549 291.186 99.8787 298.359 115.17 303.794C121.856 299.836 168.409 270.405 163.095 221.549L158.102 175.636C146.922 174.456 136.268 172.289 126.427 169.192C116.912 166.198 107.827 162.231 99.4159 157.397C83.3396 171.593 67.2518 180.753 45.8058 187.919Z" fill="#101111"/>
<path d="M137.596 210.238L129.986 204.18C129.953 204.154 128.047 206.643 128.021 206.677L101.34 240.197C101.313 240.23 101.265 240.236 101.231 240.209L81.2261 224.285C81.1926 224.258 81.144 224.264 81.1175 224.297L75.0599 231.906C75.0332 231.94 75.0388 231.988 75.0722 232.015L95.139 247.986L95.138 247.987C95.1114 248.021 95.117 248.069 95.1503 248.096L102.76 254.153C102.794 254.18 102.842 254.174 102.869 254.141L102.928 254.189L109.035 246.517C109.061 246.484 109.056 246.437 109.024 246.41L109.023 246.409L135.752 212.83C135.778 212.797 137.63 210.264 137.596 210.238Z" fill="white"/>
<path d="M102.928 254.9C102.871 254.9 102.814 254.893 102.759 254.88C102.598 254.87 102.445 254.812 102.317 254.709L94.7069 248.652C94.6119 248.576 94.5372 248.482 94.4863 248.376L74.6288 232.571C74.2886 232.3 74.232 231.803 74.5026 231.463L80.5604 223.854C80.8318 223.513 81.329 223.457 81.669 223.728L101.178 239.257L127.464 206.233L127.539 206.135C127.723 205.896 128.182 205.299 128.601 204.76C128.813 204.489 129.014 204.232 129.166 204.043C129.469 203.667 129.594 203.511 129.898 203.473C130.088 203.451 130.279 203.504 130.429 203.623L138.039 209.681L138.039 209.681C138.16 209.777 138.523 210.139 138.121 210.747C138.071 210.823 137.998 210.93 137.908 211.057C137.756 211.276 137.542 211.575 137.273 211.947C136.865 212.513 136.342 213.23 136.308 213.273L109.742 246.647C109.717 246.758 109.667 246.866 109.591 246.961L103.485 254.632C103.367 254.78 103.194 254.875 103.006 254.896C102.98 254.899 102.954 254.9 102.928 254.9ZM95.788 247.693L102.767 253.249L108.326 246.265C108.347 246.159 108.394 246.056 108.466 245.965L135.189 212.394C135.322 212.215 136.16 211.065 136.641 210.386L130.088 205.17C129.824 205.504 129.388 206.065 128.667 207.002C128.613 207.073 128.58 207.115 128.577 207.12L101.896 240.639C101.765 240.804 101.578 240.908 101.368 240.932C101.159 240.955 100.953 240.896 100.788 240.765L81.2789 225.236L76.0114 231.853L95.582 247.429C95.6739 247.502 95.7428 247.593 95.788 247.693ZM95.6999 248.423C95.6983 248.425 95.6965 248.427 95.695 248.43C95.6966 248.427 95.6982 248.425 95.6999 248.423Z" fill="#101111"/>
<path d="M56.0839 237.803C55.7255 237.803 55.417 237.533 55.3774 237.168L50.3221 190.684C50.2858 190.351 50.4873 190.037 50.8058 189.932C69.0758 183.881 83.2765 176.454 96.8502 165.851C97.16 165.609 97.6073 165.664 97.8491 165.974C98.0911 166.284 98.0361 166.731 97.7263 166.973C84.1536 177.575 69.9689 185.029 51.799 191.101L56.7921 237.014C56.8346 237.405 56.5523 237.756 56.1617 237.799C56.1356 237.802 56.1096 237.803 56.0839 237.803Z" fill="#101111"/>
</svg>
