<svg width="40" height="40" viewBox="0 0 40 40" fill="none" xmlns="http://www.w3.org/2000/svg">
<path d="M30 11.9333C29.9 11.9166 29.7833 11.9166 29.6833 11.9333C27.3833 11.8499 25.55 9.96659 25.55 7.63325C25.55 5.24992 27.4667 3.33325 29.85 3.33325C32.2333 3.33325 34.15 5.26659 34.15 7.63325C34.1333 9.96659 32.3 11.8499 30 11.9333Z" stroke="#616161" stroke-width="1.5" stroke-linecap="round" stroke-linejoin="round"/>
<path d="M28.2833 24.0666C30.5667 24.4499 33.0833 24.0499 34.85 22.8666C37.2 21.2999 37.2 18.7333 34.85 17.1666C33.0667 15.9833 30.5167 15.5833 28.2333 15.9833" stroke="#616161" stroke-width="1.5" stroke-linecap="round" stroke-linejoin="round"/>
<path d="M9.95005 11.9333C10.0501 11.9166 10.1667 11.9166 10.2667 11.9333C12.5667 11.8499 14.4 9.96659 14.4 7.63325C14.4 5.24992 12.4834 3.33325 10.1001 3.33325C7.71672 3.33325 5.80005 5.26659 5.80005 7.63325C5.81672 9.96659 7.65005 11.8499 9.95005 11.9333Z" stroke="#616161" stroke-width="1.5" stroke-linecap="round" stroke-linejoin="round"/>
<path d="M11.6667 24.0666C9.38336 24.4499 6.86669 24.0499 5.10002 22.8666C2.75002 21.2999 2.75002 18.7333 5.10002 17.1666C6.88336 15.9833 9.43335 15.5833 11.7167 15.9833" stroke="#616161" stroke-width="1.5" stroke-linecap="round" stroke-linejoin="round"/>
<path d="M20 24.3835C19.9 24.3668 19.7833 24.3668 19.6833 24.3835C17.3833 24.3001 15.55 22.4168 15.55 20.0835C15.55 17.7001 17.4667 15.7834 19.85 15.7834C22.2333 15.7834 24.15 17.7168 24.15 20.0835C24.1333 22.4168 22.3 24.3168 20 24.3835Z" stroke="#616161" stroke-width="1.5" stroke-linecap="round" stroke-linejoin="round"/>
<path d="M15.15 29.6333C12.8 31.2 12.8 33.7667 15.15 35.3333C17.8167 37.1167 22.1833 37.1167 24.85 35.3333C27.2 33.7667 27.2 31.2 24.85 29.6333C22.2 27.8667 17.8167 27.8667 15.15 29.6333Z" stroke="#616161" stroke-width="1.5" stroke-linecap="round" stroke-linejoin="round"/>
</svg>
