<svg width="32" height="32" viewBox="0 0 14 13" fill="none" xmlns="http://www.w3.org/2000/svg">
    <path d="M6.78518 9.94771C6.78518 10.0886 6.671 10.2028 6.5301 10.2028C6.38921 10.2028 6.27502 10.0886 6.27502 9.94771C6.27502 9.80681 6.38921 9.69263 6.5301 9.69263C6.671 9.69263 6.78518 9.80681 6.78518 9.94771Z" fill="#424242"/>
    <path d="M12.2183 7.6523C12.2183 6.80835 11.5318 6.12183 10.6878 6.12183C9.84387 6.12183 9.15735 6.80835 9.15735 7.6523C9.15735 8.49626 9.84387 9.18278 10.6878 9.18278C11.5318 9.18278 12.2183 8.49626 12.2183 7.6523ZM10.6878 8.67262C10.1253 8.67262 9.66751 8.21487 9.66751 7.6523C9.66751 7.08973 10.1253 6.63198 10.6878 6.63198C11.2504 6.63198 11.7081 7.08973 11.7081 7.6523C11.7081 8.21487 11.2504 8.67262 10.6878 8.67262Z" fill="#424242"/>
    <path d="M10.6878 9.18277C10.045 9.18277 9.40406 9.4496 8.96743 9.88224C8.39271 9.12697 7.5065 8.67261 6.53003 8.67261C5.5949 8.67261 4.68878 9.09927 4.09273 9.88224C3.656 9.4497 3.01512 9.18277 2.37224 9.18277C1.08638 9.18277 0 10.2341 0 11.4785V11.9886C0 12.1295 0.114188 12.2437 0.255079 12.2437H12.805C12.9459 12.2437 13.0601 12.1295 13.0601 11.9886V11.4785C13.0601 10.2341 11.9737 9.18277 10.6878 9.18277ZM0.510159 11.4785C0.510159 10.5106 1.36288 9.69292 2.37224 9.69292C2.92454 9.69292 3.47227 9.93764 3.81134 10.3266C3.58715 10.7597 3.46908 11.2423 3.46908 11.7336H0.510159V11.4785ZM6.53003 9.18277C7.94941 9.18277 9.08082 10.3344 9.08082 11.7336H3.97924C3.97924 10.3158 5.13377 9.18277 6.53003 9.18277ZM12.5499 11.7336H9.59098C9.59098 11.2423 9.47291 10.7597 9.24872 10.3266C9.58779 9.93764 10.1355 9.69292 10.6878 9.69292C11.6972 9.69292 12.5499 10.5106 12.5499 11.4785V11.7336Z" fill="#424242"/>
    <path d="M3.90263 7.6523C3.90263 6.80835 3.2161 6.12183 2.37215 6.12183C1.5282 6.12183 0.841675 6.80835 0.841675 7.6523C0.841675 8.49626 1.5282 9.18278 2.37215 9.18278C3.2161 9.18278 3.90263 8.49626 3.90263 7.6523ZM2.37215 8.67262C1.80958 8.67262 1.35183 8.21487 1.35183 7.6523C1.35183 7.08973 1.80958 6.63198 2.37215 6.63198C2.93472 6.63198 3.39247 7.08973 3.39247 7.6523C3.39247 8.21487 2.93472 8.67262 2.37215 8.67262Z" fill="#424242"/>
    <path d="M8.57065 6.6317C8.57065 5.50646 7.65525 4.59106 6.53001 4.59106C5.40478 4.59106 4.48938 5.50646 4.48938 6.6317C4.48938 7.75694 5.40478 8.67233 6.53001 8.67233C7.65525 8.67233 8.57065 7.75694 8.57065 6.6317ZM6.53001 8.16217C5.68606 8.16217 4.99954 7.47565 4.99954 6.6317C4.99954 5.78774 5.68606 5.10122 6.53001 5.10122C7.37397 5.10122 8.06049 5.78774 8.06049 6.6317C8.06049 7.47565 7.37397 8.16217 6.53001 8.16217Z" fill="#424242"/>
    <path d="M8.54872 1.48355C8.51872 1.39118 8.43891 1.32392 8.34276 1.30997L7.24253 1.15025L6.74991 0.143084C6.70716 0.0554997 6.61828 0 6.52084 0C6.42339 0 6.33451 0.0554997 6.29166 0.142984L5.79914 1.15025L4.69891 1.30987C4.60276 1.32382 4.52295 1.39118 4.49296 1.48355C4.46296 1.57591 4.48797 1.67725 4.55752 1.745L5.35425 2.5215L5.16622 3.61804C5.14978 3.7137 5.18914 3.81045 5.26776 3.86744C5.34588 3.92424 5.4499 3.93231 5.53639 3.88687L6.52084 3.36924L7.50568 3.88687C7.59157 3.93211 7.69569 3.92453 7.77431 3.86744C7.85283 3.81035 7.89219 3.7137 7.87575 3.61794L7.68752 2.5215L8.48415 1.745C8.5537 1.67725 8.57871 1.57591 8.54872 1.48355ZM7.23526 2.24978C7.17517 2.30837 7.14767 2.39286 7.16192 2.47556L7.28538 3.19487L6.63951 2.85529C6.56518 2.81623 6.4764 2.81623 6.40206 2.85529L5.75639 3.19487L5.87975 2.47556C5.8939 2.39276 5.8664 2.30837 5.80631 2.24978L5.2838 1.74052L6.00569 1.6357C6.08919 1.62364 6.16123 1.57103 6.1982 1.4953L6.52084 0.835684L6.84337 1.4953C6.88044 1.57113 6.95248 1.62364 7.03588 1.6357L7.75787 1.74052L7.23526 2.24978Z" fill="#424242"/>
    <path d="M12.3614 3.39529C12.3314 3.30292 12.2516 3.23566 12.1555 3.22171L11.4101 3.1134L11.0768 2.43784C11.0338 2.35076 10.9452 2.29565 10.8481 2.29565C10.8481 2.29565 10.8481 2.29565 10.848 2.29565C10.7509 2.29565 10.6623 2.35076 10.6193 2.43784L10.2858 3.1134L9.54031 3.22171C9.44425 3.23566 9.36444 3.30292 9.33445 3.39529C9.30436 3.48765 9.32937 3.58899 9.39892 3.65674L9.93827 4.18274L9.81093 4.92506C9.79459 5.02072 9.83385 5.11737 9.91246 5.17446C9.99098 5.23156 10.0951 5.23913 10.181 5.19399L10.848 4.84356L11.5148 5.19399C11.6007 5.23913 11.7049 5.23156 11.7834 5.17446C11.8619 5.11747 11.9012 5.02072 11.8848 4.92506L11.7575 4.18274L12.297 3.65674C12.3665 3.58899 12.3914 3.48765 12.3614 3.39529ZM11.3054 3.91112C11.2453 3.96971 11.2178 4.05411 11.2321 4.13681L11.2947 4.50189L10.9668 4.32961C10.8924 4.29055 10.8036 4.29055 10.7294 4.32961L10.4012 4.50199L10.4639 4.13681C10.478 4.05411 10.4506 3.96971 10.3905 3.91112L10.1251 3.65226L10.4919 3.59905C10.575 3.58699 10.6468 3.53478 10.684 3.45955L10.848 3.12725L11.0119 3.45945C11.0491 3.53478 11.1209 3.58699 11.204 3.59905L11.5708 3.65226L11.3054 3.91112Z" fill="#424242"/>
    <path d="M3.68869 3.39529C3.6587 3.30292 3.57889 3.23566 3.48274 3.22171L2.73733 3.1134L2.40403 2.43784C2.36108 2.35076 2.2725 2.29565 2.17536 2.29565C2.07821 2.29565 1.98953 2.35076 1.94658 2.43784L1.61308 3.1134L0.867576 3.22171C0.771522 3.23566 0.691711 3.30292 0.661719 3.39529C0.631627 3.48765 0.656637 3.58899 0.726186 3.65674L1.26554 4.18274L1.1383 4.92506C1.12186 5.02072 1.16122 5.11737 1.23973 5.17446C1.31825 5.23156 1.42237 5.23913 1.50836 5.19399L2.17526 4.84356L2.84205 5.19399C2.92854 5.23943 3.03256 5.23126 3.11068 5.17446C3.1892 5.11747 3.22855 5.02072 3.21211 4.92506L3.08477 4.18274L3.62423 3.65674C3.69377 3.58899 3.71868 3.48765 3.68869 3.39529ZM2.6326 3.91112C2.57252 3.96971 2.54512 4.05411 2.55927 4.13681L2.62194 4.50189L2.29393 4.32961C2.2197 4.29055 2.13092 4.29055 2.05668 4.32961L1.72837 4.50199L1.79104 4.13681C1.80529 4.05411 1.77779 3.96971 1.71771 3.91112L1.45227 3.65226L1.81914 3.59905C1.90214 3.58699 1.97398 3.53478 2.01115 3.45955L2.17516 3.12725L2.33906 3.45945C2.37623 3.53478 2.44807 3.58699 2.53117 3.59905L2.89795 3.65226L2.6326 3.91112Z" fill="#424242"/>
    <path d="M7.64775 10.0266C7.52997 9.94916 7.37184 9.98194 7.29452 10.0997C7.2171 10.2174 7.24988 10.3755 7.36766 10.4529C7.60351 10.6079 7.79202 10.8239 7.91279 11.0776C7.97317 11.2046 8.12522 11.2589 8.25266 11.1982C8.3799 11.1378 8.43391 10.9855 8.37343 10.8584C8.21261 10.5204 7.96161 10.2327 7.64775 10.0266Z" fill="#424242"/>
</svg>