<svg width="48" height="48" viewBox="0 0 48 48" fill="none" xmlns="http://www.w3.org/2000/svg">
<path d="M24 24.708L19.8545 28.8535C19.7568 28.9512 19.6396 29 19.5029 29C19.3597 29 19.2393 28.9528 19.1416 28.8584C19.0472 28.7607 19 28.6403 19 28.4971C19 28.3604 19.0488 28.2432 19.1465 28.1455L23.292 24L19.1465 19.8545C19.0488 19.7568 19 19.638 19 19.498C19 19.4297 19.013 19.3646 19.0391 19.3027C19.0651 19.2409 19.1009 19.1888 19.1465 19.1465C19.1921 19.1009 19.2458 19.0651 19.3076 19.0391C19.3695 19.013 19.4346 19 19.5029 19C19.6396 19 19.7568 19.0488 19.8545 19.1465L24 23.292L28.1455 19.1465C28.2432 19.0488 28.362 19 28.502 19C28.5703 19 28.6338 19.013 28.6924 19.0391C28.7542 19.0651 28.8079 19.1009 28.8535 19.1465C28.8991 19.1921 28.9349 19.2458 28.9609 19.3076C28.987 19.3662 29 19.4297 29 19.498C29 19.638 28.9512 19.7568 28.8535 19.8545L24.708 24L28.8535 28.1455C28.9512 28.2432 29 28.3604 29 28.4971C29 28.5654 28.987 28.6305 28.9609 28.6924C28.9349 28.7542 28.8991 28.8079 28.8535 28.8535C28.8112 28.8991 28.7591 28.9349 28.6973 28.9609C28.6354 28.987 28.5703 29 28.502 29C28.362 29 28.2432 28.9512 28.1455 28.8535L24 24.708Z" fill="#242424"/>
</svg>
