<svg width="32" height="32" viewBox="0 0 15 15" fill="none" xmlns="http://www.w3.org/2000/svg">
    <path d="M13.2809 8.72712H13.0916V7.24493C13.0916 6.47748 12.4672 5.85312 11.6997 5.85312H6.51906C6.51912 5.84667 6.51953 5.84022 6.51953 5.83377C6.51953 4.5904 5.50798 3.57886 4.26462 3.57886C3.95399 3.57886 3.65303 3.64093 3.37009 3.76332C3.2587 3.8115 3.20744 3.94086 3.25565 4.05226C3.30383 4.16366 3.43322 4.21495 3.54459 4.16671C3.77213 4.06829 4.01436 4.01838 4.26462 4.01838C5.26564 4.01838 6.08001 4.83275 6.08001 5.83377C6.08001 5.84019 6.07963 5.84667 6.07957 5.85312H5.04466L4.45995 4.71889C4.42226 4.64577 4.34688 4.59981 4.26462 4.59981C4.18235 4.59981 4.10697 4.64577 4.06928 4.71889L3.48457 5.85312H2.44955C2.44949 5.84667 2.44922 5.84022 2.44922 5.83377C2.44922 5.43648 2.57516 5.05927 2.8134 4.74289C2.8864 4.64594 2.867 4.50814 2.77005 4.43513C2.67307 4.3621 2.5353 4.38153 2.4623 4.47848C2.1662 4.87167 2.0097 5.34032 2.0097 5.83377C2.0097 5.84019 2.00996 5.84667 2.01002 5.85312H1.39181C0.624366 5.85312 0 6.47748 0 7.24493V13.6137C0 14.3811 0.624366 15.0055 1.39181 15.0055H8.92723C9.04862 15.0055 9.147 14.9071 9.147 14.7857C9.147 14.6643 9.04862 14.5659 8.92723 14.5659H1.39181C0.866709 14.5659 0.439524 14.1387 0.439524 13.6136V12.906H1.96275C2.06837 12.906 2.1677 12.8649 2.24246 12.7902L2.63914 12.3935H3.24173C3.31576 12.5139 3.44829 12.5944 3.59998 12.5944C3.83233 12.5944 4.02069 12.4061 4.02069 12.1737C4.02069 11.9414 3.83233 11.753 3.59998 11.753C3.44829 11.753 3.31573 11.8336 3.24173 11.954H2.62097C2.51528 11.954 2.41593 11.9952 2.34126 12.0698L1.94458 12.4665H0.439495V11.4238H4.63383C4.70786 11.5442 4.84039 11.6248 4.99209 11.6248C5.22444 11.6248 5.41279 11.4364 5.41279 11.2041C5.41279 10.9717 5.22444 10.7834 4.99209 10.7834C4.84039 10.7834 4.70786 10.8639 4.63383 10.9843H0.439495V9.92817H2.36171L2.79705 10.3635C2.87178 10.4382 2.9711 10.4794 3.07673 10.4794H5.91677C5.9908 10.5998 6.12332 10.6803 6.27502 10.6803C6.50737 10.6803 6.69573 10.492 6.69573 10.2596C6.69573 10.0273 6.50737 9.8389 6.27502 9.8389C6.12332 9.8389 5.9908 9.91947 5.91677 10.0399H3.09493L2.65962 9.60456C2.58492 9.52985 2.48557 9.48871 2.37991 9.48871H0.439495V8.73363H2.54418L2.94083 9.13028C3.01553 9.20501 3.11488 9.24616 3.22057 9.24616H3.79315C3.86718 9.36655 3.99971 9.44712 4.1514 9.44712C4.38375 9.44712 4.57211 9.25876 4.57211 9.02641C4.57211 8.79406 4.38375 8.6057 4.1514 8.6057C3.99971 8.6057 3.86718 8.68627 3.79315 8.80666H3.2388L2.84215 8.41002C2.76744 8.33528 2.66809 8.29414 2.56241 8.29414H0.439495V7.24502C0.439495 6.71991 0.866709 6.29273 1.39178 6.29273H11.6998C12.2249 6.29273 12.6521 6.71994 12.6521 7.24502V8.72721H8.75176C8.30746 8.72721 7.94598 9.08869 7.94598 9.53299V11.3257C7.94598 11.7701 8.30746 12.1315 8.75176 12.1315H12.6521V13.6137C12.6521 14.1388 12.2249 14.566 11.6998 14.566H10.0846C9.96319 14.566 9.8648 14.6644 9.8648 14.7858C9.8648 14.9072 9.96319 15.0055 10.0846 15.0055H11.6998C12.4672 15.0055 13.0916 14.3811 13.0916 13.6137V12.1315H13.2809C13.7252 12.1315 14.0867 11.77 14.0867 11.3257V9.53293C14.0867 9.0886 13.7252 8.72712 13.2809 8.72712ZM4.26459 5.29918L4.55013 5.85309H3.97904L4.26459 5.29918ZM13.6472 11.3257C13.6472 11.5276 13.4829 11.6919 13.2809 11.6919H8.75176C8.54981 11.6919 8.38551 11.5276 8.38551 11.3257V9.53293C8.38551 9.33097 8.54981 9.16668 8.75176 9.16668H13.2809C13.4829 9.16668 13.6472 9.33097 13.6472 9.53293L13.6472 11.3257Z" fill="#424242"/>
    <path d="M9.84993 9.55737C9.40639 9.55737 9.04553 9.91824 9.04553 10.3618C9.04553 10.8053 9.40639 11.1662 9.84993 11.1662C10.2935 11.1662 10.6544 10.8053 10.6544 10.3618C10.6544 9.91824 10.2935 9.55737 9.84993 9.55737ZM9.84993 10.7267C9.64874 10.7267 9.48506 10.563 9.48506 10.3618C9.48506 10.1606 9.64874 9.9969 9.84993 9.9969C10.0511 9.9969 10.2148 10.1606 10.2148 10.3618C10.2148 10.563 10.0511 10.7267 9.84993 10.7267Z" fill="#424242"/>
    <path d="M7.84937 4.44225C7.86731 4.44673 7.88527 4.4489 7.903 4.4489C8.00142 4.4489 8.09098 4.38231 8.11598 4.28252C8.14552 4.16479 8.07401 4.04543 7.95628 4.01591C7.14825 3.81334 6.58393 3.08918 6.58393 2.25492C6.58393 1.25389 7.3983 0.439524 8.39935 0.439524C8.96496 0.439524 9.49642 0.705665 9.83759 1.14727C9.61934 1.25849 9.42139 1.40394 9.25118 1.57695C9.12304 1.49307 8.97305 1.4477 8.81745 1.4477H8.24461C8.1612 1.4477 8.08497 1.49491 8.04784 1.56962L7.82343 2.02093H7.40618C7.28479 2.02093 7.18641 2.11931 7.18641 2.24067C7.18641 2.36203 7.28479 2.46042 7.40618 2.46042H7.60492L7.47781 2.71607C7.44393 2.78418 7.44771 2.86498 7.4878 2.92966C7.52787 2.99434 7.59853 3.03367 7.67461 3.03367H8.60635C8.60413 3.07459 8.60284 3.11576 8.60284 3.1572C8.60284 4.40057 9.61441 5.41212 10.8578 5.41212C12.1011 5.41212 13.1127 4.40057 13.1127 3.1572C13.1127 1.91384 12.1011 0.902289 10.8578 0.902289C10.6513 0.902289 10.4514 0.930746 10.2612 0.983001C9.84316 0.372674 9.14526 0 8.39935 0C7.15599 0 6.14441 1.01155 6.14441 2.25492C6.14441 3.29111 6.84553 4.19059 7.84937 4.44225ZM8.02929 2.59415L8.38077 1.88719H8.81745C8.87167 1.88719 8.92431 1.89965 8.97202 1.92289C8.83838 2.12634 8.73636 2.3523 8.67397 2.59415H8.02929ZM12.6731 3.15723C12.6731 4.15826 11.8587 4.97263 10.8577 4.97263C9.85667 4.97263 9.04227 4.15826 9.04227 3.15723C9.04227 2.15621 9.85664 1.34184 10.8577 1.34184C11.8587 1.34184 12.6731 2.15621 12.6731 3.15723Z" fill="#424242"/>
    <path d="M10.478 4.14302H10.479C10.4791 4.14302 10.8881 4.1412 11.0008 4.1412C11.3494 4.1412 11.633 3.85762 11.633 3.50904C11.633 3.31933 11.5486 3.14932 11.4158 3.03335C11.4661 2.94827 11.4954 2.84944 11.4954 2.7437C11.4954 2.42812 11.2387 2.17139 10.9231 2.17139H10.4781C10.3567 2.17139 10.2583 2.26977 10.2583 2.39113V3.92327C10.2583 3.98174 10.2816 4.03777 10.323 4.07901C10.3642 4.12001 10.4199 4.14302 10.478 4.14302ZM11.0008 3.70168C10.9445 3.70168 10.8143 3.70214 10.6978 3.70258V3.31663L11.0008 3.3164C11.107 3.3164 11.1935 3.40283 11.1935 3.50904C11.1934 3.61528 11.107 3.70168 11.0008 3.70168ZM10.9231 2.61091C10.9964 2.61091 11.0559 2.67046 11.0559 2.7437C11.0559 2.81691 10.9963 2.87647 10.9231 2.87647C10.8902 2.87647 10.6978 2.87688 10.6978 2.87688V2.61091H10.9231Z" fill="#424242"/>
</svg>