<svg width="25" height="25" viewBox="0 0 25 25" fill="none" xmlns="http://www.w3.org/2000/svg">
<path fill-rule="evenodd" clip-rule="evenodd" d="M10.4321 0.173231C3.67632 1.30976 -0.93692 7.74006 0.161849 14.4885C1.27181 21.3056 7.68981 25.9426 14.4848 24.837C21.3068 23.727 25.9433 17.3141 24.8368 10.5188C23.7239 3.68424 17.2406 -0.972085 10.4321 0.173231ZM12.3207 5.35331L12.025 6.02191L12.4602 5.98486C12.864 5.95033 12.9125 5.90233 13.1346 5.31614L13.3739 4.6846H14.0798C14.468 4.6846 14.7857 4.70481 14.7857 4.72959C14.7857 4.75437 14.7044 5.00482 14.6052 5.28607C14.5059 5.56732 14.4247 5.83882 14.4247 5.88922C14.4247 5.93975 15.3859 6.00506 16.5606 6.03454C18.3763 6.08001 18.7958 6.1268 19.3583 6.34622C20.241 6.69062 20.8614 7.22304 21.256 7.97475C21.5346 8.50537 21.5814 8.74066 21.5828 9.61664C21.5843 10.49 21.5366 10.7356 21.2565 11.3008C20.7606 12.3008 19.7506 13.3435 18.4893 14.1576C16.5125 15.4336 15.2503 15.9512 12.2586 16.7129C11.1666 16.9909 10.2379 17.2753 10.1949 17.3448C10.1518 17.4143 9.71888 18.6 9.23261 19.9797C8.74646 21.3592 8.32133 22.4876 8.28799 22.4869C8.25466 22.4863 7.83638 21.3762 7.35829 20.02L6.48924 17.5543L7.91628 13.4351L9.34344 9.31591L11.2222 9.28283C12.2555 9.26454 13.101 9.26454 13.1009 9.28283C13.1007 9.30099 12.6195 10.6421 12.0313 12.2631C11.443 13.8841 11.0051 15.2268 11.0582 15.2469C11.2487 15.3192 13.0544 14.6421 14.0602 14.1214C16.2673 12.9785 17.1923 11.8426 17.1923 10.2752C17.1923 9.6917 17.1354 9.45641 16.9315 9.1973C16.3748 8.48985 16.2904 8.47938 10.589 8.4137L5.36942 8.35356L4.9675 7.21077C4.74645 6.58223 4.56366 6.05451 4.56137 6.03791C4.55909 6.0213 5.92825 6.00783 7.60378 6.00783H10.6504L10.8589 5.34622L11.0676 4.6846H11.8421H12.6166L12.3207 5.35331Z" fill="white"/>
</svg>
