<svg width="21" height="21" viewBox="0 0 21 21" fill="none" xmlns="http://www.w3.org/2000/svg">
<path d="M10.5 16.1875C13.6411 16.1875 16.1875 13.6411 16.1875 10.5C16.1875 7.35888 13.6411 4.8125 10.5 4.8125C7.35888 4.8125 4.8125 7.35888 4.8125 10.5C4.8125 13.6411 7.35888 16.1875 10.5 16.1875Z" stroke="white" stroke-width="1.3125" stroke-linecap="round" stroke-linejoin="round"/>
<path d="M16.7475 16.7475L16.6338 16.6338M16.6338 4.36625L16.7475 4.2525L16.6338 4.36625ZM4.2525 16.7475L4.36625 16.6338L4.2525 16.7475ZM10.5 1.82V1.75V1.82ZM10.5 19.25V19.18V19.25ZM1.82 10.5H1.75H1.82ZM19.25 10.5H19.18H19.25ZM4.36625 4.36625L4.2525 4.2525L4.36625 4.36625Z" stroke="white" stroke-width="1.75" stroke-linecap="round" stroke-linejoin="round"/>
</svg>
