<svg width="32" height="32" viewBox="0 0 15 12" fill="none" xmlns="http://www.w3.org/2000/svg">
    <path d="M12.0405 1.66676C11.3489 1.56284 10.68 1.53968 10.0524 1.59798C9.176 1.67941 8.40867 1.91983 7.7718 2.31262C7.6738 2.37308 7.64335 2.50153 7.70379 2.59956C7.76426 2.69756 7.89271 2.728 7.99073 2.66756C9.33811 1.83651 11.0675 1.94219 11.9785 2.07914C12.0923 2.09624 12.1986 2.01781 12.2157 1.90393C12.2328 1.79006 12.1544 1.68388 12.0405 1.66676Z" fill="#424242"/>
    <path d="M12.0405 3.3948C11.3489 3.29087 10.68 3.26769 10.0524 3.32602C9.176 3.40745 8.40867 3.64787 7.7718 4.04066C7.6738 4.10112 7.64335 4.22957 7.70379 4.32759C7.74322 4.39148 7.81153 4.42665 7.88147 4.42665C7.91884 4.42665 7.95662 4.41664 7.99076 4.3956C9.33814 3.56458 11.0676 3.67023 11.9785 3.80718C12.0923 3.82428 12.1986 3.74585 12.2157 3.63197C12.2328 3.51812 12.1544 3.41192 12.0405 3.3948Z" fill="#424242"/>
    <path d="M12.0405 5.12257C11.3489 5.01865 10.68 4.99549 10.0524 5.05379C9.176 5.13522 8.40867 5.37565 7.7718 5.76843C7.6738 5.82889 7.64335 5.95734 7.70379 6.05537C7.76426 6.15337 7.89271 6.18381 7.99073 6.12337C9.33811 5.29232 11.0675 5.398 11.9785 5.53495C12.0923 5.55205 12.1986 5.47362 12.2157 5.35974C12.2328 5.2459 12.1544 5.13972 12.0405 5.12257Z" fill="#424242"/>
    <path d="M12.0405 6.85036C11.3489 6.74644 10.68 6.72325 10.0524 6.78158C9.176 6.86301 8.40867 7.10344 7.7718 7.49622C7.6738 7.55669 7.64335 7.68513 7.70379 7.78316C7.76426 7.88116 7.89271 7.9116 7.99073 7.85116C9.33811 7.02012 11.0675 7.12579 11.9785 7.26274C12.0923 7.27984 12.1986 7.20141 12.2157 7.08754C12.2328 6.97366 12.1544 6.86749 12.0405 6.85036Z" fill="#424242"/>
    <path d="M2.25599 2.07914C3.16697 1.94219 4.89639 1.83655 6.24377 2.66756C6.34177 2.72801 6.47024 2.69753 6.53071 2.59953C6.59115 2.50153 6.56071 2.37306 6.46268 2.31262C5.8258 1.91984 5.05848 1.67941 4.18203 1.59798C3.55447 1.53968 2.88559 1.56281 2.19403 1.66676C2.08015 1.68389 2.00172 1.79009 2.01882 1.90397C2.03592 2.01779 2.1422 2.09616 2.25599 2.07914Z" fill="#424242"/>
    <path d="M2.25599 3.80717C3.16697 3.67022 4.89639 3.56458 6.24377 4.39559C6.3418 4.45606 6.47024 4.42556 6.53071 4.32759C6.59115 4.22956 6.56071 4.10112 6.46268 4.04065C5.8258 3.64787 5.05848 3.40744 4.18203 3.32601C3.55447 3.26771 2.88559 3.29084 2.19403 3.39479C2.08015 3.41192 2.00172 3.51812 2.01882 3.63199C2.03592 3.74581 2.1422 3.82433 2.25599 3.80717Z" fill="#424242"/>
    <path d="M2.25599 5.53497C3.16697 5.39802 4.89639 5.29234 6.24377 6.12339C6.34177 6.18383 6.47024 6.15336 6.53071 6.05536C6.59115 5.95736 6.56071 5.82889 6.46268 5.76845C5.8258 5.37567 5.05848 5.13524 4.18203 5.05381C3.55447 4.99548 2.88559 5.01864 2.19403 5.12259C2.08015 5.13971 2.00172 5.24592 2.01882 5.35979C2.03592 5.47364 2.1422 5.55212 2.25599 5.53497Z" fill="#424242"/>
    <path d="M2.25599 7.26274C3.16697 7.12582 4.89639 7.02014 6.24377 7.85116C6.3418 7.91163 6.47024 7.88113 6.53071 7.78316C6.59115 7.68513 6.56071 7.55668 6.46268 7.49622C5.8258 7.10344 5.05848 6.86301 4.18203 6.78158C3.55447 6.72328 2.88559 6.74641 2.19403 6.85036C2.08015 6.86748 2.00172 6.97369 2.01882 7.08756C2.03592 7.20141 2.1422 7.27984 2.25599 7.26274Z" fill="#424242"/>
    <path d="M13.8699 0.873008C13.6933 0.829387 13.4226 0.769197 13.0838 0.71415C13.0719 0.481034 12.9096 0.284171 12.6804 0.230236C11.8288 0.0301202 8.96559 -0.475507 7.1172 1.19631C5.26884 -0.475507 2.40556 0.0300646 1.554 0.230264C1.32477 0.284199 1.16255 0.481061 1.15062 0.71415C0.811861 0.769169 0.54113 0.829387 0.364506 0.873008C0.149878 0.925942 0 1.11738 0 1.33852V9.81844C0 10.1266 0.286328 10.355 0.586613 10.2858C1.03177 10.1834 1.93399 10.0147 2.9734 10.0301C4.22712 10.0496 5.29709 10.3275 6.1536 10.856C6.31752 10.9571 6.50646 11.0106 6.69995 11.0106H7.53447C7.72797 11.0106 7.91691 10.9571 8.08083 10.856C8.93734 10.3275 10.0073 10.0496 11.261 10.0301C12.3004 10.0147 13.2026 10.1834 13.6478 10.2858C13.9475 10.3548 14.2344 10.1272 14.2344 9.81844V1.33852C14.2344 1.11736 14.0845 0.925942 13.8699 0.873008ZM13.8174 9.81844C13.8174 9.85861 13.7804 9.88839 13.7413 9.87943C13.2777 9.77276 12.3387 9.59641 11.2545 9.61315C9.92469 9.63381 8.78321 9.93256 7.86187 10.5011C7.76384 10.5616 7.6506 10.5935 7.5345 10.5935H6.69998C6.58386 10.5935 6.47065 10.5616 6.37259 10.5011C5.45125 9.93259 4.30977 9.63384 2.97988 9.61315C1.89637 9.59644 0.956707 9.77273 0.493116 9.87943C0.453777 9.88836 0.417051 9.85842 0.417051 9.81844V1.33852C0.417051 1.30969 0.436512 1.28475 0.464425 1.27785C0.621365 1.2391 0.856233 1.18664 1.14948 1.13704V2.20798C1.14948 2.32317 1.24284 2.4165 1.358 2.4165C1.47315 2.4165 1.56651 2.32317 1.56651 2.20798V0.74159C1.56651 0.691047 1.60065 0.647676 1.64949 0.636194C2.46119 0.44542 5.21543 -0.0437487 6.90872 1.57219V9.54821C6.90402 9.54487 6.89926 9.54173 6.8947 9.53814C5.14999 8.17264 2.67932 8.51596 1.69806 8.72706C1.63009 8.74152 1.56651 8.69039 1.56651 8.62116V3.17918C1.56651 3.06399 1.47315 2.97066 1.358 2.97066C1.24284 2.97066 1.14948 3.06399 1.14948 3.17918V8.62119C1.14948 8.95609 1.45841 9.20522 1.78575 9.13477C4.55898 8.5384 6.10269 9.44787 6.63768 9.86656C6.92006 10.0876 7.3144 10.0876 7.59681 9.86656C8.13182 9.44782 9.67556 8.53834 12.4487 9.13477C12.7763 9.20522 13.085 8.95598 13.085 8.62119V6.71172C13.085 6.59654 12.9917 6.50321 12.8765 6.50321C12.7613 6.50321 12.668 6.59654 12.668 6.71172V8.62119C12.668 8.69047 12.6043 8.74152 12.5364 8.72709C11.5552 8.51602 9.08455 8.17267 7.33984 9.53817C7.33528 9.54176 7.33049 9.5449 7.3258 9.54823V1.57222C9.01894 -0.0437209 11.7733 0.445392 12.5849 0.636194C12.6338 0.647676 12.6679 0.691047 12.6679 0.74159V5.74067C12.6679 5.85585 12.7613 5.94918 12.8764 5.94918C12.9916 5.94918 13.0849 5.85585 13.0849 5.74067V1.13707C13.3782 1.18667 13.6131 1.23913 13.77 1.27788C13.7979 1.28478 13.8174 1.30971 13.8174 1.33855V9.81844Z" fill="#424242"/>
</svg>