<svg width="48" height="48" viewBox="0 0 48 48" fill="none" xmlns="http://www.w3.org/2000/svg">
<path d="M19.498 24C19.4297 24 19.3646 23.987 19.3027 23.9609C19.2441 23.9349 19.1921 23.8991 19.1465 23.8535C19.1009 23.8079 19.0651 23.7559 19.0391 23.6973C19.013 23.6354 19 23.5703 19 23.502C19 23.4336 19.013 23.3701 19.0391 23.3115C19.0651 23.2497 19.1009 23.196 19.1465 23.1504C19.1921 23.1016 19.2441 23.0641 19.3027 23.0381C19.3646 23.012 19.4297 22.999 19.498 22.999H28.502C28.5703 22.999 28.6338 23.012 28.6924 23.0381C28.7542 23.0641 28.8079 23.1016 28.8535 23.1504C28.8991 23.196 28.9349 23.2497 28.9609 23.3115C28.987 23.3701 29 23.4336 29 23.502C29 23.5703 28.987 23.6354 28.9609 23.6973C28.9349 23.7559 28.8991 23.8079 28.8535 23.8535C28.8079 23.8991 28.7542 23.9349 28.6924 23.9609C28.6338 23.987 28.5703 24 28.502 24H19.498Z" fill="#242424"/>
</svg>
