<svg width="48" height="48" viewBox="0 0 48 48" fill="none" xmlns="http://www.w3.org/2000/svg">
<path d="M20.4746 29C20.2793 29 20.0921 28.9609 19.9131 28.8828C19.734 28.8014 19.5762 28.694 19.4395 28.5605C19.306 28.4238 19.1986 28.266 19.1172 28.0869C19.0391 27.9079 19 27.7207 19 27.5254V20.4746C19 20.2793 19.0391 20.0921 19.1172 19.9131C19.1986 19.734 19.306 19.5778 19.4395 19.4443C19.5762 19.3076 19.734 19.2002 19.9131 19.1221C20.0921 19.0407 20.2793 19 20.4746 19H27.5254C27.7207 19 27.9079 19.0407 28.0869 19.1221C28.266 19.2002 28.4222 19.3076 28.5557 19.4443C28.6924 19.5778 28.7998 19.734 28.8779 19.9131C28.9593 20.0921 29 20.2793 29 20.4746V27.5254C29 27.7207 28.9593 27.9079 28.8779 28.0869C28.7998 28.266 28.6924 28.4238 28.5557 28.5605C28.4222 28.694 28.266 28.8014 28.0869 28.8828C27.9079 28.9609 27.7207 29 27.5254 29H20.4746ZM27.501 27.999C27.5693 27.999 27.6328 27.986 27.6914 27.96C27.7533 27.9339 27.807 27.8981 27.8525 27.8525C27.8981 27.807 27.9339 27.7549 27.96 27.6963C27.986 27.6344 27.999 27.5693 27.999 27.501V20.499C27.999 20.4307 27.986 20.3672 27.96 20.3086C27.9339 20.2467 27.8981 20.193 27.8525 20.1475C27.807 20.1019 27.7533 20.0661 27.6914 20.04C27.6328 20.014 27.5693 20.001 27.501 20.001H20.499C20.4307 20.001 20.3656 20.014 20.3037 20.04C20.2451 20.0661 20.193 20.1019 20.1475 20.1475C20.1019 20.193 20.0661 20.2467 20.04 20.3086C20.014 20.3672 20.001 20.4307 20.001 20.499V27.501C20.001 27.5693 20.014 27.6344 20.04 27.6963C20.0661 27.7549 20.1019 27.807 20.1475 27.8525C20.193 27.8981 20.2451 27.9339 20.3037 27.96C20.3656 27.986 20.4307 27.999 20.499 27.999H27.501Z" fill="#242424"/>
</svg>
