<svg width="438" height="391" viewBox="0 0 438 391" fill="none" xmlns="http://www.w3.org/2000/svg">
<path d="M399.636 25.4019C392.632 25.4019 386.935 19.7041 386.935 12.7006C386.935 5.69742 392.632 0 399.636 0C406.639 0 412.336 5.69753 412.336 12.7006C412.336 19.7041 406.639 25.4019 399.636 25.4019ZM399.636 2.18997C393.84 2.18997 389.125 6.90497 389.125 12.7006C389.125 18.4966 393.84 23.2119 399.636 23.2119C405.431 23.2119 410.146 18.4966 410.146 12.7006C410.146 6.90497 405.431 2.18997 399.636 2.18997Z" fill="#2CD997"/>
<path d="M47.6523 66.3239C47.9187 69.5818 45.494 72.4383 42.2366 72.7047C38.9787 72.9711 36.1224 70.5465 35.856 67.2887C35.5895 64.0311 38.0141 61.1746 41.272 60.9082C44.5292 60.6418 47.3859 63.0663 47.6523 66.3239Z" fill="#FFCD1E"/>
<path d="M10.8485 116.992C8.39513 116.803 6.07004 115.85 4.15776 114.227C1.75865 112.191 0.296189 109.342 0.039634 106.205C-0.489791 99.7306 4.34697 94.0325 10.8216 93.503C17.2962 92.9735 22.9941 97.8102 23.5236 104.285C24.0532 110.759 19.2166 116.458 12.7422 116.987C12.1057 117.039 11.4729 117.04 10.8485 116.992ZM12.5264 95.6818C12.0259 95.6432 11.516 95.6435 11 95.6857C5.72884 96.1168 1.79117 100.756 2.22226 106.027C2.43108 108.58 3.62176 110.9 5.57478 112.557C7.52779 114.215 10.0099 115.014 12.5635 114.804C17.8344 114.373 21.7719 109.734 21.3408 104.463C20.9521 99.7081 17.1388 96.0382 12.5264 95.6818Z" fill="#2CD997"/>
<path d="M89.4046 372.543C85.7186 372.543 82.7197 369.544 82.7197 365.858C82.7197 362.173 85.7186 359.174 89.4046 359.174C93.0905 359.174 96.0893 362.173 96.0893 365.858C96.0893 369.545 93.0905 372.543 89.4046 372.543ZM89.4046 360.926C86.6847 360.926 84.4717 363.139 84.4717 365.858C84.4717 368.579 86.6846 370.791 89.4046 370.791C92.1244 370.791 94.3373 368.579 94.3373 365.858C94.3373 363.139 92.1244 360.926 89.4046 360.926Z" fill="#FFCD1E"/>
<path d="M86.4012 81.5076C55.6605 104.664 29.9116 132.72 20.4082 166.76C8.42947 209.665 22.5325 256.271 50.276 291.057C101.55 355.347 200.285 379.798 279.213 347.752C358.871 315.409 404.717 229.085 415.052 150.368C419.313 117.908 414.671 83.582 396.208 56.506C373.857 23.7276 333.139 5.12181 292.115 2.53316C251.092 -0.0557151 209.923 11.9037 173.087 30.2214C145.593 43.8933 113.987 60.7278 86.4012 81.5076Z" fill="#D4EBEB"/>
<path d="M294.82 390.998C294.472 391.024 294.163 390.771 294.12 390.422C294.077 390.061 294.334 389.734 294.694 389.691C295.762 389.562 296.779 389.262 297.716 388.801C298.042 388.64 298.436 388.774 298.596 389.1C298.756 389.425 298.622 389.819 298.297 389.979C297.226 390.506 296.067 390.848 294.851 390.995C294.841 390.997 294.83 390.997 294.82 390.998ZM300.766 388.045C300.588 388.058 300.406 388 300.266 387.867C300.003 387.618 299.991 387.202 300.241 386.939C300.488 386.677 300.723 386.397 300.94 386.106C300.942 386.103 300.945 386.099 300.947 386.096C301.428 385.474 301.936 384.891 302.456 384.362C302.71 384.104 303.126 384.1 303.385 384.354C303.643 384.608 303.647 385.024 303.393 385.283C302.911 385.774 302.439 386.316 301.99 386.895C301.744 387.226 301.477 387.545 301.195 387.842C301.078 387.966 300.924 388.034 300.766 388.045ZM305.583 383.33C305.351 383.347 305.118 383.241 304.983 383.033C304.786 382.728 304.872 382.321 305.176 382.124C306.018 381.577 306.908 381.122 307.822 380.771C308.002 380.702 308.184 380.636 308.364 380.576C308.709 380.462 309.081 380.647 309.196 380.991C309.311 381.335 309.125 381.707 308.781 381.822C308.619 381.876 308.455 381.935 308.293 381.998C307.464 382.316 306.657 382.729 305.892 383.226C305.796 383.288 305.69 383.322 305.583 383.33ZM315.324 381.357C315.298 381.359 315.272 381.359 315.245 381.358C314.979 381.345 314.708 381.327 314.422 381.309C313.674 381.26 312.827 381.204 311.923 381.245C311.56 381.262 311.253 380.982 311.236 380.619C311.22 380.257 311.497 379.95 311.862 379.933C312.84 379.888 313.726 379.946 314.508 379.997C314.788 380.016 315.053 380.033 315.306 380.045C315.668 380.062 315.948 380.369 315.932 380.732C315.916 381.067 315.651 381.333 315.324 381.357ZM318.676 381.038C318.362 381.061 318.068 380.855 317.991 380.54C317.904 380.187 318.12 379.831 318.472 379.745C319.494 379.495 320.456 379.101 321.416 378.543C321.73 378.36 322.132 378.467 322.314 378.78C322.497 379.094 322.391 379.496 322.077 379.679C321.007 380.301 319.93 380.74 318.785 381.021C318.749 381.03 318.712 381.036 318.676 381.038ZM324.504 377.75C324.309 377.764 324.11 377.691 323.969 377.535C323.725 377.267 323.746 376.851 324.015 376.607C324.735 375.954 325.489 375.177 326.319 374.231C326.558 373.958 326.973 373.931 327.246 374.17C327.519 374.41 327.546 374.825 327.307 375.098C326.444 376.082 325.655 376.894 324.897 377.581C324.784 377.683 324.645 377.739 324.504 377.75ZM329.03 372.719C328.869 372.731 328.704 372.684 328.568 372.574C328.287 372.345 328.244 371.931 328.473 371.65L328.637 371.448C329.286 370.647 329.958 369.82 330.642 369.022C330.878 368.747 331.293 368.715 331.568 368.951C331.844 369.188 331.876 369.602 331.639 369.878C330.967 370.662 330.301 371.482 329.657 372.276L329.493 372.478C329.374 372.625 329.205 372.706 329.03 372.719ZM373.428 366.426C372.466 366.496 371.467 366.494 370.459 366.421C370.097 366.394 369.825 366.08 369.851 365.718C369.878 365.356 370.193 365.084 370.554 365.11C371.672 365.192 372.77 365.18 373.823 365.072C373.829 365.072 373.835 365.071 373.841 365.071C374.195 365.045 374.507 365.305 374.543 365.659C374.579 366.02 374.317 366.343 373.956 366.379C373.783 366.397 373.605 366.413 373.428 366.426ZM360.997 367.25C360.124 367.314 359.287 367.312 358.437 367.243C358.075 367.214 357.805 366.897 357.835 366.536C357.864 366.174 358.182 365.905 358.542 365.934C359.325 365.997 360.096 365.999 360.901 365.94C361.189 365.919 361.479 365.89 361.79 365.853C361.801 365.852 361.811 365.851 361.821 365.85C362.169 365.824 362.479 366.077 362.521 366.427C362.564 366.787 362.307 367.114 361.947 367.157C361.616 367.197 361.305 367.228 360.997 367.25ZM377.247 365.696C376.953 365.718 376.67 365.537 376.575 365.244C376.462 364.899 376.651 364.528 376.996 364.416C377.682 364.193 378.339 363.918 378.947 363.599C379.237 363.447 379.563 363.261 379.916 363.045C380.225 362.856 380.63 362.953 380.819 363.263C381.008 363.573 380.91 363.977 380.601 364.166C380.223 364.397 379.872 364.597 379.557 364.763C378.884 365.116 378.159 365.419 377.403 365.665C377.351 365.682 377.299 365.692 377.247 365.696ZM365.244 366.53C364.936 366.552 364.646 366.355 364.562 366.046C364.483 365.753 364.615 365.452 364.866 365.307C364.469 365.177 364.075 365.038 363.686 364.889C363.347 364.759 363.178 364.379 363.308 364.04C363.438 363.701 363.817 363.532 364.157 363.662C365.107 364.026 366.085 364.329 367.068 364.564C367.419 364.426 367.763 364.278 368.099 364.121C368.428 363.968 368.819 364.11 368.973 364.439C369.126 364.768 368.984 365.159 368.655 365.312C368.296 365.48 367.929 365.637 367.555 365.785C367.458 365.858 367.341 365.904 367.216 365.915C366.615 366.14 365.997 366.339 365.368 366.509C365.327 366.52 365.285 366.527 365.244 366.53ZM355.204 366.677C355.134 366.682 355.062 366.676 354.99 366.657C353.941 366.383 352.929 366.023 351.707 365.49C351.375 365.345 351.223 364.958 351.368 364.625C351.513 364.293 351.901 364.141 352.233 364.286C353.39 364.791 354.342 365.13 355.322 365.386C355.673 365.478 355.883 365.837 355.791 366.188C355.718 366.467 355.476 366.657 355.204 366.677ZM333.497 367.625C333.31 367.639 333.118 367.572 332.977 367.427C332.724 367.166 332.731 366.75 332.992 366.498C333.901 365.618 334.779 364.89 335.679 364.27C335.978 364.064 336.387 364.14 336.593 364.439C336.798 364.738 336.723 365.147 336.424 365.353C335.585 365.93 334.761 366.614 333.906 367.442C333.791 367.553 333.645 367.614 333.497 367.625ZM371.342 363.658C371.123 363.674 370.901 363.58 370.762 363.39C370.548 363.097 370.613 362.686 370.906 362.472C371.788 361.828 372.597 361.097 373.309 360.298C373.551 360.027 373.966 360.004 374.237 360.245C374.508 360.487 374.532 360.902 374.29 361.173C373.516 362.041 372.638 362.835 371.68 363.533C371.577 363.609 371.46 363.649 371.342 363.658ZM383.116 362.367C382.896 362.383 382.673 362.288 382.534 362.096C382.322 361.802 382.388 361.391 382.683 361.179C383.58 360.532 384.465 359.841 385.315 359.126C385.593 358.893 386.007 358.929 386.241 359.207C386.474 359.484 386.438 359.899 386.161 360.132C385.286 360.867 384.375 361.578 383.452 362.244C383.349 362.318 383.233 362.359 383.116 362.367ZM360.903 363.497C360.779 363.506 360.652 363.48 360.535 363.415C359.925 363.074 359.331 362.704 358.768 362.317C358.427 362.083 358.041 361.817 357.634 361.519C357.342 361.305 357.278 360.894 357.493 360.601C357.707 360.308 358.118 360.245 358.411 360.459C358.801 360.745 359.179 361.005 359.513 361.235C360.043 361.599 360.602 361.947 361.177 362.268C361.494 362.445 361.607 362.846 361.429 363.162C361.317 363.363 361.116 363.481 360.903 363.497ZM348.935 364.145C348.833 364.153 348.729 364.137 348.629 364.094C347.45 363.59 346.501 363.291 345.552 363.124C345.195 363.061 344.957 362.72 345.02 362.362C345.083 362.005 345.423 361.767 345.781 361.83C346.832 362.015 347.87 362.341 349.145 362.886C349.479 363.028 349.634 363.414 349.491 363.748C349.391 363.982 349.172 364.128 348.935 364.145ZM339.073 363.876C338.793 363.896 338.52 363.734 338.413 363.459C338.281 363.121 338.449 362.74 338.787 362.608C339.699 362.253 340.656 361.991 341.632 361.832C341.828 361.8 342.025 361.772 342.217 361.749C342.578 361.703 342.905 361.961 342.949 362.321C342.992 362.681 342.736 363.009 342.376 363.053C342.201 363.074 342.022 363.1 341.844 363.129C340.959 363.273 340.09 363.51 339.264 363.832C339.201 363.857 339.137 363.871 339.073 363.876ZM388.297 358.012C388.11 358.025 387.919 357.96 387.778 357.815C387.525 357.555 387.53 357.139 387.79 356.886C388.589 356.107 389.343 355.316 390.093 354.469C390.334 354.197 390.749 354.172 391.021 354.412C391.292 354.653 391.317 355.068 391.077 355.34C390.305 356.211 389.53 357.025 388.707 357.827C388.592 357.939 388.445 358.001 388.297 358.012ZM375.834 358.653C375.704 358.662 375.569 358.633 375.449 358.561C375.138 358.375 375.036 357.972 375.222 357.66C375.796 356.701 376.257 355.712 376.593 354.721C376.71 354.378 377.083 354.193 377.427 354.31C377.77 354.426 377.954 354.799 377.838 355.143C377.472 356.222 376.971 357.296 376.35 358.335C376.236 358.526 376.04 358.638 375.834 358.653ZM355.526 359.418C355.334 359.432 355.137 359.361 354.996 359.209C354.174 358.323 353.48 357.353 352.933 356.325C352.762 356.005 352.883 355.607 353.203 355.436C353.523 355.266 353.921 355.387 354.092 355.707C354.587 356.635 355.215 357.513 355.959 358.316C356.206 358.582 356.19 358.998 355.924 359.244C355.81 359.35 355.669 359.407 355.526 359.418ZM392.934 353.074C392.744 353.088 392.551 353.02 392.409 352.871C392.16 352.608 392.171 352.192 392.434 351.942C393.185 351.229 394.066 350.474 395.053 349.698C395.338 349.473 395.751 349.522 395.976 349.808C396.2 350.093 396.151 350.506 395.866 350.73C394.91 351.482 394.06 352.21 393.338 352.895C393.224 353.004 393.08 353.063 392.934 353.074ZM377.949 352.28C377.917 352.282 377.884 352.282 377.851 352.279C377.489 352.252 377.218 351.936 377.245 351.575C377.289 350.991 377.29 350.402 377.248 349.822C377.221 349.454 377.176 349.082 377.114 348.716C377.095 348.604 377.075 348.492 377.053 348.382C376.982 348.027 377.213 347.681 377.569 347.61C377.926 347.54 378.271 347.77 378.342 348.126C378.366 348.249 378.389 348.372 378.41 348.498C378.478 348.904 378.528 349.317 378.558 349.726C378.605 350.371 378.604 351.026 378.555 351.674C378.531 352.002 378.268 352.256 377.949 352.28ZM352.356 353.514C352.043 353.537 351.75 353.333 351.671 353.019C351.472 352.223 351.341 351.417 351.283 350.625C351.255 350.247 351.244 349.868 351.249 349.496C351.254 349.133 351.554 348.843 351.915 348.848C352.278 348.854 352.568 349.152 352.563 349.515C352.558 349.848 352.569 350.189 352.594 350.529C352.646 351.246 352.765 351.976 352.946 352.699C353.034 353.051 352.82 353.408 352.468 353.496C352.431 353.506 352.393 353.512 352.356 353.514ZM398.233 348.853C398.01 348.869 397.784 348.771 397.646 348.575C397.438 348.278 397.51 347.868 397.807 347.66C398.679 347.049 399.633 346.409 400.642 345.756C400.947 345.559 401.354 345.647 401.551 345.951C401.748 346.256 401.66 346.663 401.356 346.86C400.36 347.503 399.42 348.134 398.562 348.736C398.461 348.806 398.347 348.845 398.233 348.853ZM403.92 345.163C403.682 345.18 403.443 345.067 403.311 344.85C403.122 344.54 403.22 344.136 403.53 343.947C404.605 343.291 405.609 342.696 406.449 342.201C406.761 342.017 407.164 342.121 407.348 342.433C407.532 342.746 407.429 343.149 407.116 343.333C406.28 343.826 405.282 344.417 404.214 345.069C404.121 345.125 404.021 345.156 403.92 345.163ZM376.653 345.714C376.395 345.733 376.139 345.597 376.016 345.351C375.541 344.393 374.925 343.47 374.234 342.682C373.995 342.409 374.022 341.994 374.295 341.755C374.568 341.516 374.983 341.543 375.222 341.816C375.987 342.688 376.668 343.709 377.193 344.767C377.355 345.092 377.222 345.486 376.897 345.647C376.818 345.686 376.736 345.708 376.653 345.714ZM352.497 346.831C352.415 346.837 352.33 346.827 352.246 346.8C351.901 346.688 351.712 346.317 351.825 345.972C351.867 345.843 351.912 345.714 351.959 345.584C352.321 344.593 352.82 343.651 353.443 342.785C353.654 342.491 354.065 342.424 354.36 342.635C354.654 342.847 354.721 343.258 354.509 343.552C353.957 344.321 353.514 345.156 353.193 346.034C353.151 346.149 353.111 346.265 353.074 346.379C352.989 346.64 352.755 346.812 352.497 346.831ZM409.739 341.676C409.509 341.693 409.277 341.588 409.141 341.382C408.942 341.078 409.026 340.671 409.329 340.472C410.222 339.885 411.077 339.2 411.87 338.433C412.131 338.181 412.547 338.188 412.799 338.449C413.052 338.71 413.044 339.126 412.783 339.378C411.932 340.201 411.012 340.939 410.051 341.57C409.954 341.634 409.847 341.668 409.739 341.676ZM372.228 340.69C372.089 340.701 371.946 340.667 371.821 340.585C370.941 340.009 369.967 339.541 368.928 339.194C368.584 339.079 368.398 338.707 368.513 338.362C368.628 338.018 369 337.833 369.345 337.947C370.491 338.33 371.566 338.848 372.54 339.485C372.844 339.684 372.929 340.091 372.73 340.395C372.614 340.573 372.425 340.676 372.228 340.69ZM356.368 341.396C356.157 341.412 355.943 341.325 355.802 341.146C355.578 340.861 355.628 340.448 355.914 340.224C356.83 339.505 357.853 338.894 358.954 338.408C359.286 338.261 359.673 338.411 359.82 338.743C359.967 339.075 359.817 339.463 359.485 339.61C358.484 340.052 357.555 340.607 356.725 341.258C356.618 341.341 356.494 341.387 356.368 341.396ZM414.601 337.016C414.449 337.027 414.293 336.986 414.161 336.888C413.87 336.671 413.81 336.259 414.026 335.968C414.656 335.122 415.255 334.189 415.808 333.195C415.984 332.878 416.384 332.764 416.701 332.94C417.018 333.117 417.133 333.517 416.956 333.834C416.376 334.878 415.744 335.86 415.08 336.753C414.962 336.912 414.785 337.002 414.601 337.016ZM365.875 338.534C365.839 338.537 365.803 338.536 365.766 338.533C364.794 338.443 364.096 338.48 363.906 338.494L363.892 338.495C363.455 338.527 363.009 338.584 362.566 338.664C362.21 338.728 361.867 338.49 361.803 338.133C361.739 337.776 361.976 337.435 362.333 337.37C362.821 337.282 363.313 337.22 363.796 337.185L363.811 337.184C364.088 337.164 364.844 337.128 365.887 337.224C366.249 337.258 366.514 337.578 366.481 337.939C366.45 338.264 366.189 338.511 365.875 338.534ZM417.909 331.127C417.808 331.135 417.704 331.119 417.605 331.077C417.271 330.935 417.115 330.549 417.257 330.215C417.673 329.236 418.066 328.187 418.424 327.098C418.537 326.753 418.908 326.565 419.253 326.679C419.598 326.792 419.785 327.163 419.672 327.508C419.303 328.632 418.897 329.716 418.466 330.729C418.367 330.963 418.147 331.11 417.909 331.127ZM420.039 324.707C419.97 324.712 419.899 324.706 419.829 324.688C419.477 324.599 419.265 324.241 419.354 323.89C419.62 322.847 419.866 321.748 420.087 320.622C420.157 320.266 420.502 320.034 420.858 320.104C421.214 320.174 421.446 320.519 421.376 320.875C421.151 322.025 420.899 323.148 420.627 324.214C420.556 324.495 420.313 324.687 420.039 324.707ZM421.352 318.067C421.305 318.07 421.256 318.069 421.207 318.062C420.848 318.008 420.6 317.674 420.653 317.315C420.702 316.988 420.749 316.656 420.795 316.32C420.843 315.96 421.174 315.708 421.534 315.757C421.893 315.805 422.145 316.136 422.097 316.496C422.05 316.837 422.003 317.175 421.953 317.508C421.907 317.818 421.652 318.045 421.352 318.067Z" fill="#2298FF"/>
<path d="M420.421 315.378C430.069 315.378 437.89 307.556 437.89 297.908C437.89 288.261 430.069 280.439 420.421 280.439C410.773 280.439 402.952 288.261 402.952 297.908C402.952 307.556 410.773 315.378 420.421 315.378Z" fill="#2298FF"/>
<path d="M421.32 288.091H421.317H420.071H420.068C417.436 288.091 415.295 290.061 415.295 292.483H415.298V295.851H417.526V292.483C417.526 291.192 418.668 290.142 420.071 290.142H421.317C422.72 290.142 423.861 291.192 423.861 292.483V295.851H426.089V292.483H426.092C426.092 290.061 423.951 288.091 421.32 288.091Z" fill="white"/>
<path d="M428.328 306.326C428.328 307.096 427.656 307.719 426.826 307.719H414.558C413.729 307.719 413.056 307.096 413.056 306.326V296.798C413.056 296.029 413.729 295.405 414.558 295.405H426.826C427.656 295.405 428.328 296.029 428.328 296.798V306.326Z" fill="white"/>
<path d="M419.647 300.823C419.647 301.273 419.957 301.594 420.054 301.683C420.074 301.702 420.094 301.721 420.113 301.74C420.146 301.775 420.179 301.806 420.193 301.815C420.211 301.827 420.217 301.889 420.205 301.953L419.966 303.31C419.955 303.374 419.995 303.426 420.056 303.426H421.333C421.393 303.426 421.434 303.374 421.422 303.31L421.183 301.953C421.172 301.889 421.177 301.827 421.196 301.815C421.208 301.807 421.234 301.783 421.263 301.753C421.29 301.726 421.318 301.7 421.346 301.675C421.454 301.579 421.741 301.28 421.741 300.823C421.741 300.199 421.272 299.692 420.694 299.692C420.117 299.692 419.647 300.199 419.647 300.823Z" fill="#2298FF"/>
<path d="M421.332 303.692H420.056C419.949 303.692 419.85 303.646 419.783 303.565C419.713 303.483 419.685 303.373 419.704 303.263L419.937 301.941C419.932 301.936 419.927 301.93 419.921 301.924C419.906 301.908 419.89 301.893 419.874 301.878C419.758 301.772 419.381 301.381 419.381 300.822C419.381 300.052 419.97 299.426 420.694 299.426C421.418 299.426 422.007 300.052 422.007 300.822C422.007 301.381 421.668 301.743 421.522 301.873C421.497 301.896 421.474 301.917 421.453 301.939C421.452 301.94 421.451 301.94 421.45 301.941L421.684 303.263C421.703 303.373 421.674 303.483 421.605 303.566C421.538 303.646 421.439 303.692 421.332 303.692ZM420.262 303.16H421.126L420.921 301.999C420.889 301.818 420.931 301.676 421.04 301.599C421.045 301.594 421.057 301.584 421.074 301.566C421.103 301.536 421.135 301.506 421.169 301.476C421.241 301.412 421.476 301.175 421.476 300.822C421.476 300.345 421.125 299.957 420.694 299.957C420.263 299.957 419.913 300.345 419.913 300.822C419.913 301.164 420.159 301.418 420.234 301.487C420.258 301.51 420.282 301.533 420.304 301.556C420.326 301.578 420.341 301.593 420.348 301.599C420.494 301.702 420.486 301.893 420.467 301.999L420.262 303.16ZM420.047 302.037C420.048 302.037 420.049 302.038 420.049 302.038C420.049 302.038 420.048 302.037 420.047 302.037ZM421.345 302.034C421.343 302.035 421.341 302.036 421.34 302.037C421.342 302.036 421.343 302.035 421.345 302.034ZM420.34 301.593C420.34 301.593 420.34 301.594 420.341 301.594C420.34 301.594 420.34 301.593 420.34 301.593Z" fill="#2298FF"/>
<path d="M226.342 35.9028H226.305H211.803H211.767C181.143 35.9028 156.229 58.8342 156.229 87.0214H156.265V126.209H182.193V87.0214C182.193 71.9931 195.476 59.7672 211.803 59.7672H226.305C242.633 59.7672 255.916 71.993 255.916 87.0214V126.209H281.843V87.0214H281.88C281.88 58.8342 256.966 35.9028 226.342 35.9028Z" fill="#2298FF"/>
<path d="M281.843 126.975H255.915C255.492 126.975 255.149 126.632 255.149 126.209V87.0218C255.149 72.4164 242.21 60.5341 226.305 60.5341H211.803C195.898 60.5341 182.959 72.4164 182.959 87.0218V126.209C182.959 126.632 182.616 126.975 182.192 126.975H156.265C155.842 126.975 155.498 126.632 155.498 126.209V87.2553C155.475 87.1816 155.462 87.1032 155.462 87.0218C155.462 58.4122 180.72 35.1367 211.767 35.1367H226.341C257.388 35.1367 282.646 58.4122 282.646 87.0218C282.646 87.1033 282.633 87.182 282.609 87.2556V126.209C282.609 126.632 282.266 126.975 281.843 126.975ZM256.682 125.442H281.076V87.0218C281.076 86.9408 281.089 86.8629 281.112 86.7896C280.975 59.1324 256.458 36.6696 226.341 36.6696H211.767C181.65 36.6696 157.133 59.1327 156.996 86.7899C157.019 86.8631 157.031 86.9409 157.031 87.0218V125.442H181.426V87.0218C181.426 71.5711 195.053 59.0011 211.803 59.0011H226.305C243.055 59.0011 256.682 71.5711 256.682 87.0218V125.442Z" fill="#101111"/>
<path d="M315.928 259.695C315.928 269.454 307.394 277.365 296.868 277.365H141.239C130.713 277.365 122.18 269.454 122.18 259.695V138.816C122.18 129.057 130.713 121.146 141.239 121.146H296.868C307.394 121.146 315.927 129.057 315.927 138.816L315.928 259.695Z" fill="#2298FF"/>
<path fill-rule="evenodd" clip-rule="evenodd" d="M217.75 140.714L217.563 141.266C217.563 141.266 217.457 141.363 217.889 141.388C218.32 141.412 218.32 141.469 218.562 140.674L218.801 140H219.506C219.894 140 220.211 140.022 220.211 140.048C220.211 140.074 220.13 140.342 220.031 140.642C219.932 140.942 219.851 141.232 219.851 141.286C219.851 141.34 220.811 141.409 221.984 141.441C223.797 141.489 224.216 141.539 224.778 141.773C225.66 142.141 226.279 142.709 226.674 143.512C226.952 144.078 226.999 144.329 227 145.264C227.001 146.196 226.954 146.458 226.674 147.061C226.179 148.129 225.17 149.241 223.91 150.11C221.936 151.472 220.675 152.025 217.688 152.838C216.597 153.134 215.669 153.438 215.626 153.512C215.583 153.586 215.151 154.852 214.665 156.324C214.18 157.796 213.755 159.001 213.722 159C213.689 158.999 213.271 157.815 212.793 156.367L211.925 153.736L213.351 149.339L214.776 144.943L216.652 144.908C217.684 144.888 218.529 144.888 218.529 144.908C218.529 144.927 218.048 146.358 217.461 148.088C216.873 149.818 216.436 151.251 216.489 151.273C216.679 151.35 218.482 150.627 219.487 150.072C221.691 148.852 222.615 147.64 222.615 145.967C222.615 145.344 222.558 145.093 222.354 144.816C221.799 144.061 221.714 144.05 216.02 143.98L210.807 143.916L210.406 142.696C210.185 142.025 210.002 141.462 210 141.444C209.998 141.427 211.365 141.412 213.039 141.412H216.081L216.29 140.706L216.498 140H217.271H218.045L217.75 140.714Z" fill="#00142E"/>
<path d="M217.75 140.714L217.563 141.266C217.563 141.266 217.457 141.363 217.889 141.388C218.32 141.412 218.32 141.469 218.562 140.674L218.801 140H219.506C219.894 140 220.211 140.022 220.211 140.048C220.211 140.074 220.13 140.342 220.031 140.642C219.932 140.942 219.851 141.232 219.851 141.286C219.851 141.34 220.811 141.409 221.984 141.441C223.797 141.489 224.216 141.539 224.778 141.773C225.66 142.141 226.279 142.709 226.674 143.512C226.952 144.078 226.999 144.329 227 145.264C227.001 146.196 226.954 146.458 226.674 147.061C226.179 148.129 225.17 149.241 223.91 150.11C221.936 151.472 220.675 152.025 217.688 152.838C216.597 153.134 215.669 153.438 215.626 153.512C215.583 153.586 215.151 154.852 214.665 156.324C214.18 157.796 213.755 159.001 213.722 159C213.689 158.999 213.271 157.815 212.793 156.367L211.925 153.736L213.351 149.339L214.776 144.943L216.652 144.908C217.684 144.888 218.529 144.888 218.529 144.908C218.529 144.927 218.048 146.358 217.461 148.088C216.873 149.818 216.436 151.251 216.489 151.273C216.679 151.35 218.482 150.627 219.487 150.072C221.691 148.852 222.615 147.64 222.615 145.967C222.615 145.344 222.558 145.093 222.354 144.816C221.799 144.061 221.714 144.05 216.02 143.98L210.807 143.916L210.406 142.696C210.185 142.025 210.002 141.462 210 141.444C209.998 141.427 211.365 141.412 213.039 141.412H216.081L216.29 140.706L216.498 140H217.271H218.045L217.75 140.714Z" fill="white"/>
<path d="M296.868 278.132H141.239C130.307 278.132 121.414 269.861 121.414 259.695V138.816C121.414 128.651 130.307 120.38 141.239 120.38H296.868C307.8 120.38 316.694 128.65 316.694 138.816V259.695C316.694 269.861 307.8 278.132 296.868 278.132ZM141.239 121.913C131.153 121.913 122.947 129.496 122.947 138.816V259.695C122.947 269.016 131.153 276.599 141.239 276.599H296.868C306.955 276.599 315.161 269.016 315.161 259.695V138.816C315.161 129.496 306.955 121.913 296.868 121.913H141.239Z" fill="#101111"/>
<path d="M206.867 190.685C206.867 195.924 210.478 199.66 211.606 200.7C211.839 200.914 212.066 201.136 212.286 201.365C212.677 201.772 213.056 202.128 213.22 202.234C213.432 202.37 213.498 203.094 213.365 203.841L210.581 219.626C210.449 220.375 210.918 220.986 211.623 220.986H226.483C227.189 220.986 227.657 220.375 227.526 219.626L224.742 203.841C224.61 203.094 224.675 202.37 224.888 202.234C225.031 202.141 225.34 201.855 225.678 201.512C225.987 201.197 226.308 200.894 226.636 200.602C227.892 199.485 231.24 196.006 231.24 190.685C231.24 183.428 225.773 177.525 219.053 177.525C212.333 177.525 206.867 183.428 206.867 190.685Z" fill="white"/>
<path d="M226.483 221.752H211.623C211.069 221.752 210.574 221.526 210.229 221.115C209.867 220.683 209.72 220.093 209.826 219.493L212.61 203.708C212.686 203.28 212.673 202.926 212.644 202.76C212.333 202.512 211.918 202.089 211.733 201.896C211.53 201.684 211.312 201.471 211.087 201.263C209.917 200.185 206.101 196.237 206.101 190.684C206.101 183.006 211.911 176.758 219.053 176.758C226.196 176.758 232.007 183.006 232.007 190.684C232.007 196.248 228.607 199.874 227.146 201.175C226.818 201.466 226.508 201.761 226.225 202.049C225.995 202.283 225.697 202.574 225.463 202.761C225.434 202.926 225.421 203.28 225.497 203.708L228.281 219.493C228.386 220.093 228.239 220.684 227.877 221.115C227.532 221.526 227.036 221.752 226.483 221.752ZM219.053 178.291C212.756 178.291 207.633 183.851 207.633 190.684C207.633 195.614 211.071 199.165 212.125 200.136C212.374 200.365 212.614 200.6 212.839 200.834C213.288 201.302 213.571 201.546 213.638 201.591C214.391 202.075 214.197 203.538 214.12 203.975L211.335 219.759C211.309 219.911 211.333 220.046 211.403 220.129C211.454 220.19 211.526 220.219 211.623 220.219H226.483C226.58 220.219 226.652 220.19 226.703 220.129C226.773 220.046 226.798 219.911 226.771 219.759L223.987 203.974C223.91 203.537 223.717 202.074 224.474 201.588C224.533 201.548 224.77 201.342 225.131 200.975C225.438 200.662 225.773 200.344 226.126 200.029C227.433 198.866 230.474 195.627 230.474 190.684C230.474 183.851 225.351 178.291 219.053 178.291ZM225.315 202.87C225.311 202.872 225.308 202.875 225.305 202.877C225.308 202.875 225.311 202.872 225.315 202.87Z" fill="#101111"/>
<path d="M226.483 221.801H211.623C211.063 221.801 210.541 221.562 210.192 221.146C209.821 220.704 209.67 220.098 209.778 219.485L212.562 203.7C212.634 203.293 212.625 202.953 212.599 202.786C212.287 202.534 211.881 202.12 211.698 201.93C211.496 201.719 211.279 201.507 211.054 201.299C209.88 200.218 206.052 196.257 206.052 190.685C206.052 182.979 211.884 176.709 219.053 176.709C226.223 176.709 232.056 182.979 232.056 190.685C232.056 196.268 228.645 199.906 227.178 201.211C226.852 201.502 226.543 201.795 226.259 202.084C226.034 202.313 225.743 202.598 225.509 202.787C225.482 202.954 225.473 203.293 225.545 203.7L228.329 219.485C228.437 220.099 228.286 220.705 227.914 221.147C227.56 221.569 227.051 221.801 226.483 221.801Z" fill="white"/>
<path d="M226.483 222.568H211.623C210.836 222.568 210.1 222.229 209.605 221.639C209.087 221.023 208.876 220.189 209.023 219.352L211.807 203.566C211.836 203.406 211.848 203.264 211.851 203.153C211.582 202.909 211.308 202.63 211.145 202.461C210.954 202.262 210.749 202.061 210.534 201.863C209.303 200.728 205.285 196.569 205.285 190.684C205.285 182.556 211.462 175.943 219.054 175.943C226.646 175.943 232.822 182.556 232.822 190.684C232.822 196.578 229.232 200.41 227.688 201.784C227.374 202.064 227.077 202.345 226.806 202.621C226.602 202.828 226.418 203.006 226.257 203.153C226.26 203.265 226.271 203.406 226.3 203.566L229.084 219.352C229.231 220.19 229.018 221.024 228.501 221.64C227.999 222.238 227.282 222.568 226.483 222.568ZM219.053 177.476C212.307 177.476 206.818 183.401 206.818 190.684C206.818 195.946 210.458 199.708 211.573 200.735C211.811 200.954 212.039 201.178 212.251 201.399C212.406 201.561 212.798 201.962 213.081 202.19C213.228 202.31 213.326 202.479 213.356 202.667C213.405 202.981 213.391 203.417 213.317 203.833L210.533 219.618C210.464 220.008 210.554 220.385 210.779 220.653C210.982 220.896 211.29 221.035 211.623 221.035H226.483C226.826 221.035 227.118 220.903 227.328 220.654C227.553 220.386 227.643 220.008 227.574 219.617L224.79 203.833C224.717 203.416 224.702 202.981 224.751 202.668C224.781 202.48 224.879 202.31 225.027 202.191C225.194 202.056 225.431 201.833 225.713 201.546C226.007 201.247 226.329 200.941 226.669 200.639C228.058 199.402 231.289 195.957 231.289 190.684C231.289 183.401 225.8 177.476 219.053 177.476Z" fill="#101111"/>
<path d="M225.278 219.951H216.942C216.519 219.951 216.176 219.608 216.176 219.185C216.176 218.762 216.519 218.418 216.942 218.418H225.278C225.702 218.418 226.045 218.762 226.045 219.185C226.045 219.608 225.702 219.951 225.278 219.951Z" fill="#101111"/>
<path d="M220.368 179.436C214.098 179.436 208.997 184.973 208.997 191.78L220.368 179.436Z" fill="white"/>
<path d="M208.997 192.546C208.573 192.546 208.23 192.203 208.23 191.78C208.23 184.55 213.675 178.669 220.368 178.669C220.791 178.669 221.134 179.012 221.134 179.435C221.134 179.859 220.791 180.202 220.368 180.202C214.52 180.202 209.763 185.396 209.763 191.78C209.763 192.203 209.42 192.546 208.997 192.546Z" fill="#101111"/>
<path d="M309.14 247.165C308.716 247.165 308.373 246.822 308.373 246.398V159.464C308.373 159.041 308.716 158.698 309.14 158.698C309.563 158.698 309.906 159.041 309.906 159.464V246.398C309.906 246.822 309.563 247.165 309.14 247.165Z" fill="#101111"/>
<path d="M127.656 175.006C127.233 175.006 126.89 174.662 126.89 174.239V143.806C126.89 133.64 135.783 125.369 146.715 125.369H171.517C171.94 125.369 172.284 125.712 172.284 126.136C172.284 126.559 171.94 126.902 171.517 126.902H146.715C136.628 126.902 128.423 134.485 128.423 143.806V174.239C128.423 174.662 128.079 175.006 127.656 175.006Z" fill="#101111"/>
<path d="M212.771 202.914C212.774 202.916 212.776 202.918 212.779 202.919C212.776 202.918 212.774 202.916 212.771 202.914Z" fill="white"/>
<path d="M212.778 203.686C212.634 203.686 212.489 203.646 212.36 203.562C212.359 203.561 212.357 203.56 212.355 203.558C212.353 203.557 212.351 203.556 212.35 203.555C212.348 203.554 212.347 203.553 212.346 203.552C212.342 203.55 212.337 203.547 212.334 203.544C211.989 203.305 211.901 202.831 212.137 202.484C212.374 202.136 212.846 202.043 213.196 202.277C213.201 202.28 213.207 202.284 213.21 202.286C213.558 202.523 213.65 202.995 213.417 203.345C213.269 203.566 213.026 203.686 212.778 203.686Z" fill="#101111"/>
<path d="M225.332 203.685C225.083 203.685 224.838 203.563 224.691 203.339C224.46 202.987 224.556 202.514 224.907 202.28C224.909 202.279 224.916 202.274 224.919 202.272C224.923 202.27 224.93 202.265 224.931 202.265C225.285 202.039 225.755 202.141 225.984 202.493C226.214 202.845 226.117 203.316 225.767 203.549C225.765 203.551 225.758 203.556 225.755 203.557C225.753 203.559 225.749 203.561 225.748 203.562C225.619 203.645 225.475 203.685 225.332 203.685Z" fill="#101111"/>
<path d="M276.488 92.6104C276.466 92.6104 276.444 92.6094 276.421 92.6074C275.999 92.5708 275.687 92.1991 275.724 91.7773C276.272 85.4811 275.406 79.2446 273.15 73.2413C270.964 67.4263 267.589 62.1119 263.116 57.4459C252.73 46.6093 237.771 40.7929 222.078 41.4911C222.067 41.4915 222.056 41.4918 222.044 41.4918H222.008C221.585 41.4918 221.242 41.1487 221.242 40.7254C221.242 40.302 221.585 39.9589 222.008 39.9589H222.028C238.156 39.2467 253.535 45.2339 264.223 56.3853C268.84 61.202 272.326 66.6918 274.585 72.7022C276.922 78.9216 277.819 85.3842 277.251 91.9104C277.216 92.3094 276.882 92.6104 276.488 92.6104Z" fill="#101111"/>
<path d="M359.245 268.832L170.979 311.166C153.635 315.066 136.412 304.167 132.512 286.823C128.612 269.478 139.511 252.256 156.856 248.356L345.121 206.022C362.465 202.122 379.688 213.021 383.588 230.365C387.488 247.71 376.589 264.932 359.245 268.832Z" fill="#FFCD1E"/>
<path d="M163.853 312.728C157.686 312.728 151.632 310.987 146.294 307.609C138.855 302.901 133.695 295.579 131.764 286.991C129.833 278.402 131.362 269.576 136.069 262.137C140.776 254.699 148.099 249.539 156.687 247.608L344.952 205.274C353.541 203.343 362.367 204.872 369.805 209.579C377.244 214.286 382.404 221.609 384.335 230.197C386.266 238.785 384.738 247.612 380.03 255.05C375.323 262.489 368.001 267.649 359.412 269.58L171.147 311.914C168.723 312.459 166.279 312.728 163.853 312.728ZM352.244 205.993C349.93 205.993 347.601 206.25 345.289 206.77L157.023 249.103C148.835 250.945 141.853 255.865 137.365 262.957C132.876 270.05 131.418 278.465 133.26 286.654C135.101 294.843 140.021 301.825 147.114 306.313C154.206 310.802 162.622 312.259 170.811 310.418L359.076 268.084C367.265 266.243 374.246 261.323 378.735 254.23C383.223 247.138 384.681 238.722 382.84 230.533C380.998 222.344 376.078 215.363 368.986 210.874C363.896 207.653 358.124 205.993 352.244 205.993Z" fill="#101111"/>
<path d="M192.201 283.016C191.387 284.165 190.299 284.892 188.938 285.198C187.849 285.443 186.813 285.211 185.832 284.502C184.851 283.794 184.238 282.895 183.993 281.806C183.779 280.853 184.032 279.759 184.756 278.524C185.479 277.289 187.477 275.839 190.749 274.174C187.131 273.987 184.718 273.511 183.511 272.745C182.302 271.981 181.591 271.122 181.376 270.169C181.132 269.081 181.3 268.006 181.885 266.944C182.467 265.885 183.304 265.231 184.393 264.986C185.754 264.68 187.045 264.856 188.264 265.51C189.484 266.166 190.972 266.903 192.73 267.723C192.317 266.529 191.9 265.462 191.474 264.52C191.048 263.58 190.751 262.736 190.582 261.986C190.276 260.626 190.385 259.44 190.908 258.427C191.431 257.417 192.339 256.765 193.632 256.474C194.993 256.168 196.139 256.34 197.072 256.988C198.004 257.636 198.624 258.641 198.93 260.002C199.129 260.887 199.202 261.854 199.153 262.901C199.102 263.949 199.172 265.06 199.365 266.231C200.639 264.587 201.712 263.237 202.584 262.183C203.455 261.129 204.503 260.464 205.728 260.189C206.816 259.944 207.852 260.177 208.834 260.885C209.814 261.594 210.428 262.493 210.673 263.581C210.887 264.535 210.595 265.619 209.796 266.835C208.997 268.051 207.003 269.519 203.815 271.236C207.416 271.356 209.843 271.811 211.093 272.602C212.343 273.393 213.076 274.266 213.29 275.218C213.535 276.307 213.364 277.383 212.781 278.442C212.197 279.504 211.36 280.156 210.273 280.401C209.048 280.676 207.812 280.508 206.566 279.894C205.319 279.281 203.769 278.503 201.913 277.562C202.24 278.705 202.652 279.738 203.147 280.663C203.64 281.589 203.987 282.494 204.186 283.378C204.492 284.74 204.366 285.93 203.809 286.948C203.251 287.968 202.292 288.629 200.932 288.935C199.638 289.226 198.54 289.028 197.634 288.336C196.728 287.647 196.122 286.622 195.816 285.26C195.632 284.443 195.532 283.519 195.514 282.486C195.496 281.454 195.416 280.31 195.278 279.054C194.04 280.548 193.015 281.868 192.201 283.016Z" fill="white"/>
<path d="M199.827 289.832C198.832 289.832 197.941 289.536 197.168 288.946C196.12 288.148 195.413 286.965 195.067 285.428C194.873 284.565 194.766 283.58 194.747 282.5C194.739 282.031 194.717 281.532 194.682 281.004C193.97 281.9 193.349 282.722 192.826 283.46C192.826 283.46 192.826 283.46 192.826 283.46C191.903 284.762 190.651 285.599 189.106 285.946C187.797 286.241 186.544 285.963 185.383 285.123C184.251 284.308 183.531 283.248 183.245 281.974C182.987 280.829 183.273 279.538 184.095 278.137C184.703 277.098 186.029 275.976 188.122 274.736C185.756 274.471 184.102 274.028 183.1 273.393C181.72 272.521 180.888 271.493 180.628 270.337C180.342 269.065 180.539 267.8 181.213 266.575C181.904 265.319 182.917 264.533 184.225 264.239C185.763 263.893 187.244 264.093 188.626 264.834C189.419 265.261 190.334 265.726 191.36 266.223C191.165 265.729 190.969 265.266 190.775 264.837C190.33 263.854 190.013 262.951 189.834 262.154C189.489 260.62 189.621 259.248 190.227 258.076C190.857 256.858 191.946 256.068 193.464 255.727C195.035 255.373 196.396 255.586 197.509 256.358C198.6 257.118 199.329 258.287 199.677 259.834C199.889 260.779 199.971 261.823 199.918 262.937C199.897 263.369 199.898 263.815 199.921 264.273C200.717 263.26 201.401 262.409 201.993 261.694C202.97 260.512 204.17 259.754 205.559 259.442C206.865 259.148 208.117 259.424 209.281 260.263C210.416 261.084 211.135 262.144 211.42 263.413C211.681 264.573 211.35 265.866 210.436 267.256C209.775 268.263 208.45 269.375 206.413 270.63C208.788 270.86 210.464 271.298 211.502 271.955C212.925 272.855 213.778 273.896 214.037 275.05C214.323 276.322 214.126 277.588 213.452 278.812C212.761 280.069 211.748 280.855 210.44 281.149C209.044 281.463 207.626 281.272 206.226 280.581C205.379 280.165 204.398 279.676 203.256 279.101C203.43 279.522 203.619 279.923 203.822 280.301C204.348 281.289 204.721 282.267 204.933 283.21C205.28 284.752 205.128 286.133 204.481 287.316C203.816 288.532 202.678 289.329 201.099 289.683C200.658 289.783 200.234 289.832 199.827 289.832ZM195.278 278.288C195.351 278.288 195.425 278.298 195.497 278.32C195.792 278.408 196.006 278.664 196.039 278.97C196.181 280.257 196.262 281.436 196.279 282.473C196.296 283.449 196.392 284.331 196.563 285.092C196.831 286.283 197.333 287.145 198.097 287.727C198.82 288.278 199.692 288.429 200.763 288.188C201.909 287.93 202.686 287.404 203.136 286.58C203.605 285.723 203.704 284.73 203.438 283.546C203.256 282.737 202.93 281.888 202.469 281.023C201.951 280.054 201.516 278.961 201.176 277.773C201.092 277.48 201.19 277.165 201.425 276.971C201.66 276.777 201.987 276.741 202.259 276.879C204.149 277.838 205.668 278.599 206.904 279.206C207.997 279.745 209.044 279.891 210.104 279.653C210.976 279.457 211.632 278.94 212.109 278.073C212.604 277.174 212.746 276.295 212.541 275.386C212.374 274.644 211.749 273.925 210.682 273.25C209.908 272.76 208.083 272.146 203.789 272.002C203.443 271.991 203.147 271.748 203.068 271.411C202.989 271.074 203.146 270.725 203.451 270.561C207.263 268.508 208.657 267.173 209.155 266.414C209.832 265.385 210.091 264.488 209.925 263.75C209.721 262.843 209.217 262.109 208.383 261.506C207.581 260.928 206.767 260.741 205.896 260.937C204.831 261.177 203.94 261.744 203.174 262.671C202.323 263.7 201.275 265.018 199.971 266.701C199.784 266.942 199.472 267.049 199.177 266.974C198.881 266.9 198.658 266.657 198.609 266.356C198.408 265.139 198.333 263.964 198.387 262.864C198.433 261.888 198.364 260.981 198.181 260.17C197.917 258.993 197.41 258.158 196.634 257.617C195.879 257.093 194.952 256.964 193.8 257.223C192.73 257.463 192.006 257.973 191.588 258.78C191.147 259.635 191.062 260.629 191.33 261.818C191.486 262.514 191.769 263.316 192.172 264.204C192.601 265.152 193.032 266.252 193.454 267.473C193.555 267.764 193.471 268.087 193.243 268.293C193.014 268.499 192.685 268.548 192.406 268.418C190.648 267.598 189.132 266.847 187.901 266.185C186.839 265.616 185.746 265.468 184.561 265.735C183.689 265.931 183.033 266.448 182.556 267.314C182.061 268.214 181.919 269.093 182.124 270.001C182.291 270.745 182.895 271.451 183.92 272.098C184.67 272.573 186.469 273.186 190.788 273.409C191.135 273.427 191.426 273.675 191.498 274.015C191.57 274.354 191.406 274.7 191.096 274.857C187.204 276.839 185.86 278.156 185.418 278.912C184.799 279.967 184.571 280.884 184.74 281.638C184.945 282.548 185.449 283.281 186.28 283.881C187.082 284.461 187.896 284.647 188.77 284.45C189.95 284.185 190.868 283.571 191.575 282.573C192.393 281.42 193.44 280.072 194.687 278.565C194.835 278.386 195.053 278.288 195.278 278.288Z" fill="#101111"/>
<path d="M231.978 274.072C231.164 275.22 230.076 275.947 228.715 276.253C227.626 276.498 226.59 276.267 225.61 275.557C224.628 274.85 224.015 273.95 223.77 272.861C223.556 271.909 223.809 270.814 224.534 269.579C225.256 268.344 227.255 266.895 230.526 265.229C226.908 265.042 224.496 264.566 223.288 263.8C222.079 263.036 221.368 262.178 221.154 261.224C220.909 260.136 221.078 259.061 221.662 258C222.245 256.94 223.081 256.286 224.171 256.042C225.531 255.736 226.822 255.911 228.042 256.565C229.262 257.221 230.75 257.959 232.507 258.778C232.095 257.584 231.677 256.517 231.251 255.575C230.825 254.636 230.528 253.791 230.359 253.041C230.053 251.681 230.162 250.495 230.685 249.483C231.209 248.472 232.116 247.82 233.41 247.529C234.77 247.224 235.916 247.395 236.85 248.043C237.781 248.691 238.401 249.696 238.707 251.057C238.906 251.942 238.979 252.909 238.93 253.956C238.879 255.004 238.95 256.115 239.143 257.286C240.417 255.642 241.489 254.292 242.361 253.238C243.232 252.184 244.28 251.52 245.505 251.244C246.593 251 247.629 251.232 248.611 251.94C249.592 252.649 250.206 253.548 250.45 254.636C250.665 255.59 250.372 256.674 249.573 257.89C248.775 259.107 246.78 260.574 243.592 262.291C247.194 262.411 249.62 262.866 250.87 263.657C252.121 264.448 252.853 265.321 253.067 266.273C253.312 267.363 253.142 268.438 252.559 269.497C251.975 270.559 251.138 271.211 250.05 271.456C248.825 271.731 247.589 271.563 246.344 270.949C245.097 270.336 243.546 269.559 241.691 268.617C242.018 269.76 242.43 270.793 242.924 271.718C243.417 272.644 243.765 273.549 243.964 274.433C244.27 275.795 244.144 276.985 243.587 278.003C243.029 279.023 242.07 279.685 240.709 279.991C239.416 280.281 238.317 280.083 237.411 279.392C236.505 278.702 235.899 277.677 235.593 276.315C235.41 275.499 235.309 274.574 235.291 273.541C235.274 272.51 235.194 271.365 235.055 270.109C233.818 271.604 232.792 272.923 231.978 274.072Z" fill="white"/>
<path d="M239.605 280.888C238.61 280.888 237.719 280.592 236.946 280.002C235.898 279.204 235.191 278.02 234.845 276.484C234.651 275.621 234.543 274.635 234.524 273.555C234.517 273.087 234.495 272.587 234.46 272.059C233.748 272.956 233.127 273.778 232.604 274.516C231.68 275.818 230.429 276.654 228.884 277.002C227.574 277.296 226.322 277.019 225.161 276.179C224.029 275.363 223.309 274.303 223.023 273.03C222.765 271.884 223.051 270.593 223.873 269.192C224.481 268.153 225.806 267.032 227.9 265.791C225.534 265.527 223.879 265.083 222.878 264.448C221.498 263.577 220.666 262.548 220.406 261.393C220.12 260.121 220.317 258.855 220.99 257.631C221.682 256.374 222.695 255.588 224.003 255.294C225.541 254.949 227.022 255.149 228.404 255.89C229.197 256.316 230.112 256.781 231.138 257.279C230.943 256.785 230.747 256.322 230.553 255.892C230.107 254.909 229.791 254.006 229.612 253.21C229.267 251.676 229.399 250.304 230.004 249.132C230.635 247.914 231.724 247.124 233.242 246.782C234.813 246.429 236.174 246.641 237.287 247.414C238.378 248.173 239.107 249.342 239.455 250.889C239.667 251.834 239.748 252.878 239.695 253.993C239.675 254.425 239.676 254.871 239.699 255.328C240.494 254.317 241.178 253.466 241.77 252.75C242.747 251.568 243.947 250.81 245.337 250.497C246.642 250.203 247.895 250.48 249.059 251.319C250.193 252.14 250.913 253.199 251.198 254.469C251.459 255.629 251.127 256.921 250.214 258.312C249.553 259.318 248.228 260.431 246.19 261.686C248.566 261.916 250.242 262.354 251.28 263.01C252.702 263.911 253.555 264.952 253.815 266.106C254.101 267.377 253.904 268.643 253.23 269.868C252.539 271.124 251.525 271.91 250.218 272.204C248.822 272.518 247.404 272.327 246.004 271.637C245.155 271.22 244.174 270.731 243.034 270.156C243.208 270.577 243.397 270.978 243.599 271.357C244.125 272.345 244.499 273.323 244.711 274.266C245.058 275.808 244.905 277.189 244.259 278.372C243.594 279.588 242.456 280.384 240.877 280.739C240.437 280.838 240.012 280.888 239.605 280.888ZM235.055 269.343C235.129 269.343 235.203 269.354 235.275 269.375C235.57 269.464 235.784 269.72 235.817 270.026C235.959 271.312 236.04 272.491 236.057 273.529C236.074 274.505 236.169 275.386 236.341 276.148C236.609 277.339 237.11 278.2 237.875 278.782C238.598 279.334 239.47 279.484 240.541 279.243C241.687 278.986 242.463 278.46 242.914 277.636C243.383 276.778 243.482 275.786 243.216 274.602C243.034 273.793 242.708 272.944 242.247 272.078C241.729 271.11 241.294 270.016 240.954 268.829C240.87 268.536 240.967 268.22 241.203 268.026C241.438 267.832 241.766 267.796 242.037 267.934C243.925 268.892 245.444 269.653 246.682 270.261C247.775 270.801 248.821 270.947 249.882 270.709C250.754 270.512 251.41 269.996 251.887 269.128C252.382 268.229 252.524 267.35 252.319 266.442C252.152 265.699 251.527 264.98 250.46 264.305C249.686 263.815 247.861 263.201 243.567 263.058C243.221 263.046 242.925 262.804 242.846 262.467C242.767 262.129 242.924 261.781 243.229 261.617C247.041 259.564 248.434 258.228 248.932 257.47C249.61 256.44 249.869 255.544 249.702 254.805C249.499 253.898 248.994 253.164 248.161 252.561C247.359 251.983 246.544 251.797 245.673 251.993C244.608 252.232 243.718 252.8 242.952 253.727C242.099 254.757 241.051 256.075 239.748 257.756C239.562 257.997 239.249 258.105 238.954 258.03C238.659 257.955 238.436 257.712 238.386 257.412C238.186 256.195 238.111 255.02 238.164 253.92C238.211 252.943 238.142 252.037 237.959 251.226C237.694 250.048 237.188 249.213 236.412 248.673C235.657 248.148 234.729 248.019 233.578 248.278C232.508 248.519 231.784 249.028 231.366 249.836C230.925 250.69 230.84 251.684 231.107 252.874C231.264 253.569 231.547 254.372 231.949 255.26C232.378 256.208 232.81 257.307 233.232 258.529C233.332 258.819 233.249 259.142 233.021 259.348C232.792 259.554 232.462 259.604 232.184 259.474C230.425 258.654 228.91 257.903 227.679 257.241C226.617 256.671 225.524 256.524 224.339 256.79C223.466 256.986 222.81 257.503 222.333 258.37C221.839 259.269 221.697 260.148 221.902 261.057C222.069 261.801 222.673 262.506 223.697 263.153C224.447 263.629 226.247 264.241 230.566 264.464C230.912 264.482 231.204 264.731 231.276 265.07C231.348 265.41 231.183 265.755 230.874 265.913C226.982 267.895 225.638 269.211 225.195 269.967C224.577 271.023 224.349 271.94 224.518 272.693C224.723 273.603 225.227 274.337 226.058 274.936C226.86 275.516 227.674 275.702 228.548 275.506C229.728 275.24 230.646 274.626 231.353 273.629C232.171 272.476 233.218 271.127 234.465 269.621C234.613 269.442 234.831 269.343 235.055 269.343Z" fill="#101111"/>
<path d="M271.756 265.128C270.941 266.276 269.853 267.003 268.493 267.309C267.403 267.554 266.368 267.323 265.387 266.613C264.405 265.906 263.793 265.006 263.548 263.917C263.334 262.965 263.587 261.871 264.311 260.635C265.034 259.4 267.032 257.951 270.304 256.285C266.686 256.098 264.273 255.622 263.065 254.856C261.856 254.093 261.145 253.234 260.931 252.28C260.686 251.192 260.855 250.117 261.439 249.056C262.022 247.996 262.859 247.343 263.948 247.098C265.309 246.792 266.6 246.967 267.819 247.621C269.039 248.277 270.527 249.015 272.285 249.834C271.872 248.64 271.454 247.573 271.028 246.632C270.603 245.692 270.305 244.847 270.137 244.097C269.831 242.737 269.94 241.551 270.463 240.539C270.986 239.528 271.894 238.876 273.187 238.586C274.548 238.28 275.694 238.451 276.627 239.099C277.559 239.747 278.178 240.753 278.484 242.113C278.683 242.998 278.757 243.965 278.707 245.012C278.657 246.061 278.727 247.171 278.92 248.342C280.194 246.699 281.266 245.348 282.138 244.294C283.009 243.241 284.058 242.576 285.283 242.3C286.37 242.056 287.406 242.289 288.388 242.996C289.369 243.706 289.983 244.605 290.228 245.693C290.442 246.646 290.15 247.731 289.351 248.946C288.552 250.163 286.558 251.63 283.37 253.347C286.971 253.468 289.397 253.922 290.647 254.714C291.898 255.505 292.63 256.377 292.844 257.33C293.089 258.419 292.919 259.494 292.336 260.554C291.752 261.615 290.915 262.267 289.827 262.512C288.602 262.787 287.367 262.619 286.121 262.005C284.874 261.392 283.323 260.615 281.468 259.673C281.795 260.816 282.207 261.849 282.701 262.774C283.194 263.7 283.542 264.606 283.741 265.489C284.047 266.851 283.921 268.041 283.364 269.059C282.806 270.08 281.847 270.741 280.486 271.047C279.193 271.338 278.094 271.139 277.188 270.448C276.282 269.758 275.677 268.733 275.37 267.371C275.187 266.555 275.086 265.631 275.068 264.597C275.051 263.566 274.971 262.421 274.833 261.165C273.595 262.659 272.57 263.979 271.756 265.128Z" fill="white"/>
<path d="M279.382 271.943C278.387 271.943 277.496 271.647 276.723 271.057C275.675 270.259 274.968 269.075 274.622 267.539C274.428 266.676 274.321 265.691 274.302 264.61C274.294 264.142 274.272 263.642 274.237 263.114C273.526 264.011 272.904 264.833 272.381 265.571C271.458 266.873 270.206 267.709 268.661 268.057C267.352 268.351 266.099 268.074 264.938 267.234C263.806 266.418 263.086 265.359 262.8 264.085C262.542 262.94 262.828 261.649 263.65 260.247C264.258 259.209 265.583 258.087 267.678 256.846C265.311 256.582 263.657 256.139 262.655 255.503C261.275 254.631 260.443 253.603 260.183 252.448C259.897 251.176 260.094 249.91 260.768 248.686C261.459 247.429 262.473 246.643 263.78 246.35C265.318 246.004 266.799 246.204 268.182 246.945C268.974 247.371 269.889 247.836 270.915 248.334C270.72 247.84 270.525 247.377 270.33 246.947C269.885 245.964 269.568 245.062 269.389 244.265C269.044 242.731 269.176 241.359 269.782 240.187C270.412 238.969 271.501 238.179 273.019 237.838C274.59 237.484 275.952 237.697 277.064 238.469C278.155 239.228 278.884 240.397 279.232 241.945C279.444 242.889 279.526 243.933 279.473 245.048C279.452 245.48 279.453 245.926 279.476 246.383C280.272 245.371 280.956 244.52 281.548 243.805C282.525 242.623 283.725 241.865 285.114 241.552C286.42 241.258 287.672 241.535 288.836 242.374C289.97 243.195 290.69 244.254 290.975 245.524C291.236 246.684 290.905 247.977 289.991 249.367C289.33 250.374 288.006 251.486 285.968 252.741C288.343 252.971 290.019 253.409 291.057 254.066C292.48 254.966 293.332 256.007 293.592 257.161C293.878 258.433 293.681 259.698 293.007 260.923C292.316 262.18 291.302 262.966 289.995 263.259C288.599 263.574 287.181 263.383 285.782 262.692C284.934 262.275 283.953 261.786 282.811 261.211C282.985 261.632 283.174 262.033 283.377 262.412C283.902 263.399 284.276 264.377 284.488 265.321C284.835 266.863 284.683 268.244 284.036 269.427C283.371 270.643 282.233 271.439 280.654 271.794C280.214 271.893 279.789 271.943 279.382 271.943ZM274.833 260.398C274.906 260.398 274.98 260.409 275.052 260.431C275.347 260.519 275.561 260.775 275.594 261.081C275.736 262.368 275.817 263.547 275.835 264.584C275.851 265.56 275.947 266.442 276.118 267.203C276.386 268.394 276.888 269.256 277.652 269.838C278.375 270.389 279.247 270.539 280.318 270.299C281.464 270.041 282.241 269.515 282.691 268.691C283.16 267.833 283.259 266.841 282.993 265.657C282.811 264.848 282.485 263.999 282.025 263.134C281.507 262.165 281.071 261.071 280.731 259.884C280.647 259.591 280.745 259.276 280.98 259.082C281.215 258.887 281.543 258.851 281.815 258.989C283.704 259.948 285.224 260.71 286.459 261.317C287.552 261.856 288.599 262.002 289.659 261.764C290.531 261.568 291.187 261.051 291.665 260.184C292.16 259.284 292.301 258.405 292.097 257.497C291.93 256.755 291.304 256.036 290.238 255.361C289.463 254.871 287.638 254.256 283.344 254.113C282.998 254.101 282.703 253.859 282.623 253.522C282.544 253.185 282.701 252.836 283.006 252.672C286.818 250.619 288.212 249.284 288.71 248.525C289.387 247.495 289.646 246.599 289.48 245.86C289.276 244.953 288.772 244.22 287.939 243.617C287.136 243.038 286.322 242.852 285.451 243.048C284.386 243.287 283.496 243.855 282.729 244.782C281.878 245.811 280.83 247.128 279.526 248.812C279.339 249.053 279.027 249.16 278.732 249.085C278.436 249.01 278.213 248.768 278.164 248.467C277.963 247.25 277.888 246.075 277.942 244.975C277.988 243.998 277.919 243.092 277.737 242.281C277.472 241.103 276.966 240.268 276.189 239.728C275.434 239.204 274.507 239.074 273.355 239.333C272.285 239.574 271.561 240.084 271.143 240.891C270.702 241.746 270.617 242.74 270.885 243.929C271.041 244.624 271.324 245.427 271.727 246.315C272.156 247.264 272.588 248.364 273.009 249.584C273.11 249.875 273.027 250.198 272.798 250.404C272.569 250.61 272.24 250.659 271.961 250.529C270.202 249.709 268.687 248.958 267.456 248.296C266.394 247.727 265.301 247.579 264.116 247.845C263.244 248.042 262.588 248.558 262.111 249.425C261.616 250.325 261.475 251.203 261.679 252.112C261.846 252.856 262.451 253.561 263.475 254.208C264.225 254.684 266.024 255.297 270.343 255.52C270.69 255.538 270.981 255.786 271.053 256.126C271.126 256.465 270.961 256.811 270.651 256.968C266.759 258.95 265.415 260.267 264.973 261.022C264.354 262.078 264.126 262.995 264.296 263.749C264.5 264.659 265.004 265.392 265.835 265.991C266.637 266.572 267.451 266.757 268.325 266.561C269.505 266.296 270.423 265.682 271.131 264.684C271.948 263.531 272.995 262.183 274.242 260.676C274.39 260.497 274.608 260.398 274.833 260.398Z" fill="#101111"/>
<path d="M311.533 256.183C310.719 257.332 309.631 258.059 308.271 258.365C307.181 258.61 306.146 258.378 305.165 257.669C304.183 256.962 303.57 256.062 303.326 254.973C303.111 254.021 303.365 252.926 304.089 251.691C304.812 250.456 306.81 249.007 310.081 247.341C306.464 247.154 304.051 246.678 302.843 245.912C301.634 245.148 300.923 244.29 300.709 243.336C300.464 242.248 300.633 241.173 301.217 240.111C301.8 239.052 302.637 238.398 303.726 238.153C305.086 237.847 306.377 238.023 307.597 238.677C308.817 239.333 310.305 240.07 312.063 240.89C311.65 239.696 311.232 238.629 310.806 237.687C310.38 236.747 310.083 235.903 309.915 235.153C309.609 233.793 309.717 232.607 310.24 231.594C310.764 230.584 311.671 229.932 312.965 229.641C314.325 229.335 315.472 229.507 316.405 230.155C317.337 230.803 317.956 231.808 318.262 233.169C318.461 234.054 318.535 235.021 318.485 236.068C318.434 237.116 318.505 238.227 318.698 239.398C319.972 237.754 321.044 236.404 321.916 235.35C322.787 234.296 323.836 233.631 325.061 233.356C326.148 233.111 327.184 233.344 328.166 234.052C329.147 234.761 329.761 235.66 330.006 236.748C330.22 237.702 329.928 238.786 329.129 240.002C328.33 241.218 326.336 242.686 323.148 244.403C326.749 244.523 329.175 244.978 330.425 245.769C331.676 246.56 332.408 247.433 332.622 248.385C332.867 249.474 332.697 250.55 332.114 251.609C331.53 252.671 330.693 253.323 329.605 253.568C328.38 253.843 327.145 253.675 325.899 253.061C324.652 252.448 323.101 251.67 321.246 250.729C321.573 251.872 321.985 252.905 322.479 253.83C322.972 254.756 323.32 255.661 323.519 256.545C323.825 257.907 323.699 259.097 323.142 260.115C322.584 261.135 321.625 261.796 320.264 262.102C318.971 262.393 317.872 262.195 316.966 261.503C316.06 260.814 315.454 259.789 315.148 258.427C314.965 257.61 314.864 256.686 314.846 255.653C314.829 254.621 314.749 253.477 314.611 252.221C313.373 253.715 312.348 255.035 311.533 256.183Z" fill="white"/>
<path d="M319.16 262.999C318.164 262.999 317.274 262.703 316.501 262.113C315.452 261.315 314.745 260.132 314.4 258.595C314.206 257.733 314.098 256.747 314.079 255.667C314.071 255.198 314.05 254.698 314.015 254.171C313.303 255.067 312.682 255.889 312.158 256.627C311.235 257.929 309.983 258.766 308.438 259.113C307.129 259.407 305.877 259.13 304.715 258.29C303.583 257.475 302.864 256.415 302.577 255.141C302.32 253.996 302.606 252.704 303.427 251.303C304.035 250.265 305.361 249.143 307.455 247.903C305.088 247.638 303.434 247.195 302.432 246.56C301.052 245.688 300.22 244.659 299.961 243.504C299.675 242.232 299.871 240.966 300.545 239.742C301.236 238.486 302.25 237.7 303.557 237.406C305.096 237.06 306.577 237.26 307.959 238.001C308.752 238.428 309.667 238.893 310.692 239.39C310.497 238.896 310.302 238.433 310.107 238.004C309.662 237.021 309.346 236.118 309.166 235.321C308.821 233.787 308.954 232.415 309.559 231.243C310.19 230.025 311.279 229.235 312.796 228.894C314.368 228.54 315.729 228.753 316.841 229.525C317.932 230.284 318.662 231.454 319.009 233.001C319.222 233.946 319.303 234.99 319.25 236.104C319.229 236.536 319.23 236.982 319.253 237.44C320.05 236.427 320.734 235.576 321.325 234.861C322.302 233.679 323.502 232.921 324.892 232.608C326.197 232.314 327.45 232.591 328.613 233.43C329.748 234.251 330.467 235.31 330.753 236.58C331.013 237.74 330.682 239.033 329.768 240.423C329.107 241.43 327.783 242.542 325.745 243.797C328.12 244.027 329.797 244.465 330.835 245.122C332.257 246.022 333.11 247.063 333.369 248.217C333.655 249.489 333.459 250.754 332.785 251.979C332.093 253.236 331.08 254.022 329.773 254.316C328.376 254.63 326.959 254.439 325.559 253.748C324.709 253.33 323.727 252.841 322.588 252.267C322.763 252.688 322.952 253.089 323.154 253.468C323.68 254.456 324.054 255.434 324.266 256.377C324.612 257.919 324.46 259.3 323.813 260.483C323.148 261.699 322.01 262.495 320.432 262.85C319.991 262.949 319.567 262.999 319.16 262.999ZM314.61 251.454C314.683 251.454 314.757 251.465 314.83 251.487C315.125 251.575 315.338 251.831 315.372 252.137C315.514 253.424 315.594 254.602 315.612 255.64C315.629 256.617 315.724 257.498 315.895 258.259C316.163 259.45 316.665 260.312 317.43 260.894C318.152 261.445 319.024 261.595 320.096 261.355C321.242 261.097 322.018 260.571 322.469 259.747C322.938 258.889 323.037 257.897 322.77 256.713C322.588 255.904 322.263 255.055 321.802 254.19C321.284 253.221 320.848 252.127 320.508 250.94C320.424 250.647 320.522 250.332 320.757 250.138C320.992 249.944 321.32 249.907 321.592 250.045C323.451 250.989 325.014 251.772 326.236 252.373C327.33 252.912 328.377 253.058 329.437 252.82C330.309 252.624 330.965 252.107 331.442 251.24C331.937 250.34 332.078 249.461 331.874 248.553C331.707 247.81 331.082 247.092 330.015 246.417C329.241 245.927 327.416 245.312 323.122 245.169C322.775 245.157 322.48 244.915 322.401 244.578C322.322 244.241 322.479 243.892 322.784 243.728C326.596 241.675 327.989 240.34 328.487 239.581C329.164 238.551 329.423 237.655 329.257 236.916C329.053 236.009 328.549 235.276 327.716 234.673C326.914 234.094 326.1 233.908 325.228 234.104C324.163 234.343 323.273 234.911 322.507 235.838C321.656 236.867 320.608 238.184 319.303 239.868C319.116 240.109 318.805 240.216 318.509 240.141C318.214 240.066 317.991 239.824 317.941 239.523C317.74 238.306 317.666 237.131 317.719 236.031C317.765 235.054 317.696 234.148 317.514 233.337C317.249 232.159 316.743 231.324 315.967 230.784C315.211 230.26 314.284 230.13 313.133 230.389C312.062 230.63 311.339 231.14 310.921 231.947C310.479 232.802 310.395 233.796 310.662 234.985C310.818 235.681 311.102 236.483 311.504 237.371C311.933 238.319 312.365 239.419 312.787 240.64C312.887 240.931 312.804 241.254 312.575 241.46C312.347 241.666 312.017 241.715 311.738 241.585C309.981 240.765 308.465 240.014 307.234 239.352C306.171 238.783 305.078 238.635 303.894 238.901C303.021 239.098 302.365 239.614 301.888 240.481C301.393 241.381 301.252 242.259 301.456 243.168C301.623 243.912 302.228 244.617 303.252 245.264C304.002 245.74 305.801 246.353 310.121 246.576C310.467 246.594 310.758 246.842 310.831 247.182C310.903 247.521 310.738 247.867 310.429 248.024C306.537 250.006 305.192 251.323 304.75 252.078C304.131 253.134 303.904 254.051 304.073 254.805C304.278 255.715 304.781 256.448 305.613 257.047C306.415 257.627 307.229 257.814 308.102 257.617C309.283 257.352 310.2 256.738 310.908 255.74C311.726 254.586 312.773 253.238 314.02 251.732C314.168 251.553 314.386 251.454 314.61 251.454Z" fill="#101111"/>
<path d="M240.29 291.028C239.939 291.028 239.622 290.785 239.543 290.428C239.451 290.015 239.711 289.605 240.124 289.513L352.859 264.383C363.59 262.005 371.397 256.97 375.437 249.822C379.089 243.363 379.505 235.439 376.643 226.908C376.508 226.506 376.724 226.072 377.125 225.937C377.526 225.802 377.961 226.018 378.096 226.42C381.101 235.375 380.643 243.728 376.772 250.577C372.512 258.113 364.358 263.405 353.192 265.879L240.458 291.009C240.402 291.022 240.346 291.028 240.29 291.028Z" fill="#101111"/>
<path d="M106.737 168.598C89.5417 183.868 72.0661 193.997 48.2576 201.882C48.4272 203.442 49.3718 212.128 53.7028 251.952C59.4803 305.077 115.232 325.019 123.882 328.069C131.429 323.667 181.963 291.68 176.185 238.555C171.854 198.731 170.91 190.044 170.74 188.485C145.796 185.932 124.796 179.072 106.737 168.598Z" fill="#2CD997"/>
<path d="M123.882 328.835C123.797 328.835 123.71 328.821 123.628 328.792C106.796 322.858 94.5551 314.97 87.2505 309.398C78.2263 302.515 70.824 294.727 65.249 286.25C58.4221 275.87 54.2811 264.359 52.941 252.036L47.4957 201.966C47.4567 201.607 47.6738 201.269 48.0167 201.155C71.3845 193.416 88.7936 183.508 106.228 168.025C106.475 167.806 106.836 167.77 107.122 167.936C116.219 173.211 126.065 177.533 136.387 180.781C147.069 184.142 158.654 186.478 170.818 187.723C171.178 187.76 171.463 188.043 171.502 188.403L176.948 238.473C182.865 292.881 130.284 325.223 124.269 328.731C124.15 328.8 124.017 328.835 123.882 328.835ZM49.0866 202.415L54.465 251.87C55.7786 263.949 59.8378 275.233 66.5298 285.408C72.0096 293.74 79.2939 301.401 88.1803 308.18C95.3487 313.648 107.331 321.373 123.802 327.227C131.003 322.964 181.147 291.264 175.423 238.638L170.045 189.184C158.003 187.913 146.527 185.579 135.927 182.243C125.678 179.018 115.892 174.745 106.832 169.538C89.5156 184.83 72.1869 194.696 49.0866 202.415Z" fill="#101111"/>
<path d="M147.957 226.455L139.76 219.93C139.725 219.901 137.672 222.583 137.643 222.619L108.905 258.724C108.876 258.76 108.824 258.766 108.788 258.738L87.2391 241.585C87.2031 241.557 87.1507 241.563 87.1221 241.599L80.5972 249.794C80.5686 249.83 80.5746 249.883 80.6105 249.911L102.225 267.114L102.224 267.116C102.195 267.152 102.201 267.204 102.237 267.233L110.434 273.757C110.47 273.786 110.523 273.78 110.551 273.744L110.616 273.796L117.193 265.533C117.222 265.497 117.216 265.446 117.181 265.417L117.18 265.416L145.971 229.247C145.999 229.211 147.993 226.483 147.957 226.455Z" fill="white"/>
<path d="M110.615 274.562C110.554 274.562 110.492 274.555 110.433 274.54C110.26 274.53 110.095 274.467 109.957 274.357L101.76 267.832C101.657 267.751 101.577 267.649 101.522 267.534L80.1329 250.511C79.7664 250.219 79.7056 249.683 79.997 249.317L86.522 241.121C86.8144 240.754 87.35 240.694 87.7162 240.985L108.73 257.712L137.043 222.141L137.124 222.036C137.322 221.778 137.817 221.135 138.268 220.555C138.496 220.262 138.713 219.986 138.877 219.782C139.203 219.377 139.337 219.209 139.666 219.169C139.87 219.144 140.076 219.202 140.237 219.33L148.435 225.855L148.435 225.855C148.565 225.959 148.956 226.348 148.523 227.004C148.469 227.085 148.39 227.2 148.294 227.338C148.129 227.573 147.899 227.895 147.61 228.296C147.17 228.905 146.607 229.678 146.57 229.724L117.955 265.672C117.927 265.793 117.874 265.908 117.792 266.01L111.215 274.273C111.088 274.433 110.902 274.536 110.699 274.558C110.671 274.561 110.643 274.562 110.615 274.562ZM102.924 266.8L110.442 272.783L116.429 265.261C116.452 265.146 116.502 265.035 116.58 264.938L145.364 228.777C145.508 228.585 146.41 227.346 146.928 226.615L139.87 220.996C139.586 221.356 139.116 221.96 138.34 222.97C138.281 223.046 138.246 223.091 138.242 223.096L109.504 259.201C109.362 259.379 109.161 259.491 108.935 259.516C108.709 259.541 108.487 259.478 108.31 259.337L87.296 242.61L81.6222 249.737L102.702 266.514C102.801 266.593 102.876 266.692 102.924 266.8ZM102.829 267.586C102.828 267.588 102.826 267.59 102.824 267.592C102.826 267.59 102.828 267.588 102.829 267.586Z" fill="#101111"/>
<path d="M60.1576 256.147C59.7715 256.147 59.4393 255.856 59.3966 255.463L53.9513 205.393C53.9122 205.034 54.1292 204.696 54.4723 204.582C74.1517 198.065 89.4477 190.065 104.069 178.644C104.402 178.384 104.884 178.443 105.144 178.777C105.405 179.11 105.346 179.592 105.012 179.853C90.3925 191.272 75.1136 199.302 55.5421 205.842L60.9204 255.297C60.9662 255.718 60.6621 256.096 60.2413 256.142C60.2133 256.145 60.1853 256.147 60.1576 256.147Z" fill="#101111"/>
</svg>
