<svg width="32" height="32" viewBox="0 0 16 10" fill="none" xmlns="http://www.w3.org/2000/svg">
    <path d="M14.2503 0H3.40134C3.23939 0 3.10812 0.131273 3.10812 0.293216C3.10812 0.45516 3.23939 0.586433 3.40134 0.586433H14.2503C14.3457 0.586433 14.4263 0.667008 14.4263 0.762362V1.40744H0.586433V0.762362C0.586433 0.667008 0.667008 0.586433 0.762362 0.586433H1.05558C1.21752 0.586433 1.34879 0.45516 1.34879 0.293216C1.34879 0.131273 1.21752 0 1.05558 0H0.762362C0.342007 0 0 0.341978 0 0.762362V9.20699C0 9.62735 0.342007 9.96935 0.762362 9.96935H11.4941C11.656 9.96935 11.7873 9.83808 11.7873 9.67614C11.7873 9.51419 11.656 9.38292 11.4941 9.38292H0.762362C0.667008 9.38292 0.586433 9.30235 0.586433 9.20699V1.99384H14.4263V9.20696C14.4263 9.30232 14.3457 9.38289 14.2503 9.38289H13.8398C13.6779 9.38289 13.5466 9.51416 13.5466 9.67611C13.5466 9.83805 13.6779 9.96932 13.8398 9.96932H14.2503C14.6707 9.96932 15.0127 9.62735 15.0127 9.20696V0.762333C15.0127 0.341978 14.6707 0 14.2503 0Z" fill="#424242"/>
    <path d="M1.17285 8.50319C1.17285 8.66513 1.30412 8.7964 1.46607 8.7964H6.60622C6.76816 8.7964 6.89944 8.66513 6.89944 8.50319C6.89944 7.48581 6.36314 6.55822 5.50622 6.04594C5.69039 5.76762 5.79797 5.43444 5.79797 5.07645V4.34215C5.79797 3.37069 5.0076 2.58032 4.03614 2.58032C3.06469 2.58032 2.27432 3.37069 2.27432 4.34215V5.07645C2.27432 5.43444 2.38193 5.76765 2.5661 6.04597C1.70923 6.55828 1.17285 7.48605 1.17285 8.50319ZM2.86075 5.07642V4.76139C2.94388 4.77575 3.02824 4.78247 3.11298 4.78247C3.5677 4.78247 4.03207 4.59273 4.36373 4.39715C4.60897 4.59235 4.9153 4.69779 5.21156 4.69383V5.07642C5.21156 5.72455 4.68427 6.25181 4.03617 6.25181C3.38808 6.25181 2.86075 5.72455 2.86075 5.07642ZM4.03614 3.16673C4.60349 3.16673 5.07824 3.57078 5.18775 4.10622C4.9986 4.1037 4.77784 4.01879 4.62302 3.83573C4.52435 3.71903 4.35252 3.69771 4.22829 3.78676C3.89543 4.02541 3.29612 4.29318 2.87442 4.16296C2.96095 3.59957 3.44895 3.16673 4.03614 3.16673ZM2.98009 6.48574C3.27457 6.70697 3.6403 6.83824 4.03614 6.83824C4.43199 6.83824 4.79772 6.70697 5.09219 6.48574C5.75249 6.83132 6.19938 7.4759 6.29418 8.20994H1.77814C1.87294 7.47602 2.31986 6.83135 2.98009 6.48574Z" fill="#424242"/>
    <path d="M8.26868 4.33962H13.5466C13.7085 4.33962 13.8398 4.20835 13.8398 4.04641V2.87354C13.8398 2.7116 13.7085 2.58032 13.5466 2.58032H8.26868C8.10677 2.58032 7.97546 2.7116 7.97546 2.87354V4.04641C7.97546 4.20835 8.10674 4.33962 8.26868 4.33962ZM8.5619 3.16679H13.2534V3.75322H8.5619V3.16679Z" fill="#424242"/>
    <path d="M13.8398 5.21924C13.8398 5.0573 13.7085 4.92603 13.5466 4.92603H8.26868C8.10677 4.92603 7.97546 5.0573 7.97546 5.21924C7.97546 5.38119 8.10677 5.51246 8.26868 5.51246H13.5466C13.7085 5.51246 13.8398 5.38119 13.8398 5.21924Z" fill="#424242"/>
    <path d="M10.028 8.20996H8.26868C8.10677 8.20996 7.97546 8.34123 7.97546 8.50318C7.97546 8.66512 8.10677 8.79639 8.26868 8.79639H10.028C10.1899 8.79639 10.3212 8.66512 10.3212 8.50318C10.3212 8.34123 10.1899 8.20996 10.028 8.20996Z" fill="#424242"/>
    <path d="M11.2008 8.79657H13.5465C13.7085 8.79657 13.8398 8.6653 13.8398 8.50335V6.39234C13.8398 6.23039 13.7085 6.09912 13.5465 6.09912H11.2008C11.0389 6.09912 10.9076 6.23039 10.9076 6.39234V8.50335C10.9076 8.6653 11.0389 8.79657 11.2008 8.79657ZM11.494 6.68555H13.2533V8.21014H11.494V6.68555Z" fill="#424242"/>
    <path d="M10.028 6.09912H8.26868C8.10677 6.09912 7.97546 6.23039 7.97546 6.39234C7.97546 6.55428 8.10677 6.68555 8.26868 6.68555H10.028C10.1899 6.68555 10.3212 6.55428 10.3212 6.39234C10.3212 6.23039 10.1899 6.09912 10.028 6.09912Z" fill="#424242"/>
    <path d="M2.22861 0.586434C2.39055 0.586434 2.52182 0.455161 2.52182 0.293217C2.52182 0.131273 2.39055 0 2.22861 0H2.2284C2.06646 0 1.9353 0.131273 1.9353 0.293217C1.9353 0.455161 2.06666 0.586434 2.22861 0.586434Z" fill="#424242"/>
    <path d="M12.6671 9.38306H12.6669C12.505 9.38306 12.3738 9.51433 12.3738 9.67627C12.3738 9.83822 12.5051 9.96949 12.6671 9.96949C12.829 9.96949 12.9603 9.83822 12.9603 9.67627C12.9603 9.51433 12.829 9.38306 12.6671 9.38306Z" fill="#424242"/>
</svg>