<svg width="14" height="14" viewBox="0 0 14 14" fill="none" xmlns="http://www.w3.org/2000/svg">
    <path d="M13.4578 9.77075C13.4619 9.76206 13.4655 9.75317 13.4684 9.74405C14.2979 7.7499 14.1497 5.30514 13.0724 3.43657C13.6475 2.72039 12.9004 1.69477 12.0835 2.0916C11.9399 1.93878 11.7892 1.79231 11.633 1.65382C11.9396 0.785616 10.9163 0.0733957 10.279 0.722071C8.42665 -0.252224 6.12278 -0.239886 4.28068 0.755041C3.62538 0.0316781 2.52486 0.807273 2.92161 1.71486C2.69439 1.92182 2.47931 2.1454 2.28101 2.38183C2.10978 2.58597 2.41998 2.86577 2.59002 2.66305C2.77452 2.44312 2.97441 2.23508 3.18555 2.04228C3.59384 2.34903 4.18586 2.19276 4.40985 1.72452C5.14905 1.94616 5.85496 2.26426 6.51274 2.67251C6.45767 2.87936 6.48016 3.11038 6.57465 3.30133C6.03327 3.78846 5.54572 4.33951 5.12235 4.94342C4.73151 4.8204 4.3007 5.02631 4.13074 5.41186C3.26882 5.41667 2.40422 5.51325 1.55535 5.70015C1.48039 5.55465 1.36676 5.43409 1.22899 5.35333C1.38848 4.70548 1.64109 4.0892 1.98134 3.51938C2.11692 3.29227 1.77469 3.05618 1.63291 3.29361C1.27114 3.89942 1.00245 4.55457 0.832512 5.24325C-0.150404 5.26063 -0.315418 6.67704 0.620308 6.94951C0.606521 8.96535 1.44324 10.9252 2.89417 12.2603C2.5915 13.112 3.57412 13.8144 4.22257 13.2137C6.11503 14.262 8.50678 14.2621 10.3993 13.2141C11.0589 13.8935 12.1152 13.1345 11.7437 12.2462C12.4915 11.554 13.0724 10.7073 13.4578 9.77075ZM13.1993 9.29277C12.6313 8.70502 12.0098 8.17183 11.3462 7.70379C11.4405 7.3963 11.3585 7.05033 11.1385 6.82333C11.6965 5.8569 12.1345 4.82063 12.4429 3.73811C12.5457 3.73848 12.6444 3.71873 12.7354 3.683C13.6803 5.34524 13.8531 7.4884 13.1993 9.29277ZM3.75787 11.7087C3.5852 9.947 3.8882 8.18942 4.63812 6.6011C5.104 6.75252 5.60755 6.4334 5.69801 5.93527C7.11275 6.11693 8.47529 6.54958 9.75398 7.22336C9.69249 7.47235 9.7434 7.74691 9.88989 7.95404C8.44856 9.8561 6.54601 11.2874 4.36855 12.1077C4.23661 11.89 4.01472 11.7378 3.75787 11.7087ZM10.1381 7.43992C10.1381 7.19774 10.3259 7.00072 10.5567 7.00072C11.112 7.0248 11.1118 7.85513 10.5567 7.87913C10.3259 7.87913 10.1381 7.68211 10.1381 7.43992ZM12.8633 2.8715C12.8633 3.11368 12.6755 3.3107 12.4447 3.3107C11.8894 3.28662 11.8895 2.45629 12.4447 2.4323C12.6755 2.4323 12.8633 2.62931 12.8633 2.8715ZM11.7699 2.36906C11.4864 2.7841 11.618 3.38408 12.0455 3.63077C11.7468 4.67496 11.3233 5.67453 10.7846 6.60688C10.672 6.57314 10.5469 6.56476 10.4311 6.58323C9.86803 5.3307 9.04868 4.20253 8.04776 3.30138C8.14234 3.11032 8.16488 2.87971 8.10973 2.67257C8.74327 2.27939 9.4219 1.96953 10.1316 1.74925C10.3674 2.22359 11.0002 2.35752 11.393 2.00244C11.5232 2.1191 11.6492 2.24166 11.7699 2.36906ZM6.89264 2.90458C6.89264 2.6624 7.08042 2.46538 7.31122 2.46538C7.86653 2.48946 7.86636 3.31976 7.31122 3.34376C7.08042 3.34376 6.89264 3.14674 6.89264 2.90458ZM10.8612 0.899086C11.092 0.899086 11.2798 1.09611 11.2798 1.33829C11.2568 1.92094 10.4656 1.9208 10.4426 1.33829C10.4426 1.09611 10.6304 0.899086 10.8612 0.899086ZM3.66809 1.77746C3.43728 1.77746 3.24951 1.58045 3.24951 1.33826C3.27254 0.755582 4.06374 0.755781 4.08669 1.33826C4.08669 1.58045 3.89889 1.77746 3.66809 1.77746ZM4.49625 1.30549C4.49411 1.24616 4.48629 1.1884 4.47327 1.13267C6.19078 0.207496 8.33643 0.191368 10.0672 1.08964C10.0449 1.16712 10.0328 1.24904 10.0324 1.33387C9.28592 1.56389 8.57216 1.8888 7.90581 2.30161C7.58552 1.9565 7.03706 1.95639 6.71666 2.30159C6.02227 1.87136 5.27689 1.53693 4.49625 1.30549ZM6.8463 3.62168C7.12375 3.81892 7.49861 3.81895 7.77609 3.6217C8.7317 4.48116 9.51453 5.55702 10.0538 6.7517C10.0172 6.78096 9.98307 6.81336 9.95166 6.84844C8.60357 6.13619 7.16495 5.68334 5.67063 5.50114C5.63028 5.37393 5.56254 5.25972 5.47462 5.16623C5.87567 4.59874 6.33591 4.08043 6.8463 3.62168ZM4.8838 5.33412C5.11461 5.33412 5.30238 5.53114 5.30238 5.77333C5.27935 6.35601 4.48815 6.35583 4.4652 5.77333C4.46522 5.53114 4.653 5.33412 4.8838 5.33412ZM0.406436 6.10972C0.406436 5.86753 0.59421 5.67051 0.825016 5.67051C1.3803 5.69459 1.38013 6.5249 0.825016 6.54889C0.594238 6.54892 0.406436 6.3519 0.406436 6.10972ZM1.03063 6.94934C1.03063 6.94934 1.65383 6.80778 1.65383 6.11536C1.65383 6.11536 3.25298 5.8491 4.05756 5.83975C4.07266 6.0468 4.15755 6.23365 4.28774 6.37464C3.48816 8.05022 3.16566 9.9079 3.3513 11.7695C3.27136 11.8042 3.19777 11.8516 3.13272 11.9093C1.79414 10.6602 1.03063 8.56738 1.03063 6.94934ZM3.66809 13.0094C3.43728 13.0094 3.24951 12.8124 3.24951 12.5702C3.24951 12.328 3.43728 12.131 3.66809 12.131C3.8958 12.131 4.08669 12.3364 4.08669 12.5702C4.08669 12.8124 3.89889 13.0094 3.66809 13.0094ZM7.31122 13.5758C6.31542 13.5758 5.3307 13.3274 4.45059 12.8557C4.48632 12.7491 4.50207 12.6276 4.49512 12.5144C6.7476 11.6687 8.71592 10.1907 10.207 8.22541C10.3295 8.28525 10.4654 8.31272 10.6005 8.30534C10.6917 8.65774 10.7637 9.01727 10.8147 9.37677C10.8538 9.65199 11.2599 9.59049 11.2207 9.31425C11.1665 8.93253 11.0897 8.55074 10.9923 8.17682C11.0414 8.14502 11.087 8.10795 11.1285 8.06649C11.8132 8.55066 12.4515 9.10646 13.0298 9.7216C12.6711 10.5474 12.1491 11.2952 11.4859 11.9131C11.4204 11.8618 11.3472 11.8205 11.2688 11.7912C11.3091 11.3938 11.3266 10.9927 11.3207 10.5959C11.3166 10.3167 10.9063 10.3233 10.9104 10.6025C10.9161 10.9839 10.8992 11.3695 10.8602 11.7515C10.3763 11.8316 10.0598 12.3543 10.1932 12.8441C9.30753 13.3233 8.31517 13.5758 7.31122 13.5758ZM10.9904 13.0465C10.7596 13.0465 10.5718 12.8495 10.5718 12.6073C10.5948 12.0246 11.386 12.0248 11.409 12.6073C11.409 12.8495 11.2212 13.0465 10.9904 13.0465Z" fill="#424242"/>
</svg>
