<svg width="32" height="32" viewBox="0 0 14 14" fill="none" xmlns="http://www.w3.org/2000/svg">
  <g clip-path="url(#clip0_496_7874)">
    <path d="M2.8204 10.2887C2.74366 10.2047 2.6133 10.1989 2.52934 10.2756C2.2959 10.489 1.99305 10.6065 1.67651 10.6065C1.40882 10.6065 1.15306 10.5239 0.936926 10.3677C0.844698 10.3011 0.715888 10.3219 0.649276 10.4141C0.582637 10.5063 0.603378 10.6351 0.695606 10.7018C0.982445 10.909 1.32165 11.0185 1.67651 11.0185C2.09617 11.0185 2.49774 10.8627 2.80729 10.5797C2.89129 10.503 2.89716 10.3727 2.8204 10.2887Z" fill="#424242"/>
    <path d="M1.67657 7.66504C0.752094 7.66501 0 8.41711 0 9.34158C0 9.61141 0.0657185 9.87968 0.189953 10.1174C0.226725 10.1877 0.298455 10.228 0.372676 10.228C0.404845 10.228 0.437474 10.2204 0.467964 10.2045C0.568803 10.1518 0.607822 10.0273 0.555101 9.92647C0.460165 9.74491 0.412047 9.54813 0.412047 9.34161C0.412047 8.64437 0.979307 8.07709 1.67657 8.07709C2.3738 8.07709 2.94106 8.64435 2.94106 9.34161C2.94106 9.3777 2.93952 9.41407 2.93654 9.4497C2.92698 9.56308 3.01114 9.66275 3.12451 9.67231C3.23748 9.68168 3.33757 9.59771 3.34712 9.48434C3.3511 9.43725 3.35311 9.38924 3.35311 9.34163C3.35311 8.41716 2.60101 7.66504 1.67657 7.66504Z" fill="#424242"/>
    <path d="M7.5419 10.1807C6.61745 10.1807 5.86536 10.9328 5.86536 11.8572C5.86536 12.7817 6.61745 13.5338 7.5419 13.5338C8.46637 13.5338 9.21846 12.7817 9.21846 11.8572C9.21846 10.9328 8.46637 10.1807 7.5419 10.1807ZM7.5419 13.1217C6.84466 13.1217 6.2774 12.5544 6.2774 11.8572C6.2774 11.16 6.84466 10.5927 7.5419 10.5927C8.23916 10.5927 8.80642 11.1599 8.80642 11.8572C8.80642 12.5545 8.23916 13.1217 7.5419 13.1217Z" fill="#424242"/>
    <path d="M6.69129 9.06572C6.16395 8.89843 5.80963 8.41395 5.80963 7.86015C5.80963 7.34274 6.11938 6.8826 6.59877 6.68799C6.70418 6.64516 6.75495 6.52501 6.71217 6.41959C6.66931 6.31418 6.54913 6.26341 6.44377 6.30619C5.80822 6.56425 5.39758 7.17421 5.39758 7.86015C5.39758 8.59434 5.86742 9.23666 6.56673 9.45849C6.58745 9.46504 6.60843 9.46818 6.62909 9.46818C6.71648 9.46818 6.7976 9.41213 6.82538 9.3244C6.8598 9.21595 6.79974 9.10014 6.69129 9.06572Z" fill="#424242"/>
    <path d="M8.71818 7.52966C8.60461 6.96243 8.19622 6.48593 7.65236 6.28615C7.54551 6.24686 7.42718 6.30169 7.38794 6.40849C7.3487 6.51529 7.40346 6.6337 7.51028 6.67291C7.92054 6.8236 8.22855 7.18287 8.31412 7.61051C8.33372 7.70843 8.41975 7.77612 8.51593 7.77612C8.52931 7.77612 8.54293 7.7748 8.55655 7.77209C8.66817 7.74978 8.74049 7.64122 8.71818 7.52966Z" fill="#424242"/>
    <path d="M8.44246 8.43898C8.34482 8.38054 8.21836 8.4122 8.15982 8.50981C8.05083 8.69172 7.89659 8.84466 7.71384 8.95211C7.61574 9.00976 7.58297 9.13605 7.64062 9.23412C7.67899 9.29938 7.74777 9.33575 7.81842 9.33575C7.85392 9.33575 7.88988 9.3266 7.92264 9.30732C8.16472 9.16502 8.36892 8.96248 8.51327 8.72162C8.57176 8.624 8.54008 8.49747 8.44246 8.43898Z" fill="#424242"/>
    <path d="M7.97523 0.714182C7.67585 0.466823 7.29679 0.330566 6.90786 0.330566C5.98342 0.330566 5.23132 1.08266 5.23132 2.00713C5.23132 2.93161 5.98336 3.6837 6.90784 3.6837C7.08923 3.6837 7.26781 3.65484 7.43851 3.59792C7.54647 3.56193 7.6048 3.44525 7.56881 3.33732C7.5328 3.22939 7.41617 3.17098 7.30821 3.20702C7.17956 3.24991 7.04488 3.27165 6.90784 3.27165C6.2106 3.27165 5.64334 2.70439 5.64334 2.00713C5.64334 1.30987 6.2106 0.742614 6.90784 0.742614C7.2012 0.742614 7.48706 0.845321 7.71276 1.03181C7.80044 1.10424 7.93033 1.09195 8.00282 1.00424C8.07531 0.916536 8.06296 0.78667 7.97523 0.714182Z" fill="#424242"/>
    <path d="M8.42661 1.29681C8.37831 1.19381 8.25559 1.14945 8.15261 1.19776C8.04961 1.24604 8.00525 1.36873 8.05359 1.47174C8.13249 1.64 8.17251 1.82042 8.17251 2.00794C8.17251 2.20512 8.12846 2.39388 8.04154 2.56905C7.99095 2.67097 8.0326 2.79461 8.13455 2.84517C8.16396 2.85976 8.19518 2.86667 8.22594 2.86667C8.30176 2.86667 8.37468 2.82467 8.41066 2.75218C8.52604 2.51961 8.58456 2.26921 8.58456 2.00794C8.58453 1.75955 8.53138 1.52026 8.42661 1.29681Z" fill="#424242"/>
    <path d="M12.1875 6.91309C11.2631 6.91309 10.511 7.66518 10.511 8.58965C10.511 8.90639 10.5998 9.21486 10.7678 9.48174C10.8284 9.57806 10.9557 9.60692 11.0519 9.54635C11.1482 9.48572 11.1771 9.35854 11.1165 9.26222C10.99 9.06116 10.9231 8.82862 10.9231 8.58965C10.9231 7.89242 11.4903 7.32513 12.1876 7.32513C12.8848 7.32513 13.452 7.89239 13.452 8.58965C13.452 9.28691 12.8848 9.85417 12.1876 9.85417C12.0522 9.85417 11.919 9.83294 11.7918 9.79108C11.6837 9.75547 11.5673 9.81429 11.5317 9.92236C11.4961 10.0305 11.5549 10.1469 11.663 10.1825C11.8318 10.238 12.0083 10.2662 12.1876 10.2662C13.112 10.2662 13.8641 9.51413 13.8641 8.58965C13.8641 7.66518 13.112 6.91309 12.1875 6.91309Z" fill="#424242"/>
    <path d="M5.81218 3.5733C5.71893 3.50813 5.59052 3.5309 5.52529 3.6241L2.8005 7.5211C2.7353 7.61433 2.75804 7.74282 2.8513 7.80799C2.88726 7.83312 2.92845 7.8452 2.96917 7.8452C3.03416 7.8452 3.09812 7.81452 3.13819 7.75722L5.86298 3.8602C5.92819 3.76694 5.90544 3.63848 5.81218 3.5733Z" fill="#424242"/>
    <path d="M11.0888 6.86988L7.56922 2.42244C7.4986 2.33319 7.36909 2.3181 7.27984 2.38872C7.19062 2.45932 7.17553 2.58891 7.24613 2.67813L10.7656 7.12558C10.8063 7.17697 10.8665 7.20375 10.9273 7.20375C10.9721 7.20375 11.0172 7.18921 11.055 7.15929C11.1443 7.0887 11.1593 6.9591 11.0888 6.86988Z" fill="#424242"/>
    <path d="M12.0923 9.26625C12.036 9.16736 11.9102 9.13283 11.8113 9.18913L9.1643 10.6963C9.06542 10.7526 9.03092 10.8784 9.08719 10.9773C9.12518 11.044 9.19477 11.0814 9.26639 11.0814C9.30094 11.0814 9.33598 11.0727 9.36815 11.0544L12.0152 9.54724C12.1141 9.49091 12.1486 9.36513 12.0923 9.26625Z" fill="#424242"/>
    <path d="M5.7217 10.9585L2.42727 9.45708C2.32367 9.40989 2.20152 9.45557 2.15435 9.55911C2.10716 9.66266 2.15281 9.78484 2.25638 9.83203L5.55081 11.3335C5.57854 11.3461 5.60754 11.3521 5.63611 11.3521C5.71437 11.3521 5.78916 11.3072 5.82371 11.2314C5.8709 11.1279 5.82525 11.0057 5.7217 10.9585Z" fill="#424242"/>
    <path d="M5.40545 8.37053C5.37223 8.26171 5.25704 8.2004 5.14827 8.23365L3.54299 8.72382C3.43417 8.75705 3.37289 8.87221 3.40614 8.98101C3.43322 9.0698 3.51486 9.12693 3.60311 9.12693C3.62304 9.12693 3.64332 9.12401 3.66336 9.11789L5.26863 8.62772C5.37743 8.59452 5.4387 8.47933 5.40545 8.37053Z" fill="#424242"/>
    <path d="M10.271 8.14446L8.3668 7.88278C8.2542 7.8674 8.15012 7.94609 8.13463 8.05884C8.11917 8.17157 8.19796 8.27549 8.31069 8.29098L10.2149 8.55266C10.2244 8.55399 10.2338 8.55461 10.2432 8.55461C10.3445 8.55461 10.4329 8.47982 10.447 8.3766C10.4625 8.26388 10.3837 8.15995 10.271 8.14446Z" fill="#424242"/>
    <path d="M7.1732 4.09565C7.16995 3.9819 7.07637 3.89278 6.96137 3.89557C6.84764 3.89882 6.75807 3.99365 6.76132 4.10738L6.83746 6.78258C6.84065 6.89434 6.93221 6.98275 7.04328 6.98275C7.04526 6.98275 7.04726 6.98272 7.04926 6.98266C7.16299 6.97941 7.25257 6.88459 7.24932 6.77086L7.1732 4.09565Z" fill="#424242"/>
    <path d="M7.50308 9.75412L7.37061 8.62158C7.3574 8.50856 7.25474 8.42756 7.14207 8.44089C7.02905 8.4541 6.94814 8.55646 6.96138 8.66943L7.09385 9.80197C7.10609 9.90684 7.19515 9.98407 7.2982 9.98407C7.30619 9.98407 7.31429 9.98361 7.32241 9.98266C7.43538 9.96947 7.51632 9.86712 7.50308 9.75412Z" fill="#424242"/>
  </g>
  <defs>
    <clipPath id="clip0_496_7874">
      <rect width="13.864" height="13.864" fill="white"/>
    </clipPath>
  </defs>
</svg>
