<svg width="32" height="32" viewBox="0 0 11 13" fill="none" xmlns="http://www.w3.org/2000/svg">
    <path d="M10.4943 11.4094L7.22295 7.25707C7.55888 6.51646 7.88119 5.8319 8.16748 5.22384C8.75751 3.97066 9.22354 2.98085 9.46846 2.23389C9.66705 1.62823 9.82952 0.886673 9.31877 0.525393C9.21251 0.450257 9.06608 0.471455 8.98549 0.573707L5.47149 5.03396L1.9575 0.573707C1.87694 0.471455 1.73043 0.450208 1.62422 0.525393C1.11347 0.886697 1.27592 1.62821 1.47451 2.23387C1.7194 2.98081 2.18543 3.97056 2.77542 5.22367C3.06168 5.83163 3.38409 6.51644 3.72003 7.25707L0.448637 11.4094C-0.0907398 12.0911 0.474604 13.0992 1.33612 12.9922C1.5973 12.9612 1.83031 12.831 1.99222 12.6255L4.58035 9.34042C4.6639 9.23435 4.64568 9.08061 4.53959 8.99704L4.44795 8.92483C4.79434 8.51536 5.15022 8.22941 5.47147 8.03009C5.75712 8.20958 6.13014 8.49517 6.49497 8.92496L6.40345 8.99704C6.29736 9.08061 6.27914 9.23435 6.36269 9.34042L8.95082 12.6255C9.11273 12.831 9.34572 12.9612 9.60692 12.9922C9.86465 13.0234 10.1254 12.9515 10.3306 12.7892C10.7509 12.4722 10.8287 11.8159 10.4943 11.4094ZM3.21785 5.01535C2.36817 3.21071 1.67172 1.73141 1.78243 1.14167L5.16022 5.42905L4.06058 6.82481C3.76116 6.16932 3.47494 5.56143 3.21785 5.01535ZM1.60808 12.3228C1.52702 12.4257 1.40996 12.491 1.27851 12.5066C1.14689 12.5222 1.01794 12.4861 0.91503 12.4051C0.701284 12.2367 0.664388 11.9258 0.832803 11.712L3.26961 8.61901L4.04491 9.22983L1.60808 12.3228ZM4.06351 8.62199L3.57221 8.23489L9.16055 1.14172C9.27139 1.73136 8.57484 3.21071 7.72504 5.01555C7.43797 5.62529 7.11476 6.31174 6.77734 7.05564C6.34499 7.09626 5.15022 7.32709 4.06351 8.62199ZM5.96466 7.7728C6.00757 7.75451 6.04899 7.73789 6.08872 7.7228C6.41846 7.59761 6.6847 7.55641 6.82554 7.54284L7.37076 8.23489L6.87923 8.62214C6.56475 8.24907 6.24291 7.97244 5.96466 7.7728ZM10.2117 12.0755C10.1961 12.2069 10.1308 12.324 10.0279 12.4051C9.92502 12.4861 9.79605 12.5222 9.66448 12.5066C9.53301 12.491 9.41596 12.4257 9.33491 12.3228L6.89811 9.22983L7.6734 8.61901L10.1102 11.712C10.1913 11.8149 10.2273 11.944 10.2117 12.0755Z" fill="#424242"/>
    <path d="M5.47153 6.57373H5.47136C5.33634 6.57373 5.22693 6.68322 5.22693 6.81824C5.23986 7.14252 5.7032 7.14252 5.71604 6.81824C5.71604 6.6832 5.60657 6.57373 5.47153 6.57373Z" fill="#424242"/>
</svg>