<svg width="32" height="32" viewBox="0 0 14 18" fill="none" xmlns="http://www.w3.org/2000/svg">
    <path d="M3.40046 6.16519C3.45024 6.21246 3.51397 6.23592 3.57764 6.23592C3.64539 6.23592 3.71303 6.20934 3.76353 6.15655L4.72474 5.15221C4.82298 5.04958 4.81942 4.88671 4.71675 4.78846C4.61408 4.69022 4.45124 4.69375 4.353 4.79646L3.56899 5.61562L3.34523 5.40304C3.24222 5.30517 3.07935 5.30932 2.98152 5.41237C2.88365 5.51538 2.88783 5.67822 2.99085 5.77609L3.40046 6.16519Z" fill="#424242"/>
    <path d="M5.94966 7.76186H8.96759C9.10971 7.76186 9.22486 7.64667 9.22486 7.50459C9.22486 7.3625 9.10971 7.24731 8.96759 7.24731H5.94966C5.80757 7.24731 5.69238 7.3625 5.69238 7.50459C5.69238 7.64667 5.80757 7.76186 5.94966 7.76186Z" fill="#424242"/>
    <path d="M5.94966 8.73721H8.03557C8.17769 8.73721 8.29284 8.62201 8.29284 8.47993C8.29284 8.33785 8.17769 8.22266 8.03557 8.22266H5.94966C5.80757 8.22266 5.69238 8.33785 5.69238 8.47993C5.69238 8.62201 5.80757 8.73721 5.94966 8.73721Z" fill="#424242"/>
    <path d="M5.94966 5.19863H8.96759C9.10971 5.19863 9.22486 5.08344 9.22486 4.94136C9.22486 4.79927 9.10971 4.68408 8.96759 4.68408H5.94966C5.80757 4.68408 5.69238 4.79927 5.69238 4.94136C5.69238 5.08344 5.80757 5.19863 5.94966 5.19863Z" fill="#424242"/>
    <path d="M5.94966 6.173H8.03557C8.17769 6.173 8.29284 6.05781 8.29284 5.91572C8.29284 5.77364 8.17769 5.65845 8.03557 5.65845H5.94966C5.80757 5.65845 5.69238 5.77364 5.69238 5.91572C5.69238 6.05781 5.80757 6.173 5.94966 6.173Z" fill="#424242"/>
    <path d="M3.40055 8.66591C3.45032 8.71318 3.51406 8.73664 3.57773 8.73664C3.64548 8.73664 3.71312 8.71006 3.76362 8.65727L4.72483 7.65293C4.82307 7.5503 4.8195 7.38743 4.71683 7.28918C4.61417 7.19094 4.45133 7.19451 4.35308 7.29717L3.56912 8.11634L3.34536 7.90376C3.24234 7.80589 3.07951 7.81004 2.98164 7.91309C2.88377 8.0161 2.88796 8.17894 2.99097 8.27681L3.40055 8.66591Z" fill="#424242"/>
    <path d="M5.94966 10.3273H8.96759C9.10971 10.3273 9.22486 10.2121 9.22486 10.07C9.22486 9.92793 9.10971 9.81274 8.96759 9.81274H5.94966C5.80757 9.81274 5.69238 9.92793 5.69238 10.07C5.69238 10.2121 5.80757 10.3273 5.94966 10.3273Z" fill="#424242"/>
    <path d="M3.40046 11.2304C3.45024 11.2777 3.51397 11.3011 3.57764 11.3011C3.64539 11.3011 3.71303 11.2745 3.76353 11.2218L4.72474 10.2174C4.82298 10.1148 4.81942 9.95188 4.71675 9.85364C4.61408 9.75539 4.45124 9.75896 4.353 9.86163L3.56899 10.6808L3.34523 10.4682C3.24222 10.3703 3.07938 10.3745 2.98152 10.4775C2.88365 10.5806 2.88783 10.7434 2.99085 10.8413L3.40046 11.2304Z" fill="#424242"/>
    <path d="M5.94966 11.3024H8.03557C8.17769 11.3024 8.29284 11.1872 8.29284 11.0451C8.29284 10.903 8.17769 10.7878 8.03557 10.7878H5.94966C5.80757 10.7878 5.69238 10.903 5.69238 11.0451C5.69238 11.1872 5.80757 11.3024 5.94966 11.3024Z" fill="#424242"/>
    <path d="M10.4066 13.2432C9.66281 13.2432 9.05774 13.847 9.05774 14.5892C9.05774 15.3314 9.66285 15.9353 10.4066 15.9353C11.1504 15.9353 11.7555 15.3314 11.7555 14.5892C11.7555 13.847 11.1504 13.2432 10.4066 13.2432ZM10.4066 15.4207C9.94657 15.4207 9.57229 15.0477 9.57229 14.5892C9.57229 14.1308 9.94657 13.7577 10.4066 13.7577C10.8667 13.7577 11.2409 14.1307 11.2409 14.5892C11.2409 15.0477 10.8667 15.4207 10.4066 15.4207Z" fill="#424242"/>
    <path d="M12.9137 13.7552H12.8561C12.8204 13.6506 12.778 13.5487 12.7293 13.4499L12.7684 13.4107C12.8584 13.3219 12.9081 13.2034 12.9085 13.0768C12.9089 12.9498 12.8595 12.8304 12.7695 12.7406L12.2597 12.2322C12.2016 12.1736 12.1306 12.1325 12.0531 12.1107V9.40218C12.0531 9.2601 11.938 9.14491 11.7959 9.14491C11.6537 9.14491 11.5386 9.2601 11.5386 9.40218V12.267C11.4424 12.2202 11.3434 12.1793 11.2417 12.1448V12.0882C11.2417 11.8301 11.0339 11.62 10.7767 11.615V2.8812C10.7767 2.73912 10.6615 2.62392 10.5194 2.62392H9.00625C9.0893 2.45951 9.13637 2.27407 9.13637 2.07771C9.13637 2.0042 9.12944 1.93234 9.11688 1.86239H11.144C11.3616 1.86239 11.5386 2.03864 11.5386 2.2553V8.22901C11.5386 8.37109 11.6537 8.48628 11.7959 8.48628C11.938 8.48628 12.0531 8.37109 12.0531 8.22901V2.2553C12.0531 1.75495 11.6453 1.34784 11.144 1.34784H8.89233C8.6695 1.05167 8.31477 0.859743 7.91592 0.859743H7.54782C7.43094 0.367388 6.98644 0 6.45752 0H5.59555C5.06659 0 4.62212 0.367388 4.50529 0.859743H4.13718C3.73834 0.859743 3.38361 1.05167 3.16077 1.34784H0.909105C0.407831 1.34784 0 1.75492 0 2.2553V15.3866C0 15.8869 0.407831 16.294 0.909105 16.294H7.94505C7.96851 16.347 8.00148 16.3957 8.04364 16.4372L8.55335 16.9456C8.64254 17.0355 8.76167 17.0851 8.88887 17.0851C9.01606 17.0851 9.1352 17.0355 9.22271 16.9471L9.26425 16.906C9.36355 16.9548 9.46612 16.9972 9.57136 17.033V17.0896C9.57136 17.3508 9.78408 17.5632 10.0456 17.5632H10.7675C11.029 17.5632 11.2417 17.3508 11.2417 17.0896V17.033C11.3469 16.9972 11.4495 16.9548 11.5488 16.906L11.5887 16.9456C11.6779 17.0356 11.797 17.0851 11.9242 17.0851C12.0514 17.0851 12.1706 17.0356 12.2587 16.9467L12.7684 16.4383C12.8587 16.3492 12.9085 16.23 12.9085 16.1027C12.9085 15.9754 12.8588 15.8563 12.7699 15.7687L12.7293 15.728C12.778 15.6292 12.8204 15.5272 12.8561 15.4226H12.9136C13.1751 15.4226 13.3879 15.2102 13.3879 14.9489V14.2289C13.3879 13.9677 13.1752 13.7552 12.9137 13.7552ZM4.13715 1.37429H4.73255C4.87463 1.37429 4.98982 1.2591 4.98982 1.11702C4.98982 0.78479 5.26154 0.514549 5.59551 0.514549H6.45749C6.79146 0.514549 7.06318 0.784824 7.06318 1.11702C7.06318 1.2591 7.17834 1.37429 7.32045 1.37429H7.91586C8.30509 1.37429 8.62175 1.68985 8.62175 2.07771C8.62175 2.46558 8.30509 2.7811 7.91586 2.7811H4.13715C3.74791 2.7811 3.43125 2.46555 3.43125 2.07771C3.43125 1.68985 3.74794 1.37429 4.13715 1.37429ZM8.04466 15.7672C8.04068 15.7711 8.03719 15.7754 8.03338 15.7794H0.909071C0.691519 15.7794 0.514515 15.6032 0.514515 15.3866V2.2553C0.514515 2.03868 0.691519 1.86239 0.909071 1.86239H2.93619C2.92363 1.93234 2.9167 2.0042 2.9167 2.07771C2.9167 2.27403 2.96377 2.45951 3.04682 2.62392H1.39258C1.25053 2.62392 1.13534 2.73905 1.1353 2.8811L1.13338 8.22891C1.13335 8.37099 1.24847 8.48622 1.39055 8.48628H1.39065C1.5327 8.48628 1.64789 8.37116 1.64793 8.22911L1.64978 3.13851H3.53855C3.71556 3.2384 3.91973 3.29572 4.13718 3.29572H7.91592C8.13337 3.29572 8.33755 3.2384 8.51455 3.13851H10.2621V11.6146H10.0456C9.78411 11.6146 9.5714 11.827 9.5714 12.0883V12.1449C9.46616 12.1806 9.36356 12.223 9.26428 12.2719L9.22432 12.2323C9.1352 12.1423 9.0161 12.0928 8.8889 12.0928H8.88887C8.76167 12.0928 8.64254 12.1423 8.55441 12.2312L8.04367 12.7406C7.95359 12.8304 7.90423 12.9499 7.90457 13.0769C7.90495 13.2034 7.95472 13.322 8.04312 13.4091L8.0838 13.4499C8.03502 13.5487 7.99269 13.6506 7.95695 13.7552H7.89942C7.63793 13.7552 7.42518 13.9677 7.42518 14.2289V14.4753H1.64978L1.64793 9.41374C1.64789 9.27169 1.5327 9.15657 1.39065 9.15657C1.39065 9.15657 1.39059 9.15657 1.39055 9.15657C1.24847 9.1566 1.13331 9.27186 1.13338 9.41395L1.13534 14.7326C1.13537 14.8747 1.25056 14.9898 1.39261 14.9898H7.42721C7.44806 15.2319 7.65169 15.4226 7.89939 15.4226H7.95692C7.99266 15.5272 8.03499 15.6292 8.08377 15.7279L8.04466 15.7672ZM12.8734 14.9081H12.6646C12.5471 14.9081 12.4446 14.9876 12.4154 15.1015C12.3664 15.2925 12.2909 15.4743 12.1908 15.6418C12.1304 15.7429 12.1463 15.8721 12.2295 15.9554L12.3763 16.1027L11.9242 16.5536L11.7756 16.4063C11.6923 16.3237 11.5637 16.3079 11.463 16.3678C11.295 16.4677 11.1125 16.5431 10.9209 16.5919C10.8069 16.621 10.7271 16.7236 10.7271 16.8413V17.0487H10.0859V16.8412C10.0859 16.7236 10.0062 16.6209 9.8922 16.5919C9.70052 16.543 9.51813 16.4676 9.35007 16.3677C9.24922 16.3078 9.12069 16.3236 9.03747 16.4062L8.8889 16.5536L8.43678 16.1026L8.58357 15.9554C8.66669 15.872 8.6826 15.7429 8.62223 15.6418C8.52217 15.4743 8.4466 15.2924 8.39761 15.1014C8.36842 14.9876 8.26589 14.908 8.1484 14.908H7.93966V14.2697H8.1484C8.26589 14.2697 8.36842 14.1902 8.39761 14.0763C8.4466 13.8853 8.52217 13.7035 8.62226 13.536C8.6826 13.4349 8.66669 13.3058 8.58357 13.2224L8.43678 13.0752L8.8889 12.6242L9.03747 12.7716C9.12072 12.8542 9.24933 12.8699 9.35007 12.8101C9.51809 12.7102 9.70052 12.6348 9.8922 12.5859C10.0062 12.5568 10.0859 12.4542 10.0859 12.3366V12.1291H10.7271V12.3366C10.7271 12.4542 10.8069 12.5568 10.9209 12.5859C11.1125 12.6347 11.2949 12.7102 11.463 12.8101C11.5638 12.87 11.6923 12.8542 11.7756 12.7716L11.9242 12.6242L12.3763 13.0752L12.2295 13.2224C12.1463 13.3058 12.1304 13.4349 12.1908 13.536C12.2909 13.7036 12.3665 13.8854 12.4154 14.0763C12.4446 14.1902 12.5471 14.2698 12.6646 14.2698H12.8734V14.9081Z" fill="#424242"/>
</svg>