<svg width="24" height="24" viewBox="0 0 14 14" fill="none" xmlns="http://www.w3.org/2000/svg">
    <path d="M12.6565 2.75H1.3435C1.05349 2.75 0.77535 2.86521 0.570279 3.07028C0.365208 3.27535 0.25 3.55349 0.25 3.8435V11.9795C0.25 12.1231 0.278284 12.2653 0.333238 12.398C0.388191 12.5306 0.468738 12.6512 0.570279 12.7527C0.67182 12.8543 0.792366 12.9348 0.925036 12.9898C1.05771 13.0447 1.1999 13.073 1.3435 13.073H12.6565C12.8001 13.073 12.9423 13.0447 13.075 12.9898C13.2076 12.9348 13.3282 12.8543 13.4297 12.7527C13.5313 12.6512 13.6118 12.5306 13.6668 12.398C13.7217 12.2653 13.75 12.1231 13.75 11.9795V3.8435C13.75 3.6999 13.7217 3.55771 13.6668 3.42504C13.6118 3.29237 13.5313 3.17182 13.4297 3.07028C13.3282 2.96874 13.2076 2.88819 13.075 2.83324C12.9423 2.77828 12.8001 2.75 12.6565 2.75ZM2.0185 4.1015H11.9815C12.092 4.1019 12.1978 4.14596 12.2759 4.22407C12.354 4.30219 12.3981 4.40803 12.3985 4.5185V5.633H1.5985V4.5185C1.5987 4.46354 1.60972 4.40916 1.63093 4.35846C1.65214 4.30776 1.68313 4.26174 1.72214 4.22301C1.76114 4.18429 1.80738 4.15363 1.85823 4.13278C1.90908 4.11193 1.96354 4.1013 2.0185 4.1015ZM11.9815 11.7215H2.0185C1.90803 11.7211 1.80219 11.677 1.72407 11.5989C1.64596 11.5208 1.6019 11.415 1.6015 11.3045V7.6865H12.4015V11.3045C12.4013 11.3595 12.3903 11.4138 12.3691 11.4645C12.3479 11.5152 12.3169 11.5613 12.2779 11.6C12.2389 11.6387 12.1926 11.6694 12.1418 11.6902C12.0909 11.7111 12.0365 11.7217 11.9815 11.7215Z" fill="#0162DD"/>
</svg>
