<svg width="32" height="32" viewBox="0 0 14 15" fill="none" xmlns="http://www.w3.org/2000/svg">
    <g clip-path="url(#clip0_766_20591)">
        <path d="M2.46233 11.358C2.26633 11.358 2.07791 11.4069 1.91075 11.4988C1.0302 10.37 0.546875 8.96776 0.546875 7.53125C0.546875 3.97293 3.44168 1.07812 7 1.07812C7.43259 1.07812 7.86496 1.12117 8.28516 1.20609C8.43298 1.23599 8.57739 1.14029 8.6073 0.992249C8.63721 0.844208 8.5415 0.700012 8.39346 0.669998C7.9377 0.577927 7.4689 0.53125 7 0.53125C5.13026 0.53125 3.37236 1.25938 2.05025 2.5815C0.728134 3.90361 0 5.66151 0 7.53125C0 9.10405 0.534058 10.6389 1.50636 11.8694C1.38118 12.0564 1.31389 12.2762 1.31389 12.5064C1.31389 12.8132 1.43341 13.1016 1.65034 13.3184C1.86717 13.5353 2.15556 13.6549 2.46233 13.6549C2.76909 13.6549 3.05748 13.5353 3.27441 13.3184C3.49135 13.1016 3.61076 12.8131 3.61076 12.5063C3.61076 12.1997 3.49135 11.9112 3.27441 11.6943C3.05748 11.4774 2.76909 11.358 2.46233 11.358ZM2.88765 12.9317C2.77411 13.0454 2.62297 13.108 2.46233 13.108C2.30168 13.108 2.15065 13.0454 2.037 12.9317C1.92335 12.8181 1.86076 12.6671 1.86076 12.5064C1.86076 12.3457 1.92335 12.1946 2.037 12.081C2.15054 11.9673 2.30168 11.9049 2.46233 11.9049C2.62297 11.9049 2.7740 11.9675 2.88765 12.081C3.0013 12.1946 3.06389 12.3457 3.06389 12.5064C3.06389 12.6671 3.0013 12.8181 2.88765 12.9317Z" fill="#424242"/>
        <path d="M12.4934 3.19286C12.7906 2.74692 12.7429 2.13724 12.3497 1.74406C12.1328 1.52724 11.8444 1.40771 11.5376 1.40771C11.2309 1.40771 10.9425 1.52724 10.7255 1.74406C10.5086 1.961 10.3892 2.24939 10.3892 2.55615C10.3892 2.86291 10.5086 3.15131 10.7255 3.36824C10.9425 3.58517 11.2309 3.70459 11.5376 3.70459C11.7336 3.70459 11.922 3.65567 12.0892 3.56381C12.9698 4.6927 13.4531 6.09482 13.4531 7.53133C13.4531 11.0896 10.5583 13.9845 6.99995 13.9845C6.57164 13.9845 6.14332 13.9423 5.72708 13.8589C5.57904 13.8294 5.43495 13.9254 5.40526 14.0734C5.37567 14.2216 5.47169 14.3656 5.61973 14.3952C6.07123 14.4855 6.53564 14.5313 6.99995 14.5313C8.86969 14.5313 10.6276 13.8032 11.9497 12.4811C13.2718 11.159 14 9.40106 14 7.53133C14 5.95842 13.4658 4.42343 12.4934 3.19286ZM11.1123 2.98158C10.9987 2.86794 10.9361 2.7169 10.9361 2.55615C10.9361 2.39551 10.9987 2.24448 11.1123 2.13083C11.2258 2.01718 11.377 1.95459 11.5376 1.95459C11.6983 1.95459 11.8494 2.01718 11.9631 2.13083C12.1975 2.36539 12.1975 2.74702 11.9631 2.98158C11.8494 3.09512 11.6983 3.15771 11.5376 3.15771C11.3769 3.15771 11.2258 3.09512 11.1123 2.98158Z" fill="#424242"/>
        <path d="M5.87158 12.2344C5.87158 12.3854 5.9941 12.5078 6.14502 12.5078H7.85475C8.00578 12.5078 8.12819 12.3854 8.12819 12.2344V11.7043C8.48772 11.6075 8.83144 11.465 9.15443 11.2789L9.5287 11.6532C9.57997 11.7045 9.64951 11.7333 9.72214 11.7333C9.79456 11.7333 9.8642 11.7045 9.91547 11.6531L11.1239 10.4438C11.2306 10.337 11.2306 10.1638 11.1239 10.0571L10.7501 9.68329C10.9362 9.36029 11.0786 9.01657 11.1754 8.65704H11.7035C11.8545 8.65704 11.9769 8.53464 11.9769 8.38361V6.67387C11.9769 6.52284 11.8545 6.40044 11.7035 6.40044H11.1753C11.0785 6.04102 10.9362 5.6973 10.7501 5.3743L11.1219 5.00249C11.1732 4.95122 11.202 4.88158 11.202 4.80905C11.2019 4.73653 11.1731 4.66689 11.1218 4.61562L9.91237 3.40715C9.80566 3.30045 9.63252 3.30045 9.52571 3.40726L9.15443 3.77864C8.83144 3.59258 8.48772 3.45009 8.12819 3.35332V2.82812C8.12819 2.67709 8.00578 2.55469 7.85475 2.55469H6.14502C5.9941 2.55469 5.87158 2.67709 5.87158 2.82812V3.35342C5.51216 3.45009 5.16844 3.59258 4.84544 3.77864L4.47406 3.40726C4.36736 3.30055 4.19421 3.30045 4.0874 3.40715L2.87808 4.61572C2.82671 4.66699 2.79787 4.73653 2.79787 4.80905C2.79787 4.88158 2.82671 4.95122 2.87798 5.00249L3.24979 5.3743C3.06372 5.6973 2.92123 6.04091 2.82446 6.40044H2.29735C2.14632 6.40044 2.02391 6.52284 2.02391 6.67377L2.02295 8.3835C2.02284 8.45602 2.05168 8.52567 2.10295 8.57693C2.15422 8.6282 2.22376 8.65704 2.29639 8.65704H2.82446C2.92123 9.01657 3.06372 9.36029 3.24979 9.68329L2.87595 10.0571C2.76924 10.1638 2.76913 10.337 2.87595 10.4438L4.08441 11.6531C4.13568 11.7044 4.20522 11.7333 4.27774 11.7333H4.27785C4.35037 11.7333 4.41991 11.7045 4.47118 11.6532L4.84534 11.2789C5.16844 11.465 5.51216 11.6075 5.87158 11.7043V12.2344ZM4.95258 10.7039C4.84438 10.6339 4.702 10.6491 4.61078 10.7402L4.27785 11.0731L3.45593 10.2506L3.78854 9.91785C3.87965 9.82674 3.89482 9.68436 3.82486 9.57616C3.57695 9.19249 3.40263 8.77197 3.30693 8.32614C3.2798 8.20021 3.1685 8.11017 3.03958 8.11017H2.56993L2.57057 6.94731H3.03958C3.1685 6.94731 3.2798 6.85738 3.30693 6.73134C3.40263 6.28561 3.57695 5.8651 3.82486 5.48143C3.89482 5.37323 3.87965 5.23085 3.78854 5.13974L3.45807 4.80916L4.28062 3.98724L4.61078 4.3175C4.702 4.40862 4.84427 4.42368 4.95258 4.35382C5.33614 4.10591 5.75665 3.93159 6.20248 3.83589C6.32842 3.80876 6.41846 3.69736 6.41846 3.56854V3.10156H7.58131V3.56844C7.58131 3.69736 7.67125 3.80876 7.79729 3.83578C8.24301 3.93159 8.66364 4.1058 9.0472 4.35371C9.1554 4.42368 9.29778 4.40862 9.38889 4.3174L9.71915 3.98724L10.5417 4.80916L10.2112 5.13963C10.12 5.23085 10.1049 5.37323 10.1749 5.48143C10.4228 5.8651 10.597 6.28561 10.6928 6.73134C10.7199 6.85738 10.8313 6.94731 10.9602 6.94731H11.4301V8.11017H10.9602C10.8313 8.11017 10.72 8.20021 10.6928 8.32614C10.5971 8.77187 10.4228 9.19249 10.1749 9.57605C10.1049 9.68436 10.1201 9.82674 10.2112 9.91785L10.5438 10.2505L9.72192 11.073L9.38899 10.7402C9.29778 10.649 9.1554 10.6339 9.0472 10.7039C8.66353 10.9518 8.24301 11.126 7.79729 11.2218C7.67125 11.2489 7.58131 11.3602 7.58131 11.4892V11.9609H6.41846V11.4892C6.41846 11.3603 6.32842 11.2489 6.20248 11.2218C5.75676 11.1261 5.33624 10.9518 4.95258 10.7039Z" fill="#424242"/>
        <path d="M9.25937 7.53136C9.25937 6.28551 8.24583 5.27197 6.99998 5.27197C5.75414 5.27197 4.7406 6.28551 4.7406 7.53136C4.7406 8.77721 5.75414 9.79074 6.99998 9.79074C8.24583 9.79074 9.25937 8.77721 9.25937 7.53136ZM5.28748 7.53136C5.28748 6.58704 6.05566 5.81885 6.99998 5.81885C7.94431 5.81885 8.71249 6.58714 8.71249 7.53136C8.71249 8.47557 7.94431 9.24387 6.99998 9.24387C6.05566 9.24387 5.28748 8.47568 5.28748 7.53136Z" fill="#424242"/>
        <path d="M9.51782 1.56551C9.58981 1.56551 9.66031 1.53624 9.71115 1.4854C9.76199 1.43423 9.79126 1.36374 9.79126 1.29175C9.79126 1.22018 9.7621 1.14958 9.71115 1.09842C9.66031 1.04758 9.58981 1.01831 9.51782 1.01831C9.44562 1.01831 9.37544 1.04758 9.3246 1.09842C9.27365 1.14958 9.24438 1.21986 9.24438 1.29175C9.24438 1.36395 9.27365 1.43423 9.3246 1.4854C9.37544 1.53624 9.44562 1.56551 9.51782 1.56551Z" fill="#424242"/>
        <path d="M4.49414 13.502C4.42226 13.502 4.35165 13.5312 4.30081 13.5821C4.24997 13.6329 4.2207 13.7035 4.2207 13.7754C4.2207 13.8476 4.24997 13.9179 4.30081 13.9687C4.35165 14.0196 4.42226 14.0488 4.49414 14.0488C4.56602 14.0488 4.63663 14.0196 4.68747 13.9687C4.73831 13.9179 4.76758 13.8473 4.76758 13.7754C4.76758 13.7035 4.73831 13.6329 4.68747 13.5821C4.63663 13.5312 4.56602 13.502 4.49414 13.502Z" fill="#424242"/>
    </g>
    <defs>
        <clipPath id="clip0_766_20591">
            <rect width="14" height="14" fill="white" transform="translate(0 0.53125)"/>
        </clipPath>
    </defs>
</svg>