<svg width="24" height="24" viewBox="0 0 14 14" fill="none" xmlns="http://www.w3.org/2000/svg">
    <path d="M0 1.75C0 0.783502 0.783502 0 1.75 0H7.25C8.2165 0 9 0.783502 9 1.75V8H12V9.5C12 10.8807 10.8807 12 9.5 12H2.5C1.11929 12 0 10.8807 0 9.5V1.75ZM9 11H9.5C10.3284 11 11 10.3284 11 9.5V9H9V11ZM2.5 3.5C2.5 3.77614 2.72386 4 3 4H6C6.27614 4 6.5 3.77614 6.5 3.5C6.5 3.22386 6.27614 3 6 3H3C2.72386 3 2.5 3.22386 2.5 3.5ZM3 5.5C2.72386 5.5 2.5 5.72386 2.5 6C2.5 6.27614 2.72386 6.5 3 6.5H6C6.27614 6.5 6.5 6.27614 6.5 6C6.5 5.72386 6.27614 5.5 6 5.5H3ZM2.5 8.5C2.5 8.77614 2.72386 9 3 9H4.5C4.77614 9 5 8.77614 5 8.5C5 8.22386 4.77614 8 4.5 8H3C2.72386 8 2.5 8.22386 2.5 8.5Z" fill="#0066B4"/>
</svg>
