<svg width="40" height="40" viewBox="0 0 40 40" fill="none" xmlns="http://www.w3.org/2000/svg">
<path d="M27 16.6667C27 16.6667 26.6667 18.3334 21.6667 25.0001C16.8333 31.3334 23.8333 36.0001 24.6667 36.6667H24.8333C25.8333 35.8334 38.5 27.8334 27 16.6667Z" stroke="#616161" stroke-width="1.5" stroke-miterlimit="10" stroke-linecap="round" stroke-linejoin="round"/>
<path d="M23 13C23 9.1667 21.5 5.6667 20 3.6667C19.5 3.1667 18.6667 3.33337 18.5 4.00003C17.8333 6.50003 15.8333 11.8334 11 18.1667C4.83334 26.1667 10.5 34.8334 16.3333 36.5C19.5 37.3334 15.5 34.8334 15 29.6667C14.5 23.1667 23 18.3334 23 13Z" stroke="#616161" stroke-width="1.5" stroke-miterlimit="10" stroke-linecap="round" stroke-linejoin="round"/>
</svg>
