<svg width="40" height="40" viewBox="0 0 40 40" fill="none" xmlns="http://www.w3.org/2000/svg">
<path d="M36.6667 18.1666V6.83325C36.6667 4.33325 35.6 3.33325 32.95 3.33325H26.2167C23.5667 3.33325 22.5 4.33325 22.5 6.83325V18.1666C22.5 20.6666 23.5667 21.6666 26.2167 21.6666H32.95C35.6 21.6666 36.6667 20.6666 36.6667 18.1666Z" stroke="#616161" stroke-width="1.5" stroke-linecap="round" stroke-linejoin="round"/>
<path d="M36.6667 33.1667V30.1667C36.6667 27.6667 35.6 26.6667 32.95 26.6667H26.2167C23.5667 26.6667 22.5 27.6667 22.5 30.1667V33.1667C22.5 35.6667 23.5667 36.6667 26.2167 36.6667H32.95C35.6 36.6667 36.6667 35.6667 36.6667 33.1667Z" stroke="#616161" stroke-width="1.5" stroke-linecap="round" stroke-linejoin="round"/>
<path d="M17.5 21.8333V33.1666C17.5 35.6666 16.4333 36.6666 13.7833 36.6666H7.04998C4.39998 36.6666 3.33331 35.6666 3.33331 33.1666V21.8333C3.33331 19.3333 4.39998 18.3333 7.04998 18.3333H13.7833C16.4333 18.3333 17.5 19.3333 17.5 21.8333Z" stroke="#616161" stroke-width="1.5" stroke-linecap="round" stroke-linejoin="round"/>
<path d="M17.5 6.83325V9.83325C17.5 12.3333 16.4333 13.3333 13.7833 13.3333H7.04998C4.39998 13.3333 3.33331 12.3333 3.33331 9.83325V6.83325C3.33331 4.33325 4.39998 3.33325 7.04998 3.33325H13.7833C16.4333 3.33325 17.5 4.33325 17.5 6.83325Z" stroke="#616161" stroke-width="1.5" stroke-linecap="round" stroke-linejoin="round"/>
</svg>
