<svg width="32" height="32" viewBox="0 0 14 13" fill="none" xmlns="http://www.w3.org/2000/svg">
    <path d="M13.4121 10.5994H0.587891C0.26373 10.5994 0 10.863 0 11.187V11.937C0 12.2612 0.26373 12.5249 0.587891 12.5249H11.594C11.7073 12.5249 11.7991 12.4331 11.7991 12.3198C11.7991 12.2066 11.7073 12.1148 11.594 12.1148H8.81576V11.0095H13.4121C13.5101 11.0095 13.5898 11.0891 13.5898 11.187V11.937C13.5898 12.035 13.5101 12.1148 13.4121 12.1148H12.5429C12.4296 12.1148 12.3378 12.2066 12.3378 12.3198C12.3378 12.4331 12.4296 12.5249 12.5429 12.5249H13.4121C13.7363 12.5249 14 12.2612 14 11.937V11.187C14 10.863 13.7363 10.5994 13.4121 10.5994ZM3.34225 11.0095H4.4103L3.82815 12.1148H2.76008L3.34225 11.0095ZM2.29652 12.1148H1.22847L1.81062 11.0095H2.8787L2.29652 12.1148ZM4.87389 11.0095H5.94196L5.35979 12.1148H4.29174L4.87389 11.0095ZM6.40555 11.0095H7.47359L6.89142 12.1148H5.82337L6.40555 11.0095ZM0.410156 11.937V11.187C0.410156 11.0891 0.489891 11.0095 0.587891 11.0095H1.34704L0.764887 12.1148H0.587891C0.489891 12.1148 0.410156 12.035 0.410156 11.937ZM8.40561 12.1148H7.35498L7.93715 11.0095H8.40561V12.1148Z" fill="#424242"/>
    <path d="M5.05186 5.41931L5.81771 5.48059C5.89512 5.76382 6.00797 6.036 6.15398 6.29163L5.65556 6.87676C5.50979 7.04785 5.52015 7.30636 5.67905 7.46528L6.29256 8.07877C6.45148 8.23771 6.71004 8.24802 6.88105 8.10228L7.46618 7.60383C7.72179 7.74982 7.99402 7.8627 8.27722 7.94013L8.3385 8.70598C8.35641 8.93 8.5465 9.1055 8.77124 9.1055H9.63886C9.8636 9.1055 10.0537 8.93 10.0716 8.70598L10.1329 7.94016C10.4161 7.86272 10.6883 7.7499 10.9439 7.60386L11.529 8.10228C11.7001 8.24802 11.9586 8.23774 12.1176 8.07879L12.7311 7.46528C12.89 7.30636 12.9003 7.04785 12.7545 6.87679L12.2561 6.29166C12.4021 6.03608 12.515 5.76387 12.5924 5.48062L13.3582 5.41934C13.5823 5.40143 13.7578 5.21134 13.7578 4.98657V4.11895C13.7578 3.89419 13.5823 3.70412 13.3583 3.68618L12.5924 3.62491C12.515 3.34165 12.4021 3.06945 12.2561 2.81386L12.7546 2.22873C12.9003 2.05764 12.8899 1.79914 12.7311 1.64024L12.1176 1.0267C11.9587 0.867781 11.7002 0.857473 11.5291 1.00321L10.944 1.50164C10.6884 1.35562 10.4162 1.24277 10.133 1.16536L10.0717 0.39952C10.0538 0.175492 9.86368 0 9.63894 0H8.77132C8.54659 0 8.35649 0.175492 8.33856 0.39952L8.2773 1.16534C7.99408 1.24275 7.72187 1.35562 7.46626 1.50164L6.88108 1.00321C6.70999 0.857418 6.45148 0.867754 6.29256 1.0267L5.67907 1.64019C5.52015 1.79911 5.50982 2.05762 5.65556 2.22871L6.15398 2.81384C6.00802 3.06942 5.89514 3.34157 5.81768 3.62488L5.05189 3.68616C4.82784 3.70407 4.65234 3.89416 4.65234 4.11893V4.98654C4.65234 5.21131 4.82784 5.40143 5.05186 5.41931ZM5.0625 4.11893C5.0625 4.10651 5.07218 4.09601 5.08462 4.095L5.9226 4.02793C6.05459 4.01737 6.16478 3.92421 6.19677 3.79622C6.27041 3.50249 6.38698 3.22142 6.54319 2.96081C6.61103 2.84752 6.59903 2.70375 6.5132 2.60302L5.96782 1.96276C5.95976 1.9533 5.96033 1.939 5.96914 1.93022L6.58265 1.31671C6.5914 1.30793 6.6057 1.30736 6.61513 1.31543L7.25544 1.86082C7.35618 1.94663 7.49995 1.95863 7.61329 1.89077C7.87387 1.73455 8.15491 1.61801 8.44861 1.5444C8.57664 1.51233 8.66977 1.40216 8.68038 1.2702L8.7474 0.432223C8.74841 0.419836 8.75891 0.410129 8.77132 0.410129H9.63894C9.65136 0.410129 9.66186 0.419836 9.66284 0.432223L9.72991 1.27028C9.7405 1.40219 9.83363 1.51236 9.96165 1.54443C10.2553 1.61804 10.5364 1.73458 10.797 1.89079C10.9103 1.95871 11.0541 1.94666 11.1549 1.86085L11.7952 1.31543C11.8046 1.30741 11.8189 1.30796 11.8276 1.31674L12.4412 1.93025C12.4499 1.93903 12.4505 1.95333 12.4425 1.96276L11.897 2.60304C11.8112 2.70378 11.7992 2.84755 11.8671 2.96086C12.0233 3.22145 12.1399 3.50249 12.2135 3.79622C12.2456 3.92427 12.3558 4.01737 12.4876 4.02793L13.3256 4.095C13.338 4.09598 13.3477 4.10648 13.3477 4.11893V4.98654C13.3477 4.99898 13.3381 5.00948 13.3256 5.01047L12.4877 5.07752C12.3558 5.08807 12.2456 5.1812 12.2135 5.30925C12.1399 5.60301 12.0233 5.88405 11.8671 6.14466C11.7992 6.25795 11.8112 6.40172 11.8971 6.50245L12.4425 7.14273C12.4505 7.1522 12.4499 7.1665 12.4412 7.17527L11.8277 7.78876C11.8189 7.79756 11.8046 7.79814 11.7951 7.79007L11.1549 7.24467C11.0541 7.15884 10.9103 7.14678 10.797 7.2147C10.5364 7.37092 10.2553 7.48746 9.96165 7.56107C9.83363 7.59314 9.7405 7.70331 9.72989 7.83527L9.66287 8.67325C9.66186 8.68563 9.65136 8.69534 9.63894 8.69534H8.77132C8.75891 8.69534 8.74841 8.68563 8.74743 8.67325L8.68035 7.83519C8.66977 7.70328 8.57664 7.59311 8.44861 7.56104C8.15494 7.48743 7.87387 7.37089 7.61326 7.21465C7.56434 7.18534 7.50974 7.17093 7.45538 7.17093C7.38385 7.17093 7.3127 7.19586 7.25544 7.24462L6.61513 7.79004C6.60573 7.79805 6.59143 7.79751 6.58265 7.78873L5.96911 7.17522C5.96033 7.16644 5.95976 7.15214 5.9678 7.14271L6.51322 6.50243C6.59905 6.40164 6.61106 6.25781 6.54316 6.14461C6.38695 5.88402 6.27041 5.60295 6.19683 5.30925C6.16473 5.1812 6.05453 5.08807 5.92263 5.07752L5.08462 5.01047C5.07223 5.00948 5.06253 4.99898 5.06253 4.98654V4.11893H5.0625Z" fill="#424242"/>
    <path d="M10.1779 4.55261C10.1779 4.01621 9.74148 3.57983 9.20508 3.57983C8.66868 3.57983 8.2323 4.01621 8.2323 4.55261C8.2323 5.08902 8.66868 5.5254 9.20508 5.5254C9.74148 5.5254 10.1779 5.08902 10.1779 4.55261ZM8.64243 4.55261C8.64243 4.24237 8.89481 3.98999 9.20505 3.98999C9.5153 3.98999 9.76768 4.24237 9.76768 4.55261C9.76768 4.86286 9.5153 5.11524 9.20505 5.11524C8.89481 5.11524 8.64243 4.86286 8.64243 4.55261Z" fill="#424242"/>
    <path d="M9.20508 6.98814C10.5479 6.98814 11.6403 5.89571 11.6403 4.55291C11.6403 3.21011 10.5479 2.11768 9.20508 2.11768C8.8484 2.11768 8.50467 2.19317 8.18343 2.34203C8.08065 2.38966 8.03594 2.51156 8.0836 2.61432C8.13123 2.71711 8.25318 2.76181 8.35589 2.71415C8.62271 2.59053 8.9084 2.52783 9.2051 2.52783C10.3217 2.52783 11.2302 3.43627 11.2302 4.55291C11.2302 5.66952 10.3217 6.57799 9.2051 6.57799C8.08863 6.57799 7.1803 5.66955 7.1803 4.55291C7.1803 4.06712 7.35497 3.59733 7.67213 3.23007C7.74615 3.14435 7.73666 3.01485 7.65097 2.94083C7.56527 2.86684 7.43577 2.87625 7.3617 2.962C6.98025 3.40371 6.77014 3.96871 6.77014 4.55291C6.77011 5.89568 7.86242 6.98814 9.20508 6.98814Z" fill="#424242"/>
    <path d="M0.300947 8.51466L0.660791 9.1379C0.772682 9.33163 1.01153 9.40997 1.21628 9.32012L1.68399 9.11502C1.79022 9.19078 1.90324 9.25608 2.02185 9.31028L2.0781 9.81767C2.10265 10.04 2.2899 10.2077 2.51363 10.2077H3.23332C3.45702 10.2077 3.64424 10.0401 3.66888 9.81772L3.72512 9.31031C3.84377 9.25614 3.95678 9.19081 4.06296 9.11504L4.53067 9.32012C4.73542 9.40997 4.97432 9.33166 5.08616 9.13793L5.446 8.51468C5.55787 8.32095 5.50627 8.07497 5.32605 7.94249L4.91469 7.64007C4.92089 7.57502 4.92401 7.50972 4.92401 7.44491C4.92401 7.38011 4.92089 7.31481 4.91469 7.24976L5.32605 6.94734C5.50627 6.81486 5.55787 6.56887 5.446 6.37514L5.08616 5.7519C4.97427 5.55817 4.73542 5.47988 4.5307 5.56968L4.06296 5.77479C3.95675 5.69902 3.84374 5.63372 3.72512 5.57952L3.66888 5.07211C3.64427 4.84977 3.45702 4.68213 3.23332 4.68213H2.51363C2.2899 4.68213 2.10268 4.8498 2.0781 5.07211L2.02185 5.57952C1.90321 5.63369 1.7902 5.69902 1.68399 5.77479L1.21628 5.56968C1.01142 5.47986 0.7726 5.5582 0.660791 5.7519L0.300947 6.37514C0.189111 6.56882 0.240682 6.8148 0.420904 6.94734L0.832264 7.24976C0.826057 7.31481 0.822939 7.38011 0.822939 7.44491C0.822939 7.50972 0.826057 7.57499 0.832264 7.64007L0.420877 7.94249C0.240682 8.07497 0.189111 8.32095 0.300947 8.51466ZM0.663826 8.27291L1.17217 7.8992C1.23392 7.85381 1.2652 7.7778 1.2533 7.70211C1.2399 7.61688 1.2331 7.53034 1.2331 7.44489C1.2331 7.35944 1.2399 7.27289 1.2533 7.18766C1.26522 7.11195 1.23392 7.03596 1.17217 6.99057L0.663853 6.61686C0.652287 6.60836 0.648978 6.59261 0.656143 6.58022L1.01599 5.95698C1.02315 5.94454 1.03841 5.93953 1.05159 5.9453L1.62974 6.19883C1.70002 6.22965 1.78164 6.21868 1.84125 6.17031C1.97531 6.06159 2.12494 5.97513 2.28599 5.91331C2.35758 5.88583 2.40787 5.82067 2.41631 5.74443L2.4858 5.11722C2.48738 5.103 2.49936 5.09229 2.51369 5.09229H3.23337C3.2477 5.09229 3.25971 5.10303 3.26129 5.11728L3.33077 5.74443C3.33922 5.82067 3.38948 5.88583 3.46109 5.91331C3.62215 5.97513 3.77174 6.06159 3.90578 6.17028C3.96542 6.21866 4.04704 6.22965 4.11731 6.19883L4.69553 5.9453C4.70862 5.93956 4.72391 5.94459 4.73107 5.95698L5.09092 6.58022C5.09808 6.59264 5.09477 6.60839 5.08323 6.61686L4.57488 6.99057C4.51314 7.03596 4.48186 7.11198 4.49376 7.18766C4.50715 7.27289 4.51396 7.35944 4.51396 7.44489C4.51396 7.53034 4.50715 7.61688 4.49376 7.70211C4.48183 7.7778 4.51314 7.85381 4.57488 7.8992L5.08323 8.27291C5.0948 8.28141 5.09808 8.29716 5.09092 8.30955L4.73107 8.9328C4.72391 8.94521 4.70865 8.95016 4.6955 8.94445L4.11731 8.69091C4.0471 8.66013 3.96542 8.67109 3.90578 8.71946C3.77177 8.82818 3.62215 8.91464 3.46109 8.97644C3.38951 9.00392 3.33922 9.06908 3.33077 9.14531L3.26129 9.77247C3.25971 9.78671 3.24773 9.79746 3.23337 9.79746H2.51369C2.49938 9.79746 2.48738 9.78674 2.4858 9.77247L2.41631 9.14531C2.40787 9.06908 2.35761 9.00392 2.28599 8.97644C2.12494 8.91461 1.97534 8.82815 1.84125 8.71943C1.80406 8.68925 1.75831 8.67363 1.71205 8.67363C1.68419 8.67363 1.65613 8.67932 1.62972 8.69089L1.05156 8.94442C1.03841 8.95016 1.02312 8.94516 1.01596 8.93277L0.656115 8.30952C0.648978 8.29716 0.652314 8.28139 0.663826 8.27291Z" fill="#424242"/>
    <path d="M2.08654 7.82495C2.19723 7.80094 2.2675 7.69173 2.24347 7.58104C2.23384 7.53675 2.229 7.49075 2.229 7.44432C2.229 7.08894 2.51811 6.79983 2.8735 6.79983C3.22872 6.79983 3.51774 7.08897 3.51774 7.44432C3.51774 7.79955 3.22875 8.08854 2.8735 8.08854C2.82439 8.08854 2.77588 8.08305 2.72931 8.07225C2.61884 8.04668 2.50879 8.11531 2.48316 8.22564C2.45754 8.33598 2.52623 8.44617 2.63654 8.47177C2.71348 8.48962 2.79319 8.49867 2.8735 8.49867C3.45491 8.49867 3.9279 8.02568 3.9279 7.4443C3.9279 6.86275 3.45491 6.38965 2.8735 6.38965C2.29195 6.38965 1.81885 6.86278 1.81885 7.4443C1.81885 7.5199 1.82686 7.59515 1.84266 7.66797C1.86667 7.77871 1.97588 7.84898 2.08654 7.82495Z" fill="#424242"/>
</svg>